<svg width="201" height="59" viewBox="0 0 201 59" fill="none" xmlns="http://www.w3.org/2000/svg">
<path d="M201 52.2863C201 55.443 198.425 58 195.241 58H6.76678C3.58371 58 1 55.443 1 52.2863V6.72118C1 3.56595 3.58371 1 6.76678 1H195.239C198.425 1 200.999 3.56595 200.999 6.72118L201 52.2863Z" fill="white" fill-opacity="0.2"/>
<path d="M193.556 1.18184C197.002 1.18184 199.807 3.96037 199.807 7.375V51.625C199.807 55.0396 197.002 57.8182 193.556 57.8182H7.44444C3.99767 57.8182 1.19297 55.0396 1.19297 51.625V7.375C1.19297 3.96037 3.99767 1.18184 7.44444 1.18184H193.556ZM193.556 7.56029e-07H7.44444C3.35186 7.56029e-07 0 3.32059 0 7.375V51.625C0 55.6794 3.35186 59 7.44444 59H193.556C197.648 59 201 55.6794 201 51.625V7.375C201 3.32059 197.648 7.56029e-07 193.556 7.56029e-07Z" fill="white"/>
<path d="M45.5783 29.1812C45.5344 24.4273 49.5706 22.1145 49.7552 22.0068C47.4693 18.7574 43.9263 18.3134 42.6812 18.278C39.7055 17.9727 36.819 20.0141 35.3032 20.0141C33.7571 20.0141 31.4228 18.3075 28.907 18.3577C25.6695 18.4064 22.6409 20.2339 20.9798 23.0718C17.5518 28.8582 20.1084 37.3616 23.3928 42.0388C25.0357 44.3295 26.9554 46.8871 29.4682 46.7972C31.9266 46.6983 32.8449 45.2691 35.8115 45.2691C38.7509 45.2691 39.6132 46.7972 42.1759 46.7396C44.8143 46.6983 46.4754 44.4386 48.0608 42.1273C49.9594 39.5018 50.7219 36.9161 50.7521 36.7834C50.6901 36.7627 45.6282 34.8792 45.5783 29.1812Z" fill="white"/>
<path d="M40.7372 15.2012C42.0594 13.589 42.9641 11.3957 42.713 9.16992C40.7993 9.25252 38.406 10.4605 37.0278 12.0373C35.8085 13.4268 34.7192 15.7042 35.0006 17.8459C37.1503 18.0022 39.3575 16.7883 40.7372 15.2012Z" fill="white"/>
<path d="M81.1552 46.4682H77.7196L75.8377 40.7024H69.2962L67.5035 46.4682H64.1587L70.6396 26.8389H74.6425L81.1552 46.4682ZM75.2704 38.2834L73.5684 33.1578C73.3884 32.6341 73.051 31.401 72.5533 29.4599H72.4928C72.2946 30.2948 71.9754 31.5279 71.5367 33.1578L69.865 38.2834H75.2704Z" fill="white"/>
<path d="M97.822 39.217C97.822 41.6242 97.1548 43.527 95.8205 44.9238C94.6254 46.1672 93.1413 46.7882 91.3698 46.7882C89.4576 46.7882 88.0839 46.1185 87.2473 44.7792H87.1868V52.2354H83.9615V36.9735C83.9615 35.4602 83.9206 33.907 83.842 32.314H86.6785L86.8585 34.5575H86.9191C87.9947 32.8671 89.627 32.0234 91.8176 32.0234C93.5301 32.0234 94.9597 32.6828 96.1034 34.0029C97.2501 35.3245 97.822 37.062 97.822 39.217ZM94.5361 39.3321C94.5361 37.9544 94.2184 36.8187 93.58 35.9248C92.8826 34.9926 91.9462 34.5265 90.7722 34.5265C89.9765 34.5265 89.2533 34.7861 88.6074 35.2979C87.9599 35.8142 87.5363 36.4883 87.3381 37.3231C87.2383 37.7125 87.1883 38.0311 87.1883 38.2819V40.6419C87.1883 41.6714 87.5121 42.5402 88.1596 43.2497C88.8071 43.9591 89.6482 44.3131 90.683 44.3131C91.8977 44.3131 92.8433 43.8559 93.5195 42.9443C94.1972 42.0313 94.5361 40.8277 94.5361 39.3321Z" fill="white"/>
<path d="M114.519 39.217C114.519 41.6242 113.852 43.527 112.516 44.9238C111.322 46.1672 109.838 46.7882 108.067 46.7882C106.155 46.7882 104.781 46.1185 103.946 44.7792H103.885V52.2354H100.66V36.9735C100.66 35.4602 100.619 33.907 100.541 32.314H103.377L103.557 34.5575H103.618C104.692 32.8671 106.324 32.0234 108.516 32.0234C110.227 32.0234 111.657 32.6828 112.803 34.0029C113.946 35.3245 114.519 37.062 114.519 39.217ZM111.233 39.3321C111.233 37.9544 110.914 36.8187 110.276 35.9248C109.578 34.9926 108.645 34.5265 107.469 34.5265C106.672 34.5265 105.95 34.7861 105.303 35.2979C104.655 35.8142 104.233 36.4883 104.035 37.3231C103.937 37.7125 103.885 38.0311 103.885 38.2819V40.6419C103.885 41.6714 104.209 42.5402 104.854 43.2497C105.501 43.9577 106.342 44.3131 107.38 44.3131C108.595 44.3131 109.54 43.8559 110.217 42.9443C110.894 42.0313 111.233 40.8277 111.233 39.3321Z" fill="white"/>
<path d="M133.187 40.9635C133.187 42.6332 132.593 43.9917 131.399 45.0404C130.087 46.1865 128.261 46.7588 125.915 46.7588C123.749 46.7588 122.012 46.3517 120.697 45.536L121.445 42.9149C122.861 43.7498 124.414 44.1687 126.107 44.1687C127.322 44.1687 128.267 43.9002 128.947 43.3663C129.623 42.8323 129.96 42.1155 129.96 41.2216C129.96 40.4251 129.682 39.754 129.124 39.2097C128.569 38.6654 127.641 38.1595 126.346 37.6919C122.821 36.4102 121.06 34.5325 121.06 32.0633C121.06 30.4497 121.678 29.1266 122.914 28.0971C124.145 27.066 125.788 26.5513 127.842 26.5513C129.674 26.5513 131.196 26.8625 132.411 27.4835L131.605 30.047C130.47 29.4452 129.187 29.1443 127.752 29.1443C126.617 29.1443 125.73 29.4172 125.095 29.96C124.558 30.4453 124.289 31.0367 124.289 31.7374C124.289 32.5132 124.596 33.1548 125.213 33.6593C125.75 34.1254 126.726 34.6298 128.142 35.1741C129.874 35.8541 131.146 36.6491 131.965 37.5607C132.78 38.4693 133.187 39.6065 133.187 40.9635Z" fill="white"/>
<path d="M143.851 34.6738H140.296V41.5459C140.296 43.2937 140.922 44.1669 142.178 44.1669C142.754 44.1669 143.232 44.1183 143.611 44.0209L143.7 46.4089C143.064 46.6405 142.228 46.757 141.192 46.757C139.918 46.757 138.922 46.378 138.204 45.6213C137.488 44.8631 137.128 43.5917 137.128 41.8055V34.6709H135.01V32.3109H137.128V29.7193L140.296 28.7871V32.3109H143.851V34.6738Z" fill="white"/>
<path d="M159.891 39.2745C159.891 41.4502 159.253 43.2364 157.979 44.6332C156.643 46.0713 154.87 46.7882 152.66 46.7882C150.53 46.7882 148.834 46.0994 147.57 44.7217C146.305 43.3441 145.672 41.605 145.672 39.5091C145.672 37.3157 146.323 35.5192 147.629 34.1224C148.931 32.7241 150.689 32.0249 152.899 32.0249C155.029 32.0249 156.743 32.7137 158.037 34.0929C159.274 35.4307 159.891 37.1579 159.891 39.2745ZM156.545 39.3763C156.545 38.0709 156.259 36.9514 155.68 36.0177C155.004 34.8879 154.037 34.3244 152.784 34.3244C151.488 34.3244 150.503 34.8894 149.827 36.0177C149.247 36.9529 148.961 38.0901 148.961 39.4353C148.961 40.7407 149.247 41.8602 149.827 42.7924C150.524 43.9223 151.498 44.4857 152.756 44.4857C153.987 44.4857 154.954 43.9105 155.651 42.7629C156.246 41.8115 156.545 40.6802 156.545 39.3763Z" fill="white"/>
<path d="M170.375 35.0796C170.056 35.0221 169.716 34.9926 169.359 34.9926C168.224 34.9926 167.347 35.41 166.729 36.2464C166.192 36.9839 165.923 37.9161 165.923 39.0415V46.4681H162.699L162.73 36.7715C162.73 35.1401 162.689 33.6548 162.609 32.3155H165.418L165.536 35.0236H165.625C165.965 34.0929 166.503 33.3436 167.238 32.7816C167.956 32.2757 168.732 32.0234 169.569 32.0234C169.867 32.0234 170.136 32.0441 170.375 32.081V35.0796Z" fill="white"/>
<path d="M184.8 38.7216C184.8 39.285 184.762 39.76 184.682 40.1479H175.006C175.044 41.5462 175.511 42.6156 176.41 43.3531C177.225 44.0124 178.28 44.3428 179.575 44.3428C181.007 44.3428 182.315 44.1201 183.49 43.6732L183.995 45.8562C182.622 46.4403 181 46.7308 179.129 46.7308C176.877 46.7308 175.11 46.0848 173.825 44.7942C172.542 43.5035 171.899 41.7704 171.899 39.5963C171.899 37.4619 172.496 35.6846 173.693 34.2671C174.946 32.7537 176.638 31.9971 178.768 31.9971C180.861 31.9971 182.445 32.7537 183.52 34.2671C184.372 35.4692 184.8 36.956 184.8 38.7216ZM181.725 37.9059C181.746 36.9737 181.535 36.1684 181.098 35.4884C180.54 34.6137 179.682 34.1771 178.528 34.1771C177.473 34.1771 176.616 34.6034 175.961 35.4589C175.424 36.1389 175.104 36.9545 175.006 37.9044H181.725V37.9059Z" fill="white"/>
<path d="M74.2039 14.7631C74.2039 16.4992 73.6699 17.806 72.6033 18.6836C71.6154 19.4934 70.2115 19.899 68.3931 19.899C67.4915 19.899 66.7199 19.8607 66.074 19.784V10.2983C66.9166 10.1655 67.8243 10.0977 68.8046 10.0977C70.5368 10.0977 71.8424 10.4649 72.7228 11.1995C73.7092 12.0299 74.2039 13.2173 74.2039 14.7631ZM72.5322 14.8059C72.5322 13.6804 72.2266 12.8176 71.6154 12.2158C71.0043 11.6154 70.1117 11.3145 68.9362 11.3145C68.437 11.3145 68.0119 11.347 67.6594 11.4148V18.6261C67.8546 18.6556 68.2116 18.6689 68.7305 18.6689C69.9438 18.6689 70.8802 18.34 71.5398 17.6821C72.1994 17.0243 72.5322 16.0655 72.5322 14.8059Z" fill="white"/>
<path d="M83.0675 16.2794C83.0675 17.3488 82.7544 18.2249 82.1281 18.9123C81.4715 19.6188 80.6016 19.9713 79.5154 19.9713C78.4685 19.9713 77.635 19.6335 77.0132 18.955C76.393 18.278 76.0828 17.424 76.0828 16.3944C76.0828 15.3177 76.402 14.4342 77.0435 13.7483C77.6849 13.0624 78.5472 12.7188 79.6334 12.7188C80.6803 12.7188 81.5214 13.0565 82.1583 13.7335C82.7634 14.3914 83.0675 15.241 83.0675 16.2794ZM81.4231 16.3295C81.4231 15.6879 81.2809 15.1377 80.998 14.679C80.6652 14.1244 80.1917 13.8471 79.5759 13.8471C78.939 13.8471 78.4549 14.1244 78.1221 14.679C77.8377 15.1377 77.697 15.6968 77.697 16.3576C77.697 16.9992 77.8392 17.5494 78.1221 18.0081C78.4655 18.5627 78.9436 18.84 79.5608 18.84C80.1659 18.84 80.641 18.5583 80.9829 17.9933C81.2763 17.5258 81.4231 16.9712 81.4231 16.3295Z" fill="white"/>
<path d="M94.9522 12.8604L92.7208 19.8135H91.2685L90.3441 16.7942C90.1097 16.0405 89.919 15.2912 89.7708 14.5478H89.742C89.6044 15.3118 89.4138 16.0596 89.1687 16.7942L88.1869 19.8135H86.7179L84.6196 12.8604H86.2489L87.0553 16.1658C87.2504 16.9476 87.4108 17.6925 87.5394 18.3975H87.5681C87.6861 17.8164 87.8813 17.0759 88.1566 16.1806L89.1687 12.8618H90.4606L91.4303 16.1098C91.6648 16.9019 91.8554 17.6644 92.0022 18.399H92.0461C92.1535 17.6836 92.3153 16.921 92.5302 16.1098L93.3955 12.8618H94.9522V12.8604Z" fill="white"/>
<path d="M103.171 19.8135H101.586V15.831C101.586 14.6038 101.108 13.9902 100.149 13.9902C99.6783 13.9902 99.2986 14.1584 99.0036 14.4962C98.7116 14.8339 98.5633 15.2322 98.5633 15.688V19.8121H96.9779V14.8472C96.9779 14.2366 96.9582 13.5743 96.9204 12.8574H98.3137L98.3878 13.9445H98.4317C98.6163 13.6067 98.8916 13.328 99.2532 13.1052C99.6828 12.8456 100.164 12.7144 100.69 12.7144C101.356 12.7144 101.91 12.9238 102.35 13.3442C102.898 13.859 103.171 14.6274 103.171 15.6481V19.8135Z" fill="white"/>
<path d="M107.543 19.8135H105.96V9.66992H107.543V19.8135Z" fill="white"/>
<path d="M116.878 16.2794C116.878 17.3488 116.564 18.2249 115.938 18.9123C115.281 19.6188 114.41 19.9713 113.325 19.9713C112.277 19.9713 111.443 19.6335 110.823 18.955C110.203 18.278 109.893 17.424 109.893 16.3944C109.893 15.3177 110.212 14.4342 110.853 13.7483C111.495 13.0624 112.357 12.7188 113.442 12.7188C114.49 12.7188 115.33 13.0565 115.968 13.7335C116.573 14.3914 116.878 15.241 116.878 16.2794ZM115.232 16.3295C115.232 15.6879 115.089 15.1377 114.806 14.679C114.475 14.1244 114 13.8471 113.386 13.8471C112.748 13.8471 112.263 14.1244 111.932 14.679C111.648 15.1377 111.507 15.6968 111.507 16.3576C111.507 16.9992 111.649 17.5494 111.932 18.0081C112.276 18.5627 112.754 18.84 113.371 18.84C113.976 18.84 114.449 18.5583 114.791 17.9933C115.086 17.5258 115.232 16.9712 115.232 16.3295Z" fill="white"/>
<path d="M124.551 19.8135H123.127L123.009 19.0126H122.965C122.478 19.6512 121.784 19.9713 120.882 19.9713C120.209 19.9713 119.664 19.7604 119.254 19.3415C118.882 18.9609 118.696 18.4875 118.696 17.9255C118.696 17.0759 119.059 16.4284 119.79 15.98C120.519 15.5316 121.545 15.3118 122.865 15.3221V15.1923C122.865 14.2763 122.372 13.8191 121.384 13.8191C120.681 13.8191 120.06 13.9917 119.525 14.3339L119.203 13.3191C119.865 12.9193 120.684 12.7188 121.649 12.7188C123.513 12.7188 124.448 13.6775 124.448 15.595V18.1556C124.448 18.8503 124.482 19.4034 124.551 19.8135ZM122.905 17.424V16.3517C121.156 16.3222 120.281 16.7897 120.281 17.7529C120.281 18.1158 120.381 18.3872 120.585 18.5686C120.79 18.75 121.05 18.84 121.36 18.84C121.708 18.84 122.033 18.7323 122.33 18.5184C122.628 18.3031 122.811 18.0302 122.879 17.6954C122.896 17.6202 122.905 17.5287 122.905 17.424Z" fill="white"/>
<path d="M133.559 19.8135H132.152L132.078 18.6969H132.034C131.585 19.5465 130.82 19.9713 129.744 19.9713C128.885 19.9713 128.169 19.6424 127.602 18.9845C127.035 18.3267 126.752 17.4727 126.752 16.4239C126.752 15.2985 127.059 14.387 127.676 13.6908C128.274 13.0418 129.006 12.7173 129.877 12.7173C130.835 12.7173 131.505 13.0314 131.886 13.6613H131.916V9.66992H133.503V17.9402C133.503 18.6173 133.522 19.2412 133.559 19.8135ZM131.916 16.8812V15.7218C131.916 15.5212 131.901 15.359 131.873 15.2351C131.783 14.8634 131.591 14.5507 131.299 14.2985C131.004 14.0462 130.649 13.9194 130.239 13.9194C129.647 13.9194 129.184 14.148 128.844 14.6067C128.507 15.0655 128.336 15.651 128.336 16.3664C128.336 17.0538 128.497 17.6113 128.823 18.0405C129.166 18.4978 129.629 18.7264 130.208 18.7264C130.729 18.7264 131.145 18.5361 131.461 18.1541C131.767 17.8016 131.916 17.3768 131.916 16.8812Z" fill="white"/>
<path d="M147.119 16.2794C147.119 17.3488 146.806 18.2249 146.179 18.9123C145.523 19.6188 144.654 19.9713 143.567 19.9713C142.521 19.9713 141.688 19.6335 141.064 18.955C140.444 18.278 140.134 17.424 140.134 16.3944C140.134 15.3177 140.453 14.4342 141.095 13.7483C141.736 13.0624 142.598 12.7188 143.686 12.7188C144.732 12.7188 145.574 13.0565 146.21 13.7335C146.815 14.3914 147.119 15.241 147.119 16.2794ZM145.476 16.3295C145.476 15.6879 145.334 15.1377 145.051 14.679C144.716 14.1244 144.244 13.8471 143.627 13.8471C142.992 13.8471 142.508 14.1244 142.173 14.679C141.889 15.1377 141.748 15.6968 141.748 16.3576C141.748 16.9992 141.89 17.5494 142.173 18.0081C142.517 18.5627 142.995 18.84 143.612 18.84C144.217 18.84 144.694 18.5583 145.036 17.9933C145.328 17.5258 145.476 16.9712 145.476 16.3295Z" fill="white"/>
<path d="M155.644 19.8135H154.06V15.831C154.06 14.6038 153.582 13.9902 152.621 13.9902C152.15 13.9902 151.771 14.1584 151.477 14.4962C151.184 14.8339 151.037 15.2322 151.037 15.688V19.8121H149.45V14.8472C149.45 14.2366 149.432 13.5743 149.394 12.8574H150.786L150.86 13.9445H150.904C151.09 13.6067 151.365 13.328 151.725 13.1052C152.157 12.8456 152.636 12.7144 153.164 12.7144C153.828 12.7144 154.382 12.9238 154.822 13.3442C155.371 13.859 155.644 14.6274 155.644 15.6481V19.8135Z" fill="white"/>
<path d="M166.313 14.0184H164.568V17.3962C164.568 18.2546 164.878 18.6839 165.492 18.6839C165.776 18.6839 166.012 18.6603 166.198 18.6116L166.239 19.7842C165.926 19.8993 165.515 19.9568 165.008 19.9568C164.382 19.9568 163.894 19.7709 163.542 19.3992C163.188 19.0275 163.012 18.4021 163.012 17.5245V14.0184H161.97V12.8606H163.012V11.5862L164.566 11.1289V12.8591H166.312V14.0184H166.313Z" fill="white"/>
<path d="M174.707 19.8135H173.12V15.8605C173.12 14.6141 172.642 13.9902 171.684 13.9902C170.949 13.9902 170.446 14.3516 170.171 15.0743C170.124 15.2262 170.097 15.4121 170.097 15.6304V19.812H168.513V9.66992H170.097V13.8604H170.127C170.626 13.0978 171.342 12.7173 172.269 12.7173C172.926 12.7173 173.469 12.9267 173.9 13.3471C174.437 13.8707 174.707 14.6495 174.707 15.6791V19.8135Z" fill="white"/>
<path d="M183.364 16.0081C183.364 16.2854 183.343 16.5184 183.305 16.7087H178.551C178.572 17.3961 178.799 17.9197 179.239 18.2825C179.641 18.607 180.16 18.7693 180.796 18.7693C181.499 18.7693 182.141 18.6601 182.718 18.4404L182.967 19.5142C182.29 19.8003 181.495 19.9434 180.573 19.9434C179.469 19.9434 178.599 19.6263 177.97 18.992C177.337 18.3578 177.024 17.5067 177.024 16.4388C177.024 15.3901 177.316 14.5169 177.905 13.8207C178.519 13.0773 179.349 12.7056 180.398 12.7056C181.424 12.7056 182.203 13.0773 182.729 13.8207C183.154 14.4107 183.364 15.1408 183.364 16.0081ZM181.852 15.6084C181.864 15.1496 181.759 14.7543 181.545 14.421C181.269 13.9918 180.85 13.7764 180.283 13.7764C179.765 13.7764 179.343 13.9859 179.021 14.4062C178.758 14.7411 178.602 15.1408 178.551 15.6084H181.852Z" fill="white"/>
</svg>
