<svg width="149" height="143" viewBox="0 0 149 143" fill="none" xmlns="http://www.w3.org/2000/svg">
<rect y="35.6002" width="104" height="104" rx="30" transform="rotate(-20.0177 0 35.6002)" fill="url(#paint0_linear_5182_820)"/>
<g filter="url(#filter0_f_5182_820)">
<rect x="23.4131" y="46.5091" width="85.7355" height="85.7355" rx="30" transform="rotate(-20.0177 23.4131 46.5091)" fill="url(#paint1_linear_5182_820)"/>
</g>
<path d="M73.3579 86.9575C67.673 88.9569 61.7055 88.4965 56.6292 86.1259C51.4947 83.7265 47.2726 79.368 45.1763 73.6139C43.0799 67.8598 43.514 61.8028 45.9095 56.6601C48.3049 51.5175 52.6611 47.2873 58.4109 45.1925C64.1608 43.0977 70.2191 43.5337 75.3612 45.9303C80.5015 48.3276 84.7307 52.6878 86.8264 58.44C89.2252 65.0243 89.1999 71.888 87.2051 78.0532C85.5041 83.3164 82.3714 88.0782 78.0921 91.7397L76.8864 88.4302C76.3947 87.0804 74.9009 86.3844 73.5534 86.8754C73.4864 86.8998 73.4208 86.928 73.3579 86.9575ZM68.653 73.3054C67.3055 73.7963 65.8118 73.1004 65.32 71.7505L64.4301 69.3077C63.9383 67.9579 64.635 66.4661 65.9825 65.9752C67.33 65.4843 68.823 66.1783 69.3148 67.5282L70.2047 69.9709C70.6965 71.3208 70.0024 72.8138 68.653 73.3054ZM57.1049 71.9764C55.7555 72.4681 54.2644 71.7733 53.7726 70.4235C53.2808 69.0736 53.9749 67.5806 55.3243 67.089C56.6737 66.5974 58.1655 67.294 58.6573 68.6439C59.1491 69.9937 58.4524 71.4855 57.1049 71.9764ZM76.6418 64.8588C75.2924 65.3504 73.8013 64.6556 73.3095 63.3058C72.8177 61.9559 73.5118 60.4629 74.8612 59.9713C76.2106 59.4797 77.7024 60.1764 78.1942 61.5262C78.686 62.8761 77.9893 64.3678 76.6418 64.8588ZM90.06 52.9854C91.9611 51.0266 93.2587 48.6252 93.8852 46.06C94.5866 43.2004 94.4612 40.1425 93.4141 37.2683C91.9827 33.3395 89.0963 30.3623 85.5876 28.7237C82.0789 27.0852 77.9478 26.7853 74.0258 28.2142C71.7079 29.0586 69.6615 30.4579 68.0316 32.2506C66.4067 34.0393 65.2091 36.2153 64.5857 38.6165L64.8039 38.6738C62.0808 38.7928 59.328 39.3244 56.631 40.307C53.9341 41.2895 51.4864 42.6525 49.3249 44.3131L49.455 44.1289C47.4312 42.6921 45.1165 41.7957 42.7199 41.4721C40.3188 41.148 37.8538 41.3924 35.5339 42.2375C31.612 43.6664 28.6419 46.5533 27.0095 50.0648C25.377 53.5764 25.0841 57.712 26.5154 61.6407C27.5626 64.5149 29.4317 66.9376 31.8082 68.6759C33.9398 70.2363 36.478 71.2402 39.1937 71.517C39.461 72.8162 39.8268 74.112 40.2935 75.3928C42.876 82.4814 48.0865 87.8568 54.4254 90.8186C60.0302 93.4376 66.5138 94.1661 72.8449 92.5241L74.4131 96.8287L74.415 96.828C74.4863 97.0236 74.5838 97.2139 74.7055 97.3933C75.5073 98.5824 77.1211 98.8937 78.3096 98.0914C84.9403 93.6059 89.7396 87.0511 92.1309 79.6533C94.4767 72.4046 94.5151 64.3568 91.7111 56.6604C91.2445 55.3796 90.691 54.1521 90.06 52.9854ZM69.9175 38.9328C70.363 37.7454 71.0236 36.6663 71.8583 35.7498C72.9148 34.5851 74.2639 33.6701 75.8085 33.1074C78.383 32.1695 81.0931 32.3658 83.3948 33.4407C85.6965 34.5156 87.5898 36.469 88.5293 39.0479C89.2223 40.95 89.3091 42.9556 88.8524 44.8204C88.5252 46.1602 87.919 47.4301 87.0576 48.541C84.4481 45.3955 81.1856 42.9092 77.5554 41.2172C75.1447 40.093 72.5711 39.3191 69.9175 38.9328ZM45.5763 47.8008C43.7931 49.8035 42.3203 52.0515 41.1977 54.463C39.5067 58.0936 38.6081 62.0959 38.6316 66.1835C37.2574 65.887 35.9764 65.3047 34.8641 64.4893C33.3149 63.3553 32.0931 61.7632 31.4002 59.8612C30.4606 57.2822 30.6536 54.5687 31.7226 52.2658C32.7935 49.9623 34.7441 48.0679 37.3166 47.1307C38.8613 46.568 40.4828 46.4007 42.0428 46.6121C43.2703 46.7796 44.4714 47.1782 45.5763 47.8008Z" fill="#F8F9FE"/>
<defs>
<filter id="filter0_f_5182_820" x="7.87012" y="1.61802" width="140.99" height="140.99" filterUnits="userSpaceOnUse" color-interpolation-filters="sRGB">
<feFlood flood-opacity="0" result="BackgroundImageFix"/>
<feBlend mode="normal" in="SourceGraphic" in2="BackgroundImageFix" result="shape"/>
<feGaussianBlur stdDeviation="12" result="effect1_foregroundBlur_5182_820"/>
</filter>
<linearGradient id="paint0_linear_5182_820" x1="0" y1="87.6002" x2="104" y2="87.6002" gradientUnits="userSpaceOnUse">
<stop stop-color="#A055FD"/>
<stop offset="1" stop-color="#E24A9A"/>
</linearGradient>
<linearGradient id="paint1_linear_5182_820" x1="23.4131" y1="89.3769" x2="109.149" y2="89.3769" gradientUnits="userSpaceOnUse">
<stop stop-color="#A055FD"/>
<stop offset="1" stop-color="#E24A9A"/>
</linearGradient>
</defs>
</svg>
