<svg width="32" height="32" viewBox="0 0 32 32" fill="none" xmlns="http://www.w3.org/2000/svg">
<g filter="url(#filter0_i_3998_2210)">
<path fill-rule="evenodd" clip-rule="evenodd" d="M29.3334 15.9998C29.3334 23.3636 23.3638 29.3332 16 29.3332C8.63622 29.3332 2.66669 23.3636 2.66669 15.9998C2.66669 8.63604 8.63622 2.6665 16 2.6665C23.3638 2.6665 29.3334 8.63604 29.3334 15.9998ZM21.3738 11.9594C21.7643 12.3499 21.7643 12.9831 21.3738 13.3736L14.7071 20.0403C14.3166 20.4308 13.6834 20.4308 13.2929 20.0403L10.6262 17.3736C10.2357 16.9831 10.2357 16.3499 10.6262 15.9594C11.0168 15.5689 11.6499 15.5689 12.0405 15.9594L14 17.919L16.9798 14.9392L19.9596 11.9594C20.3501 11.5689 20.9833 11.5689 21.3738 11.9594Z" fill="url(#paint0_linear_3998_2210)"/>
</g>
<defs>
<filter id="filter0_i_3998_2210" x="2.66669" y="2.6665" width="26.6667" height="26.6665" filterUnits="userSpaceOnUse" color-interpolation-filters="sRGB">
<feFlood flood-opacity="0" result="BackgroundImageFix"/>
<feBlend mode="normal" in="SourceGraphic" in2="BackgroundImageFix" result="shape"/>
<feColorMatrix in="SourceAlpha" type="matrix" values="0 0 0 0 0 0 0 0 0 0 0 0 0 0 0 0 0 0 127 0" result="hardAlpha"/>
<feOffset/>
<feGaussianBlur stdDeviation="0.5"/>
<feComposite in2="hardAlpha" operator="arithmetic" k2="-1" k3="1"/>
<feColorMatrix type="matrix" values="0 0 0 0 1 0 0 0 0 1 0 0 0 0 1 0 0 0 1 0"/>
<feBlend mode="normal" in2="shape" result="effect1_innerShadow_3998_2210"/>
</filter>
<linearGradient id="paint0_linear_3998_2210" x1="29.3334" y1="15.9998" x2="2.66669" y2="15.9998" gradientUnits="userSpaceOnUse">
<stop stop-color="#44B981"/>
<stop offset="1" stop-color="#4EC461"/>
</linearGradient>
</defs>
</svg>
