<svg width="339" height="135" viewBox="0 0 339 135" fill="none" xmlns="http://www.w3.org/2000/svg">
<g clip-path="url(#clip0_5144_674)">
<rect x="13.3931" width="330" height="81" rx="24" transform="rotate(9.51728 13.3931 0)" fill="white" fill-opacity="0.08"/>
<rect x="26.5273" y="18.4253" width="48" height="48" rx="24" transform="rotate(9.51728 26.5273 18.4253)" fill="url(#paint0_linear_5144_674)"/>
<g filter="url(#filter2_i_5144_674)">
<path d="M47.5775 31.7984C48.1656 31.1112 49.2737 31.297 49.6055 32.1384L52.4346 39.3121C52.5538 39.6144 52.7905 39.8554 53.0906 39.98L60.212 42.9381C61.0473 43.2851 61.2131 44.3964 60.5153 44.972L54.567 49.8794C54.3164 50.0862 54.1603 50.3858 54.1345 50.7097L53.5218 58.3966C53.4499 59.2983 52.4442 59.7993 51.6812 59.3136L45.1759 55.1729C44.9018 54.9984 44.5686 54.9425 44.2525 55.0181L36.7525 56.8108C35.8727 57.0211 35.0855 56.2194 35.3116 55.3437L37.2394 47.8772C37.3206 47.5626 37.2708 47.2284 37.1013 46.9512L33.0787 40.3722C32.6069 39.6005 33.126 38.604 34.0288 38.5485L41.7256 38.0747C42.0499 38.0547 42.3523 37.904 42.5635 37.6572L47.5775 31.7984Z" fill="url(#paint1_linear_5144_674)"/>
</g>
<path d="M83.598 47.7655L79.5298 47.0834L81.4538 35.6072L85.5556 36.2949C86.71 36.4884 87.6652 36.8848 88.4212 37.4839C89.1779 38.0794 89.7086 38.8424 90.0135 39.773C90.3221 40.7043 90.3765 41.7658 90.1767 42.9575C89.9763 44.1529 89.578 45.1424 88.982 45.9258C88.3896 46.7099 87.6347 47.2612 86.7171 47.5798C85.8033 47.899 84.7636 47.9609 83.598 47.7655ZM82.3047 45.4113L83.8457 45.6696C84.5629 45.7899 85.1876 45.764 85.7195 45.592C86.2559 45.4169 86.6924 45.0811 87.0291 44.5845C87.3703 44.0847 87.6125 43.4071 87.7559 42.5516C87.8981 41.7036 87.8892 40.9897 87.729 40.4098C87.5727 39.8305 87.2711 39.3728 86.8243 39.0367C86.3775 38.7006 85.7955 38.4725 85.0782 38.3522L83.5316 38.0929L82.3047 45.4113ZM93.0769 49.5217C92.5277 49.4296 92.0543 49.2523 91.6567 48.9898C91.2596 48.7235 90.9676 48.3807 90.7805 47.9614C90.5979 47.5391 90.5541 47.0439 90.6493 46.4761C90.7295 45.9979 90.8846 45.6111 91.1147 45.3155C91.3447 45.0199 91.6277 44.7985 91.9635 44.6512C92.2993 44.504 92.668 44.4122 93.0697 44.3758C93.4751 44.3401 93.8942 44.3374 94.327 44.3677C94.8363 44.3993 95.2479 44.4184 95.5618 44.4249C95.8763 44.4277 96.1104 44.394 96.2643 44.3238C96.4182 44.2535 96.5105 44.1269 96.5412 43.9439L96.5468 43.9102C96.6063 43.5553 96.5403 43.262 96.3487 43.0301C96.1608 42.7989 95.8633 42.6492 95.4561 42.5809C95.0265 42.5089 94.6687 42.5468 94.3828 42.6948C94.0974 42.839 93.8898 43.0461 93.7601 43.3163L91.5823 42.7668C91.7821 42.2626 92.0782 41.8475 92.4709 41.5216C92.8641 41.1919 93.3376 40.9679 93.8913 40.8495C94.4494 40.728 95.0721 40.7248 95.7595 40.8401C96.2377 40.9202 96.6859 41.053 97.1042 41.2383C97.5262 41.4243 97.8875 41.6635 98.188 41.9558C98.4922 42.2488 98.7123 42.5968 98.8483 42.9998C98.9849 43.3991 99.0103 43.8547 98.9245 44.3665L97.9513 50.1718L95.6874 49.7923L95.8875 48.5987L95.8203 48.5874C95.637 48.8332 95.4123 49.0395 95.1462 49.2061C94.8808 49.369 94.5758 49.4811 94.2314 49.5424C93.8876 49.6 93.5028 49.5931 93.0769 49.5217ZM94.0367 47.9888C94.3879 48.0477 94.7096 48.0306 95.0017 47.9375C95.2945 47.8406 95.5375 47.6855 95.7307 47.4721C95.924 47.2586 96.046 47.0006 96.0967 46.698L96.2498 45.7847C96.167 45.8207 96.0567 45.8483 95.9191 45.8675C95.7858 45.8835 95.636 45.8949 95.4698 45.9016C95.3041 45.9046 95.1388 45.9056 94.9738 45.9049C94.8094 45.9003 94.6602 45.8965 94.5263 45.8932C94.2393 45.8873 93.9836 45.9117 93.7594 45.9663C93.5352 46.0209 93.3523 46.115 93.2108 46.2488C93.0699 46.3788 92.9807 46.5559 92.9431 46.78C92.8887 47.105 92.9647 47.3732 93.1712 47.5845C93.3821 47.7927 93.6706 47.9275 94.0367 47.9888ZM99.4877 50.4294L100.931 41.8223L103.318 42.2225L101.875 50.8296L99.4877 50.4294ZM102.316 40.9138C101.961 40.8543 101.676 40.6856 101.462 40.4076C101.251 40.1266 101.174 39.8198 101.23 39.4873C101.285 39.1586 101.458 38.8975 101.747 38.7041C102.041 38.5076 102.366 38.4391 102.721 38.4986C103.076 38.5581 103.358 38.7284 103.568 39.0095C103.783 39.2874 103.863 39.5907 103.808 39.9195C103.752 40.252 103.577 40.5165 103.283 40.7129C102.993 40.9063 102.671 40.9733 102.316 40.9138ZM107.783 40.0213L105.859 51.4975L103.471 51.0973L105.395 39.6211L107.783 40.0213ZM108.388 55.2399C108.085 55.1892 107.805 55.1173 107.548 55.0243C107.294 54.9356 107.087 54.8414 106.927 54.7416L107.764 53.0498C108.03 53.1827 108.274 53.2717 108.497 53.3168C108.724 53.3624 108.929 53.343 109.112 53.2585C109.299 53.1746 109.467 53.007 109.617 52.7555L109.818 52.4148L108.215 43.0434L110.725 43.4643L111.447 50.0839L111.537 50.099L114.395 44.0796L116.923 44.5033L111.978 53.4798C111.74 53.9161 111.454 54.283 111.12 54.5803C110.789 54.882 110.398 55.0912 109.949 55.2078C109.498 55.3282 108.978 55.3389 108.388 55.2399ZM131.143 48.0685L128.689 47.657C128.697 47.3319 128.653 47.0345 128.556 46.7648C128.46 46.4913 128.318 46.2487 128.131 46.0368C127.944 45.8249 127.716 45.6484 127.448 45.5074C127.183 45.367 126.886 45.2693 126.558 45.2142C125.964 45.1146 125.422 45.1754 124.931 45.3966C124.442 45.6141 124.028 45.9827 123.692 46.5023C123.355 47.0183 123.121 47.6741 122.987 48.4698C122.85 49.2879 122.856 49.9956 123.006 50.593C123.159 51.1909 123.432 51.6688 123.825 52.0267C124.219 52.3845 124.705 52.6119 125.284 52.709C125.609 52.7635 125.917 52.7709 126.208 52.7314C126.502 52.6924 126.772 52.6089 127.016 52.4809C127.261 52.3491 127.474 52.1756 127.656 51.9603C127.842 51.7456 127.989 51.4898 128.096 51.1929L130.548 51.6156C130.397 52.1317 130.153 52.6131 129.817 53.0599C129.485 53.5036 129.074 53.8821 128.583 54.1955C128.097 54.5058 127.542 54.7238 126.918 54.8496C126.299 54.9723 125.621 54.972 124.885 54.8486C123.861 54.677 122.985 54.2919 122.256 53.6934C121.53 53.0955 121.007 52.3185 120.688 51.3623C120.371 50.4068 120.318 49.3051 120.527 48.0574C120.737 46.8059 121.151 45.7807 121.769 44.9817C122.387 44.1827 123.138 43.6211 124.022 43.2969C124.906 42.9689 125.853 42.8895 126.861 43.0586C127.526 43.1701 128.127 43.3668 128.664 43.6488C129.204 43.9314 129.664 44.289 130.045 44.7215C130.426 45.1503 130.712 45.6457 130.902 46.2075C131.096 46.7701 131.176 47.3904 131.143 48.0685ZM134.494 51.1824L133.659 56.1584L131.272 55.7582L133.196 44.282L135.516 44.6709L134.781 49.0585L134.881 49.0754C135.161 48.5999 135.541 48.2547 136.023 48.0397C136.505 47.821 137.073 47.7664 137.727 47.876C138.325 47.9762 138.824 48.1943 139.224 48.5304C139.63 48.8633 139.915 49.2932 140.08 49.8202C140.249 50.3441 140.276 50.9419 140.159 51.6137L139.241 57.0941L136.853 56.6939L137.701 51.6394C137.793 51.1096 137.728 50.6742 137.505 50.3334C137.285 49.9932 136.933 49.7823 136.447 49.7009C136.122 49.6464 135.823 49.6673 135.55 49.7636C135.28 49.8605 135.052 50.0296 134.865 50.2711C134.683 50.5094 134.559 50.8132 134.494 51.1824ZM143.231 57.9301C142.682 57.838 142.208 57.6607 141.81 57.3982C141.413 57.1319 141.121 56.7891 140.934 56.3699C140.752 55.9475 140.708 55.4524 140.803 54.8845C140.883 54.4064 141.038 54.0195 141.268 53.7239C141.499 53.4283 141.781 53.2069 142.117 53.0597C142.453 52.9124 142.822 52.8206 143.223 52.7842C143.629 52.7485 144.048 52.7458 144.481 52.7761C144.99 52.8077 145.402 52.8268 145.716 52.8333C146.03 52.8361 146.264 52.8024 146.418 52.7322C146.572 52.662 146.664 52.5353 146.695 52.3523L146.701 52.3186C146.76 51.9638 146.694 51.6704 146.502 51.4385C146.315 51.2073 146.017 51.0576 145.61 50.9893C145.18 50.9173 144.823 50.9553 144.537 51.1032C144.251 51.2474 144.044 51.4546 143.914 51.7247L141.736 51.1752C141.936 50.671 142.232 50.2559 142.625 49.93C143.018 49.6004 143.491 49.3763 144.045 49.2579C144.603 49.1364 145.226 49.1332 145.913 49.2485C146.391 49.3287 146.84 49.4614 147.258 49.6468C147.68 49.8327 148.041 50.0719 148.342 50.3642C148.646 50.6572 148.866 51.0052 149.002 51.4083C149.139 51.8076 149.164 52.2631 149.078 52.7749L148.105 58.5802L145.841 58.2007L146.041 57.0071L145.974 56.9959C145.791 57.2417 145.566 57.4479 145.3 57.6145C145.035 57.7774 144.73 57.8895 144.385 57.9508C144.041 58.0084 143.657 58.0015 143.231 57.9301ZM144.191 56.3973C144.542 56.4561 144.863 56.439 145.155 56.3459C145.448 56.249 145.691 56.0939 145.885 55.8805C146.078 55.6671 146.2 55.4091 146.25 55.1065L146.404 54.1931C146.321 54.2291 146.211 54.2567 146.073 54.2759C145.94 54.292 145.79 54.3033 145.624 54.31C145.458 54.313 145.293 54.3141 145.128 54.3133C144.963 54.3088 144.814 54.3049 144.68 54.3016C144.393 54.2958 144.137 54.3201 143.913 54.3747C143.689 54.4293 143.506 54.5235 143.365 54.6572C143.224 54.7872 143.135 54.9643 143.097 55.1884C143.042 55.5134 143.118 55.7816 143.325 55.9929C143.536 56.2011 143.824 56.3359 144.191 56.3973ZM155.663 50.9982L155.362 52.7914L150.179 51.9224L150.479 50.1292L155.663 50.9982ZM152.002 48.2644L154.389 48.6646L153.044 56.6889C153.007 56.9094 153.011 57.0868 153.058 57.2214C153.105 57.3522 153.185 57.4519 153.296 57.5205C153.411 57.5898 153.549 57.6378 153.71 57.6648C153.822 57.6836 153.935 57.693 154.051 57.6931C154.166 57.6895 154.255 57.6871 154.317 57.6859L154.394 59.5252C154.269 59.5425 154.093 59.5573 153.868 59.5695C153.643 59.5855 153.374 59.5731 153.062 59.5323C152.483 59.4583 151.992 59.2972 151.588 59.0489C151.188 58.8013 150.899 58.4726 150.722 58.0626C150.545 57.6527 150.506 57.166 150.604 56.6025L152.002 48.2644ZM161.48 51.9735L161.18 53.7667L155.996 52.8977L156.297 51.1045L161.48 51.9735ZM157.819 49.2397L160.206 49.6399L158.861 57.6643C158.824 57.8847 158.829 58.0622 158.876 58.1967C158.923 58.3275 159.002 58.4273 159.113 58.4959C159.229 58.5651 159.367 58.6132 159.527 58.6401C159.639 58.6589 159.753 58.6683 159.868 58.6685C159.984 58.6648 160.073 58.6624 160.134 58.6612L160.212 60.5005C160.086 60.5178 159.911 60.5326 159.686 60.5449C159.461 60.5608 159.192 60.5484 158.88 60.5077C158.301 60.4336 157.809 60.2725 157.405 60.0243C157.005 59.7766 156.717 59.4479 156.54 59.038C156.362 58.628 156.323 58.1413 156.421 57.5779L157.819 49.2397ZM165.078 61.5987C164.193 61.4503 163.461 61.1432 162.882 60.6775C162.308 60.2086 161.904 59.6148 161.672 58.8959C161.439 58.1733 161.399 57.3582 161.552 56.4504C161.7 55.565 162.002 54.8168 162.458 54.2057C162.914 53.5946 163.485 53.1546 164.171 52.8856C164.862 52.6173 165.629 52.5539 166.473 52.6954C167.041 52.7906 167.554 52.9708 168.013 53.2359C168.476 53.4978 168.86 53.8407 169.166 54.2645C169.475 54.6888 169.686 55.1928 169.799 55.7764C169.913 56.3563 169.909 57.0123 169.786 57.7445L169.676 58.4001L162.408 57.1817L162.656 55.7023L167.677 56.5441C167.735 56.2004 167.711 55.8834 167.606 55.5931C167.501 55.3028 167.329 55.0607 167.089 54.8668C166.853 54.6698 166.561 54.5422 166.214 54.4839C165.851 54.4232 165.516 54.4534 165.208 54.5745C164.904 54.6925 164.65 54.8785 164.446 55.1324C164.242 55.3825 164.111 55.6772 164.05 56.0166L163.814 57.4231C163.743 57.8489 163.759 58.2301 163.864 58.5664C163.973 58.9034 164.159 59.1804 164.422 59.3974C164.685 59.6143 165.017 59.7563 165.416 59.8233C165.682 59.8678 165.931 59.8712 166.164 59.8334C166.397 59.7956 166.604 59.7152 166.786 59.5921C166.968 59.4689 167.118 59.3059 167.237 59.103L169.42 59.6189C169.219 60.1306 168.912 60.5553 168.498 60.893C168.088 61.2276 167.593 61.4594 167.01 61.5884C166.432 61.7143 165.788 61.7177 165.078 61.5987ZM170.299 62.3012L171.742 53.694L174.057 54.082L173.805 55.5838L173.895 55.5988C174.141 55.0909 174.472 54.7316 174.888 54.5209C175.304 54.3065 175.753 54.2396 176.235 54.3204C176.354 54.3405 176.482 54.3696 176.618 54.4077C176.753 54.4458 176.871 54.4867 176.972 54.5304L176.616 56.6485C176.51 56.5961 176.36 56.5403 176.166 56.4809C175.973 56.4216 175.794 56.3781 175.629 56.3506C175.278 56.2917 174.952 56.3157 174.649 56.4225C174.352 56.5262 174.1 56.6991 173.894 56.9411C173.692 57.1838 173.562 57.4807 173.503 57.8318L172.687 62.7014L170.299 62.3012Z" fill="white"/>
<rect x="254.425" y="62.2097" width="66" height="20" rx="8" transform="rotate(9.51728 254.425 62.2097)" fill="url(#paint2_linear_5144_674)"/>
<path d="M263.576 78.0689C262.932 77.9609 262.402 77.7266 261.987 77.3661C261.575 77.0061 261.286 76.5558 261.121 76.0153C260.958 75.4725 260.932 74.8746 261.041 74.2218C261.151 73.5662 261.374 73.0087 261.71 72.5495C262.047 72.0874 262.469 71.7548 262.975 71.5517C263.485 71.3462 264.055 71.2963 264.685 71.402C265.209 71.4899 265.657 71.6643 266.028 71.9252C266.402 72.1839 266.68 72.5085 266.863 72.8991C267.045 73.2869 267.114 73.7162 267.07 74.1869L265.616 73.9432C265.609 73.6223 265.513 73.3396 265.326 73.0952C265.143 72.8484 264.868 72.6943 264.5 72.6327C264.189 72.5806 263.902 72.6189 263.639 72.7475C263.376 72.8734 263.152 73.0807 262.968 73.3697C262.787 73.6591 262.66 74.0209 262.588 74.4552C262.514 74.8951 262.515 75.2841 262.591 75.6223C262.667 75.9577 262.807 76.2304 263.011 76.4403C263.218 76.6478 263.48 76.7782 263.797 76.8312C264.021 76.8688 264.228 76.8604 264.419 76.8059C264.613 76.7491 264.783 76.6496 264.931 76.5073C265.079 76.365 265.195 76.1813 265.278 75.9563L266.733 76.2C266.62 76.6506 266.417 77.0329 266.125 77.347C265.834 77.6582 265.472 77.8797 265.038 78.0115C264.604 78.1404 264.117 78.1596 263.576 78.0689ZM270.17 79.1744C269.539 79.0687 269.016 78.8384 268.601 78.4835C268.185 78.1286 267.891 77.6805 267.72 77.139C267.551 76.598 267.523 75.9941 267.635 75.3273C267.747 74.6604 267.971 74.0974 268.307 73.6381C268.646 73.1794 269.07 72.85 269.579 72.6502C270.087 72.4503 270.657 72.4032 271.287 72.5089C271.918 72.6146 272.441 72.8449 272.857 73.1998C273.272 73.5546 273.564 74.004 273.732 74.5478C273.903 75.092 273.933 75.6976 273.821 76.3644C273.709 77.0313 273.484 77.5927 273.146 78.0486C272.81 78.5051 272.387 78.8332 271.879 79.0331C271.37 79.233 270.8 79.2801 270.17 79.1744ZM270.383 77.957C270.724 78.0143 271.026 77.9684 271.287 77.8192C271.549 77.6672 271.763 77.4409 271.928 77.1402C272.097 76.8401 272.214 76.4939 272.279 76.1016C272.346 75.7066 272.348 75.3397 272.287 75.0011C272.229 74.6601 272.101 74.375 271.903 74.146C271.705 73.917 271.435 73.7738 271.094 73.7165C270.743 73.6578 270.436 73.7042 270.171 73.8557C269.91 74.0077 269.695 74.2352 269.526 74.5381C269.36 74.8388 269.244 75.1866 269.178 75.5816C269.112 75.9739 269.108 76.3391 269.167 76.6773C269.228 77.016 269.358 77.2998 269.556 77.5289C269.757 77.7556 270.032 77.8983 270.383 77.957ZM274.339 79.7437L275.421 73.2883L276.875 73.5321L276.691 74.629L276.767 74.6417C276.963 74.2944 277.235 74.0432 277.58 73.888C277.927 73.73 278.315 73.6872 278.747 73.7595C279.184 73.8328 279.535 74.001 279.799 74.2642C280.066 74.5251 280.231 74.848 280.293 75.2329L280.36 75.2441C280.563 74.9095 280.852 74.6641 281.227 74.508C281.605 74.3495 282.028 74.3096 282.496 74.388C283.09 74.4876 283.543 74.7566 283.855 75.195C284.168 75.6333 284.264 76.2126 284.143 76.9326L283.417 81.2656L281.891 81.0099L282.578 76.9122C282.645 76.5116 282.588 76.2009 282.406 75.9803C282.224 75.7569 281.98 75.6193 281.671 75.5677C281.304 75.5061 280.998 75.5728 280.752 75.7678C280.509 75.9605 280.358 76.2389 280.297 76.6032L279.622 80.6294L278.13 80.3792L278.827 76.2186C278.883 75.8851 278.827 75.6021 278.658 75.3693C278.493 75.137 278.249 74.9939 277.927 74.9399C277.708 74.9032 277.5 74.9259 277.302 75.0079C277.104 75.0871 276.935 75.2187 276.795 75.4026C276.655 75.5836 276.563 75.8073 276.518 76.0734L275.86 79.9988L274.339 79.7437ZM284.723 81.4847L285.806 75.0293L287.26 75.2731L287.076 76.37L287.152 76.3827C287.348 76.0354 287.619 75.7842 287.965 75.629C288.311 75.471 288.7 75.4282 289.131 75.5005C289.569 75.5738 289.919 75.742 290.183 76.0052C290.451 76.2661 290.615 76.589 290.678 76.9739L290.745 76.9851C290.948 76.6505 291.237 76.4051 291.611 76.249C291.989 76.0906 292.412 76.0506 292.88 76.129C293.474 76.2286 293.928 76.4976 294.24 76.936C294.553 77.3743 294.648 77.9536 294.528 78.6736L293.801 83.0066L292.276 82.7509L292.963 78.6532C293.03 78.2526 292.972 77.9419 292.791 77.7213C292.609 77.4979 292.364 77.3603 292.056 77.3087C291.689 77.2471 291.383 77.3139 291.137 77.5088C290.894 77.7015 290.742 77.9799 290.681 78.3442L290.006 82.3704L288.514 82.1202L289.212 77.9596C289.268 77.6261 289.211 77.3431 289.043 77.1103C288.877 76.878 288.634 76.7349 288.311 76.6809C288.093 76.6442 287.885 76.6669 287.686 76.7489C287.489 76.8281 287.32 76.9597 287.18 77.1436C287.04 77.3246 286.948 77.5483 286.903 77.8144L286.245 81.7398L284.723 81.4847ZM297.903 83.8239C297.272 83.7182 296.749 83.4879 296.333 83.133C295.918 82.7781 295.624 82.3299 295.453 81.7885C295.284 81.2475 295.256 80.6436 295.368 79.9767C295.479 79.3099 295.703 78.7469 296.04 78.2876C296.379 77.8288 296.803 77.4995 297.311 77.2996C297.82 77.0998 298.39 77.0527 299.02 77.1584C299.651 77.2641 300.174 77.4943 300.589 77.8492C301.005 78.2041 301.297 78.6535 301.465 79.1973C301.636 79.7415 301.666 80.3471 301.554 81.0139C301.442 81.6807 301.217 82.2421 300.878 82.6981C300.543 83.1546 300.12 83.4827 299.611 83.6826C299.103 83.8825 298.533 83.9296 297.903 83.8239ZM298.115 82.6065C298.457 82.6638 298.759 82.6178 299.02 82.4686C299.282 82.3166 299.495 82.0903 299.661 81.7897C299.829 81.4896 299.946 81.1434 300.012 80.7511C300.078 80.3561 300.081 79.9892 300.02 79.6505C299.962 79.3095 299.834 79.0245 299.636 78.7955C299.438 78.5664 299.168 78.4233 298.826 78.366C298.476 78.3072 298.169 78.3536 297.904 78.5052C297.643 78.6572 297.427 78.8847 297.258 79.1876C297.093 79.4882 296.977 79.8361 296.911 80.2311C296.845 80.6234 296.841 80.9886 296.9 81.3268C296.961 81.6655 297.091 81.9493 297.288 82.1784C297.49 82.4051 297.765 82.5478 298.115 82.6065ZM304.227 80.8658L303.593 84.6482L302.072 84.3932L303.154 77.9378L304.608 78.1816L304.424 79.2785L304.5 79.2912C304.709 78.9547 304.994 78.7072 305.354 78.5487C305.718 78.3907 306.141 78.3521 306.623 78.4329C307.068 78.5076 307.44 78.6679 307.739 78.9139C308.04 79.1603 308.252 79.4795 308.373 79.8715C308.498 80.2639 308.515 80.7177 308.426 81.2327L307.737 85.343L306.215 85.0879L306.865 81.213C306.937 80.7815 306.882 80.4251 306.699 80.1438C306.518 79.8629 306.232 79.6896 305.84 79.6238C305.573 79.5792 305.327 79.5984 305.1 79.6813C304.876 79.7619 304.687 79.9016 304.533 80.1004C304.381 80.2997 304.279 80.5548 304.227 80.8658Z" fill="white"/>
<path d="M81.4332 64.199C81.455 63.7936 81.3218 63.4544 81.0334 63.1814C80.7455 62.9056 80.355 62.7263 79.8619 62.6436C79.5089 62.5844 79.1941 62.5893 78.9175 62.6581C78.6414 62.7242 78.4157 62.8419 78.2404 63.0113C78.0684 63.1783 77.9619 63.3837 77.9211 63.6275C77.8868 63.832 77.9048 64.0165 77.9752 64.181C78.0484 64.3459 78.1549 64.4919 78.2949 64.6191C78.4382 64.744 78.5952 64.8553 78.7661 64.953C78.9374 65.048 79.1036 65.1306 79.2646 65.2008L80.0686 65.5603C80.3319 65.6736 80.5982 65.8118 80.8675 65.9751C81.1368 66.1383 81.379 66.3345 81.5941 66.5635C81.8092 66.7926 81.9691 67.0585 82.0739 67.3612C82.1815 67.6645 82.2029 68.0094 82.1381 68.396C82.0564 68.8836 81.8577 69.2953 81.5421 69.6313C81.2294 69.9677 80.8165 70.2053 80.3036 70.344C79.7934 70.4831 79.2021 70.4963 78.5297 70.3836C77.8853 70.2755 77.3449 70.0798 76.9084 69.7964C76.472 69.5129 76.1522 69.1612 75.949 68.7411C75.7462 68.3182 75.6743 67.8453 75.7332 67.3222L77.036 67.5407C77.0091 67.8559 77.0665 68.132 77.2083 68.3689C77.3533 68.6035 77.556 68.7945 77.8165 68.9418C78.0802 69.0869 78.3788 69.1873 78.7122 69.2432C79.0793 69.3048 79.4153 69.3021 79.7203 69.2351C80.0287 69.1658 80.2829 69.0414 80.4829 68.8617C80.6835 68.6793 80.8072 68.448 80.8542 68.1678C80.8969 67.9129 80.8591 67.6919 80.7406 67.505C80.625 67.3185 80.4528 67.1514 80.2241 67.0036C79.9982 66.8563 79.7379 66.7161 79.4434 66.5832L78.4728 66.1353C77.815 65.832 77.315 65.4645 76.9726 65.0326C76.633 64.6012 76.5134 64.0857 76.614 63.4861C76.6971 62.9902 76.9042 62.5798 77.2351 62.2551C77.5661 61.9304 77.9785 61.7042 78.4723 61.5767C78.9665 61.4464 79.5023 61.4297 80.0794 61.5264C80.6622 61.6241 81.1592 61.8126 81.5704 62.0918C81.9844 62.3715 82.2902 62.7123 82.4878 63.1141C82.686 63.5132 82.7519 63.9448 82.6856 64.409L81.4332 64.199ZM87.0492 65.0282L86.8801 66.0368L83.354 65.4457L83.5231 64.437L87.0492 65.0282ZM84.728 63.049L85.9846 63.2596L84.9608 69.3662C84.92 69.6099 84.9256 69.7996 84.9778 69.9351C85.0305 70.0677 85.1105 70.1661 85.2178 70.2302C85.3285 70.292 85.4524 70.3344 85.5897 70.3574C85.6906 70.3743 85.78 70.3821 85.858 70.3808C85.936 70.3794 85.9967 70.3781 86.0402 70.3767L86.0931 71.4528C86.0155 71.4687 85.9072 71.4793 85.768 71.4848C85.6283 71.493 85.4574 71.4817 85.2552 71.4506C84.9236 71.4008 84.6253 71.2903 84.3602 71.1191C84.0951 70.9479 83.8959 70.7186 83.7626 70.4313C83.6293 70.1439 83.5953 69.8055 83.6606 69.4161L84.728 63.049ZM88.9749 72.1348C88.5659 72.0662 88.2087 71.9285 87.9035 71.7218C87.5987 71.5123 87.3741 71.2456 87.2296 70.9218C87.0879 70.5985 87.0526 70.2253 87.1235 69.8022C87.1845 69.438 87.3049 69.1499 87.4844 68.9381C87.6639 68.7262 87.8843 68.5716 88.1455 68.4742C88.4066 68.3769 88.6902 68.3178 88.9961 68.2971C89.3021 68.2764 89.6108 68.2734 89.9223 68.2882C90.3164 68.3082 90.6364 68.3243 90.882 68.3367C91.1281 68.3463 91.3115 68.3266 91.432 68.2777C91.5526 68.2288 91.6255 68.1287 91.6509 67.9774L91.6558 67.948C91.7173 67.5809 91.6614 67.2792 91.4878 67.0427C91.3171 66.8066 91.0286 66.6546 90.6224 66.5865C90.1993 66.5155 89.8502 66.5535 89.5749 66.7004C89.303 66.8449 89.1017 67.0229 88.9712 67.2343L87.8354 66.7673C88.0412 66.3986 88.2988 66.1163 88.6082 65.9204C88.9208 65.7222 89.2628 65.5981 89.6342 65.548C90.006 65.4951 90.3866 65.5013 90.7761 65.5666C91.0338 65.6098 91.3019 65.6864 91.5801 65.7965C91.8616 65.9041 92.1151 66.059 92.3405 66.261C92.5687 66.4634 92.7391 66.7267 92.8518 67.051C92.965 67.3724 92.9821 67.7685 92.9032 68.2392L92.1845 72.5259L90.9574 72.3202L91.1053 71.4376L91.0549 71.4292C90.9464 71.5781 90.7977 71.7173 90.6089 71.847C90.4201 71.9766 90.1895 72.0719 89.9172 72.1329C89.6449 72.1938 89.3308 72.1944 88.9749 72.1348ZM89.4172 71.1719C89.7646 71.2302 90.0731 71.2113 90.3427 71.1153C90.6151 71.0199 90.8343 70.8723 91.0003 70.6725C91.1695 70.4705 91.2755 70.2419 91.3183 69.987L91.4578 69.1548C91.4054 69.1922 91.3115 69.2196 91.1761 69.2372C91.0439 69.2525 90.8942 69.2605 90.727 69.2613C90.5603 69.2593 90.398 69.2566 90.2401 69.2531C90.0827 69.2469 89.951 69.2421 89.845 69.2388C89.5961 69.2287 89.3647 69.2432 89.1507 69.2822C88.9396 69.3217 88.7623 69.4 88.6188 69.5171C88.4785 69.6319 88.3896 69.8013 88.3521 70.0255C88.2999 70.3365 88.3753 70.5911 88.5783 70.7893C88.7817 70.9847 89.0614 71.1123 89.4172 71.1719ZM93.6216 72.7669L94.7038 66.3115L95.9184 66.5151L95.7465 67.5406L95.8137 67.5519C95.9897 67.2242 96.2428 66.9858 96.5731 66.8366C96.9068 66.6852 97.2627 66.6411 97.6409 66.7045C97.7194 66.7177 97.8114 66.736 97.9169 66.7594C98.0252 66.7834 98.1095 66.8047 98.1697 66.8234L97.9682 68.0254C97.9201 68.003 97.8331 67.9725 97.707 67.9341C97.5814 67.8929 97.4542 67.8615 97.3253 67.8399C97.0283 67.7901 96.753 67.8087 96.4993 67.8958C96.2488 67.9806 96.0378 68.1223 95.8662 68.3211C95.6951 68.5171 95.5861 68.7552 95.5391 69.0354L94.8782 72.9775L93.6216 72.7669ZM102.404 67.6025L102.235 68.6111L98.7088 68.02L98.8779 67.0113L102.404 67.6025ZM100.083 65.6232L101.339 65.8339L100.316 71.9404C100.275 72.1842 100.28 72.3738 100.333 72.5093C100.385 72.642 100.465 72.7404 100.573 72.8045C100.683 72.8662 100.807 72.9086 100.944 72.9316C101.045 72.9486 101.135 72.9564 101.213 72.955C101.291 72.9537 101.351 72.9524 101.395 72.951L101.448 74.0271C101.37 74.0429 101.262 74.0536 101.123 74.059C100.983 74.0673 100.812 74.0559 100.61 74.0249C100.278 73.9751 99.9801 73.8646 99.715 73.6934C99.4498 73.5222 99.2506 73.2929 99.1173 73.0056C98.984 72.7182 98.95 72.3798 99.0153 71.9903L100.083 65.6232ZM105.166 74.8363C104.53 74.7297 104.005 74.5019 103.591 74.1531C103.18 73.802 102.892 73.3575 102.726 72.8198C102.563 72.2798 102.538 71.6749 102.65 71.0053C102.761 70.3441 102.982 69.7819 103.313 69.319C103.647 68.8564 104.06 68.521 104.553 68.3127C105.049 68.1049 105.596 68.0513 106.196 68.1518C106.56 68.2128 106.903 68.3323 107.225 68.5101C107.546 68.6878 107.821 68.9284 108.05 69.2317C108.279 69.5351 108.437 69.9058 108.525 70.344C108.613 70.7793 108.608 71.2898 108.51 71.8754L108.435 72.3209L103.304 71.4606L103.462 70.5192L107.362 71.173C107.417 70.8424 107.399 70.5384 107.307 70.2608C107.216 69.9805 107.061 69.7457 106.842 69.5563C106.626 69.3674 106.355 69.2457 106.03 69.1913C105.677 69.1321 105.355 69.1673 105.062 69.2968C104.773 69.424 104.534 69.6144 104.344 69.8678C104.158 70.1189 104.038 70.4055 103.984 70.7277L103.861 71.4632C103.788 71.8947 103.802 72.2744 103.903 72.6024C104.006 72.9308 104.182 73.1979 104.43 73.4036C104.678 73.6066 104.986 73.7388 105.353 73.8003C105.591 73.8403 105.814 73.843 106.021 73.8087C106.229 73.7715 106.416 73.6963 106.582 73.5829C106.748 73.4696 106.885 73.3184 106.995 73.1294L108.148 73.5431C107.994 73.8774 107.772 74.1555 107.481 74.3775C107.194 74.5972 106.853 74.7489 106.459 74.8326C106.068 74.914 105.637 74.9152 105.166 74.8363ZM111.51 75.8956C110.989 75.8082 110.547 75.5972 110.182 75.2624C109.821 74.9253 109.566 74.4894 109.416 73.9544C109.27 73.4172 109.256 72.7998 109.372 72.1021C109.489 71.4045 109.706 70.8272 110.021 70.3702C110.34 69.9138 110.726 69.5881 111.179 69.3934C111.632 69.1986 112.118 69.1446 112.636 69.2315C113.037 69.2987 113.348 69.42 113.569 69.5953C113.794 69.7683 113.958 69.9544 114.063 70.1534C114.171 70.353 114.251 70.5263 114.304 70.6735L114.38 70.6862L114.916 67.4879L116.173 67.6986L114.73 76.3057L113.503 76.1L113.671 75.0955L113.566 75.0779C113.467 75.2025 113.332 75.3411 113.159 75.4937C112.99 75.6467 112.77 75.7684 112.502 75.8587C112.233 75.9491 111.903 75.9614 111.51 75.8956ZM111.968 74.8704C112.329 74.931 112.65 74.887 112.932 74.7382C113.216 74.5872 113.452 74.3516 113.638 74.0314C113.827 73.7116 113.959 73.3248 114.035 72.8709C114.111 72.4226 114.112 72.0196 114.039 71.6617C113.967 71.3039 113.822 71.0102 113.604 70.7807C113.386 70.5512 113.093 70.4056 112.726 70.3441C112.348 70.2807 112.016 70.3259 111.731 70.4798C111.446 70.6336 111.211 70.8692 111.025 71.1867C110.842 71.5045 110.715 71.8764 110.644 72.3023C110.571 72.7338 110.571 73.1326 110.642 73.4989C110.713 73.8651 110.858 74.1702 111.076 74.4142C111.298 74.6559 111.595 74.808 111.968 74.8704ZM119.571 79.6061C119.383 79.5746 119.214 79.5305 119.066 79.4739C118.916 79.42 118.806 79.37 118.736 79.3237L119.212 78.3447C119.431 78.4449 119.631 78.5058 119.812 78.5274C119.993 78.5491 120.162 78.5084 120.321 78.4053C120.482 78.3027 120.64 78.1175 120.794 77.8495L121.021 77.4469L119.756 70.5115L121.101 70.737L121.896 76.0207L121.963 76.032L124.438 71.2965L125.787 71.5226L121.9 78.3935C121.72 78.7091 121.515 78.9672 121.286 79.1678C121.056 79.3712 120.799 79.5096 120.516 79.5832C120.233 79.6567 119.918 79.6643 119.571 79.6061ZM128.126 78.6856C127.521 78.5842 127.016 78.3569 126.612 78.0039C126.207 77.6509 125.922 77.2042 125.756 76.6636C125.59 76.1231 125.563 75.5194 125.675 74.8526C125.788 74.183 126.01 73.6183 126.344 73.1586C126.677 72.6989 127.093 72.3681 127.59 72.1664C128.088 71.9646 128.639 71.9145 129.245 72.0159C129.85 72.1174 130.355 72.3446 130.759 72.6976C131.164 73.0506 131.449 73.4988 131.614 74.0421C131.779 74.5855 131.806 75.192 131.694 75.8616C131.582 76.5284 131.359 77.0903 131.026 77.5472C130.693 78.0041 130.278 78.3335 129.781 78.5352C129.283 78.737 128.732 78.7871 128.126 78.6856ZM128.307 77.6315C128.7 77.6972 129.042 77.648 129.335 77.4839C129.627 77.3198 129.864 77.0758 130.045 76.7518C130.229 76.4283 130.356 76.0593 130.425 75.6446C130.494 75.2327 130.494 74.8439 130.426 74.4782C130.361 74.1101 130.217 73.7993 129.995 73.546C129.772 73.2926 129.465 73.1331 129.073 73.0673C128.678 73.0011 128.332 73.0512 128.036 73.2176C127.743 73.3846 127.505 73.6312 127.32 73.9575C127.139 74.2814 127.014 74.6493 126.945 75.0612C126.876 75.4759 126.874 75.8658 126.939 76.2311C127.007 76.5969 127.153 76.905 127.376 77.1556C127.602 77.4066 127.912 77.5652 128.307 77.6315ZM136.861 77.2638L137.495 73.4855L138.756 73.6969L137.673 80.1523L136.438 79.9451L136.625 78.8272L136.558 78.8159C136.352 79.1357 136.065 79.3829 135.699 79.5577C135.336 79.7302 134.912 79.7758 134.427 79.6945C134.013 79.625 133.661 79.4724 133.372 79.2367C133.086 78.9987 132.883 78.6837 132.761 78.2918C132.643 77.9003 132.628 77.4383 132.717 76.906L133.406 72.8L134.662 73.0106L133.999 76.9654C133.925 77.4053 133.989 77.7759 134.189 78.0774C134.389 78.3788 134.683 78.5622 135.073 78.6275C135.308 78.6669 135.552 78.6473 135.804 78.5686C136.059 78.4904 136.284 78.3451 136.478 78.1328C136.675 77.9209 136.803 77.6313 136.861 77.2638ZM139.125 80.3957L140.207 73.9403L141.422 74.1439L141.25 75.1694L141.317 75.1807C141.493 74.853 141.746 74.6145 142.077 74.4654C142.41 74.3139 142.766 74.2699 143.144 74.3333C143.223 74.3465 143.315 74.3648 143.42 74.3882C143.529 74.4122 143.613 74.4335 143.673 74.4522L143.472 75.6542C143.424 75.6317 143.337 75.6013 143.211 75.5629C143.085 75.5217 142.958 75.4902 142.829 75.4686C142.532 75.4188 142.256 75.4375 142.003 75.5246C141.752 75.6094 141.541 75.7511 141.37 75.9499C141.199 76.1459 141.09 76.384 141.043 76.6642L140.382 80.6063L139.125 80.3957ZM149.025 73.2064L147.582 81.8136L146.326 81.6029L147.769 72.9957L149.025 73.2064ZM151.797 82.654C151.161 82.5474 150.636 82.3197 150.222 81.9709C149.811 81.6197 149.523 81.1753 149.356 80.6376C149.193 80.0975 149.168 79.4927 149.28 78.823C149.391 78.1618 149.612 77.5997 149.943 77.1367C150.277 76.6742 150.691 76.3388 151.184 76.1305C151.679 75.9227 152.227 75.869 152.827 75.9695C153.191 76.0306 153.534 76.15 153.855 76.3278C154.177 76.5056 154.452 76.7461 154.681 77.0495C154.909 77.3528 155.067 77.7236 155.155 78.1617C155.244 78.5971 155.239 79.1076 155.14 79.6931L155.066 80.1386L149.934 79.2783L150.092 78.3369L153.992 78.9908C154.048 78.6602 154.03 78.3561 153.938 78.0786C153.847 77.7983 153.691 77.5634 153.473 77.3741C153.257 77.1852 152.986 77.0635 152.661 77.009C152.308 76.9498 151.985 76.985 151.693 77.1146C151.403 77.2418 151.164 77.4321 150.975 77.6855C150.789 77.9366 150.669 78.2233 150.615 78.5455L150.491 79.281C150.419 79.7124 150.433 80.0922 150.534 80.4201C150.637 80.7485 150.813 81.0156 151.06 81.2214C151.309 81.4243 151.616 81.5565 151.983 81.6181C152.221 81.658 152.444 81.6608 152.652 81.6264C152.86 81.5893 153.046 81.514 153.212 81.4007C153.378 81.2873 153.516 81.1362 153.625 80.9471L154.779 81.3608C154.625 81.6951 154.402 81.9732 154.112 82.1953C153.824 82.415 153.483 82.5667 153.089 82.6504C152.698 82.7317 152.267 82.7329 151.797 82.654ZM157.6 83.64C157.191 83.5714 156.834 83.4337 156.529 83.227C156.224 83.0175 155.999 82.7508 155.855 82.427C155.713 82.1037 155.678 81.7305 155.749 81.3074C155.81 80.9432 155.93 80.6551 156.11 80.4433C156.289 80.2314 156.51 80.0768 156.771 79.9794C157.032 79.8821 157.316 79.823 157.622 79.8023C157.927 79.7816 158.236 79.7786 158.548 79.7934C158.942 79.8134 159.262 79.8296 159.507 79.842C159.754 79.8515 159.937 79.8319 160.057 79.7829C160.178 79.734 160.251 79.6339 160.276 79.4826L160.281 79.4532C160.343 79.0861 160.287 78.7844 160.113 78.5479C159.942 78.3119 159.654 78.1598 159.248 78.0917C158.825 78.0208 158.476 78.0587 158.2 78.2056C157.928 78.3501 157.727 78.5281 157.597 78.7395L156.461 78.2726C156.667 77.9038 156.924 77.6215 157.234 77.4256C157.546 77.2274 157.888 77.1033 158.26 77.0532C158.631 77.0003 159.012 77.0065 159.401 77.0718C159.659 77.115 159.927 77.1917 160.205 77.3017C160.487 77.4094 160.74 77.5642 160.966 77.7662C161.194 77.9686 161.364 78.232 161.477 78.5562C161.59 78.8776 161.608 79.2737 161.529 79.7444L160.81 84.0312L159.583 83.8254L159.731 82.9429L159.68 82.9344C159.572 83.0833 159.423 83.2226 159.234 83.3522C159.045 83.4819 158.815 83.5772 158.543 83.6381C158.27 83.699 157.956 83.6996 157.6 83.64ZM158.043 82.6771C158.39 82.7354 158.699 82.7165 158.968 82.6206C159.24 82.5251 159.46 82.3775 159.626 82.1777C159.795 81.9757 159.901 81.7472 159.944 81.4922L160.083 80.6601C160.031 80.6974 159.937 80.7248 159.801 80.7425C159.669 80.7577 159.52 80.7658 159.352 80.7665C159.186 80.7645 159.023 80.7618 158.865 80.7584C158.708 80.7522 158.576 80.7474 158.47 80.744C158.221 80.7339 157.99 80.7484 157.776 80.7875C157.565 80.827 157.388 80.9052 157.244 81.0223C157.104 81.1371 157.015 81.3065 156.977 81.5307C156.925 81.8417 157.001 82.0963 157.204 82.2945C157.407 82.4899 157.687 82.6175 158.043 82.6771ZM162.247 84.2721L163.329 77.8167L164.544 78.0204L164.372 79.0458L164.439 79.0571C164.615 78.7294 164.868 78.491 165.199 78.3418C165.532 78.1904 165.888 78.1464 166.266 78.2098C166.345 78.2229 166.437 78.2412 166.542 78.2647C166.651 78.2886 166.735 78.3099 166.795 78.3287L166.594 79.5306C166.546 79.5082 166.458 79.4777 166.332 79.4393C166.207 79.3981 166.08 79.3667 165.951 79.3451C165.654 79.2953 165.378 79.3139 165.125 79.401C164.874 79.4858 164.663 79.6276 164.492 79.8264C164.32 80.0224 164.211 80.2604 164.164 80.5406L163.504 84.4828L162.247 84.2721ZM168.452 81.3717L167.809 85.2046L166.552 84.9939L167.635 78.5385L168.841 78.7408L168.665 79.7914L168.744 79.8048C168.95 79.4879 169.229 79.2523 169.58 79.0981C169.934 78.9443 170.354 78.908 170.839 78.9893C171.278 79.063 171.648 79.2201 171.948 79.4604C172.248 79.698 172.459 80.0127 172.58 80.4047C172.702 80.7967 172.718 81.2588 172.629 81.7911L171.94 85.8972L170.684 85.6865L171.347 81.7318C171.425 81.2639 171.364 80.8778 171.165 80.5736C170.966 80.2665 170.653 80.0773 170.227 80.0059C169.936 79.9571 169.666 79.9766 169.418 80.0647C169.173 80.1532 168.964 80.3083 168.791 80.53C168.622 80.7493 168.509 81.0299 168.452 81.3717ZM173.389 86.1401L174.471 79.6847L175.728 79.8954L174.645 86.3507L173.389 86.1401ZM175.273 78.795C175.054 78.7584 174.879 78.6541 174.746 78.4821C174.617 78.3078 174.569 78.1183 174.604 77.9138C174.639 77.7065 174.745 77.5429 174.924 77.423C175.105 77.3008 175.306 77.258 175.524 77.2947C175.743 77.3313 175.917 77.4368 176.046 77.6111C176.178 77.7831 176.227 77.9728 176.192 78.1801C176.158 78.3847 176.05 78.548 175.868 78.6702C175.69 78.7901 175.491 78.8317 175.273 78.795ZM177.998 82.9723L177.356 86.8051L176.099 86.5945L177.182 80.1391L178.388 80.3413L178.212 81.392L178.291 81.4054C178.497 81.0885 178.776 80.8529 179.127 80.6986C179.481 80.5448 179.901 80.5086 180.385 80.5898C180.825 80.6636 181.195 80.8206 181.495 81.061C181.795 81.2985 182.006 81.6133 182.127 82.0053C182.249 82.3972 182.265 82.8594 182.176 83.3917L181.487 87.4978L180.231 87.2871L180.894 83.3323C180.972 82.8644 180.911 82.4784 180.712 82.1741C180.513 81.8671 180.2 81.6779 179.774 81.6065C179.483 81.5576 179.213 81.5772 178.965 81.6652C178.72 81.7538 178.511 81.9088 178.338 82.1305C178.169 82.3499 178.056 82.6305 177.998 82.9723ZM185.214 90.7496C184.701 90.6637 184.271 90.5224 183.924 90.326C183.579 90.1299 183.309 89.9018 183.114 89.6414C182.918 89.3811 182.785 89.1096 182.715 88.827L183.869 88.5626C183.924 88.6985 184.003 88.8457 184.107 89.0042C184.212 89.1659 184.366 89.3141 184.568 89.4488C184.773 89.5839 185.049 89.6806 185.396 89.7389C185.873 89.8187 186.286 89.7685 186.636 89.5881C186.985 89.4104 187.202 89.0695 187.287 88.5652L187.5 87.2959L187.42 87.2825C187.321 87.4072 187.186 87.5415 187.015 87.6857C186.847 87.8303 186.629 87.9436 186.362 88.0255C186.095 88.1075 185.764 88.1153 185.368 88.0491C184.859 87.9636 184.419 87.7675 184.05 87.4608C183.684 87.1517 183.421 86.7432 183.262 86.2354C183.105 85.7253 183.084 85.127 183.199 84.4405C183.315 83.7541 183.529 83.1852 183.844 82.7339C184.162 82.283 184.547 81.9616 185 81.7696C185.453 81.5748 185.939 81.5209 186.457 81.6078C186.858 81.6749 187.17 81.7964 187.394 81.9722C187.619 82.1453 187.785 82.3315 187.892 82.5311C188.003 82.7311 188.085 82.9047 188.138 83.0518L188.23 83.0673L188.406 82.0209L189.637 82.2273L188.531 88.8256C188.438 89.3803 188.233 89.814 187.915 90.1266C187.598 90.4392 187.205 90.6441 186.736 90.7413C186.27 90.8389 185.763 90.8417 185.214 90.7496ZM185.821 87.0533C186.182 87.1139 186.502 87.0811 186.779 86.9548C187.06 86.8261 187.291 86.6143 187.473 86.3193C187.658 86.022 187.788 85.6506 187.863 85.2051C187.936 84.7708 187.936 84.3776 187.862 84.0254C187.789 83.6731 187.643 83.3837 187.424 83.1569C187.207 82.9274 186.914 82.7819 186.547 82.7203C186.169 82.6569 185.837 82.7021 185.552 82.856C185.268 83.007 185.033 83.2385 184.848 83.5503C184.666 83.8626 184.541 84.2246 184.472 84.6365C184.401 85.0596 184.403 85.4416 184.478 85.7826C184.553 86.1236 184.702 86.4049 184.924 86.6265C185.149 86.8486 185.448 86.9909 185.821 87.0533ZM193.981 82.9556L195.238 83.1663L194.085 90.0419C194.013 90.4734 193.873 90.8244 193.666 91.0951C193.462 91.3663 193.195 91.5533 192.864 91.6562C192.535 91.7596 192.148 91.7739 191.703 91.6992C191.658 91.6917 191.616 91.6847 191.577 91.6781C191.535 91.6711 191.491 91.6624 191.447 91.6521L191.628 90.572C191.667 90.5785 191.702 90.5844 191.733 90.5896C191.761 90.5943 191.793 90.5997 191.83 90.6058C192.127 90.6556 192.355 90.6117 192.513 90.474C192.674 90.3397 192.779 90.1226 192.83 89.8228L193.981 82.9556ZM194.77 82.0638C194.551 82.0272 194.376 81.9229 194.243 81.7509C194.114 81.5765 194.067 81.3871 194.101 81.1826C194.136 80.9752 194.242 80.8116 194.421 80.6918C194.603 80.5696 194.803 80.5268 195.021 80.5635C195.24 80.6001 195.414 80.7056 195.543 80.8799C195.676 81.0519 195.724 81.2416 195.69 81.4489C195.655 81.6534 195.547 81.8168 195.366 81.939C195.187 82.0588 194.988 82.1005 194.77 82.0638ZM198.306 90.4515C197.701 90.3501 197.196 90.1228 196.792 89.7698C196.387 89.4168 196.102 88.97 195.936 88.4295C195.771 87.889 195.744 87.2853 195.855 86.6185C195.968 85.9488 196.19 85.3842 196.524 84.9245C196.857 84.4647 197.273 84.134 197.77 83.9323C198.268 83.7305 198.819 83.6804 199.425 83.7818C200.03 83.8833 200.535 84.1105 200.939 84.4635C201.344 84.8165 201.629 85.2647 201.794 85.808C201.959 86.3513 201.986 86.9578 201.874 87.6275C201.762 88.2943 201.539 88.8562 201.206 89.3131C200.874 89.77 200.458 90.0993 199.961 90.3011C199.463 90.5028 198.912 90.553 198.306 90.4515ZM198.488 89.3973C198.88 89.4631 199.222 89.4139 199.515 89.2498C199.807 89.0857 200.044 88.8417 200.225 88.5177C200.409 88.1942 200.536 87.8251 200.605 87.4105C200.674 86.9986 200.675 86.6098 200.606 86.244C200.541 85.8759 200.397 85.5652 200.175 85.3119C199.952 85.0585 199.645 84.899 199.253 84.8332C198.858 84.767 198.512 84.8171 198.216 84.9835C197.923 85.1504 197.685 85.397 197.5 85.7233C197.319 86.0473 197.194 86.4152 197.125 86.8271C197.056 87.2417 197.054 87.6317 197.119 87.997C197.188 88.3628 197.333 88.6709 197.556 88.9215C197.782 89.1725 198.092 89.3311 198.488 89.3973ZM207.041 89.0296L207.675 85.2514L208.936 85.4628L207.853 91.9181L206.618 91.711L206.805 90.5931L206.738 90.5818C206.532 90.9015 206.245 91.1488 205.879 91.3236C205.516 91.496 205.092 91.5416 204.607 91.4604C204.193 91.3908 203.841 91.2383 203.552 91.0026C203.267 90.7646 203.063 90.4496 202.941 90.0576C202.823 89.6661 202.808 89.2042 202.897 88.6719L203.586 84.5658L204.842 84.7765L204.179 88.7313C204.105 89.1711 204.169 89.5418 204.369 89.8432C204.569 90.1447 204.864 90.328 205.253 90.3933C205.488 90.4328 205.732 90.4132 205.984 90.3345C206.24 90.2563 206.464 90.111 206.658 89.8987C206.855 89.6868 206.983 89.3971 207.041 89.0296ZM209.305 92.1615L210.387 85.7062L211.602 85.9098L211.43 86.9353L211.497 86.9465C211.673 86.6188 211.926 86.3804 212.257 86.2313C212.59 86.0798 212.946 86.0358 213.325 86.0992C213.403 86.1124 213.495 86.1307 213.601 86.1541C213.709 86.178 213.793 86.1994 213.853 86.2181L213.652 87.4201C213.604 87.3976 213.517 87.3672 213.391 87.3288C213.265 87.2875 213.138 87.2561 213.009 87.2345C212.712 87.1847 212.437 87.2034 212.183 87.2905C211.932 87.3752 211.721 87.517 211.55 87.7158C211.379 87.9118 211.27 88.1499 211.223 88.4301L210.562 92.3722L209.305 92.1615ZM215.51 89.2611L214.867 93.094L213.611 92.8833L214.693 86.428L215.899 86.6302L215.723 87.6809L215.803 87.6943C216.009 87.3773 216.287 87.1418 216.638 86.9875C216.993 86.8337 217.412 86.7975 217.897 86.8787C218.337 86.9525 218.706 87.1095 219.006 87.3499C219.306 87.5874 219.517 87.9022 219.638 88.2941C219.76 88.6861 219.776 89.1482 219.687 89.6806L218.998 93.7866L217.742 93.576L218.405 89.6212C218.483 89.1533 218.423 88.7672 218.223 88.463C218.024 88.156 217.711 87.9667 217.286 87.8953C216.994 87.8465 216.724 87.8661 216.476 87.9541C216.231 88.0426 216.022 88.1977 215.85 88.4194C215.68 88.6387 215.567 88.9193 215.51 89.2611ZM223.207 94.6262C222.571 94.5196 222.046 94.2919 221.632 93.9431C221.222 93.5919 220.933 93.1475 220.767 92.6098C220.604 92.0697 220.579 91.4649 220.691 90.7952C220.802 90.134 221.023 89.5719 221.354 89.1089C221.688 88.6464 222.101 88.311 222.594 88.1027C223.09 87.8949 223.638 87.8412 224.237 87.9417C224.602 88.0028 224.944 88.1222 225.266 88.3C225.588 88.4778 225.863 88.7183 226.091 89.0217C226.32 89.325 226.478 89.6958 226.566 90.1339C226.654 90.5693 226.649 91.0798 226.551 91.6653L226.477 92.1108L221.345 91.2505L221.503 90.3091L225.403 90.963C225.458 90.6324 225.44 90.3283 225.348 90.0508C225.257 89.7705 225.102 89.5356 224.883 89.3463C224.667 89.1574 224.397 89.0357 224.072 88.9812C223.719 88.922 223.396 88.9572 223.103 89.0868C222.814 89.214 222.575 89.4043 222.385 89.6577C222.199 89.9088 222.079 90.1955 222.025 90.5177L221.902 91.2532C221.83 91.6846 221.844 92.0644 221.944 92.3923C222.048 92.7207 222.223 92.9878 222.471 93.1936C222.719 93.3965 223.027 93.5287 223.394 93.5903C223.632 93.6302 223.855 93.633 224.062 93.5986C224.27 93.5614 224.457 93.4862 224.623 93.3729C224.789 93.2595 224.927 93.1083 225.036 92.9193L226.19 93.333C226.036 93.6673 225.813 93.9454 225.522 94.1675C225.235 94.3872 224.894 94.5389 224.5 94.6226C224.109 94.7039 223.678 94.7051 223.207 94.6262ZM227.36 97.6773C227.172 97.6458 227.004 97.6017 226.855 97.5451C226.706 97.4912 226.596 97.4411 226.526 97.3948L227.001 96.4159C227.22 96.5161 227.421 96.577 227.601 96.5986C227.782 96.6203 227.952 96.5796 228.11 96.4765C228.271 96.3739 228.429 96.1887 228.583 95.9207L228.811 95.5181L227.545 88.5827L228.89 88.8082L229.685 94.0919L229.752 94.1032L232.227 89.3676L233.576 89.5938L229.689 96.4647C229.509 96.7803 229.305 97.0383 229.075 97.2389C228.845 97.4424 228.589 97.5808 228.306 97.6543C228.023 97.7279 227.707 97.7355 227.36 97.6773ZM236.465 87.866L235.328 93.9794L234.164 93.7842L235.083 87.6341L236.465 87.866ZM234.32 96.4374C234.087 96.3984 233.902 96.2838 233.764 96.0936C233.626 95.9006 233.578 95.688 233.62 95.4559C233.656 95.2257 233.77 95.0432 233.963 94.9084C234.156 94.7708 234.368 94.7215 234.601 94.7605C234.828 94.7986 235.01 94.9141 235.148 95.1071C235.286 95.2973 235.337 95.5076 235.301 95.7378C235.273 95.8914 235.208 96.0261 235.108 96.1418C235.011 96.2552 234.894 96.3392 234.755 96.3937C234.616 96.4482 234.471 96.4628 234.32 96.4374Z" fill="white"/>
</g>
<rect x="13.8035" y="0.57579" width="329" height="80" rx="23.5" transform="rotate(9.51728 13.8035 0.57579)" stroke="white" stroke-opacity="0.2"/>
<defs>
<filter id="filter2_i_5144_674" x="32.9009" y="31.3784" width="28.0513" height="28.1243" filterUnits="userSpaceOnUse" color-interpolation-filters="sRGB">
<feFlood flood-opacity="0" result="BackgroundImageFix"/>
<feBlend mode="normal" in="SourceGraphic" in2="BackgroundImageFix" result="shape"/>
<feColorMatrix in="SourceAlpha" type="matrix" values="0 0 0 0 0 0 0 0 0 0 0 0 0 0 0 0 0 0 127 0" result="hardAlpha"/>
<feOffset/>
<feGaussianBlur stdDeviation="0.5"/>
<feComposite in2="hardAlpha" operator="arithmetic" k2="-1" k3="1"/>
<feColorMatrix type="matrix" values="0 0 0 0 1 0 0 0 0 1 0 0 0 0 1 0 0 0 1 0"/>
<feBlend mode="normal" in2="shape" result="effect1_innerShadow_5144_674"/>
</filter>
<linearGradient id="paint0_linear_5144_674" x1="74.5273" y1="42.4253" x2="26.5273" y2="42.4253" gradientUnits="userSpaceOnUse">
<stop stop-color="#F27513"/>
<stop offset="1" stop-color="#F6C20F"/>
</linearGradient>
<linearGradient id="paint1_linear_5144_674" x1="31.1295" y1="19.1971" x2="51.8989" y2="69.3682" gradientUnits="userSpaceOnUse">
<stop stop-color="white"/>
<stop offset="1" stop-color="white" stop-opacity="0"/>
</linearGradient>
<linearGradient id="paint2_linear_5144_674" x1="254.425" y1="72.2097" x2="320.425" y2="72.2097" gradientUnits="userSpaceOnUse">
<stop stop-color="#B3B5B9"/>
<stop offset="1" stop-color="#929292"/>
</linearGradient>
<clipPath id="clip0_5144_674">
<rect x="13.3931" width="330" height="81" rx="24" transform="rotate(9.51728 13.3931 0)" fill="white"/>
</clipPath>
</defs>
</svg>
