<svg width="48" height="48" viewBox="0 0 48 48" fill="none" xmlns="http://www.w3.org/2000/svg">
<rect width="48" height="48" rx="16" fill="url(#paint0_linear_3998_2403)"/>
<g clip-path="url(#clip0_3998_2403)">
<g filter="url(#filter0_i_3998_2403)">
<path fill-rule="evenodd" clip-rule="evenodd" d="M10.8571 34.5714V13.1429C10.8571 11.7789 11.399 10.4708 12.3634 9.50631C13.3279 8.54184 14.636 8 16 8H32C33.3639 8 34.6721 8.54184 35.6365 9.50631C36.601 10.4708 37.1428 11.7789 37.1428 13.1429V30.8571C37.1428 31.3118 36.9622 31.7478 36.6407 32.0693C36.3192 32.3908 35.8832 32.5714 35.4285 32.5714H34.8571V36.5714H35.4285C35.8832 36.5714 36.3192 36.752 36.6407 37.0735C36.9622 37.395 37.1428 37.8311 37.1428 38.2857C37.1428 38.7404 36.9622 39.1764 36.6407 39.4979C36.3192 39.8194 35.8832 40 35.4285 40H16.2857C14.8459 40 13.4652 39.4281 12.4471 38.41C11.4291 37.392 10.8571 36.0112 10.8571 34.5714ZM31.4285 32.5714H16.2857C15.7553 32.5714 15.2465 32.7821 14.8715 33.1572C14.4964 33.5323 14.2857 34.041 14.2857 34.5714C14.2857 35.1019 14.4964 35.6106 14.8715 35.9856C15.2465 36.3607 15.7553 36.5714 16.2857 36.5714H31.4285V32.5714ZM32.7085 18.9074C32.6124 18.7218 32.4671 18.5661 32.2886 18.4573C32.11 18.3484 31.9051 18.2907 31.696 18.2903H26.4C26.0969 18.2903 25.8062 18.4107 25.5919 18.625C25.3775 18.8393 25.2571 19.13 25.2571 19.4331C25.2571 19.7362 25.3775 20.0269 25.5919 20.2413C25.8062 20.4556 26.0969 20.576 26.4 20.576H29.4857L25.1405 26.7109C25.0194 26.8819 24.9476 27.083 24.9331 27.292C24.9185 27.5011 24.9617 27.7102 25.058 27.8964C25.1543 28.0826 25.2999 28.2387 25.4789 28.3477C25.658 28.4566 25.8635 28.5143 26.0731 28.5143H32.0251C32.3282 28.5143 32.6189 28.3939 32.8332 28.1796C33.0476 27.9652 33.168 27.6745 33.168 27.3714C33.168 27.0683 33.0476 26.7776 32.8332 26.5633C32.6189 26.349 32.3282 26.2286 32.0251 26.2286H28.2834L32.6263 20.0937C32.7479 19.9228 32.8201 19.7217 32.835 19.5124C32.8499 19.3032 32.8047 19.0939 32.7085 18.9074ZM21.2914 14.0114C21.1538 13.6021 20.8912 13.2463 20.5405 12.9942C20.1899 12.7422 19.769 12.6066 19.3371 12.6066C18.9053 12.6066 18.4843 12.7422 18.1337 12.9942C17.7831 13.2463 17.5204 13.6021 17.3828 14.0114L15.8354 18.6514L15.8194 18.7017L14.944 21.3211C14.8964 21.4637 14.8774 21.6143 14.888 21.7642C14.8986 21.9141 14.9386 22.0605 15.0058 22.195C15.073 22.3294 15.166 22.4493 15.2795 22.5479C15.393 22.6464 15.5248 22.7216 15.6674 22.7691C15.9554 22.8652 16.2697 22.843 16.5412 22.7073C16.6757 22.6401 16.7956 22.5471 16.8941 22.4336C16.9926 22.3201 17.0678 22.1883 17.1154 22.0457L17.7325 20.1806H20.9371L21.5588 22.0457C21.6549 22.3334 21.8613 22.5711 22.1327 22.7065C22.404 22.842 22.718 22.8641 23.0057 22.768C23.2933 22.6719 23.531 22.4655 23.6665 22.1942C23.8019 21.9228 23.8241 21.6088 23.728 21.3211L22.8548 18.7017L22.8365 18.6514L21.2914 14.0114ZM18.4914 17.8926L19.3325 15.3737L20.1714 17.8926H18.4914Z" fill="url(#paint1_linear_3998_2403)"/>
</g>
</g>
<defs>
<filter id="filter0_i_3998_2403" x="10.8571" y="8" width="26.2857" height="32" filterUnits="userSpaceOnUse" color-interpolation-filters="sRGB">
<feFlood flood-opacity="0" result="BackgroundImageFix"/>
<feBlend mode="normal" in="SourceGraphic" in2="BackgroundImageFix" result="shape"/>
<feColorMatrix in="SourceAlpha" type="matrix" values="0 0 0 0 0 0 0 0 0 0 0 0 0 0 0 0 0 0 127 0" result="hardAlpha"/>
<feOffset/>
<feGaussianBlur stdDeviation="0.5"/>
<feComposite in2="hardAlpha" operator="arithmetic" k2="-1" k3="1"/>
<feColorMatrix type="matrix" values="0 0 0 0 1 0 0 0 0 1 0 0 0 0 1 0 0 0 1 0"/>
<feBlend mode="normal" in2="shape" result="effect1_innerShadow_3998_2403"/>
</filter>
<linearGradient id="paint0_linear_3998_2403" x1="-4.82425e-07" y1="7" x2="48" y2="39.5" gradientUnits="userSpaceOnUse">
<stop stop-color="#276FFF"/>
<stop offset="1" stop-color="#57B2F4"/>
</linearGradient>
<linearGradient id="paint1_linear_3998_2403" x1="8.11902" y1="0.000194346" x2="38.9762" y2="40.5553" gradientUnits="userSpaceOnUse">
<stop stop-color="white"/>
<stop offset="1" stop-color="white" stop-opacity="0"/>
</linearGradient>
<clipPath id="clip0_3998_2403">
<rect width="32" height="32" fill="white" transform="translate(8 8)"/>
</clipPath>
</defs>
</svg>
