<svg width="48" height="48" viewBox="0 0 48 48" fill="none" xmlns="http://www.w3.org/2000/svg">
<rect width="48" height="48" rx="16" fill="url(#paint0_linear_3998_2413)"/>
<g filter="url(#filter0_i_3998_2413)">
<path d="M20.2193 10H27.7807C29.3487 10 30.5922 10 31.593 10.0818C32.6183 10.1651 33.4841 10.3403 34.2767 10.7424C35.5599 11.3969 36.6029 12.4409 37.2562 13.7247C37.6597 14.5145 37.8349 15.3817 37.9182 16.407C38 17.4078 38 18.6513 38 20.2193V27.7807C38 29.3487 38 30.5922 37.9182 31.593C37.8349 32.6183 37.6597 33.4841 37.2576 34.2767C36.6035 35.5597 35.56 36.6027 34.2767 37.2562C33.4841 37.6597 32.6183 37.8349 31.593 37.9182C30.5922 38 29.3487 38 27.7807 38H20.2193C18.6513 38 17.4078 38 16.407 37.9182C15.3817 37.8349 14.5159 37.6597 13.7247 37.2576C12.4412 36.6037 11.3977 35.5602 10.7438 34.2767C10.3403 33.4841 10.1651 32.6183 10.0818 31.593C10 30.5922 10 29.3487 10 27.7807V20.2193C10 18.6513 10 17.4078 10.0818 16.407C10.1651 15.3817 10.3403 14.5159 10.7424 13.7247C11.3967 12.441 12.4407 11.3975 13.7247 10.7438C14.5145 10.3403 15.3817 10.1651 16.407 10.0818C17.4078 10 18.6513 10 20.2193 10ZM20.4103 16.641C20.4103 16.3554 20.2968 16.0815 20.0948 15.8795C19.8929 15.6776 19.619 15.5641 19.3333 15.5641C19.0477 15.5641 18.7738 15.6776 18.5718 15.8795C18.3699 16.0815 18.2564 16.3554 18.2564 16.641V18.4359H16.4615C16.1759 18.4359 15.902 18.5494 15.7 18.7513C15.4981 18.9533 15.3846 19.2272 15.3846 19.5128C15.3846 19.7984 15.4981 20.0724 15.7 20.2743C15.902 20.4763 16.1759 20.5897 16.4615 20.5897H18.2564V22.3846C18.2564 22.6702 18.3699 22.9442 18.5718 23.1461C18.7738 23.3481 19.0477 23.4615 19.3333 23.4615C19.619 23.4615 19.8929 23.3481 20.0948 23.1461C20.2968 22.9442 20.4103 22.6702 20.4103 22.3846V20.5897H22.2051C22.4907 20.5897 22.7647 20.4763 22.9666 20.2743C23.1686 20.0724 23.2821 19.7984 23.2821 19.5128C23.2821 19.2272 23.1686 18.9533 22.9666 18.7513C22.7647 18.5494 22.4907 18.4359 22.2051 18.4359H20.4103V16.641ZM26.5128 16.641C26.2272 16.641 25.9533 16.7545 25.7513 16.9564C25.5494 17.1584 25.4359 17.4323 25.4359 17.7179C25.4359 18.0036 25.5494 18.2775 25.7513 18.4794C25.9533 18.6814 26.2272 18.7949 26.5128 18.7949H31.5385C31.8241 18.7949 32.098 18.6814 32.3 18.4794C32.5019 18.2775 32.6154 18.0036 32.6154 17.7179C32.6154 17.4323 32.5019 17.1584 32.3 16.9564C32.098 16.7545 31.8241 16.641 31.5385 16.641H26.5128ZM25.4359 21.3077C25.4359 21.9022 25.9184 22.3846 26.5128 22.3846H31.5385C31.8241 22.3846 32.098 22.2712 32.3 22.0692C32.5019 21.8672 32.6154 21.5933 32.6154 21.3077C32.6154 21.0221 32.5019 20.7482 32.3 20.5462C32.098 20.3442 31.8241 20.2308 31.5385 20.2308H26.5128C26.2272 20.2308 25.9533 20.3442 25.7513 20.5462C25.5494 20.7482 25.4359 21.0221 25.4359 21.3077ZM27.7764 26.5358C27.6778 26.43 27.5589 26.3451 27.4268 26.2863C27.2947 26.2274 27.1521 26.1958 27.0075 26.1932C26.8629 26.1907 26.7193 26.2173 26.5852 26.2714C26.4511 26.3256 26.3293 26.4062 26.227 26.5085C26.1248 26.6107 26.0441 26.7325 25.99 26.8666C25.9358 27.0007 25.9092 27.1444 25.9118 27.289C25.9143 27.4336 25.946 27.5762 26.0048 27.7083C26.0637 27.8404 26.1486 27.9593 26.2544 28.0578L27.5237 29.3286L26.2544 30.5979C26.1486 30.6965 26.0637 30.8154 26.0048 30.9475C25.946 31.0796 25.9143 31.2222 25.9118 31.3668C25.9092 31.5114 25.9358 31.6551 25.99 31.7892C26.0441 31.9233 26.1248 32.0451 26.227 32.1473C26.3293 32.2496 26.4511 32.3302 26.5852 32.3844C26.7193 32.4385 26.8629 32.4651 27.0075 32.4626C27.1521 32.46 27.2947 32.4284 27.4268 32.3695C27.5589 32.3107 27.6778 32.2258 27.7764 32.12L29.0457 30.8507L30.3151 32.12C30.5192 32.3102 30.7892 32.4138 31.0682 32.4089C31.3472 32.4039 31.6134 32.2909 31.8107 32.0936C32.008 31.8963 32.1211 31.6301 32.126 31.3511C32.1309 31.0721 32.0274 30.8021 31.8371 30.5979L30.5692 29.3286L31.8386 28.0593C32.0288 27.8551 32.1324 27.5851 32.1274 27.3061C32.1225 27.0271 32.0095 26.7609 31.8122 26.5636C31.6149 26.3663 31.3487 26.2533 31.0697 26.2484C30.7907 26.2434 30.5207 26.347 30.3165 26.5372L29.0457 27.8051L27.7764 26.5358ZM15.7436 29.2051C15.7436 29.7996 16.2261 30.2821 16.8205 30.2821H21.8462C22.1318 30.2821 22.4057 30.1686 22.6077 29.9666C22.8096 29.7647 22.9231 29.4907 22.9231 29.2051C22.9231 28.9195 22.8096 28.6456 22.6077 28.4436C22.4057 28.2417 22.1318 28.1282 21.8462 28.1282H16.8205C16.5349 28.1282 16.261 28.2417 16.059 28.4436C15.8571 28.6456 15.7436 28.9195 15.7436 29.2051Z" fill="url(#paint1_linear_3998_2413)"/>
</g>
<defs>
<filter id="filter0_i_3998_2413" x="10" y="10" width="28" height="28" filterUnits="userSpaceOnUse" color-interpolation-filters="sRGB">
<feFlood flood-opacity="0" result="BackgroundImageFix"/>
<feBlend mode="normal" in="SourceGraphic" in2="BackgroundImageFix" result="shape"/>
<feColorMatrix in="SourceAlpha" type="matrix" values="0 0 0 0 0 0 0 0 0 0 0 0 0 0 0 0 0 0 127 0" result="hardAlpha"/>
<feOffset/>
<feGaussianBlur stdDeviation="0.5"/>
<feComposite in2="hardAlpha" operator="arithmetic" k2="-1" k3="1"/>
<feColorMatrix type="matrix" values="0 0 0 0 1 0 0 0 0 1 0 0 0 0 1 0 0 0 1 0"/>
<feBlend mode="normal" in2="shape" result="effect1_innerShadow_3998_2413"/>
</filter>
<linearGradient id="paint0_linear_3998_2413" x1="48" y1="24" x2="0" y2="24" gradientUnits="userSpaceOnUse">
<stop stop-color="#F27513"/>
<stop offset="1" stop-color="#F6C20F"/>
</linearGradient>
<linearGradient id="paint1_linear_3998_2413" x1="7.08333" y1="3.00017" x2="32.265" y2="43.2908" gradientUnits="userSpaceOnUse">
<stop stop-color="white"/>
<stop offset="1" stop-color="white" stop-opacity="0"/>
</linearGradient>
</defs>
</svg>
