<svg width="48" height="48" viewBox="0 0 48 48" fill="none" xmlns="http://www.w3.org/2000/svg">
<rect width="48" height="48" rx="16" fill="url(#paint0_linear_3998_2422)"/>
<g filter="url(#filter0_i_3998_2422)">
<path d="M24 39C15.7155 39 9 32.2845 9 24C9 15.7155 15.7155 9 24 9C32.2845 9 39 15.7155 39 24C39 32.2845 32.2845 39 24 39ZM18 25.5C18 27.0913 18.6321 28.6174 19.7574 29.7426C20.8826 30.8679 22.4087 31.5 24 31.5C25.5913 31.5 27.1174 30.8679 28.2426 29.7426C29.3679 28.6174 30 27.0913 30 25.5H18ZM18 22.5C18.5967 22.5 19.169 22.2629 19.591 21.841C20.0129 21.419 20.25 20.8467 20.25 20.25C20.25 19.6533 20.0129 19.081 19.591 18.659C19.169 18.2371 18.5967 18 18 18C17.4033 18 16.831 18.2371 16.409 18.659C15.9871 19.081 15.75 19.6533 15.75 20.25C15.75 20.8467 15.9871 21.419 16.409 21.841C16.831 22.2629 17.4033 22.5 18 22.5ZM30 22.5C30.5967 22.5 31.169 22.2629 31.591 21.841C32.0129 21.419 32.25 20.8467 32.25 20.25C32.25 19.6533 32.0129 19.081 31.591 18.659C31.169 18.2371 30.5967 18 30 18C29.4033 18 28.831 18.2371 28.409 18.659C27.9871 19.081 27.75 19.6533 27.75 20.25C27.75 20.8467 27.9871 21.419 28.409 21.841C28.831 22.2629 29.4033 22.5 30 22.5Z" fill="url(#paint1_linear_3998_2422)"/>
</g>
<defs>
<filter id="filter0_i_3998_2422" x="9" y="9" width="30" height="30" filterUnits="userSpaceOnUse" color-interpolation-filters="sRGB">
<feFlood flood-opacity="0" result="BackgroundImageFix"/>
<feBlend mode="normal" in="SourceGraphic" in2="BackgroundImageFix" result="shape"/>
<feColorMatrix in="SourceAlpha" type="matrix" values="0 0 0 0 0 0 0 0 0 0 0 0 0 0 0 0 0 0 127 0" result="hardAlpha"/>
<feOffset/>
<feGaussianBlur stdDeviation="0.5"/>
<feComposite in2="hardAlpha" operator="arithmetic" k2="-1" k3="1"/>
<feColorMatrix type="matrix" values="0 0 0 0 1 0 0 0 0 1 0 0 0 0 1 0 0 0 1 0"/>
<feBlend mode="normal" in2="shape" result="effect1_innerShadow_3998_2422"/>
</filter>
<linearGradient id="paint0_linear_3998_2422" x1="48" y1="24" x2="0" y2="24" gradientUnits="userSpaceOnUse">
<stop stop-color="#44B981"/>
<stop offset="1" stop-color="#4EC461"/>
</linearGradient>
<linearGradient id="paint1_linear_3998_2422" x1="5.875" y1="1.50018" x2="32.8553" y2="44.6687" gradientUnits="userSpaceOnUse">
<stop stop-color="white"/>
<stop offset="1" stop-color="white" stop-opacity="0"/>
</linearGradient>
</defs>
</svg>
