<svg width="48" height="48" viewBox="0 0 48 48" fill="none" xmlns="http://www.w3.org/2000/svg">
<rect width="48" height="48" rx="16" fill="url(#paint0_linear_3998_2431)"/>
<g clip-path="url(#clip0_3998_2431)">
<g filter="url(#filter0_i_3998_2431)">
<path d="M31.8048 8.45129L32.3616 10.1649C32.5344 10.6863 32.8269 11.16 33.2156 11.5481C33.6042 11.9362 34.0784 12.228 34.6 12.4001L36.3136 12.9569L36.3472 12.9665C36.4794 13.013 36.5938 13.0994 36.6748 13.2138C36.7558 13.3281 36.7993 13.4648 36.7993 13.6049C36.7993 13.745 36.7558 13.8817 36.6748 13.996C36.5938 14.1104 36.4794 14.1968 36.3472 14.2433L34.6336 14.8001C34.112 14.9722 33.6378 15.264 33.2492 15.6521C32.8605 16.0402 32.568 16.5139 32.3952 17.0353L31.8384 18.7473C31.7919 18.8795 31.7055 18.9939 31.5911 19.0749C31.4768 19.1559 31.3401 19.1994 31.2 19.1994C31.0599 19.1994 30.9232 19.1559 30.8089 19.0749C30.6945 18.9939 30.6081 18.8795 30.5616 18.7473L30.0032 17.0353C29.8317 16.5127 29.5402 16.0376 29.152 15.6481C28.7636 15.2578 28.289 14.964 27.7664 14.7905L26.0528 14.2337C25.9206 14.1872 25.8062 14.1008 25.7252 13.9864C25.6442 13.8721 25.6007 13.7354 25.6007 13.5953C25.6007 13.4552 25.6442 13.3185 25.7252 13.2042C25.8062 13.0898 25.9206 13.0034 26.0528 12.9569L27.7664 12.4001C28.2815 12.2233 28.7486 11.9295 29.1309 11.5416C29.5132 11.1538 29.8003 10.6825 29.9696 10.1649L30.5264 8.45289C30.5726 8.32017 30.6589 8.20512 30.7735 8.1237C30.888 8.04228 31.0251 7.99854 31.1656 7.99854C31.3061 7.99854 31.4432 8.04228 31.5577 8.1237C31.6722 8.20512 31.7586 8.31857 31.8048 8.45129ZM39.6528 21.1425L38.4272 20.7457C38.0553 20.6214 37.7174 20.4122 37.4403 20.1348C37.1632 19.8574 36.9543 19.5193 36.8304 19.1473L36.4304 17.9249C36.3973 17.8304 36.3356 17.7485 36.2539 17.6906C36.1722 17.6326 36.0745 17.6015 35.9744 17.6015C35.8742 17.6015 35.7766 17.6326 35.6949 17.6906C35.6132 17.7485 35.5515 17.8304 35.5184 17.9249L35.1216 19.1473C34.9999 19.5169 34.7945 19.8535 34.5214 20.1307C34.2483 20.408 33.9149 20.6184 33.5472 20.7457L32.3232 21.1425C32.2294 21.1763 32.1483 21.2383 32.091 21.3199C32.0337 21.4015 32.003 21.4988 32.003 21.5985C32.003 21.6982 32.0337 21.7955 32.091 21.8771C32.1483 21.9587 32.2294 22.0206 32.3232 22.0545L33.5472 22.4529C33.9202 22.5773 34.259 22.787 34.5368 23.0653C34.8145 23.3436 35.0235 23.6828 35.1472 24.0561L35.544 25.2785C35.5771 25.373 35.6388 25.4549 35.7205 25.5128C35.8022 25.5707 35.8998 25.6019 36 25.6019C36.1001 25.6019 36.1978 25.5707 36.2795 25.5128C36.3612 25.4549 36.4229 25.373 36.456 25.2785L36.8544 24.0561C36.9785 23.6839 37.1876 23.3457 37.465 23.0683C37.7424 22.7909 38.0806 22.5818 38.4528 22.4577L39.6768 22.0609C39.7706 22.027 39.8516 21.9651 39.9089 21.8835C39.9662 21.8019 39.997 21.7046 39.997 21.6049C39.997 21.5052 39.9662 21.4079 39.9089 21.3263C39.8516 21.2447 39.7706 21.1827 39.6768 21.1489L39.6528 21.1425ZM36.0032 27.2001C35.5775 27.1996 35.1617 27.0714 34.8096 26.8321C34.4576 26.5761 34.2016 26.2385 34.0416 25.8385L33.6256 24.5553C33.5834 24.4202 33.5061 24.2987 33.4016 24.2033C33.3021 24.1037 33.1819 24.0272 33.0496 23.9793L31.8304 23.5793C31.3984 23.4193 31.0464 23.1617 30.7904 22.8097C30.5344 22.4577 30.4064 22.0401 30.4064 21.6065C30.4064 21.3025 30.4704 20.9985 30.5984 20.7265C30.3424 20.6625 30.1024 20.5505 29.8784 20.3905C29.4977 20.1114 29.2077 19.7263 29.0448 19.2833L28.4688 17.5361C28.3248 17.1681 28.1808 16.9601 28.0048 16.7841C27.7899 16.5766 27.5329 16.4178 27.2512 16.3185L25.5536 15.7585C25.277 15.6665 25.021 15.5214 24.8 15.3313V35.6033C25.4259 36.1586 26.1873 36.5389 27.0071 36.7059C27.827 36.8729 28.6765 36.8207 29.4698 36.5546C30.263 36.2884 30.9721 35.8177 31.5253 35.19C32.0785 34.5623 32.4564 33.7997 32.6208 32.9793L32.68 32.6801C33.9317 32.4146 35.0416 31.6969 35.7973 30.6643C36.553 29.6317 36.9015 28.3567 36.776 27.0833C36.5265 27.1642 36.2654 27.2036 36.0032 27.2001ZM23.2 11.9393C22.674 11.5572 22.0603 11.3136 21.4155 11.2308C20.7706 11.148 20.1153 11.2287 19.5098 11.4655C18.9043 11.7023 18.3681 12.0875 17.9505 12.5858C17.5329 13.084 17.2473 13.6793 17.12 14.3169L16.92 15.3201L16.2704 15.4497C15.292 15.6459 14.4117 16.1749 13.779 16.9466C13.1464 17.7184 12.8005 18.6854 12.8 19.6833V20.0001C12.8 21.1617 13.296 22.2081 14.088 22.9393C13.1206 23.4186 12.3265 24.1874 11.8161 25.1387C11.3056 26.0901 11.1042 27.1768 11.2396 28.2479C11.3751 29.319 11.8408 30.3213 12.572 31.1156C13.3033 31.9099 14.2637 32.4567 15.32 32.6801L15.3792 32.9761C15.5433 33.7967 15.921 34.5594 16.4742 35.1873C17.0273 35.8152 17.7364 36.2861 18.5297 36.5525C19.323 36.8188 20.1725 36.8711 20.9925 36.7042C21.8125 36.5373 22.5739 36.157 23.2 35.6017V11.9393Z" fill="url(#paint1_linear_3998_2431)"/>
</g>
</g>
<defs>
<filter id="filter0_i_3998_2431" x="11.1985" y="7.99854" width="28.7985" height="28.8032" filterUnits="userSpaceOnUse" color-interpolation-filters="sRGB">
<feFlood flood-opacity="0" result="BackgroundImageFix"/>
<feBlend mode="normal" in="SourceGraphic" in2="BackgroundImageFix" result="shape"/>
<feColorMatrix in="SourceAlpha" type="matrix" values="0 0 0 0 0 0 0 0 0 0 0 0 0 0 0 0 0 0 127 0" result="hardAlpha"/>
<feOffset/>
<feGaussianBlur stdDeviation="0.5"/>
<feComposite in2="hardAlpha" operator="arithmetic" k2="-1" k3="1"/>
<feColorMatrix type="matrix" values="0 0 0 0 1 0 0 0 0 1 0 0 0 0 1 0 0 0 1 0"/>
<feBlend mode="normal" in2="shape" result="effect1_innerShadow_3998_2431"/>
</filter>
<linearGradient id="paint0_linear_3998_2431" x1="48" y1="24" x2="0" y2="24" gradientUnits="userSpaceOnUse">
<stop stop-color="#EC3F5E"/>
<stop offset="1" stop-color="#E34996"/>
</linearGradient>
<linearGradient id="paint1_linear_3998_2431" x1="8.19871" y1="0.79793" x2="34.1045" y2="42.2404" gradientUnits="userSpaceOnUse">
<stop stop-color="white"/>
<stop offset="1" stop-color="white" stop-opacity="0"/>
</linearGradient>
<clipPath id="clip0_3998_2431">
<rect width="32" height="32" fill="white" transform="translate(8 8)"/>
</clipPath>
</defs>
</svg>
