<svg width="48" height="48" viewBox="0 0 48 48" fill="none" xmlns="http://www.w3.org/2000/svg">
<rect width="48" height="48" rx="16" fill="url(#paint0_linear_3998_2449)"/>
<g clip-path="url(#clip0_3998_2449)">
<g filter="url(#filter0_i_3998_2449)">
<path fill-rule="evenodd" clip-rule="evenodd" d="M30.4571 9.4582C30.8754 7.54734 33.5977 7.53592 34.0343 9.44449L34.0526 9.53363L34.0937 9.71192C34.5966 11.8468 36.3223 13.4765 38.4869 13.8536C40.48 14.2011 40.48 17.0628 38.4869 17.4102C37.424 17.5964 36.4397 18.0919 35.6571 18.8347C34.8745 19.5775 34.3283 20.5346 34.0869 21.5862L34.032 21.8193C33.5977 23.7279 30.8777 23.7165 30.4571 21.8056L30.4137 21.6045C30.183 20.5482 29.6427 19.5846 28.8618 18.8367C28.081 18.0888 27.095 17.5906 26.0297 17.4056C24.0411 17.0605 24.0411 14.2033 26.0297 13.8582C27.0911 13.674 28.074 13.1788 28.8537 12.4353C29.6333 11.6919 30.1747 10.7337 30.4091 9.6822L30.4411 9.53134L30.4571 9.4582ZM32.1189 25.7279C31.0302 25.7045 29.9901 25.2729 29.2046 24.5188C29.0338 24.6345 28.8839 24.7782 28.7611 24.9439C27.7326 26.3062 26.528 27.6982 25.1657 29.0582C24.1326 30.0913 23.0857 31.0308 22.0526 31.8696C21.0194 31.0308 19.9726 30.0913 18.9394 29.0582C17.95 28.0697 17.0117 27.0314 16.128 25.9473C16.9669 24.9119 17.9086 23.8673 18.9394 22.8342C20.2248 21.5407 21.5996 20.3392 23.0537 19.2388C23.204 19.1285 23.3366 18.996 23.4469 18.8456C23.0123 18.4495 22.6642 17.9679 22.4243 17.431C22.1844 16.8942 22.0579 16.3136 22.0526 15.7256C19.8103 14.1553 17.5931 12.9919 15.6137 12.3862C13.4697 11.7302 10.9554 11.5542 9.30742 13.1999C8.24 14.2696 7.94971 15.7233 8.032 17.1062C8.11428 18.4913 8.57828 20.0136 9.28 21.5588C9.99353 23.0974 10.8482 24.5666 11.8331 25.9473C10.8485 27.3267 9.99378 28.7943 9.28 30.3313C8.57828 31.8765 8.11428 33.3988 8.032 34.7839C7.94971 36.1691 8.23771 37.6205 9.30742 38.6879C10.3771 39.7576 11.8309 40.0479 13.2137 39.9656C14.5966 39.8811 16.1211 39.4193 17.6663 38.7176C19.0606 38.0822 20.544 37.2205 22.0549 36.1645C23.5634 37.2205 25.0446 38.0845 26.4411 38.7176C27.984 39.4193 29.5086 39.8833 30.8937 39.9656C32.2789 40.0479 33.728 39.7576 34.7977 38.6879C36.4457 37.0422 36.2697 34.5279 35.6137 32.3839C34.9874 30.3405 33.7691 28.0433 32.1189 25.7279ZM14.6103 15.6616C15.9269 16.0639 17.4971 16.8273 19.1977 17.9336C17.3409 19.5088 15.6163 21.2334 14.0411 23.0902C13.422 22.1477 12.8734 21.1606 12.4 20.1371C11.7989 18.8113 11.504 17.7142 11.4537 16.8982C11.4057 16.0776 11.6069 15.7485 11.7326 15.6228C11.9383 15.4171 12.6971 15.0788 14.6103 15.6616ZM12.4023 31.7508C12.8229 30.8251 13.3737 29.8308 14.0434 28.7976C15.6184 30.6552 17.3431 32.3806 19.2 33.9565C18.2582 34.5755 17.2719 35.1241 16.2491 35.5976C14.9234 36.2011 13.8263 36.4959 13.0103 36.5439C12.1874 36.5942 11.8606 36.3931 11.7349 36.2673C11.6091 36.1416 11.408 35.8102 11.456 34.9919C11.5063 34.1759 11.7989 33.0788 12.4023 31.7531M27.8606 35.5999C26.8385 35.1255 25.853 34.5762 24.912 33.9565C26.7664 32.3811 28.4888 30.6565 30.0617 28.7999C31.1657 30.5028 31.9314 32.0731 32.3314 33.3896C32.9166 35.3005 32.5783 36.0616 32.3726 36.2673C32.2469 36.3931 31.9154 36.5942 31.0971 36.5462C30.2789 36.4959 29.1817 36.2033 27.856 35.5999M19.7646 25.9473C19.7646 25.3411 20.0054 24.7598 20.434 24.3311C20.8627 23.9024 21.4441 23.6616 22.0503 23.6616C22.6565 23.6616 23.2379 23.9024 23.6665 24.3311C24.0952 24.7598 24.336 25.3411 24.336 25.9473C24.336 26.5536 24.0952 27.1349 23.6665 27.5636C23.2379 27.9922 22.6565 28.2331 22.0503 28.2331C21.4441 28.2331 20.8627 27.9922 20.434 27.5636C20.0054 27.1349 19.7646 26.5536 19.7646 25.9473Z" fill="url(#paint1_linear_3998_2449)"/>
</g>
</g>
<defs>
<filter id="filter0_i_3998_2449" x="8.0188" y="8.01904" width="31.9629" height="31.9595" filterUnits="userSpaceOnUse" color-interpolation-filters="sRGB">
<feFlood flood-opacity="0" result="BackgroundImageFix"/>
<feBlend mode="normal" in="SourceGraphic" in2="BackgroundImageFix" result="shape"/>
<feColorMatrix in="SourceAlpha" type="matrix" values="0 0 0 0 0 0 0 0 0 0 0 0 0 0 0 0 0 0 127 0" result="hardAlpha"/>
<feOffset/>
<feGaussianBlur stdDeviation="0.5"/>
<feComposite in2="hardAlpha" operator="arithmetic" k2="-1" k3="1"/>
<feColorMatrix type="matrix" values="0 0 0 0 1 0 0 0 0 1 0 0 0 0 1 0 0 0 1 0"/>
<feBlend mode="normal" in2="shape" result="effect1_innerShadow_3998_2449"/>
</filter>
<linearGradient id="paint0_linear_3998_2449" x1="0" y1="24" x2="48" y2="24" gradientUnits="userSpaceOnUse">
<stop stop-color="#A055FD"/>
<stop offset="1" stop-color="#E24A9A"/>
</linearGradient>
<linearGradient id="paint1_linear_3998_2449" x1="4.68933" y1="0.0293088" x2="33.4309" y2="46.0204" gradientUnits="userSpaceOnUse">
<stop stop-color="white"/>
<stop offset="1" stop-color="white" stop-opacity="0"/>
</linearGradient>
<clipPath id="clip0_3998_2449">
<rect width="32" height="32" fill="white" transform="translate(8 8)"/>
</clipPath>
</defs>
</svg>
