<svg width="48" height="48" viewBox="0 0 48 48" fill="none" xmlns="http://www.w3.org/2000/svg">
<rect width="48" height="48" rx="16" fill="url(#paint0_linear_3998_2476)"/>
<g clip-path="url(#clip0_3998_2476)">
<g filter="url(#filter0_i_3998_2476)">
<path d="M19 9.5C19 8.66875 18.3313 8 17.5 8C16.6687 8 16 8.66875 16 9.5V12C13.7937 12 12 13.7937 12 16H9.5C8.66875 16 8 16.6687 8 17.5C8 18.3313 8.66875 19 9.5 19H12V22.5H9.5C8.66875 22.5 8 23.1687 8 24C8 24.8312 8.66875 25.5 9.5 25.5H12V29H9.5C8.66875 29 8 29.6688 8 30.5C8 31.3312 8.66875 32 9.5 32H12C12 34.2062 13.7937 36 16 36V38.5C16 39.3312 16.6687 40 17.5 40C18.3313 40 19 39.3312 19 38.5V36H22.5V38.5C22.5 39.3312 23.1687 40 24 40C24.8312 40 25.5 39.3312 25.5 38.5V36H29V38.5C29 39.3312 29.6688 40 30.5 40C31.3312 40 32 39.3312 32 38.5V36C34.2062 36 36 34.2062 36 32H38.5C39.3312 32 40 31.3312 40 30.5C40 29.6688 39.3312 29 38.5 29H36V25.5H38.5C39.3312 25.5 40 24.8312 40 24C40 23.1687 39.3312 22.5 38.5 22.5H36V19H38.5C39.3312 19 40 18.3313 40 17.5C40 16.6687 39.3312 16 38.5 16H36C36 13.7937 34.2062 12 32 12V9.5C32 8.66875 31.3312 8 30.5 8C29.6688 8 29 8.66875 29 9.5V12H25.5V9.5C25.5 8.66875 24.8312 8 24 8C23.1687 8 22.5 8.66875 22.5 9.5V12H19V9.5ZM18 16H30C31.1063 16 32 16.8938 32 18V30C32 31.1063 31.1063 32 30 32H18C16.8938 32 16 31.1063 16 30V18C16 16.8938 16.8938 16 18 16ZM19 19V29H29V19H19Z" fill="url(#paint1_linear_3998_2476)"/>
</g>
</g>
<defs>
<filter id="filter0_i_3998_2476" x="8" y="8" width="32" height="32" filterUnits="userSpaceOnUse" color-interpolation-filters="sRGB">
<feFlood flood-opacity="0" result="BackgroundImageFix"/>
<feBlend mode="normal" in="SourceGraphic" in2="BackgroundImageFix" result="shape"/>
<feColorMatrix in="SourceAlpha" type="matrix" values="0 0 0 0 0 0 0 0 0 0 0 0 0 0 0 0 0 0 127 0" result="hardAlpha"/>
<feOffset/>
<feGaussianBlur stdDeviation="0.5"/>
<feComposite in2="hardAlpha" operator="arithmetic" k2="-1" k3="1"/>
<feColorMatrix type="matrix" values="0 0 0 0 1 0 0 0 0 1 0 0 0 0 1 0 0 0 1 0"/>
<feBlend mode="normal" in2="shape" result="effect1_innerShadow_3998_2476"/>
</filter>
<linearGradient id="paint0_linear_3998_2476" x1="48" y1="24" x2="0" y2="24" gradientUnits="userSpaceOnUse">
<stop stop-color="#3BD8FF"/>
<stop offset="1" stop-color="#01BBFF"/>
</linearGradient>
<linearGradient id="paint1_linear_3998_2476" x1="4.66667" y1="0.000194346" x2="33.4457" y2="46.0466" gradientUnits="userSpaceOnUse">
<stop stop-color="white"/>
<stop offset="1" stop-color="white" stop-opacity="0"/>
</linearGradient>
<clipPath id="clip0_3998_2476">
<rect width="32" height="32" fill="white" transform="translate(8 8)"/>
</clipPath>
</defs>
</svg>
