<svg width="48" height="48" viewBox="0 0 48 48" fill="none" xmlns="http://www.w3.org/2000/svg">
<rect width="48" height="48" rx="16" fill="url(#paint0_linear_3998_2467)"/>
<g filter="url(#filter0_i_3998_2467)">
<path d="M23.4213 36.1492C23.5903 36.2689 23.7923 36.3331 23.9993 36.3331C24.2064 36.3331 24.4084 36.2689 24.5773 36.1492L24 35.3332L24.5787 36.1492L24.5893 36.1412L24.6173 36.1212L24.724 36.0438C24.8164 35.9772 24.9476 35.8798 25.1173 35.7518C27.0987 34.2564 28.9689 32.6192 30.7133 30.8532C32.244 29.2958 33.8 27.4758 34.9787 25.5452C36.152 23.6252 37 21.5132 37 19.3958C37 16.8825 36.22 14.9185 34.84 13.5852C33.4667 12.2598 31.6133 11.6665 29.6667 11.6665C27.3667 11.6665 25.336 12.7772 24 14.4892C22.664 12.7772 20.632 11.6665 18.3333 11.6665C14.2267 11.6665 11 15.1852 11 19.3958C11 21.5132 11.8493 23.6238 13.0213 25.5452C14.2 27.4758 15.756 29.2958 17.2867 30.8545C19.1464 32.736 21.1488 34.471 23.276 36.0438L23.3827 36.1212L23.4107 36.1412L23.4213 36.1492Z" fill="url(#paint1_linear_3998_2467)"/>
</g>
<defs>
<filter id="filter0_i_3998_2467" x="11" y="11.6665" width="26" height="24.6665" filterUnits="userSpaceOnUse" color-interpolation-filters="sRGB">
<feFlood flood-opacity="0" result="BackgroundImageFix"/>
<feBlend mode="normal" in="SourceGraphic" in2="BackgroundImageFix" result="shape"/>
<feColorMatrix in="SourceAlpha" type="matrix" values="0 0 0 0 0 0 0 0 0 0 0 0 0 0 0 0 0 0 127 0" result="hardAlpha"/>
<feOffset/>
<feGaussianBlur stdDeviation="0.5"/>
<feComposite in2="hardAlpha" operator="arithmetic" k2="-1" k3="1"/>
<feColorMatrix type="matrix" values="0 0 0 0 1 0 0 0 0 1 0 0 0 0 1 0 0 0 1 0"/>
<feBlend mode="normal" in2="shape" result="effect1_innerShadow_3998_2467"/>
</filter>
<linearGradient id="paint0_linear_3998_2467" x1="48" y1="24" x2="0" y2="24" gradientUnits="userSpaceOnUse">
<stop stop-color="#EF3EFF"/>
<stop offset="1" stop-color="#FF86CF"/>
</linearGradient>
<linearGradient id="paint1_linear_3998_2467" x1="8.29167" y1="5.5" x2="29.9457" y2="42.0193" gradientUnits="userSpaceOnUse">
<stop stop-color="white"/>
<stop offset="1" stop-color="white" stop-opacity="0"/>
</linearGradient>
</defs>
</svg>
