<svg width="48" height="48" viewBox="0 0 48 48" fill="none" xmlns="http://www.w3.org/2000/svg">
<rect width="48" height="48" rx="16" fill="url(#paint0_linear_3998_2458)"/>
<g clip-path="url(#clip0_3998_2458)">
<g filter="url(#filter0_i_3998_2458)">
<path d="M14.2841 17.504L13.9561 18.2586C13.9048 18.3815 13.8183 18.4865 13.7075 18.5603C13.5967 18.6342 13.4666 18.6736 13.3334 18.6736C13.2003 18.6736 13.0701 18.6342 12.9593 18.5603C12.8485 18.4865 12.762 18.3815 12.7107 18.2586L12.3827 17.504C11.806 16.1689 10.7499 15.0985 9.42274 14.504L8.41074 14.052C8.28796 13.9955 8.18396 13.905 8.11105 13.7912C8.03814 13.6774 7.99939 13.5451 7.99939 13.41C7.99939 13.2748 8.03814 13.1425 8.11105 13.0287C8.18396 12.9149 8.28796 12.8245 8.41074 12.768L9.36674 12.3426C10.7273 11.7311 11.8015 10.6212 12.3681 9.24131L12.7067 8.42664C12.7563 8.30045 12.8427 8.19211 12.9547 8.11574C13.0667 8.03938 13.1992 7.99854 13.3347 7.99854C13.4703 7.99854 13.6027 8.03938 13.7148 8.11574C13.8268 8.19211 13.9132 8.30045 13.9627 8.42664L14.3001 9.23998C14.8661 10.6201 15.9398 11.7306 17.3001 12.3426L18.2574 12.7693C18.3798 12.8259 18.4834 12.9164 18.5561 13.0301C18.6287 13.1437 18.6673 13.2758 18.6673 13.4106C18.6673 13.5455 18.6287 13.6776 18.5561 13.7912C18.4834 13.9049 18.3798 13.9953 18.2574 14.052L17.2441 14.5026C15.9172 15.0978 14.8615 16.1687 14.2854 17.504M32.3054 11.1613L25.7187 16.284C20.4574 14.9853 15.4121 18.0613 14.0014 23.3293C13.8654 23.836 13.8227 24.3493 13.7787 24.888C13.6254 26.7466 13.4494 28.8946 9.33474 31.9946C12.6681 33.9946 18.6681 35.9973 23.3374 35.9973C24.8534 35.996 26.3493 35.6503 27.7121 34.9862C29.0749 34.3222 30.2691 33.3572 31.2043 32.164C32.1396 30.9709 32.7915 29.5809 33.1109 28.0989C33.4303 26.6169 33.4088 25.0818 33.0481 23.6093L38.1681 17.0253C38.3676 16.7688 38.4666 16.4483 38.4465 16.124C38.4264 15.7996 38.2885 15.4938 38.0587 15.264L34.0667 11.272C33.8371 11.042 33.5313 10.9039 33.207 10.8835C32.8827 10.8632 32.562 10.9619 32.3054 11.1613ZM30.5281 19.0466C30.4433 18.9589 30.3571 18.8727 30.2694 18.788L28.7707 17.2893L33.0134 13.9893L35.3414 16.3173L32.0401 20.56L30.5281 19.0466Z" fill="url(#paint1_linear_3998_2458)"/>
</g>
</g>
<defs>
<filter id="filter0_i_3998_2458" x="7.99939" y="7.99854" width="30.4496" height="27.9985" filterUnits="userSpaceOnUse" color-interpolation-filters="sRGB">
<feFlood flood-opacity="0" result="BackgroundImageFix"/>
<feBlend mode="normal" in="SourceGraphic" in2="BackgroundImageFix" result="shape"/>
<feColorMatrix in="SourceAlpha" type="matrix" values="0 0 0 0 0 0 0 0 0 0 0 0 0 0 0 0 0 0 127 0" result="hardAlpha"/>
<feOffset/>
<feGaussianBlur stdDeviation="0.5"/>
<feComposite in2="hardAlpha" operator="arithmetic" k2="-1" k3="1"/>
<feColorMatrix type="matrix" values="0 0 0 0 1 0 0 0 0 1 0 0 0 0 1 0 0 0 1 0"/>
<feBlend mode="normal" in2="shape" result="effect1_innerShadow_3998_2458"/>
</filter>
<linearGradient id="paint0_linear_3998_2458" x1="41.4747" y1="49.4378" x2="41.4747" y2="0.110602" gradientUnits="userSpaceOnUse">
<stop stop-color="#F76A4E"/>
<stop offset="1" stop-color="#FF4747"/>
</linearGradient>
<linearGradient id="paint1_linear_3998_2458" x1="4.82755" y1="0.999012" x2="29.0318" y2="43.1157" gradientUnits="userSpaceOnUse">
<stop stop-color="white"/>
<stop offset="1" stop-color="white" stop-opacity="0"/>
</linearGradient>
<clipPath id="clip0_3998_2458">
<rect width="32" height="32" fill="white" transform="translate(8 8)"/>
</clipPath>
</defs>
</svg>
