<svg width="48" height="48" viewBox="0 0 48 48" fill="none" xmlns="http://www.w3.org/2000/svg">
<rect width="48" height="48" rx="16" fill="url(#paint0_linear_3998_2485)"/>
<g filter="url(#filter0_i_3998_2485)">
<path d="M14.6667 37.3332V31.9998C14.6667 31.4887 14.8 31.0278 15.0667 30.6172C15.3333 30.2065 15.6889 29.8785 16.1333 29.6332L22.6667 26.3332V23.9998L18.0333 26.2998C17.7667 26.4332 17.4889 26.5332 17.2 26.5998C16.9111 26.6665 16.6222 26.6998 16.3333 26.6998C15.6445 26.6998 14.9942 26.5221 14.3827 26.1665C13.7711 25.8109 13.2991 25.2998 12.9667 24.6332C12.6556 24.0332 12.5222 23.3945 12.5667 22.7172C12.6111 22.0398 12.8222 21.4118 13.2 20.8332L17.3333 14.6665L14.6667 10.6665H22.6667C25.6222 10.6665 28.1391 11.6998 30.2173 13.7665C32.2956 15.8332 33.3342 18.3554 33.3333 21.3332V37.3332H14.6667Z" fill="url(#paint1_linear_3998_2485)"/>
</g>
<defs>
<filter id="filter0_i_3998_2485" x="12.5583" y="10.6665" width="20.775" height="26.6665" filterUnits="userSpaceOnUse" color-interpolation-filters="sRGB">
<feFlood flood-opacity="0" result="BackgroundImageFix"/>
<feBlend mode="normal" in="SourceGraphic" in2="BackgroundImageFix" result="shape"/>
<feColorMatrix in="SourceAlpha" type="matrix" values="0 0 0 0 0 0 0 0 0 0 0 0 0 0 0 0 0 0 127 0" result="hardAlpha"/>
<feOffset/>
<feGaussianBlur stdDeviation="0.5"/>
<feComposite in2="hardAlpha" operator="arithmetic" k2="-1" k3="1"/>
<feColorMatrix type="matrix" values="0 0 0 0 1 0 0 0 0 1 0 0 0 0 1 0 0 0 1 0"/>
<feBlend mode="normal" in2="shape" result="effect1_innerShadow_3998_2485"/>
</filter>
<linearGradient id="paint0_linear_3998_2485" x1="48" y1="24" x2="0" y2="24" gradientUnits="userSpaceOnUse">
<stop stop-color="#30A966"/>
<stop offset="1" stop-color="#71CF59"/>
</linearGradient>
<linearGradient id="paint1_linear_3998_2485" x1="10.3943" y1="4" x2="36.44" y2="36.466" gradientUnits="userSpaceOnUse">
<stop stop-color="white"/>
<stop offset="1" stop-color="white" stop-opacity="0"/>
</linearGradient>
</defs>
</svg>
