<svg width="48" height="48" viewBox="0 0 48 48" fill="none" xmlns="http://www.w3.org/2000/svg">
<rect width="48" height="48" rx="16" fill="url(#paint0_linear_3998_2632)"/>
<g clip-path="url(#clip0_3998_2632)">
<g filter="url(#filter0_i_3998_2632)">
<path d="M31.8048 8.45117L32.3616 10.1648C32.5344 10.6862 32.8269 11.1599 33.2156 11.548C33.6042 11.9361 34.0784 12.2279 34.6 12.4L36.3136 12.9568L36.3472 12.9664C36.4794 13.0129 36.5938 13.0993 36.6748 13.2136C36.7558 13.328 36.7993 13.4647 36.7993 13.6048C36.7993 13.7449 36.7558 13.8815 36.6748 13.9959C36.5938 14.1102 36.4794 14.1966 36.3472 14.2432L34.6336 14.8C34.112 14.9721 33.6378 15.2638 33.2492 15.652C32.8605 16.0401 32.568 16.5138 32.3952 17.0352L31.8384 18.7472C31.7919 18.8793 31.7055 18.9938 31.5911 19.0748C31.4768 19.1558 31.3401 19.1992 31.2 19.1992C31.0599 19.1992 30.9232 19.1558 30.8089 19.0748C30.6945 18.9938 30.6081 18.8793 30.5616 18.7472L30.0032 17.0352C29.8317 16.5126 29.5402 16.0375 29.152 15.648C28.7636 15.2577 28.289 14.9639 27.7664 14.7904L26.0528 14.2336C25.9206 14.187 25.8062 14.1006 25.7252 13.9863C25.6442 13.8719 25.6007 13.7353 25.6007 13.5952C25.6007 13.4551 25.6442 13.3184 25.7252 13.204C25.8062 13.0897 25.9206 13.0033 26.0528 12.9568L27.7664 12.4C28.2815 12.2232 28.7486 11.9294 29.1309 11.5415C29.5132 11.1537 29.8003 10.6824 29.9696 10.1648L30.5264 8.45277C30.5726 8.32005 30.6589 8.20499 30.7735 8.12358C30.888 8.04216 31.0251 7.99841 31.1656 7.99841C31.3061 7.99841 31.4432 8.04216 31.5577 8.12358C31.6722 8.20499 31.7586 8.31845 31.8048 8.45117ZM39.6528 21.1424L38.4272 20.7456C38.0553 20.6212 37.7174 20.4121 37.4403 20.1347C37.1631 19.8573 36.9543 19.5192 36.8304 19.1472L36.4304 17.9248C36.3973 17.8303 36.3356 17.7484 36.2539 17.6904C36.1722 17.6325 36.0745 17.6014 35.9744 17.6014C35.8742 17.6014 35.7766 17.6325 35.6949 17.6904C35.6132 17.7484 35.5515 17.8303 35.5184 17.9248L35.1216 19.1472C34.9999 19.5168 34.7945 19.8533 34.5214 20.1306C34.2483 20.4078 33.9149 20.6183 33.5472 20.7456L32.3232 21.1424C32.2294 21.1762 32.1483 21.2382 32.091 21.3198C32.0337 21.4014 32.003 21.4987 32.003 21.5984C32.003 21.6981 32.0337 21.7954 32.091 21.877C32.1483 21.9586 32.2294 22.0205 32.3232 22.0544L33.5472 22.4528C33.9202 22.5772 34.259 22.7868 34.5368 23.0651C34.8145 23.3435 35.0235 23.6827 35.1472 24.056L35.544 25.2784C35.5771 25.3729 35.6388 25.4548 35.7205 25.5127C35.8022 25.5706 35.8998 25.6017 36 25.6017C36.1001 25.6017 36.1978 25.5706 36.2795 25.5127C36.3612 25.4548 36.4229 25.3729 36.456 25.2784L36.8544 24.056C36.9785 23.6838 37.1876 23.3456 37.465 23.0682C37.7424 22.7907 38.0806 22.5817 38.4528 22.4576L39.6768 22.0608C39.7706 22.0269 39.8516 21.965 39.9089 21.8834C39.9662 21.8018 39.997 21.7045 39.997 21.6048C39.997 21.5051 39.9662 21.4078 39.9089 21.3262C39.8516 21.2446 39.7706 21.1826 39.6768 21.1488L39.6528 21.1424ZM36.0032 27.2C35.5775 27.1995 35.1617 27.0713 34.8096 26.832C34.4576 26.576 34.2016 26.2384 34.0416 25.8384L33.6256 24.5552C33.5834 24.4201 33.5061 24.2986 33.4016 24.2032C33.3021 24.1036 33.1819 24.0271 33.0496 23.9792L31.8304 23.5792C31.3984 23.4192 31.0464 23.1616 30.7904 22.8096C30.5344 22.4576 30.4064 22.04 30.4064 21.6064C30.4064 21.3024 30.4704 20.9984 30.5984 20.7264C30.3424 20.6624 30.1024 20.5504 29.8784 20.3904C29.4977 20.1113 29.2077 19.7262 29.0448 19.2832L28.4688 17.536C28.3248 17.168 28.1808 16.96 28.0048 16.784C27.7899 16.5765 27.5329 16.4177 27.2512 16.3184L25.5536 15.7584C25.277 15.6664 25.021 15.5212 24.8 15.3312V35.6032C25.4259 36.1584 26.1873 36.5388 27.0071 36.7058C27.827 36.8728 28.6765 36.8206 29.4698 36.5545C30.263 36.2883 30.9721 35.8176 31.5253 35.1899C32.0785 34.5622 32.4564 33.7996 32.6208 32.9792L32.68 32.68C33.9317 32.4145 35.0416 31.6968 35.7973 30.6642C36.553 29.6316 36.9015 28.3566 36.776 27.0832C36.5265 27.1641 36.2654 27.2035 36.0032 27.2ZM23.2 11.9392C22.674 11.5571 22.0603 11.3135 21.4155 11.2307C20.7706 11.1479 20.1153 11.2286 19.5098 11.4654C18.9043 11.7021 18.3681 12.0874 17.9505 12.5857C17.5329 13.0839 17.2473 13.6792 17.12 14.3168L16.92 15.32L16.2704 15.4496C15.292 15.6458 14.4117 16.1748 13.779 16.9465C13.1464 17.7183 12.8005 18.6853 12.8 19.6832V20C12.8 21.1616 13.296 22.208 14.088 22.9392C13.1206 23.4185 12.3265 24.1873 11.8161 25.1386C11.3056 26.0899 11.1042 27.1766 11.2396 28.2477C11.3751 29.3188 11.8408 30.3211 12.572 31.1154C13.3033 31.9097 14.2637 32.4566 15.32 32.68L15.3792 32.976C15.5433 33.7965 15.921 34.5593 16.4742 35.1872C17.0273 35.8151 17.7364 36.286 18.5297 36.5523C19.323 36.8187 20.1725 36.871 20.9925 36.7041C21.8125 36.5371 22.5739 36.1568 23.2 35.6016V11.9392Z" fill="url(#paint1_linear_3998_2632)"/>
</g>
</g>
<defs>
<filter id="filter0_i_3998_2632" x="11.1985" y="7.99841" width="28.7984" height="28.8031" filterUnits="userSpaceOnUse" color-interpolation-filters="sRGB">
<feFlood flood-opacity="0" result="BackgroundImageFix"/>
<feBlend mode="normal" in="SourceGraphic" in2="BackgroundImageFix" result="shape"/>
<feColorMatrix in="SourceAlpha" type="matrix" values="0 0 0 0 0 0 0 0 0 0 0 0 0 0 0 0 0 0 127 0" result="hardAlpha"/>
<feOffset/>
<feGaussianBlur stdDeviation="0.5"/>
<feComposite in2="hardAlpha" operator="arithmetic" k2="-1" k3="1"/>
<feColorMatrix type="matrix" values="0 0 0 0 1 0 0 0 0 1 0 0 0 0 1 0 0 0 1 0"/>
<feBlend mode="normal" in2="shape" result="effect1_innerShadow_3998_2632"/>
</filter>
<linearGradient id="paint0_linear_3998_2632" x1="48" y1="24" x2="0" y2="24" gradientUnits="userSpaceOnUse">
<stop stop-color="#44B981"/>
<stop offset="1" stop-color="#4EC461"/>
</linearGradient>
<linearGradient id="paint1_linear_3998_2632" x1="8.19871" y1="0.797809" x2="34.1045" y2="42.2403" gradientUnits="userSpaceOnUse">
<stop stop-color="white"/>
<stop offset="1" stop-color="white" stop-opacity="0"/>
</linearGradient>
<clipPath id="clip0_3998_2632">
<rect width="32" height="32" fill="white" transform="translate(8 8)"/>
</clipPath>
</defs>
</svg>
