<svg width="48" height="48" viewBox="0 0 48 48" fill="none" xmlns="http://www.w3.org/2000/svg">
<rect width="48" height="48" rx="16" fill="url(#paint0_linear_3998_2651)"/>
<g filter="url(#filter0_i_3998_2651)">
<path d="M33.3337 20.333C33.8857 20.3332 34.3335 20.781 34.3337 21.333V22.667C34.3336 25.4074 33.2441 28.0358 31.3063 29.9736C29.6056 31.6742 27.3731 32.7196 24.9997 32.9502V36C24.9997 36.5523 24.552 37 23.9997 37C23.4476 36.9998 22.9997 36.5522 22.9997 36V32.9502C20.6264 32.7194 18.3937 31.6743 16.6931 29.9736C14.7553 28.0358 13.6668 25.4074 13.6667 22.667V21.333C13.6669 20.7809 14.1145 20.333 14.6667 20.333C15.2189 20.333 15.6665 20.7809 15.6667 21.333V22.667C15.6668 24.877 16.5444 26.9968 18.1071 28.5596C19.6698 30.1223 21.7897 30.9999 23.9997 31C26.2097 31 28.3295 30.1222 29.8923 28.5596C31.455 26.9968 32.3336 24.877 32.3337 22.667V21.333C32.3339 20.7809 32.7815 20.333 33.3337 20.333ZM23.9997 11C25.3258 11 26.5981 11.5272 27.5358 12.4648C28.4733 13.4025 28.9997 14.6741 28.9997 16V22.667C28.9996 23.9929 28.4733 25.2646 27.5358 26.2021C26.5981 27.1398 25.3258 27.667 23.9997 27.667C22.6737 27.6669 21.4021 27.1398 20.4645 26.2021C19.5269 25.2645 18.9998 23.993 18.9997 22.667V16C18.9997 14.674 19.527 13.4025 20.4645 12.4648C21.4021 11.5272 22.6737 11.0001 23.9997 11Z" fill="url(#paint1_linear_3998_2651)"/>
</g>
<defs>
<filter id="filter0_i_3998_2651" x="13.6667" y="11" width="20.667" height="26" filterUnits="userSpaceOnUse" color-interpolation-filters="sRGB">
<feFlood flood-opacity="0" result="BackgroundImageFix"/>
<feBlend mode="normal" in="SourceGraphic" in2="BackgroundImageFix" result="shape"/>
<feColorMatrix in="SourceAlpha" type="matrix" values="0 0 0 0 0 0 0 0 0 0 0 0 0 0 0 0 0 0 127 0" result="hardAlpha"/>
<feOffset/>
<feGaussianBlur stdDeviation="0.5"/>
<feComposite in2="hardAlpha" operator="arithmetic" k2="-1" k3="1"/>
<feColorMatrix type="matrix" values="0 0 0 0 1 0 0 0 0 1 0 0 0 0 1 0 0 0 1 0"/>
<feBlend mode="normal" in2="shape" result="effect1_innerShadow_3998_2651"/>
</filter>
<linearGradient id="paint0_linear_3998_2651" x1="-4.82425e-07" y1="7" x2="48" y2="39.5" gradientUnits="userSpaceOnUse">
<stop stop-color="#276FFF"/>
<stop offset="1" stop-color="#57B2F4"/>
</linearGradient>
<linearGradient id="paint1_linear_3998_2651" x1="11.5139" y1="4.50016" x2="36.7931" y2="36.6507" gradientUnits="userSpaceOnUse">
<stop stop-color="white"/>
<stop offset="1" stop-color="white" stop-opacity="0"/>
</linearGradient>
</defs>
</svg>
