<svg width="48" height="48" viewBox="0 0 48 48" fill="none" xmlns="http://www.w3.org/2000/svg">
<rect width="48" height="48" rx="16" fill="url(#paint0_linear_3998_2597)"/>
<g filter="url(#filter0_i_3998_2597)">
<path d="M15.5594 21.2191L19.6422 15.6951C22.2814 12.1243 23.6009 10.339 24.8321 10.7162C26.0632 11.0935 26.0632 13.2833 26.0632 17.6628V18.0757C26.0632 19.6553 26.0632 20.4451 26.568 20.9405L26.5947 20.9662C27.1103 21.4511 27.9323 21.4511 29.5763 21.4511C32.5348 21.4511 34.0141 21.4511 34.514 22.3484C34.5223 22.3632 34.5303 22.3782 34.5382 22.3933C35.0101 23.3044 34.1536 24.4632 32.4406 26.7809L28.3577 32.3048C25.7185 35.8756 24.3989 37.661 23.1678 37.2837C21.9366 36.9064 21.9367 34.7166 21.9367 30.337L21.9367 29.9243C21.9368 28.3447 21.9368 27.5549 21.4321 27.0595L21.4054 27.0338C20.8897 26.5489 20.0677 26.5489 18.4237 26.5489C15.4652 26.5489 13.9859 26.5489 13.486 25.6516C13.4777 25.6367 13.4697 25.6218 13.4619 25.6067C12.9899 24.6955 13.8464 23.5367 15.5594 21.2191Z" fill="url(#paint1_linear_3998_2597)"/>
</g>
<defs>
<filter id="filter0_i_3998_2597" x="13.3333" y="10.6666" width="21.3333" height="26.6666" filterUnits="userSpaceOnUse" color-interpolation-filters="sRGB">
<feFlood flood-opacity="0" result="BackgroundImageFix"/>
<feBlend mode="normal" in="SourceGraphic" in2="BackgroundImageFix" result="shape"/>
<feColorMatrix in="SourceAlpha" type="matrix" values="0 0 0 0 0 0 0 0 0 0 0 0 0 0 0 0 0 0 127 0" result="hardAlpha"/>
<feOffset/>
<feGaussianBlur stdDeviation="0.5"/>
<feComposite in2="hardAlpha" operator="arithmetic" k2="-1" k3="1"/>
<feColorMatrix type="matrix" values="0 0 0 0 1 0 0 0 0 1 0 0 0 0 1 0 0 0 1 0"/>
<feBlend mode="normal" in2="shape" result="effect1_innerShadow_3998_2597"/>
</filter>
<linearGradient id="paint0_linear_3998_2597" x1="48" y1="24" x2="0" y2="24" gradientUnits="userSpaceOnUse">
<stop stop-color="#F27513"/>
<stop offset="1" stop-color="#F6C20F"/>
</linearGradient>
<linearGradient id="paint1_linear_3998_2597" x1="11.1111" y1="4.00012" x2="36.9989" y2="37.1364" gradientUnits="userSpaceOnUse">
<stop stop-color="white"/>
<stop offset="1" stop-color="white" stop-opacity="0"/>
</linearGradient>
</defs>
</svg>
