<svg width="20" height="20" viewBox="0 0 20 20" fill="none" xmlns="http://www.w3.org/2000/svg">
<g clip-path="url(#clip0_3998_2562)">
<path d="M14.878 0.281996L15.226 1.353C15.334 1.67886 15.5168 1.97492 15.7597 2.2175C16.0027 2.46008 16.299 2.64244 16.625 2.75L17.696 3.098L17.717 3.104C17.7996 3.13307 17.8712 3.18707 17.9218 3.25854C17.9724 3.33001 17.9996 3.41542 17.9996 3.503C17.9996 3.59057 17.9724 3.67598 17.9218 3.74745C17.8712 3.81892 17.7996 3.87292 17.717 3.902L16.646 4.25C16.32 4.35755 16.0237 4.53991 15.7807 4.78249C15.5378 5.02507 15.355 5.32113 15.247 5.647L14.899 6.717C14.8699 6.7996 14.8159 6.87114 14.7445 6.92175C14.673 6.97236 14.5876 6.99954 14.5 6.99954C14.4124 6.99954 14.327 6.97236 14.2556 6.92175C14.1841 6.87114 14.1301 6.7996 14.101 6.717L13.752 5.647C13.6448 5.3204 13.4626 5.02347 13.22 4.78C12.9772 4.53605 12.6806 4.35247 12.354 4.244L11.283 3.896C11.2004 3.86692 11.1289 3.81292 11.0783 3.74145C11.0277 3.66998 11.0005 3.58457 11.0005 3.497C11.0005 3.40942 11.0277 3.32401 11.0783 3.25254C11.1289 3.18107 11.2004 3.12707 11.283 3.098L12.354 2.75C12.676 2.63953 12.9679 2.45587 13.2068 2.21346C13.4458 1.97105 13.6252 1.6765 13.731 1.353L14.079 0.282996C14.1079 0.200044 14.1619 0.128136 14.2334 0.0772498C14.305 0.0263636 14.3907 -0.000976563 14.4785 -0.000976562C14.5663 -0.000976562 14.652 0.0263636 14.7236 0.0772498C14.7952 0.128136 14.8491 0.199044 14.878 0.281996ZM19.783 8.21399L19.017 7.966C18.7846 7.88829 18.5734 7.75757 18.4002 7.58419C18.227 7.41081 18.0965 7.19951 18.019 6.967L17.769 6.203C17.7483 6.14393 17.7098 6.09275 17.6587 6.05655C17.6077 6.02034 17.5466 6.00089 17.484 6.00089C17.4214 6.00089 17.3604 6.02034 17.3093 6.05655C17.2583 6.09275 17.2197 6.14393 17.199 6.203L16.951 6.967C16.875 7.19802 16.7466 7.40836 16.5759 7.58164C16.4052 7.75491 16.1969 7.88645 15.967 7.966L15.202 8.21399C15.1434 8.23515 15.0927 8.27387 15.0569 8.32487C15.0211 8.37587 15.0019 8.43668 15.0019 8.49899C15.0019 8.56131 15.0211 8.62212 15.0569 8.67312C15.0927 8.72412 15.1434 8.76284 15.202 8.784L15.967 9.033C16.2001 9.11074 16.4119 9.24179 16.5855 9.41573C16.7591 9.58968 16.8897 9.80171 16.967 10.035L17.215 10.799C17.2357 10.8581 17.2743 10.9092 17.3253 10.9454C17.3764 10.9817 17.4374 11.0011 17.5 11.0011C17.5626 11.0011 17.6237 10.9817 17.6747 10.9454C17.7258 10.9092 17.7643 10.8581 17.785 10.799L18.034 10.035C18.1116 9.80238 18.2422 9.59101 18.4156 9.41762C18.589 9.24422 18.8004 9.11357 19.033 9.036L19.798 8.788C19.8566 8.76684 19.9073 8.72812 19.9431 8.67712C19.9789 8.62612 19.9981 8.56531 19.9981 8.503C19.9981 8.44068 19.9789 8.37987 19.9431 8.32887C19.9073 8.27787 19.8566 8.23915 19.798 8.218L19.783 8.21399ZM17.502 12C17.2359 11.9997 16.9761 11.9196 16.756 11.77C16.536 11.61 16.376 11.399 16.276 11.149L16.016 10.347C15.9896 10.2626 15.9413 10.1867 15.876 10.127C15.8138 10.0648 15.7387 10.017 15.656 9.987L14.894 9.737C14.624 9.637 14.404 9.476 14.244 9.25599C14.084 9.03599 14.004 8.77499 14.004 8.50399C14.004 8.314 14.044 8.124 14.124 7.954C13.964 7.914 13.814 7.844 13.674 7.744C13.4361 7.56958 13.2549 7.32888 13.153 7.052L12.793 5.96C12.703 5.73 12.613 5.6 12.503 5.49C12.3687 5.3603 12.2081 5.26105 12.032 5.199L10.971 4.849C10.7981 4.79149 10.6381 4.70079 10.5 4.582V17.252C10.8912 17.599 11.3671 17.8368 11.8795 17.9411C12.3919 18.0455 12.9228 18.0129 13.4186 17.8466C13.9144 17.6802 14.3576 17.386 14.7033 16.9937C15.0491 16.6014 15.2853 16.1248 15.388 15.612L15.425 15.425C16.2074 15.2591 16.901 14.8105 17.3734 14.1651C17.8457 13.5197 18.0634 12.7229 17.985 11.927C17.8291 11.9776 17.6659 12.0022 17.502 12ZM9.50002 2.462C9.17125 2.22321 8.78771 2.07094 8.38468 2.01919C7.98166 1.96744 7.57209 2.01788 7.19366 2.16586C6.81523 2.31385 6.4801 2.55463 6.21909 2.86605C5.95808 3.17747 5.77958 3.54953 5.70001 3.948L5.57501 4.575L5.16902 4.656C4.5575 4.77866 4.00731 5.10924 3.61191 5.59159C3.21652 6.07394 3.00031 6.6783 3.00002 7.302V7.5C3.00002 8.226 3.31002 8.88 3.80502 9.337C3.2004 9.63659 2.70411 10.1171 2.38508 10.7116C2.06605 11.3062 1.94012 11.9854 2.02479 12.6548C2.10946 13.3243 2.40052 13.9507 2.85754 14.4472C3.31456 14.9436 3.91485 15.2854 4.57501 15.425L4.61202 15.61C4.71461 16.1228 4.95068 16.5996 5.29639 16.992C5.64211 17.3845 6.08524 17.6788 6.58106 17.8452C7.07688 18.0117 7.60783 18.0444 8.12033 17.9401C8.63283 17.8357 9.10874 17.598 9.50002 17.251V2.462Z" fill="#499FF7"/>
</g>
<defs>
<clipPath id="clip0_3998_2562">
<rect width="20" height="20" fill="white"/>
</clipPath>
</defs>
</svg>
