<svg width="337" height="114" viewBox="0 0 337 114" fill="none" xmlns="http://www.w3.org/2000/svg">
<g clip-path="url(#clip0_5144_607)">
<rect x="8.06445" width="330" height="81" rx="24" transform="rotate(5.7138 8.06445 0)" fill="white" fill-opacity="0.08"/>
<rect x="22.3921" y="17.5134" width="48" height="48" rx="24" transform="rotate(5.7138 22.3921 17.5134)" fill="url(#paint0_linear_5144_607)"/>
<g filter="url(#filter2_i_5144_607)">
<path d="M54.0318 43.4551C53.5641 42.036 52.8085 40.7287 51.8125 39.615L50.9907 38.6943C50.9627 38.6638 50.9277 38.6406 50.8886 38.6268C50.8496 38.6131 50.8078 38.6091 50.7669 38.6152C50.726 38.6213 50.6872 38.6374 50.6539 38.662C50.6207 38.6867 50.594 38.7191 50.5762 38.7564L50.0559 39.8758C49.7312 40.5783 49.1935 41.2751 48.4643 41.9401C48.4161 41.9824 48.3651 41.9899 48.3306 41.9896C48.2961 41.9893 48.2439 41.9778 48.2016 41.9296C48.1618 41.8879 48.1456 41.8297 48.1543 41.7741C48.4567 39.9137 48.1082 37.7463 47.113 35.3259C46.2904 33.3152 45.0308 31.6848 43.3747 30.4702L42.1661 29.5861C42.0082 29.4698 41.7806 29.5789 41.7703 29.7757L41.6894 31.2751C41.6339 32.2997 41.4256 33.1896 41.0707 33.911C40.6369 34.7941 40.0604 35.5969 39.3557 36.299C38.8654 36.7869 38.3219 37.2182 37.7353 37.5847C36.3232 38.4615 35.1277 39.6464 34.2385 41.0506C33.3497 42.468 32.8002 44.0714 32.6328 45.7359C32.4859 47.2036 32.6329 48.6536 33.071 50.051C33.4943 51.3966 34.1744 52.6474 35.0736 53.7343C35.9815 54.8301 37.0723 55.7307 38.3207 56.4052C39.6136 57.1062 41.0153 57.5354 42.4923 57.6832C43.9693 57.8309 45.4283 57.688 46.8341 57.2602C48.1879 56.8493 49.4487 56.1786 50.546 55.2856C51.653 54.3913 52.5592 53.3074 53.2387 52.0721C53.9437 50.7927 54.3807 49.3831 54.5232 47.9294C54.675 46.4119 54.5115 44.9069 54.0318 43.4551Z" fill="url(#paint1_linear_5144_607)"/>
</g>
<path d="M85.6405 35.525C85.5889 35.2419 85.502 34.9877 85.3799 34.7623C85.2582 34.5331 85.101 34.3347 84.9084 34.1669C84.72 33.9958 84.4978 33.8575 84.2419 33.7519C83.9898 33.6467 83.7054 33.5783 83.3888 33.5466C82.797 33.4874 82.2622 33.5824 81.7843 33.8315C81.3101 34.081 80.9206 34.4741 80.6156 35.0108C80.311 35.5437 80.1184 36.2135 80.0377 37.02C79.957 37.8266 80.0109 38.5248 80.1993 39.1147C80.3877 39.7046 80.6913 40.1708 81.11 40.5135C81.5291 40.8523 82.0439 41.0523 82.6545 41.1134C83.2086 41.1688 83.6914 41.1182 84.103 40.9614C84.5187 40.8012 84.8484 40.5506 85.0919 40.2095C85.3391 39.8688 85.4875 39.4516 85.5369 38.9578L86.027 39.0811L83.0419 38.7824L83.2263 36.9394L88.0715 37.4242L87.9255 38.8828C87.8237 39.9004 87.5214 40.7534 87.0185 41.4416C86.5161 42.126 85.8681 42.6284 85.0747 42.9487C84.2817 43.2653 83.399 43.3749 82.4266 43.2776C81.3411 43.169 80.4115 42.8342 79.6377 42.2734C78.8643 41.7087 78.292 40.9605 77.9208 40.0288C77.5538 39.0937 77.4313 38.0155 77.5535 36.7943C77.6474 35.8558 77.8668 35.0327 78.2117 34.3249C78.5608 33.6137 79.0078 33.0265 79.5529 32.5633C80.0979 32.1001 80.7117 31.7675 81.3943 31.5655C82.0769 31.3635 82.8008 31.3008 83.5659 31.3774C84.2217 31.443 84.8227 31.6002 85.3688 31.849C85.9153 32.094 86.3898 32.4118 86.7923 32.8023C87.1986 33.1931 87.5172 33.6419 87.7483 34.1484C87.9797 34.6512 88.1063 35.1931 88.1281 35.7739L85.6405 35.525ZM92.8672 44.3337C91.9739 44.2443 91.2232 43.9865 90.6149 43.5601C90.0107 43.1304 89.5686 42.5647 89.2886 41.8628C89.009 41.1573 88.915 40.3465 89.0066 39.4306C89.096 38.5374 89.3478 37.7708 89.7621 37.1308C90.1763 36.4908 90.717 36.0139 91.3842 35.7C92.0551 35.3864 92.8165 35.2722 93.6683 35.3575C94.2412 35.4148 94.7653 35.5605 95.2405 35.7946C95.7199 36.0253 96.126 36.3419 96.4588 36.7445C96.7954 37.1474 97.0396 37.6363 97.1914 38.2111C97.3437 38.7821 97.3828 39.437 97.3089 40.1757L97.2427 40.8372L89.91 40.1035L90.0594 38.6109L95.125 39.1178C95.1597 38.771 95.115 38.4563 94.9911 38.1736C94.8671 37.8909 94.6788 37.6608 94.4263 37.4833C94.1779 37.3023 93.8785 37.1943 93.528 37.1593C93.1624 37.1227 92.8297 37.1751 92.5301 37.3164C92.2346 37.4543 91.9935 37.6567 91.807 37.9235C91.6207 38.1866 91.5086 38.4895 91.4705 38.8321L91.3285 40.2511C91.2855 40.6808 91.3275 41.06 91.4545 41.3886C91.5853 41.7177 91.7892 41.9817 92.0662 42.1807C92.3432 42.3798 92.6834 42.4994 93.0867 42.5398C93.3543 42.5666 93.603 42.5534 93.833 42.5003C94.0629 42.4471 94.2645 42.3531 94.4379 42.2182C94.6113 42.0833 94.7504 41.9106 94.8552 41.7003L97.068 42.0702C96.9014 42.5941 96.6228 43.0383 96.2323 43.4027C95.846 43.7638 95.3665 44.028 94.794 44.1953C94.2256 44.3592 93.5833 44.4053 92.8672 44.3337ZM103.611 36.4665L103.43 38.2757L98.2005 37.7524L98.3815 35.9433L103.611 36.4665ZM99.777 33.9815L102.185 34.2225L101.375 42.3185C101.353 42.5408 101.37 42.7176 101.425 42.8488C101.481 42.9762 101.567 43.0704 101.682 43.1315C101.802 43.1929 101.943 43.2317 102.105 43.248C102.218 43.2593 102.332 43.2612 102.447 43.2536C102.562 43.2423 102.65 43.234 102.712 43.2288L102.911 45.0589C102.787 45.0845 102.613 45.1109 102.389 45.138C102.166 45.1689 101.897 45.1743 101.583 45.1543C101 45.1189 100.499 44.9907 100.079 44.7698C99.6637 44.5493 99.3539 44.2404 99.15 43.8431C98.9461 43.4458 98.8745 42.9628 98.9352 42.3941L99.777 33.9815ZM109.481 37.0538L109.3 38.8629L104.07 38.3397L104.251 36.5305L109.481 37.0538ZM105.646 34.5688L108.055 34.8098L107.245 42.9057C107.223 43.1281 107.239 43.3049 107.295 43.436C107.35 43.5634 107.436 43.6577 107.552 43.7187C107.671 43.7802 107.812 43.819 107.974 43.8352C108.087 43.8465 108.201 43.8484 108.316 43.8409C108.431 43.8296 108.52 43.8213 108.581 43.816L108.781 45.6461C108.656 45.6718 108.482 45.6981 108.259 45.7253C108.035 45.7561 107.766 45.7616 107.452 45.7416C106.869 45.7061 106.368 45.578 105.949 45.3571C105.533 45.1366 105.223 44.8277 105.019 44.4304C104.816 44.0331 104.744 43.5501 104.805 42.9814L105.646 34.5688ZM109.862 45.8628L110.731 37.1789L113.139 37.4199L112.271 46.1038L109.862 45.8628ZM112.053 36.1806C111.695 36.1447 111.4 35.9953 111.167 35.7322C110.939 35.4657 110.841 35.1647 110.875 34.8293C110.908 34.4976 111.063 34.2257 111.339 34.0135C111.619 33.7979 111.939 33.708 112.297 33.7439C112.655 33.7797 112.948 33.9308 113.176 34.1973C113.409 34.4604 113.509 34.7578 113.475 35.0895C113.442 35.4249 113.285 35.7004 113.004 35.916C112.728 36.1282 112.411 36.2164 112.053 36.1806ZM116.792 41.4856L116.29 46.506L113.881 46.265L114.75 37.5811L117.046 37.8107L116.892 39.3429L116.994 39.353C117.237 38.8672 117.599 38.4999 118.081 38.2512C118.563 37.9987 119.126 37.9047 119.771 37.9692C120.374 38.0295 120.886 38.2141 121.308 38.5228C121.731 38.8315 122.042 39.2433 122.241 39.7581C122.441 40.2692 122.508 40.8621 122.44 41.5368L121.887 47.066L119.478 46.825L119.989 41.7255C120.046 41.1944 119.951 40.7662 119.706 40.441C119.461 40.1119 119.097 39.9232 118.615 39.875C118.291 39.8425 117.997 39.8836 117.735 39.9982C117.476 40.1131 117.263 40.2974 117.097 40.5511C116.935 40.8013 116.833 41.1128 116.792 41.4856ZM127.035 51.0529C126.255 50.9748 125.597 50.8005 125.06 50.5298C124.527 50.2633 124.115 49.9309 123.824 49.5324C123.533 49.134 123.361 48.7019 123.308 48.236L125.566 48.1593C125.616 48.3394 125.708 48.5123 125.839 48.6777C125.971 48.8432 126.153 48.9832 126.386 49.0978C126.621 49.2166 126.914 49.2935 127.265 49.3285C127.789 49.381 128.233 49.296 128.598 49.0736C128.966 48.8554 129.18 48.4486 129.24 47.8531L129.399 46.2644L129.297 46.2542C129.167 46.4849 128.986 46.6971 128.753 46.8908C128.521 47.0845 128.232 47.2326 127.887 47.3351C127.541 47.4376 127.139 47.4659 126.679 47.4198C126.027 47.3546 125.448 47.1444 124.943 46.7894C124.443 46.4309 124.065 45.923 123.811 45.2657C123.561 44.6049 123.484 43.794 123.581 42.8329C123.679 41.8492 123.921 41.0435 124.308 40.416C124.694 39.7885 125.169 39.3373 125.734 39.0626C126.302 38.7883 126.904 38.6829 127.541 38.7467C128.027 38.7953 128.426 38.919 128.737 39.1176C129.049 39.3125 129.293 39.5424 129.468 39.8074C129.647 40.069 129.78 40.3221 129.866 40.5667L129.956 40.5758L130.102 39.1171L132.494 39.3564L131.616 48.1251C131.542 48.8639 131.3 49.4639 130.888 49.9252C130.476 50.3865 129.938 50.7095 129.272 50.8941C128.61 51.0829 127.864 51.1359 127.035 51.0529ZM127.623 45.6871C128.012 45.7259 128.349 45.6626 128.636 45.4972C128.927 45.3283 129.162 45.0702 129.342 44.7227C129.525 44.3718 129.642 43.9419 129.693 43.4331C129.744 42.9243 129.717 42.4761 129.611 42.0886C129.505 41.6974 129.327 41.3846 129.077 41.1501C128.826 40.9157 128.507 40.779 128.118 40.7402C127.723 40.7006 127.378 40.7746 127.085 40.9623C126.793 41.1462 126.558 41.4197 126.381 41.7826C126.204 42.1456 126.09 42.5739 126.041 43.0677C125.991 43.5689 126.017 44.0094 126.12 44.3889C126.227 44.7651 126.404 45.0664 126.652 45.293C126.904 45.5161 127.228 45.6475 127.623 45.6871ZM147.603 42.0388L145.127 41.7911C145.114 41.4662 145.05 41.1724 144.936 40.9097C144.821 40.6432 144.664 40.4104 144.463 40.2114C144.262 40.0124 144.023 39.8514 143.746 39.7286C143.473 39.606 143.17 39.5282 142.839 39.495C142.239 39.435 141.703 39.5317 141.228 39.7849C140.754 40.0344 140.366 40.4296 140.064 40.9704C139.763 41.5075 139.573 42.1775 139.492 42.9803C139.41 43.8057 139.463 44.5115 139.652 45.0976C139.844 45.684 140.148 46.1428 140.564 46.4737C140.981 46.8047 141.481 46.9994 142.065 47.0578C142.393 47.0906 142.701 47.0776 142.988 47.0189C143.28 46.9604 143.543 46.8593 143.778 46.7153C144.014 46.5676 144.215 46.3803 144.382 46.1534C144.554 45.9268 144.683 45.6619 144.77 45.3585L147.245 45.6176C147.128 46.1426 146.917 46.6391 146.611 47.1073C146.309 47.572 145.924 47.9769 145.456 48.3221C144.992 48.664 144.452 48.9184 143.838 49.0853C143.228 49.2488 142.551 49.2935 141.809 49.2192C140.776 49.1158 139.876 48.7898 139.109 48.2409C138.345 47.6925 137.772 46.9518 137.389 46.019C137.011 45.0865 136.884 43.9908 137.01 42.7319C137.137 41.4693 137.482 40.4189 138.045 39.5807C138.609 38.7425 139.321 38.1323 140.181 37.7501C141.042 37.3642 141.981 37.2222 142.999 37.324C143.67 37.3912 144.282 37.5476 144.836 37.7934C145.394 38.0395 145.877 38.3658 146.286 38.7721C146.695 39.1747 147.013 39.65 147.24 40.198C147.47 40.7464 147.591 41.36 147.603 42.0388ZM152.149 50.2652C151.271 50.1773 150.53 49.9148 149.927 49.4775C149.327 49.0369 148.888 48.4638 148.608 47.7582C148.329 47.0488 148.234 46.2494 148.323 45.3599C148.413 44.4629 148.664 43.6963 149.078 43.0601C149.493 42.4201 150.037 41.9454 150.711 41.636C151.39 41.3232 152.168 41.2108 153.046 41.2986C153.924 41.3865 154.663 41.6507 155.262 42.0914C155.866 42.5286 156.307 43.1019 156.586 43.8113C156.866 44.5169 156.961 45.3182 156.871 46.2152C156.782 47.1047 156.53 47.8695 156.116 48.5094C155.702 49.1456 155.156 49.6201 154.478 49.9329C153.803 50.2423 153.027 50.3531 152.149 50.2652ZM152.347 48.4007C152.746 48.4406 153.091 48.3609 153.382 48.1616C153.672 47.9584 153.905 47.6658 154.08 47.2836C154.259 46.9018 154.374 46.4584 154.425 45.9533C154.475 45.4483 154.451 44.9909 154.351 44.5812C154.255 44.1719 154.084 43.8388 153.84 43.5822C153.595 43.3255 153.273 43.1771 152.874 43.1372C152.47 43.0968 152.12 43.1778 151.821 43.3802C151.527 43.583 151.29 43.8753 151.111 44.2571C150.936 44.6392 150.823 45.0828 150.773 45.5879C150.722 46.0929 150.745 46.5501 150.841 46.9595C150.941 47.3692 151.115 47.7026 151.363 47.9596C151.616 48.2133 151.944 48.3603 152.347 48.4007ZM160.598 45.8687L160.096 50.8891L157.688 50.6481L158.557 41.9642L160.852 42.1938L160.699 43.726L160.8 43.7361C161.043 43.2503 161.405 42.8831 161.887 42.6343C162.369 42.3818 162.932 42.2878 163.577 42.3523C164.18 42.4126 164.693 42.5972 165.115 42.9059C165.537 43.2146 165.848 43.6264 166.048 44.1412C166.248 44.6523 166.314 45.2452 166.246 45.9199L165.693 51.4491L163.285 51.2081L163.795 46.1086C163.852 45.5775 163.758 45.1493 163.512 44.8241C163.267 44.495 162.904 44.3063 162.421 44.2581C162.097 44.2256 161.804 44.2667 161.541 44.3813C161.282 44.4962 161.069 44.6805 160.903 44.9342C160.741 45.1844 160.64 45.4959 160.598 45.8687ZM175.119 46.1225L172.901 46.0375C172.882 45.8453 172.818 45.6676 172.709 45.5044C172.6 45.3374 172.448 45.1985 172.254 45.0877C172.063 44.9735 171.829 44.9024 171.55 44.8745C171.177 44.8372 170.854 44.8848 170.582 45.0175C170.31 45.1464 170.161 45.3408 170.135 45.6009C170.114 45.8082 170.18 45.9918 170.331 46.1516C170.483 46.3114 170.756 46.4548 171.151 46.5819L172.691 47.0557C173.517 47.3136 174.119 47.6555 174.495 48.0814C174.871 48.5073 175.028 49.0331 174.965 49.6588C174.908 50.2279 174.691 50.7105 174.312 51.1066C173.938 51.5031 173.448 51.7929 172.843 51.9761C172.243 52.1558 171.566 52.208 170.812 52.1326C169.663 52.0176 168.771 51.6866 168.136 51.1397C167.506 50.5893 167.174 49.8937 167.14 49.0528L169.522 49.1655C169.558 49.5232 169.705 49.8081 169.961 50.0203C170.218 50.2288 170.562 50.3545 170.991 50.3975C171.414 50.4397 171.761 50.3926 172.033 50.2562C172.31 50.1164 172.463 49.9166 172.493 49.657C172.511 49.438 172.437 49.2497 172.27 49.0921C172.103 48.9308 171.835 48.7936 171.466 48.6805L169.992 48.2304C169.161 47.9759 168.559 47.6188 168.186 47.1589C167.817 46.6995 167.665 46.1456 167.73 45.4973C167.786 44.9395 167.985 44.474 168.327 44.1009C168.672 43.7282 169.131 43.46 169.703 43.2965C170.279 43.1333 170.939 43.0889 171.681 43.1632C172.778 43.2729 173.618 43.5911 174.201 44.1176C174.788 44.6446 175.094 45.3129 175.119 46.1225ZM175.894 52.4698L176.763 43.7859L179.172 44.0268L178.303 52.7108L175.894 52.4698ZM178.085 42.7875C177.727 42.7517 177.432 42.6022 177.199 42.3391C176.971 42.0726 176.873 41.7717 176.907 41.4362C176.94 41.1046 177.095 40.8326 177.371 40.6204C177.652 40.4049 177.971 40.315 178.329 40.3508C178.687 40.3866 178.98 40.5378 179.209 40.8043C179.441 41.0674 179.541 41.3648 179.508 41.6964C179.474 42.0319 179.317 42.3074 179.037 42.523C178.76 42.7352 178.443 42.8233 178.085 42.7875ZM187.76 47.3872L185.542 47.3023C185.523 47.1101 185.459 46.9324 185.349 46.7692C185.24 46.6022 185.089 46.4633 184.894 46.3525C184.704 46.2382 184.469 46.1672 184.19 46.1393C183.817 46.1019 183.495 46.1496 183.222 46.2823C182.951 46.4111 182.802 46.6056 182.776 46.8657C182.755 47.073 182.82 47.2565 182.972 47.4164C183.123 47.5762 183.397 47.7196 183.791 47.8466L185.331 48.3205C186.158 48.5784 186.76 48.9202 187.136 49.3462C187.512 49.7721 187.669 50.2979 187.606 50.9236C187.549 51.4927 187.331 51.9753 186.953 52.3714C186.578 52.7679 186.089 53.0577 185.484 53.2409C184.884 53.4206 184.207 53.4728 183.453 53.3974C182.303 53.2823 181.411 52.9514 180.777 52.4044C180.147 51.8541 179.815 51.1585 179.781 50.3176L182.162 50.4303C182.199 50.788 182.345 51.0729 182.602 51.2851C182.859 51.4936 183.202 51.6193 183.632 51.6623C184.054 51.7045 184.402 51.6574 184.674 51.521C184.951 51.3812 185.104 51.1814 185.134 50.9217C185.152 50.7027 185.077 50.5145 184.91 50.3569C184.744 50.1956 184.476 50.0584 184.106 49.9453L182.633 49.4952C181.802 49.2407 181.2 48.8836 180.827 48.4237C180.458 47.9642 180.306 47.4104 180.371 46.7621C180.427 46.2043 180.625 45.7388 180.967 45.3657C181.313 44.9929 181.772 44.7248 182.344 44.5612C182.92 44.3981 183.579 44.3536 184.322 44.4279C185.418 44.5377 186.258 44.8558 186.841 45.3824C187.428 45.9094 187.734 46.5776 187.76 47.3872ZM194.023 45.5128L193.842 47.322L188.612 46.7987L188.793 44.9896L194.023 45.5128ZM190.189 43.0278L192.597 43.2688L191.787 51.3647C191.765 51.5871 191.781 51.7639 191.837 51.8951C191.893 52.0225 191.978 52.1167 192.094 52.1777C192.213 52.2392 192.354 52.278 192.516 52.2942C192.629 52.3056 192.743 52.3074 192.858 52.2999C192.974 52.2886 193.062 52.2803 193.123 52.275L193.323 54.1051C193.199 54.1308 193.025 54.1571 192.801 54.1843C192.577 54.2152 192.308 54.2206 191.994 54.2006C191.412 54.1651 190.911 54.037 190.491 53.8161C190.075 53.5956 189.766 53.2867 189.562 52.8894C189.358 52.4921 189.286 52.0091 189.347 51.4404L190.189 43.0278ZM198.252 54.8781C197.358 54.7887 196.608 54.5309 195.999 54.1045C195.395 53.6748 194.953 53.1091 194.673 52.4072C194.393 51.7017 194.299 50.8909 194.391 49.975C194.48 49.0818 194.732 48.3152 195.147 47.6752C195.561 47.0352 196.101 46.5583 196.769 46.2444C197.44 45.9308 198.201 45.8166 199.053 45.9019C199.626 45.9592 200.15 46.1049 200.625 46.339C201.104 46.5697 201.51 46.8863 201.843 47.2889C202.18 47.6918 202.424 48.1807 202.576 48.7555C202.728 49.3265 202.767 49.9814 202.693 50.7201L202.627 51.3816L195.294 50.6479L195.444 49.1553L200.509 49.6622C200.544 49.3154 200.499 49.0007 200.375 48.718C200.251 48.4353 200.063 48.2052 199.811 48.0277C199.562 47.8467 199.263 47.7387 198.912 47.7037C198.547 47.6671 198.214 47.7195 197.915 47.8608C197.619 47.9987 197.378 48.2011 197.191 48.4679C197.005 48.731 196.893 49.0339 196.855 49.3765L196.713 50.7955C196.67 51.2252 196.712 51.6044 196.839 51.933C196.97 52.2621 197.174 52.5261 197.451 52.7251C197.728 52.9242 198.068 53.0438 198.471 53.0842C198.739 53.111 198.987 53.0978 199.217 53.0447C199.447 52.9915 199.649 52.8975 199.822 52.7626C199.996 52.6277 200.135 52.455 200.24 52.2447L202.452 52.6146C202.286 53.1385 202.007 53.5827 201.617 53.9471C201.23 54.3082 200.751 54.5724 200.178 54.7397C199.61 54.9036 198.968 54.9497 198.252 54.8781ZM206.418 50.4533L205.916 55.4737L203.508 55.2327L204.377 46.5488L206.672 46.7784L206.519 48.3106L206.62 48.3207C206.863 47.8349 207.225 47.4676 207.707 47.2189C208.189 46.9664 208.752 46.8724 209.397 46.9369C210 46.9972 210.513 47.1817 210.935 47.4905C211.357 47.7992 211.668 48.211 211.867 48.7258C212.068 49.2369 212.134 49.8298 212.066 50.5045L211.513 56.0337L209.105 55.7927L209.615 50.6932C209.672 50.1621 209.578 49.7339 209.332 49.4086C209.087 49.0796 208.724 48.8909 208.241 48.8427C207.917 48.8102 207.624 48.8513 207.361 48.9659C207.102 49.0808 206.889 49.2651 206.723 49.5187C206.561 49.769 206.46 50.0805 206.418 50.4533ZM218.581 47.97L218.4 49.7791L213.17 49.2559L213.351 47.4467L218.581 47.97ZM214.747 45.485L217.155 45.726L216.345 53.8219C216.323 54.0443 216.339 54.2211 216.395 54.3522C216.451 54.4796 216.536 54.5739 216.652 54.6349C216.771 54.6964 216.912 54.7352 217.074 54.7514C217.187 54.7627 217.301 54.7646 217.416 54.7571C217.532 54.7458 217.62 54.7375 217.681 54.7322L217.881 56.5623C217.757 56.5879 217.583 56.6143 217.359 56.6414C217.135 56.6723 216.866 56.6778 216.552 56.6578C215.97 56.6223 215.469 56.4942 215.049 56.2733C214.633 56.0528 214.324 55.7439 214.12 55.3466C213.916 54.9493 213.844 54.4663 213.905 53.8976L214.747 45.485Z" fill="white"/>
<rect x="252.692" y="46.084" width="66" height="20" rx="8" transform="rotate(5.7138 252.692 46.084)" fill="url(#paint2_linear_5144_607)"/>
<path d="M262.875 61.3014C262.225 61.2363 261.681 61.0377 261.243 60.7055C260.808 60.3736 260.49 59.9435 260.289 59.4152C260.091 58.8843 260.025 58.2895 260.091 57.6309C260.157 56.9694 260.342 56.3984 260.647 55.9179C260.953 55.4345 261.351 55.0747 261.843 54.8384C262.338 54.5995 262.904 54.5119 263.54 54.5756C264.068 54.6285 264.526 54.7728 264.914 55.0086C265.305 55.2418 265.604 55.5473 265.812 55.9249C266.02 56.2998 266.117 56.7235 266.104 57.1962L264.637 57.0494C264.609 56.7297 264.494 56.454 264.291 56.2225C264.092 55.9884 263.807 55.8529 263.437 55.8158C263.123 55.7844 262.839 55.8417 262.585 55.9875C262.331 56.1305 262.121 56.3523 261.957 56.6528C261.796 56.9535 261.693 57.323 261.649 57.7611C261.605 58.2049 261.632 58.5931 261.73 58.9255C261.828 59.2551 261.986 59.5179 262.203 59.7138C262.424 59.9071 262.694 60.0198 263.013 60.0518C263.239 60.0744 263.446 60.0522 263.632 59.9852C263.822 59.9157 263.986 59.805 264.124 59.6533C264.262 59.5015 264.365 59.3105 264.434 59.0804L265.901 59.2272C265.818 59.6843 265.641 60.0792 265.371 60.4119C265.101 60.7418 264.754 60.9868 264.33 61.1471C263.906 61.3045 263.421 61.3559 262.875 61.3014ZM269.528 61.967C268.892 61.9033 268.355 61.7083 267.916 61.3817C267.478 61.0552 267.155 60.6275 266.948 60.0986C266.744 59.57 266.676 58.9693 266.743 58.2965C266.81 57.6237 266.997 57.0471 267.302 56.5665C267.609 56.0863 268.011 55.7295 268.505 55.4964C268.999 55.2632 269.565 55.1784 270.201 55.242C270.837 55.3057 271.374 55.5008 271.812 55.8273C272.251 56.1538 272.572 56.5828 272.776 57.1142C272.982 57.646 273.052 58.2482 272.985 58.921C272.917 59.5938 272.73 60.1689 272.422 60.6463C272.118 61.124 271.718 61.4795 271.224 61.7127C270.729 61.9459 270.164 62.0306 269.528 61.967ZM269.659 60.7382C270.004 60.7727 270.302 60.7068 270.553 60.5406C270.804 60.3716 271.002 60.1316 271.147 59.8207C271.295 59.51 271.389 59.1568 271.429 58.7611C271.469 58.3625 271.447 57.9963 271.363 57.6624C271.283 57.326 271.136 57.0501 270.924 56.8347C270.711 56.6193 270.432 56.4943 270.087 56.4598C269.734 56.4245 269.43 56.4912 269.177 56.6599C268.926 56.8289 268.726 57.0702 268.577 57.3837C268.432 57.6946 268.34 58.0494 268.3 58.448C268.26 58.8437 268.281 59.2084 268.362 59.5419C268.445 59.8758 268.593 60.1504 268.806 60.3658C269.022 60.5787 269.306 60.7028 269.659 60.7382ZM273.725 62.2585L274.377 55.7456L275.844 55.8924L275.733 56.999L275.81 57.0067C275.983 56.6471 276.237 56.3784 276.571 56.2007C276.906 56.02 277.291 55.9515 277.727 55.9951C278.168 56.0392 278.529 56.1838 278.81 56.4289C279.094 56.6715 279.28 56.9827 279.367 57.3626L279.435 57.3694C279.615 57.022 279.887 56.758 280.251 56.5774C280.618 56.3942 281.037 56.3263 281.509 56.3735C282.108 56.4335 282.578 56.6718 282.919 57.0885C283.26 57.5052 283.394 58.0768 283.322 58.8033L282.884 63.1749L281.345 63.0209L281.759 58.8867C281.799 58.4825 281.721 58.1763 281.525 57.9683C281.329 57.7574 281.076 57.6364 280.765 57.6053C280.394 57.5682 280.093 57.6551 279.861 57.866C279.631 58.0743 279.498 58.3622 279.462 58.7297L279.055 62.7918L277.55 62.6412L277.97 58.4434C278.004 58.107 277.929 57.8283 277.745 57.6072C277.565 57.3864 277.312 57.2598 276.987 57.2272C276.766 57.2052 276.56 57.2416 276.368 57.3366C276.176 57.4287 276.016 57.5712 275.888 57.764C275.761 57.9539 275.683 58.1832 275.657 58.4517L275.26 62.4121L273.725 62.2585ZM284.203 63.3068L284.854 56.7939L286.321 56.9407L286.211 58.0474L286.287 58.055C286.46 57.6954 286.714 57.4268 287.049 57.249C287.384 57.0684 287.769 56.9998 288.204 57.0434C288.645 57.0875 289.006 57.2321 289.287 57.4772C289.571 57.7198 289.757 58.031 289.844 58.411L289.912 58.4177C290.093 58.0703 290.365 57.8063 290.728 57.6257C291.095 57.4426 291.514 57.3746 291.986 57.4218C292.586 57.4818 293.056 57.7201 293.396 58.1368C293.737 58.5535 293.871 59.1251 293.799 59.8516L293.361 64.2232L291.822 64.0692L292.236 59.935C292.276 59.5308 292.198 59.2246 292.002 59.0166C291.806 58.8057 291.553 58.6847 291.242 58.6536C290.872 58.6165 290.57 58.7034 290.338 58.9143C290.109 59.1226 289.976 59.4105 289.939 59.778L289.532 63.8401L288.027 63.6895L288.447 59.4917C288.481 59.1553 288.406 58.8766 288.223 58.6555C288.042 58.4347 287.789 58.3081 287.464 58.2756C287.244 58.2535 287.037 58.2899 286.845 58.3849C286.653 58.4771 286.493 58.6195 286.365 58.8123C286.238 59.0023 286.161 59.2315 286.134 59.5001L285.738 63.4604L284.203 63.3068ZM297.508 64.7666C296.872 64.7029 296.335 64.5079 295.896 64.1813C295.458 63.8548 295.135 63.4271 294.928 62.8982C294.724 62.3696 294.656 61.7689 294.723 61.0961C294.791 60.4233 294.977 59.8467 295.282 59.3661C295.59 58.8859 295.991 58.5291 296.485 58.296C296.98 58.0628 297.545 57.978 298.181 58.0416C298.817 58.1053 299.354 58.3004 299.793 58.6269C300.231 58.9534 300.552 59.3824 300.756 59.9138C300.962 60.4456 301.032 61.0478 300.965 61.7206C300.897 62.3934 300.71 62.9685 300.402 63.4459C300.098 63.9236 299.698 64.2791 299.204 64.5123C298.709 64.7455 298.144 64.8302 297.508 64.7666ZM297.64 63.5378C297.984 63.5723 298.282 63.5064 298.533 63.3402C298.784 63.1712 298.982 62.9312 299.127 62.6203C299.276 62.3096 299.369 61.9564 299.409 61.5607C299.449 61.1621 299.427 60.7959 299.343 60.462C299.263 60.1256 299.116 59.8497 298.904 59.6343C298.691 59.4189 298.412 59.2939 298.068 59.2594C297.714 59.2241 297.411 59.2908 297.157 59.4595C296.906 59.6285 296.706 59.8698 296.558 60.1833C296.412 60.4942 296.32 60.849 296.28 61.2476C296.24 61.6433 296.261 62.008 296.342 62.3415C296.425 62.6754 296.573 62.95 296.786 63.1654C297.002 63.3783 297.286 63.5024 297.64 63.5378ZM303.622 61.3955L303.24 65.2117L301.705 65.0581L302.357 58.5452L303.824 58.692L303.714 59.7986L303.79 59.8063C303.976 59.4566 304.244 59.1908 304.593 59.0087C304.946 58.827 305.365 58.7604 305.851 58.8091C306.301 58.8541 306.682 58.9894 306.997 59.2149C307.314 59.4408 307.546 59.7453 307.693 60.1283C307.843 60.5117 307.891 60.9632 307.836 61.4831L307.421 65.63L305.886 65.4764L306.277 61.567C306.321 61.1316 306.242 60.7797 306.041 60.5111C305.842 60.2429 305.545 60.0889 305.149 60.0493C304.88 60.0224 304.635 60.0579 304.414 60.1557C304.196 60.251 304.017 60.4029 303.876 60.6115C303.738 60.8204 303.654 61.0817 303.622 61.3955Z" fill="white"/>
<path d="M77.729 65.8824C77.1467 65.8242 76.6366 65.6718 76.1987 65.4253C75.7637 65.179 75.4311 64.8645 75.201 64.4818C74.9741 64.0965 74.8743 63.6668 74.9018 63.1927L76.2332 63.3259C76.2244 63.5849 76.2883 63.8168 76.4248 64.0218C76.5644 64.2242 76.7564 64.389 77.0006 64.5162C77.2448 64.6434 77.5224 64.7226 77.8334 64.7537C78.1754 64.7879 78.4838 64.7588 78.7586 64.6664C79.0362 64.5743 79.2605 64.4297 79.4315 64.2327C79.6028 64.0328 79.7025 63.793 79.7305 63.5131C79.7596 63.222 79.7103 62.9586 79.5826 62.7232C79.4579 62.4851 79.2592 62.2882 78.9864 62.1325C78.7165 61.977 78.3808 61.8792 77.9794 61.839L77.2458 61.7656L77.3527 60.6971L78.0863 60.7705C78.4085 60.8027 78.697 60.773 78.9517 60.6815C79.2093 60.5902 79.4176 60.4483 79.5768 60.2558C79.7362 60.0605 79.8299 59.8229 79.8579 59.543C79.8848 59.2745 79.8474 59.0352 79.7456 58.8251C79.647 58.6126 79.493 58.4387 79.2839 58.3036C79.0775 58.1687 78.8259 58.0865 78.5291 58.0568C78.2464 58.0285 77.9769 58.0543 77.7205 58.1343C77.4672 58.2117 77.2546 58.3389 77.0828 58.5159C76.9112 58.69 76.8064 58.9094 76.7685 59.1739L75.5007 59.0471C75.5618 58.5793 75.7416 58.1804 76.0401 57.8505C76.3415 57.5209 76.7199 57.2776 77.1753 57.1204C77.6307 56.9633 78.1241 56.9113 78.6555 56.9645C79.2124 57.0202 79.6821 57.1771 80.0645 57.4352C80.4501 57.6908 80.7352 58.0091 80.9197 58.3902C81.1071 58.7715 81.1781 59.1755 81.1325 59.602C81.0867 60.0885 80.9097 60.4877 80.6016 60.7994C80.2963 61.1115 79.9117 61.3029 79.4478 61.3735L79.441 61.4413C80.0089 61.5867 80.4326 61.8603 80.7122 62.2623C80.9946 62.6646 81.1069 63.1398 81.0492 63.6879C81.0042 64.1659 80.8285 64.5809 80.5221 64.9328C80.2184 65.285 79.8254 65.5469 79.3428 65.7184C78.8606 65.8872 78.3226 65.9418 77.729 65.8824ZM86.4512 62.374L86.3413 63.4722L82.4912 63.087L82.6011 61.9888L86.4512 62.374ZM89.9054 67.1093C89.3796 67.0567 88.9238 66.8755 88.5379 66.5657C88.1552 66.2533 87.8716 65.8352 87.687 65.3114C87.5055 64.785 87.45 64.1699 87.5205 63.466C87.5909 62.7621 87.7684 62.1718 88.0531 61.6949C88.3406 61.2183 88.704 60.8678 89.1433 60.6434C89.5826 60.419 90.0638 60.3329 90.5867 60.3852C90.991 60.4257 91.3092 60.5261 91.5416 60.6864C91.7771 60.8441 91.9537 61.0188 92.0716 61.2105C92.1923 61.4024 92.284 61.5701 92.3468 61.7134L92.4231 61.721L92.7459 58.4942L94.0138 58.6211L93.1449 67.305L91.9067 67.1811L92.0081 66.1677L91.9021 66.1571C91.812 66.288 91.6859 66.4352 91.5239 66.5989C91.3647 66.7629 91.1541 66.8988 90.8921 67.0068C90.63 67.1148 90.3011 67.1489 89.9054 67.1093ZM90.2934 66.0561C90.6581 66.0926 90.9758 66.0273 91.2466 65.8602C91.5205 65.6907 91.7398 65.4399 91.9043 65.1081C92.0717 64.7765 92.1783 64.3817 92.2241 63.9238C92.2694 63.4715 92.2439 63.0693 92.1478 62.717C92.0517 62.3648 91.8874 62.0814 91.6548 61.8668C91.4221 61.6523 91.1206 61.5265 90.7503 61.4894C90.3687 61.4512 90.0408 61.5183 89.7666 61.6908C89.4924 61.8632 89.2731 62.1139 89.1089 62.4429C88.9475 62.7723 88.8453 63.1517 88.8023 63.5814C88.7587 64.0167 88.7845 64.4148 88.8798 64.7755C88.975 65.1362 89.1397 65.431 89.3737 65.66C89.6109 65.8864 89.9174 66.0185 90.2934 66.0561ZM96.5965 67.796C96.1838 67.7547 95.8183 67.641 95.5 67.455C95.182 67.2661 94.9402 67.015 94.7746 66.7015C94.6118 66.3882 94.5517 66.0182 94.5944 65.5914C94.6312 65.2239 94.7321 64.9285 94.8972 64.7052C95.0623 64.4819 95.2719 64.313 95.5261 64.1985C95.7802 64.084 96.0592 64.0063 96.3631 63.9653C96.667 63.9244 96.9748 63.9009 97.2866 63.895C97.6812 63.8888 98.0015 63.8837 98.2475 63.8798C98.4937 63.873 98.6753 63.8412 98.7923 63.7844C98.9094 63.7276 98.9755 63.6229 98.9908 63.4702L98.9938 63.4406C99.0308 63.0702 98.9549 62.7729 98.7661 62.5484C98.5801 62.3242 98.2822 62.1916 97.8723 62.1506C97.4454 62.1079 97.0996 62.1689 96.8347 62.3337C96.5729 62.496 96.3839 62.6869 96.2678 62.9066L95.1034 62.516C95.2843 62.1344 95.5227 61.8356 95.8184 61.6196C96.1172 61.4011 96.4502 61.2546 96.8174 61.18C97.1849 61.1025 97.5651 61.0835 97.958 61.1228C98.2181 61.1488 98.4906 61.2075 98.7755 61.2988C99.0636 61.3876 99.3267 61.5253 99.565 61.7118C99.8061 61.8987 99.9937 62.1502 100.128 62.4662C100.262 62.7794 100.305 63.1735 100.258 63.6484L99.825 67.9734L98.5869 67.8495L98.676 66.9591L98.6251 66.954C98.5267 67.1097 98.3876 67.2585 98.2078 67.4004C98.028 67.5423 97.8043 67.6527 97.5366 67.7316C97.2689 67.8104 96.9555 67.8319 96.5965 67.796ZM96.974 66.8059C97.3245 66.841 97.631 66.8017 97.8937 66.6881C98.1591 66.5747 98.368 66.4129 98.5204 66.2026C98.6759 65.9897 98.7665 65.7547 98.7922 65.4975L98.8762 64.6579C98.8265 64.6986 98.7346 64.7322 98.6006 64.7588C98.4697 64.7828 98.3209 64.8008 98.1541 64.8126C97.9876 64.8217 97.8255 64.8297 97.6678 64.8368C97.5103 64.841 97.3786 64.845 97.2726 64.8486C97.0235 64.8551 96.7936 64.8849 96.5827 64.9381C96.3746 64.9915 96.2029 65.0814 96.0675 65.2077C95.9352 65.3315 95.8577 65.5065 95.8351 65.7326C95.8037 66.0464 95.8958 66.2955 96.1115 66.4798C96.3275 66.6613 96.6149 66.77 96.974 66.8059ZM101.599 70.6177C101.409 70.5987 101.238 70.5659 101.086 70.5193C100.933 70.4754 100.821 70.4327 100.748 70.3912L101.157 69.3829C101.382 69.4683 101.586 69.5158 101.768 69.5254C101.95 69.535 102.116 69.4831 102.267 69.3698C102.421 69.2567 102.567 69.0614 102.703 68.7838L102.903 68.367L101.18 61.5309L102.537 61.6666L103.681 66.886L103.749 66.8927L105.904 62.0035L107.265 62.1397L103.842 69.2533C103.684 69.58 103.497 69.8511 103.281 70.0665C103.065 70.2847 102.818 70.4399 102.541 70.5321C102.263 70.6242 101.949 70.6527 101.599 70.6177ZM112.624 60.4831L111.755 69.1671L110.487 69.0402L111.356 60.3563L112.624 60.4831ZM116.016 69.7261C115.374 69.6619 114.835 69.4695 114.399 69.1489C113.966 68.8258 113.649 68.4015 113.447 67.876C113.249 67.3479 113.183 66.7461 113.251 66.0705C113.318 65.4034 113.501 64.8278 113.8 64.3439C114.103 63.8602 114.493 63.4982 114.971 63.2576C115.452 63.0174 115.995 62.9275 116.6 62.988C116.967 63.0248 117.317 63.1212 117.65 63.2773C117.983 63.4333 118.273 63.6551 118.521 63.9426C118.77 64.2301 118.952 64.5896 119.069 65.0209C119.186 65.4495 119.215 65.9592 119.156 66.55L119.111 66.9994L113.933 66.4814L114.028 65.5316L117.963 65.9253C117.997 65.5917 117.958 65.2896 117.849 65.0187C117.739 64.7451 117.569 64.5211 117.338 64.3466C117.109 64.1725 116.831 64.069 116.504 64.0362C116.147 64.0006 115.828 64.0571 115.544 64.2058C115.264 64.3519 115.038 64.5577 114.866 64.8231C114.697 65.086 114.596 65.38 114.564 65.705L114.489 66.4471C114.446 66.8824 114.485 67.2604 114.607 67.5809C114.732 67.9018 114.925 68.1566 115.186 68.3455C115.447 68.5315 115.763 68.643 116.133 68.6801C116.373 68.7041 116.596 68.6921 116.801 68.6441C117.005 68.5932 117.187 68.5057 117.345 68.3816C117.503 68.2575 117.63 68.0975 117.727 67.9017L118.905 68.238C118.774 68.5817 118.571 68.874 118.295 69.1148C118.023 69.3531 117.693 69.5271 117.305 69.6367C116.92 69.7438 116.491 69.7736 116.016 69.7261ZM121.872 70.3249C121.459 70.2836 121.094 70.17 120.775 69.984C120.457 69.7951 120.216 69.5439 120.05 69.2304C119.887 68.9172 119.827 68.5472 119.87 68.1203C119.907 67.7528 120.007 67.4575 120.173 67.2341C120.338 67.0108 120.547 66.8419 120.801 66.7275C121.056 66.613 121.335 66.5353 121.638 66.4943C121.942 66.4533 122.25 66.4299 122.562 66.424C122.957 66.4178 123.277 66.4127 123.523 66.4088C123.769 66.402 123.951 66.3702 124.068 66.3134C124.185 66.2566 124.251 66.1518 124.266 65.9992L124.269 65.9695C124.306 65.5992 124.23 65.3018 124.041 65.0774C123.855 64.8532 123.558 64.7206 123.148 64.6796C122.721 64.6369 122.375 64.6979 122.11 64.8627C121.848 65.0249 121.659 65.2159 121.543 65.4355L120.379 65.0449C120.56 64.6633 120.798 64.3645 121.094 64.1486C121.393 63.9301 121.726 63.7835 122.093 63.7089C122.46 63.6315 122.84 63.6124 123.233 63.6518C123.493 63.6778 123.766 63.7364 124.051 63.8278C124.339 63.9165 124.602 64.0542 124.84 64.2408C125.081 64.4277 125.269 64.6791 125.403 64.9952C125.537 65.3084 125.581 65.7025 125.533 66.1774L125.1 70.5024L123.862 70.3785L123.951 69.488L123.9 69.4829C123.802 69.6387 123.663 69.7875 123.483 69.9294C123.303 70.0713 123.08 70.1817 122.812 70.2605C122.544 70.3394 122.231 70.3609 121.872 70.3249ZM122.249 69.3349C122.6 69.3699 122.906 69.3307 123.169 69.217C123.434 69.1037 123.643 68.9419 123.796 68.7316C123.951 68.5187 124.042 68.2837 124.068 68.0264L124.152 67.1869C124.102 67.2276 124.01 67.2612 123.876 67.2878C123.745 67.3118 123.596 67.3297 123.429 67.3416C123.263 67.3506 123.101 67.3587 122.943 67.3657C122.786 67.37 122.654 67.3739 122.548 67.3776C122.299 67.3841 122.069 67.4139 121.858 67.467C121.65 67.5204 121.478 67.6103 121.343 67.7367C121.211 67.8605 121.133 68.0355 121.11 68.2616C121.079 68.5754 121.171 68.8244 121.387 69.0087C121.603 69.1902 121.89 69.2989 122.249 69.3349ZM126.55 70.6474L127.202 64.1345L128.427 64.2571L128.324 65.2917L128.392 65.2985C128.545 64.9598 128.782 64.7052 129.102 64.5344C129.425 64.3612 129.777 64.2936 130.159 64.3318C130.238 64.3397 130.331 64.3519 130.438 64.3683C130.547 64.385 130.633 64.4007 130.694 64.4154L130.573 65.6281C130.523 65.6089 130.434 65.5843 130.306 65.5543C130.178 65.5215 130.049 65.4986 129.919 65.4856C129.619 65.4556 129.346 65.4925 129.098 65.5962C128.854 65.6974 128.653 65.8528 128.495 66.0626C128.337 66.2695 128.244 66.5143 128.216 66.797L127.818 70.7743L126.55 70.6474ZM132.549 67.3418L132.162 71.2089L130.894 71.082L131.546 64.5691L132.763 64.6909L132.657 65.7509L132.737 65.759C132.921 65.4291 133.184 65.1756 133.524 64.9983C133.867 64.8214 134.283 64.7574 134.772 64.8063C135.216 64.8507 135.596 64.9829 135.91 65.2028C136.226 65.42 136.457 65.72 136.604 66.1031C136.751 66.4861 136.798 66.9462 136.744 67.4833L136.33 71.6259L135.062 71.4991L135.461 67.5091C135.509 67.037 135.423 66.6558 135.203 66.3655C134.984 66.0723 134.66 65.9042 134.23 65.8613C133.936 65.8318 133.668 65.8693 133.427 65.9736C133.188 66.0782 132.989 66.2468 132.832 66.4794C132.678 66.7095 132.583 66.997 132.549 67.3418ZM137.791 71.7722L138.443 65.2592L139.711 65.3861L139.059 71.899L137.791 71.7722ZM139.184 64.3184C138.963 64.2963 138.781 64.2039 138.638 64.041C138.497 63.8757 138.437 63.6898 138.458 63.4834C138.479 63.2743 138.575 63.1039 138.745 62.9725C138.918 62.8385 139.115 62.7826 139.335 62.8046C139.556 62.8267 139.736 62.9204 139.877 63.0858C140.02 63.2486 140.082 63.4346 140.061 63.6438C140.04 63.8502 139.943 64.0203 139.77 64.1543C139.6 64.2858 139.404 64.3404 139.184 64.3184ZM142.181 68.3056L141.794 72.1726L140.526 72.0458L141.178 65.5329L142.395 65.6546L142.289 66.7147L142.369 66.7227C142.553 66.3929 142.816 66.1393 143.156 65.9621C143.499 65.7851 143.915 65.7211 144.405 65.7701C144.848 65.8145 145.228 65.9466 145.543 66.1666C145.858 66.3837 146.089 66.6838 146.236 67.0668C146.383 67.4499 146.43 67.9099 146.376 68.447L145.962 72.5897L144.694 72.4628L145.093 68.4728C145.141 68.0007 145.055 67.6195 144.835 67.3292C144.616 67.0361 144.292 66.868 143.862 66.825C143.568 66.7956 143.3 66.833 143.059 66.9373C142.82 67.0419 142.622 67.2105 142.464 67.4431C142.31 67.6732 142.215 67.9607 142.181 68.3056ZM149.896 75.5872C149.379 75.5354 148.94 75.423 148.581 75.25C148.224 75.0773 147.94 74.8675 147.727 74.6207C147.515 74.3739 147.364 74.1119 147.275 73.8346L148.41 73.4941C148.474 73.6261 148.562 73.7678 148.676 73.919C148.791 74.0734 148.955 74.211 149.165 74.332C149.379 74.4533 149.661 74.5315 150.011 74.5666C150.492 74.6147 150.901 74.5371 151.238 74.3339C151.575 74.1335 151.769 73.7788 151.82 73.27L151.948 71.9895L151.867 71.9814C151.777 72.1123 151.651 72.2553 151.49 72.4105C151.332 72.566 151.122 72.6934 150.861 72.7929C150.6 72.8924 150.27 72.9222 149.871 72.8824C149.357 72.8309 148.905 72.6644 148.517 72.3828C148.131 72.0987 147.842 71.7085 147.649 71.2124C147.459 70.7138 147.398 70.1182 147.468 69.4256C147.537 68.733 147.714 68.1511 147.998 67.6799C148.285 67.209 148.648 66.8627 149.087 66.6411C149.526 66.4167 150.007 66.3307 150.53 66.383C150.934 66.4234 151.254 66.5239 151.489 66.6845C151.725 66.8423 151.903 67.0171 152.024 67.2091C152.147 67.4013 152.24 67.5691 152.303 67.7124L152.396 67.7217L152.502 66.6659L153.744 66.7902L153.078 73.4473C153.022 74.007 152.846 74.4534 152.55 74.7864C152.254 75.1193 151.876 75.3498 151.415 75.4779C150.956 75.6062 150.45 75.6426 149.896 75.5872ZM150.256 71.8588C150.621 71.8953 150.938 71.8413 151.206 71.6969C151.478 71.5499 151.695 71.3232 151.857 71.0168C152.022 70.7078 152.127 70.3286 152.172 69.8791C152.216 69.441 152.189 69.0486 152.093 68.702C151.996 68.3555 151.831 68.0763 151.598 67.8646C151.366 67.65 151.064 67.5242 150.694 67.4871C150.312 67.449 149.984 67.5161 149.71 67.6885C149.436 67.8581 149.217 68.1046 149.054 68.428C148.893 68.7516 148.792 69.1212 148.75 69.5368C148.707 69.9636 148.735 70.3447 148.833 70.6799C148.93 71.0152 149.097 71.286 149.334 71.4924C149.573 71.699 149.88 71.8212 150.256 71.8588ZM162.848 69.3071L161.679 69.3957C161.646 69.2439 161.583 69.0963 161.492 68.953C161.403 68.81 161.276 68.6873 161.109 68.5849C160.942 68.4826 160.727 68.4183 160.465 68.392C160.106 68.356 159.798 68.4066 159.541 68.5437C159.285 68.678 159.145 68.8709 159.12 69.1225C159.098 69.3401 159.161 69.5235 159.309 69.6724C159.456 69.8214 159.706 69.9563 160.056 70.077L161.067 70.418C161.652 70.6165 162.078 70.8746 162.343 71.1923C162.608 71.5101 162.717 71.8993 162.671 72.3601C162.632 72.7502 162.484 73.0866 162.228 73.3692C161.974 73.6494 161.638 73.8556 161.219 73.9878C160.804 74.1204 160.333 74.1603 159.807 74.1077C159.078 74.0348 158.498 73.8198 158.069 73.4627C157.639 73.1028 157.401 72.6293 157.354 72.0422L158.598 71.9782C158.643 72.3053 158.775 72.5627 158.996 72.7504C159.218 72.9353 159.519 73.0468 159.901 73.085C160.316 73.1266 160.657 73.0736 160.923 72.9261C161.189 72.7757 161.335 72.5747 161.36 72.3231C161.381 72.1196 161.321 71.9409 161.183 71.7871C161.047 71.6336 160.827 71.506 160.523 71.4042L159.445 71.0522C158.851 70.8529 158.423 70.5874 158.162 70.2558C157.904 69.9245 157.799 69.5271 157.845 69.0635C157.883 68.679 158.024 68.3534 158.268 68.0865C158.512 67.8197 158.831 67.6247 159.226 67.5015C159.621 67.3754 160.063 67.3368 160.552 67.3858C161.256 67.4562 161.795 67.6643 162.169 68.01C162.543 68.3529 162.769 68.7853 162.848 69.3071ZM167.33 68.1496L167.228 69.1672L163.671 68.8113L163.773 67.7936L167.33 68.1496ZM164.883 66.3287L166.15 66.4555L165.534 72.6165C165.509 72.8625 165.528 73.0513 165.589 73.183C165.65 73.3119 165.736 73.4048 165.848 73.4616C165.962 73.5159 166.089 73.55 166.227 73.5638C166.329 73.574 166.419 73.5759 166.497 73.5694C166.574 73.5629 166.635 73.5575 166.678 73.5533L166.802 74.6235C166.726 74.6444 166.618 74.6622 166.48 74.6769C166.341 74.6944 166.17 74.6944 165.966 74.6769C165.632 74.6492 165.327 74.5587 165.051 74.4055C164.775 74.2522 164.561 74.0367 164.409 73.7588C164.257 73.4809 164.201 73.1455 164.24 72.7526L164.883 66.3287ZM167.842 74.7789L168.494 68.266L169.719 68.3886L169.616 69.4232L169.683 69.43C169.837 69.0914 170.074 68.8367 170.394 68.666C170.717 68.4927 171.069 68.4252 171.45 68.4633C171.53 68.4713 171.623 68.4834 171.729 68.4998C171.839 68.5165 171.925 68.5322 171.986 68.5469L171.865 69.7596C171.815 69.7404 171.726 69.7158 171.598 69.6858C171.47 69.653 171.341 69.6301 171.211 69.6171C170.911 69.5871 170.638 69.624 170.39 69.7277C170.146 69.8289 169.945 69.9844 169.787 70.1941C169.629 70.401 169.536 70.6458 169.508 70.9285L169.11 74.9058L167.842 74.7789ZM174.746 75.6025C174.105 75.5383 173.566 75.3459 173.13 75.0253C172.697 74.7022 172.379 74.2779 172.178 73.7524C171.979 73.2243 171.914 72.6225 171.982 71.9469C172.048 71.2798 172.232 70.7042 172.531 70.2203C172.834 69.7366 173.224 69.3746 173.702 69.134C174.183 68.8938 174.726 68.8039 175.331 68.8644C175.698 68.9012 176.048 68.9976 176.381 69.1537C176.714 69.3097 177.004 69.5315 177.252 69.819C177.5 70.1065 177.683 70.466 177.8 70.8973C177.917 71.3259 177.946 71.8356 177.886 72.4264L177.842 72.8758L172.664 72.3578L172.759 71.408L176.694 71.8017C176.728 71.4681 176.689 71.166 176.579 70.8951C176.47 70.6215 176.299 70.3975 176.068 70.223C175.84 70.0489 175.562 69.9454 175.234 69.9126C174.878 69.877 174.558 69.9335 174.275 70.0822C173.995 70.2283 173.769 70.4341 173.597 70.6995C173.428 70.9624 173.327 71.2564 173.294 71.5815L173.22 72.3235C173.177 72.7588 173.216 73.1368 173.338 73.4573C173.463 73.7782 173.656 74.033 173.917 74.2219C174.178 74.4079 174.494 74.5194 174.864 74.5565C175.104 74.5805 175.327 74.5685 175.531 74.5205C175.736 74.4696 175.918 74.3821 176.076 74.258C176.234 74.1339 176.361 73.974 176.458 73.7781L177.636 74.1144C177.505 74.4581 177.301 74.7504 177.026 74.9912C176.754 75.2295 176.424 75.4035 176.036 75.5131C175.651 75.6202 175.221 75.65 174.746 75.6025ZM180.603 76.2013C180.19 76.16 179.824 76.0464 179.506 75.8604C179.188 75.6715 178.946 75.4203 178.781 75.1068C178.618 74.7936 178.558 74.4236 178.601 73.9967C178.637 73.6292 178.738 73.3339 178.903 73.1105C179.068 72.8872 179.278 72.7183 179.532 72.6039C179.786 72.4894 180.065 72.4117 180.369 72.3707C180.673 72.3297 180.981 72.3063 181.293 72.3004C181.687 72.2942 182.008 72.2891 182.254 72.2852C182.5 72.2784 182.681 72.2466 182.798 72.1898C182.916 72.133 182.982 72.0282 182.997 71.8756L183 71.8459C183.037 71.4756 182.961 71.1782 182.772 70.9538C182.586 70.7296 182.288 70.597 181.878 70.556C181.452 70.5133 181.106 70.5743 180.841 70.7391C180.579 70.9013 180.39 71.0923 180.274 71.3119L179.11 70.9213C179.291 70.5397 179.529 70.2409 179.825 70.025C180.123 69.8065 180.456 69.6599 180.824 69.5853C181.191 69.5079 181.571 69.4888 181.964 69.5282C182.224 69.5542 182.497 69.6129 182.782 69.7042C183.07 69.793 183.333 69.9306 183.571 70.1172C183.812 70.3041 184 70.5555 184.134 70.8716C184.268 71.1848 184.311 71.5789 184.264 72.0538L183.831 76.3788L182.593 76.2549L182.682 75.3644L182.631 75.3593C182.533 75.5151 182.394 75.6639 182.214 75.8058C182.034 75.9477 181.81 76.0581 181.543 76.1369C181.275 76.2158 180.962 76.2373 180.603 76.2013ZM180.98 75.2113C181.331 75.2463 181.637 75.2071 181.9 75.0934C182.165 74.9801 182.374 74.8183 182.527 74.608C182.682 74.3951 182.773 74.1601 182.798 73.9028L182.882 73.0633C182.833 73.104 182.741 73.1376 182.607 73.1642C182.476 73.1882 182.327 73.2061 182.16 73.218C181.994 73.227 181.832 73.2351 181.674 73.2421C181.516 73.2464 181.385 73.2503 181.279 73.254C181.03 73.2605 180.8 73.2903 180.589 73.3434C180.381 73.3968 180.209 73.4867 180.074 73.6131C179.941 73.7369 179.864 73.9119 179.841 74.138C179.81 74.4518 179.902 74.7008 180.118 74.8851C180.334 75.0666 180.621 75.1753 180.98 75.2113ZM186.668 74.4314L186.814 72.8828L187.035 72.9049L189.906 70.4084L191.424 70.5603L188.15 73.4019L187.951 73.382L186.668 74.4314ZM185.281 76.5238L186.15 67.8399L187.418 67.9668L186.549 76.6507L185.281 76.5238ZM189.394 76.9354L187.372 73.6067L188.334 72.8079L190.95 77.0911L189.394 76.9354Z" fill="white"/>
</g>
<rect x="8.51219" y="0.547296" width="329" height="80" rx="23.5" transform="rotate(5.7138 8.51219 0.547296)" stroke="white" stroke-opacity="0.3"/>
<defs>
<filter id="filter2_i_5144_607" x="32.5776" y="29.5383" width="22.0005" height="28.2012" filterUnits="userSpaceOnUse" color-interpolation-filters="sRGB">
<feFlood flood-opacity="0" result="BackgroundImageFix"/>
<feBlend mode="normal" in="SourceGraphic" in2="BackgroundImageFix" result="shape"/>
<feColorMatrix in="SourceAlpha" type="matrix" values="0 0 0 0 0 0 0 0 0 0 0 0 0 0 0 0 0 0 127 0" result="hardAlpha"/>
<feOffset/>
<feGaussianBlur stdDeviation="0.5"/>
<feComposite in2="hardAlpha" operator="arithmetic" k2="-1" k3="1"/>
<feColorMatrix type="matrix" values="0 0 0 0 1 0 0 0 0 1 0 0 0 0 1 0 0 0 1 0"/>
<feBlend mode="normal" in2="shape" result="effect1_innerShadow_5144_607"/>
</filter>
<linearGradient id="paint0_linear_5144_607" x1="22.3921" y1="24.5134" x2="70.3921" y2="57.0134" gradientUnits="userSpaceOnUse">
<stop stop-color="#FF5027"/>
<stop offset="1" stop-color="#F45784"/>
</linearGradient>
<linearGradient id="paint1_linear_5144_607" x1="32.7462" y1="21.5845" x2="56.4436" y2="58.4315" gradientUnits="userSpaceOnUse">
<stop stop-color="white"/>
<stop offset="1" stop-color="white" stop-opacity="0"/>
</linearGradient>
<linearGradient id="paint2_linear_5144_607" x1="252.692" y1="56.084" x2="318.692" y2="56.084" gradientUnits="userSpaceOnUse">
<stop stop-color="#B3B5B9"/>
<stop offset="1" stop-color="#929292"/>
</linearGradient>
<clipPath id="clip0_5144_607">
<rect x="8.06445" width="330" height="81" rx="24" transform="rotate(5.7138 8.06445 0)" fill="white"/>
</clipPath>
</defs>
</svg>
