<svg width="199" height="59" viewBox="0 0 199 59" fill="none" xmlns="http://www.w3.org/2000/svg">
<path d="M191.63 59H7.37037C3.31851 59 0 55.6794 0 51.625V7.375C0 3.3206 3.31851 1.7097e-06 7.37037 1.7097e-06H191.63C195.681 1.7097e-06 199 3.3206 199 7.375V51.625C199 55.6794 195.681 59 191.63 59Z" fill="white" fill-opacity="0.2"/>
<path d="M191.63 1.18184C195.042 1.18184 197.819 3.96038 197.819 7.375V51.625C197.819 55.0396 195.042 57.8182 191.63 57.8182H7.37037C3.95789 57.8182 1.1811 55.0396 1.1811 51.625V7.375C1.1811 3.96038 3.95789 1.18184 7.37037 1.18184H191.63ZM191.63 1.7097e-06H7.37037C3.31851 1.7097e-06 0 3.3206 0 7.375V51.625C0 55.6794 3.31851 59 7.37037 59H191.63C195.681 59 199 55.6794 199 51.625V7.375C199 3.3206 195.681 1.7097e-06 191.63 1.7097e-06Z" fill="white"/>
<path d="M71.6356 15.1096C71.6356 16.3413 71.2579 17.3277 70.5139 18.0633C69.6584 18.9354 68.5442 19.3742 67.1789 19.3742C65.874 19.3742 64.7598 18.928 63.8458 18.0486C62.9299 17.1562 62.4729 16.061 62.4729 14.7501C62.4729 13.4392 62.9299 12.344 63.8458 11.459C64.7598 10.5722 65.874 10.126 67.1789 10.126C67.8285 10.126 68.4479 10.2569 69.039 10.5003C69.6282 10.7455 70.1078 11.0774 70.4553 11.4867L69.6659 12.2647C69.0598 11.5659 68.2345 11.2212 67.1789 11.2212C66.2271 11.2212 65.4019 11.5457 64.7013 12.2002C64.0082 12.8566 63.6607 13.7065 63.6607 14.7501C63.6607 15.7937 64.0082 16.651 64.7013 17.3074C65.4019 17.9545 66.2271 18.2864 67.1789 18.2864C68.1892 18.2864 69.039 17.9545 69.7094 17.3C70.1513 16.8667 70.4024 16.2694 70.4685 15.506H67.1789V14.4404H71.5676C71.6205 14.6708 71.6356 14.8939 71.6356 15.1096Z" fill="white" stroke="white" stroke-width="0.16" stroke-miterlimit="10"/>
<path d="M78.5982 11.4146H74.4757V14.2171H78.1922V15.2828H74.4757V18.0853H78.5982V19.1712H73.3087V10.3286H78.5982V11.4146Z" fill="white" stroke="white" stroke-width="0.16" stroke-miterlimit="10"/>
<path d="M83.5118 19.1712H82.3448V11.4146H79.8162V10.3286H86.0423V11.4146H83.5118V19.1712Z" fill="white" stroke="white" stroke-width="0.16" stroke-miterlimit="10"/>
<path d="M90.5482 19.1712V10.3286H91.7133V19.1712H90.5482Z" fill="white" stroke="white" stroke-width="0.16" stroke-miterlimit="10"/>
<path d="M96.8781 19.1712H95.7205V11.4146H93.1825V10.3286H99.4162V11.4146H96.8781V19.1712Z" fill="white" stroke="white" stroke-width="0.16" stroke-miterlimit="10"/>
<path d="M111.204 18.0338C110.311 18.928 109.204 19.3742 107.884 19.3742C106.556 19.3742 105.45 18.928 104.556 18.0338C103.665 17.1414 103.221 16.0463 103.221 14.7501C103.221 13.4539 103.665 12.3588 104.556 11.4664C105.45 10.5722 106.556 10.126 107.884 10.126C109.196 10.126 110.303 10.5722 111.196 11.4738C112.095 12.3735 112.539 13.4613 112.539 14.7501C112.539 16.0463 112.095 17.1414 111.204 18.0338ZM105.42 17.2926C106.092 17.9545 106.909 18.2864 107.884 18.2864C108.851 18.2864 109.676 17.9545 110.341 17.2926C111.011 16.6307 111.351 15.7808 111.351 14.7501C111.351 13.7194 111.011 12.8695 110.341 12.2076C109.676 11.5457 108.851 11.2138 107.884 11.2138C106.909 11.2138 106.092 11.5457 105.42 12.2076C104.749 12.8695 104.409 13.7194 104.409 14.7501C104.409 15.7808 104.749 16.6307 105.42 17.2926Z" fill="white" stroke="white" stroke-width="0.16" stroke-miterlimit="10"/>
<path d="M114.176 19.1712V10.3286H115.592L119.996 17.2058H120.047L119.996 15.5059V10.3286H121.161V19.1712H119.945L115.334 11.9548H115.283L115.334 13.6621V19.1712H114.176Z" fill="white" stroke="white" stroke-width="0.16" stroke-miterlimit="10"/>
<path d="M102.934 32.0848C99.386 32.0848 96.4872 34.7214 96.4872 38.3591C96.4872 41.9673 99.386 44.6315 102.934 44.6315C106.49 44.6315 109.389 41.9673 109.389 38.3591C109.389 34.7214 106.49 32.0848 102.934 32.0848ZM102.934 42.1609C100.987 42.1609 99.3123 40.5919 99.3123 38.3591C99.3123 36.0968 100.987 34.5554 102.934 34.5554C104.881 34.5554 106.564 36.0968 106.564 38.3591C106.564 40.5919 104.881 42.1609 102.934 42.1609ZM88.8674 32.0848C85.3115 32.0848 82.4203 34.7214 82.4203 38.3591C82.4203 41.9673 85.3115 44.6315 88.8674 44.6315C92.4214 44.6315 95.3145 41.9673 95.3145 38.3591C95.3145 34.7214 92.4214 32.0848 88.8674 32.0848ZM88.8674 42.1609C86.9186 42.1609 85.2379 40.5919 85.2379 38.3591C85.2379 36.0968 86.9186 34.5554 88.8674 34.5554C90.8144 34.5554 92.4894 36.0968 92.4894 38.3591C92.4894 40.5919 90.8144 42.1609 88.8674 42.1609ZM72.1284 34.0078V36.6739H78.6492C78.4584 38.1636 77.9485 39.2588 77.1667 40.0221C76.215 40.944 74.7326 41.9673 72.1284 41.9673C68.1155 41.9673 64.9732 38.8053 64.9732 34.8873C64.9732 30.9693 68.1155 27.8073 72.1284 27.8073C74.2982 27.8073 75.8769 28.6351 77.0421 29.7082L78.9664 27.8294C77.3367 26.3102 75.1688 25.1431 72.1284 25.1431C66.6255 25.1431 62.0008 29.5146 62.0008 34.8873C62.0008 40.26 66.6255 44.6315 72.1284 44.6315C75.1027 44.6315 77.3367 43.6801 79.0929 41.8954C80.8926 40.1383 81.4535 37.6677 81.4535 35.6727C81.4535 35.0532 81.4006 34.4835 81.3062 34.0078H72.1284ZM140.576 36.0747C140.046 34.6716 138.408 32.0848 135.073 32.0848C131.769 32.0848 129.017 34.6273 129.017 38.3591C129.017 41.8733 131.74 44.6315 135.391 44.6315C138.342 44.6315 140.046 42.8744 140.746 41.8511L138.556 40.4259C137.825 41.4695 136.83 42.1609 135.391 42.1609C133.961 42.1609 132.936 41.5211 132.279 40.26L140.873 36.7882L140.576 36.0747ZM131.814 38.1636C131.74 35.7446 133.738 34.5056 135.17 34.5056C136.291 34.5056 137.243 35.0532 137.56 35.8368L131.814 38.1636ZM124.829 44.2499H127.654V25.8124H124.829V44.2499ZM120.202 33.4824H120.108C119.473 32.7485 118.263 32.0848 116.729 32.0848C113.511 32.0848 110.569 34.843 110.569 38.3794C110.569 41.8954 113.511 44.6315 116.729 44.6315C118.263 44.6315 119.473 43.9622 120.108 43.2063H120.202V44.106C120.202 46.5048 118.89 47.7935 116.773 47.7935C115.047 47.7935 113.976 46.5767 113.534 45.5534L111.077 46.5545C111.785 48.2176 113.661 50.2642 116.773 50.2642C120.085 50.2642 122.88 48.3614 122.88 43.7318V32.4664H120.202V33.4824ZM116.971 42.1609C115.024 42.1609 113.394 40.5697 113.394 38.3794C113.394 36.1687 115.024 34.5554 116.971 34.5554C118.89 34.5554 120.402 36.1687 120.402 38.3794C120.402 40.5697 118.89 42.1609 116.971 42.1609ZM153.803 25.8124H147.046V44.2499H149.864V37.2639H153.803C156.932 37.2639 160.001 35.0532 160.001 31.5372C160.001 28.023 156.924 25.8124 153.803 25.8124ZM153.876 34.6992H149.864V28.377H153.876C155.98 28.377 157.181 30.0825 157.181 31.5372C157.181 32.9643 155.98 34.6992 153.876 34.6992ZM171.293 32.0498C169.258 32.0498 167.141 32.9274 166.27 34.8725L168.77 35.8958C169.309 34.8725 170.298 34.5407 171.344 34.5407C172.806 34.5407 174.288 35.398 174.311 36.9117V37.1053C173.801 36.8177 172.71 36.3918 171.367 36.3918C168.674 36.3918 165.93 37.8391 165.93 40.5402C165.93 43.0109 168.136 44.602 170.615 44.602C172.511 44.602 173.558 43.7668 174.215 42.7951H174.311V44.2203H177.032V37.1477C177.032 33.8788 174.532 32.0498 171.293 32.0498ZM170.954 42.1535C170.032 42.1535 168.748 41.7073 168.748 40.5919C168.748 39.1648 170.349 38.6172 171.735 38.6172C172.976 38.6172 173.558 38.8845 174.311 39.2367C174.09 40.944 172.585 42.1535 170.954 42.1535ZM186.947 32.4535L183.708 40.4462H183.612L180.263 32.4535H177.225L182.256 43.623L179.385 49.8383H182.329L190.081 32.4535H186.947ZM161.549 44.2499H164.374V25.8124H161.549V44.2499Z" fill="white"/>
<path d="M15.7646 11.1197C15.3208 11.5732 15.064 12.2794 15.064 13.1939V45.8135C15.064 46.728 15.3208 47.4342 15.7646 47.8877L15.8741 47.9873L34.596 29.7157V29.2843L15.8741 11.0127L15.7646 11.1197Z" fill="url(#paint0_linear_3998_2733)"/>
<path d="M40.8296 35.8091L34.5959 29.7155V29.2841L40.8372 23.1905L40.9769 23.2697L48.3682 27.3758C50.4776 28.541 50.4776 30.4585 48.3682 31.6311L40.9769 35.7298L40.8296 35.8091Z" fill="url(#paint1_linear_3998_2733)"/>
<path d="M40.9769 35.7299L34.5959 29.4999L15.7646 47.8876C16.4652 48.6067 17.6077 48.6933 18.9069 47.9742L40.9769 35.7299Z" fill="url(#paint2_linear_3998_2733)"/>
<path d="M40.9769 23.27L18.9069 11.0256C17.6077 10.3139 16.4652 10.4006 15.7646 11.1197L34.5959 29.5L40.9769 23.27Z" fill="url(#paint3_linear_3998_2733)"/>
<defs>
<linearGradient id="paint0_linear_3998_2733" x1="32.9337" y1="46.1532" x2="8.18676" y2="20.8066" gradientUnits="userSpaceOnUse">
<stop stop-color="#00A0FF"/>
<stop offset="0.0066" stop-color="#00A1FF"/>
<stop offset="0.2601" stop-color="#00BEFF"/>
<stop offset="0.5122" stop-color="#00D2FF"/>
<stop offset="0.7604" stop-color="#00DFFF"/>
<stop offset="1" stop-color="#00E3FF"/>
</linearGradient>
<linearGradient id="paint1_linear_3998_2733" x1="51.115" y1="29.4977" x2="14.5597" y2="29.4977" gradientUnits="userSpaceOnUse">
<stop stop-color="#FFE000"/>
<stop offset="0.4087" stop-color="#FFBD00"/>
<stop offset="0.7754" stop-color="#FFA500"/>
<stop offset="1" stop-color="#FF9C00"/>
</linearGradient>
<linearGradient id="paint2_linear_3998_2733" x1="37.5071" y1="26.1131" x2="3.94827" y2="-8.25892" gradientUnits="userSpaceOnUse">
<stop stop-color="#FF3A44"/>
<stop offset="1" stop-color="#C31162"/>
</linearGradient>
<linearGradient id="paint3_linear_3998_2733" x1="11.0243" y1="58.7401" x2="26.0098" y2="43.3916" gradientUnits="userSpaceOnUse">
<stop stop-color="#32A071"/>
<stop offset="0.0685" stop-color="#2DA771"/>
<stop offset="0.4762" stop-color="#15CF74"/>
<stop offset="0.8009" stop-color="#06E775"/>
<stop offset="1" stop-color="#00F076"/>
</linearGradient>
</defs>
</svg>
