<svg width="176" height="32" viewBox="0 0 176 32" fill="none" xmlns="http://www.w3.org/2000/svg">
<path d="M12.204 7.21069C13.8933 4.18135 14.7373 2.66669 16 2.66669C17.2627 2.66669 18.1067 4.18135 19.796 7.21069L20.2333 7.99469C20.7133 8.85602 20.9533 9.28669 21.3267 9.57069C21.7 9.85469 22.1667 9.96002 23.1 10.1707L23.948 10.3627C27.228 11.1054 28.8667 11.476 29.2573 12.7307C29.6467 13.984 28.5293 15.292 26.2933 17.9067L25.7147 18.5827C25.08 19.3254 24.7613 19.6974 24.6187 20.156C24.476 20.616 24.524 21.112 24.62 22.1027L24.708 23.0054C25.0453 26.4947 25.2147 28.2387 24.1933 29.0134C23.172 29.788 21.636 29.0814 18.5667 27.668L17.7707 27.3027C16.8987 26.9 16.4627 26.7 16 26.7C15.5373 26.7 15.1013 26.9 14.2293 27.3027L13.4347 27.668C10.364 29.0814 8.828 29.788 7.808 29.0147C6.78533 28.2387 6.95466 26.4947 7.292 23.0054L7.38 22.104C7.476 21.112 7.524 20.616 7.38 20.1574C7.23866 19.6974 6.92 19.3254 6.28533 18.584L5.70667 17.9067C3.47066 15.2934 2.35333 13.9854 2.74266 12.7307C3.132 11.476 4.77333 11.104 8.05333 10.3627L8.90133 10.1707C9.83333 9.96002 10.2987 9.85469 10.6733 9.57069C11.048 9.28669 11.2867 8.85602 11.7667 7.99469L12.204 7.21069Z" fill="#FEC700"/>
<path d="M48.204 7.21069C49.8933 4.18135 50.7373 2.66669 52 2.66669C53.2627 2.66669 54.1067 4.18135 55.796 7.21069L56.2333 7.99469C56.7133 8.85602 56.9533 9.28669 57.3267 9.57069C57.7 9.85469 58.1667 9.96002 59.1 10.1707L59.948 10.3627C63.228 11.1054 64.8667 11.476 65.2573 12.7307C65.6467 13.984 64.5293 15.292 62.2933 17.9067L61.7147 18.5827C61.08 19.3254 60.7613 19.6974 60.6187 20.156C60.476 20.616 60.524 21.112 60.62 22.1027L60.708 23.0054C61.0453 26.4947 61.2147 28.2387 60.1933 29.0134C59.172 29.788 57.636 29.0814 54.5667 27.668L53.7707 27.3027C52.8987 26.9 52.4627 26.7 52 26.7C51.5373 26.7 51.1013 26.9 50.2293 27.3027L49.4347 27.668C46.364 29.0814 44.828 29.788 43.808 29.0147C42.7853 28.2387 42.9547 26.4947 43.292 23.0054L43.38 22.104C43.476 21.112 43.524 20.616 43.38 20.1574C43.2387 19.6974 42.92 19.3254 42.2853 18.584L41.7067 17.9067C39.4707 15.2934 38.3533 13.9854 38.7427 12.7307C39.132 11.476 40.7733 11.104 44.0533 10.3627L44.9013 10.1707C45.8333 9.96002 46.2987 9.85469 46.6733 9.57069C47.048 9.28669 47.2867 8.85602 47.7667 7.99469L48.204 7.21069Z" fill="#FEC700"/>
<path d="M84.204 7.21069C85.8933 4.18135 86.7373 2.66669 88 2.66669C89.2627 2.66669 90.1067 4.18135 91.796 7.21069L92.2333 7.99469C92.7133 8.85602 92.9533 9.28669 93.3267 9.57069C93.7 9.85469 94.1667 9.96002 95.1 10.1707L95.948 10.3627C99.228 11.1054 100.867 11.476 101.257 12.7307C101.647 13.984 100.529 15.292 98.2933 17.9067L97.7147 18.5827C97.08 19.3254 96.7613 19.6974 96.6187 20.156C96.476 20.616 96.524 21.112 96.62 22.1027L96.708 23.0054C97.0453 26.4947 97.2147 28.2387 96.1933 29.0134C95.172 29.788 93.636 29.0814 90.5667 27.668L89.7707 27.3027C88.8987 26.9 88.4627 26.7 88 26.7C87.5373 26.7 87.1013 26.9 86.2293 27.3027L85.4347 27.668C82.364 29.0814 80.828 29.788 79.808 29.0147C78.7853 28.2387 78.9547 26.4947 79.292 23.0054L79.38 22.104C79.476 21.112 79.524 20.616 79.38 20.1574C79.2387 19.6974 78.92 19.3254 78.2853 18.584L77.7067 17.9067C75.4707 15.2934 74.3533 13.9854 74.7427 12.7307C75.132 11.476 76.7733 11.104 80.0533 10.3627L80.9013 10.1707C81.8333 9.96002 82.2987 9.85469 82.6733 9.57069C83.048 9.28669 83.2867 8.85602 83.7667 7.99469L84.204 7.21069Z" fill="#FEC700"/>
<path d="M120.204 7.21069C121.893 4.18135 122.737 2.66669 124 2.66669C125.263 2.66669 126.107 4.18135 127.796 7.21069L128.233 7.99469C128.713 8.85602 128.953 9.28669 129.327 9.57069C129.7 9.85469 130.167 9.96002 131.1 10.1707L131.948 10.3627C135.228 11.1054 136.867 11.476 137.257 12.7307C137.647 13.984 136.529 15.292 134.293 17.9067L133.715 18.5827C133.08 19.3254 132.761 19.6974 132.619 20.156C132.476 20.616 132.524 21.112 132.62 22.1027L132.708 23.0054C133.045 26.4947 133.215 28.2387 132.193 29.0134C131.172 29.788 129.636 29.0814 126.567 27.668L125.771 27.3027C124.899 26.9 124.463 26.7 124 26.7C123.537 26.7 123.101 26.9 122.229 27.3027L121.435 27.668C118.364 29.0814 116.828 29.788 115.808 29.0147C114.785 28.2387 114.955 26.4947 115.292 23.0054L115.38 22.104C115.476 21.112 115.524 20.616 115.38 20.1574C115.239 19.6974 114.92 19.3254 114.285 18.584L113.707 17.9067C111.471 15.2934 110.353 13.9854 110.743 12.7307C111.132 11.476 112.773 11.104 116.053 10.3627L116.901 10.1707C117.833 9.96002 118.299 9.85469 118.673 9.57069C119.048 9.28669 119.287 8.85602 119.767 7.99469L120.204 7.21069Z" fill="#FEC700"/>
<path d="M156.204 7.21069C157.893 4.18135 158.737 2.66669 160 2.66669C161.263 2.66669 162.107 4.18135 163.796 7.21069L164.233 7.99469C164.713 8.85602 164.953 9.28669 165.327 9.57069C165.7 9.85469 166.167 9.96002 167.1 10.1707L167.948 10.3627C171.228 11.1054 172.867 11.476 173.257 12.7307C173.647 13.984 172.529 15.292 170.293 17.9067L169.715 18.5827C169.08 19.3254 168.761 19.6974 168.619 20.156C168.476 20.616 168.524 21.112 168.62 22.1027L168.708 23.0054C169.045 26.4947 169.215 28.2387 168.193 29.0134C167.172 29.788 165.636 29.0814 162.567 27.668L161.771 27.3027C160.899 26.9 160.463 26.7 160 26.7C159.537 26.7 159.101 26.9 158.229 27.3027L157.435 27.668C154.364 29.0814 152.828 29.788 151.808 29.0147C150.785 28.2387 150.955 26.4947 151.292 23.0054L151.38 22.104C151.476 21.112 151.524 20.616 151.38 20.1574C151.239 19.6974 150.92 19.3254 150.285 18.584L149.707 17.9067C147.471 15.2934 146.353 13.9854 146.743 12.7307C147.132 11.476 148.773 11.104 152.053 10.3627L152.901 10.1707C153.833 9.96002 154.299 9.85469 154.673 9.57069C155.048 9.28669 155.287 8.85602 155.767 7.99469L156.204 7.21069Z" fill="#FEC700"/>
</svg>
