<svg width="43" height="40" viewBox="0 0 43 40" fill="none" xmlns="http://www.w3.org/2000/svg">
<path d="M21.0486 32.6739C17.4603 32.6338 14.2152 31.1635 11.8569 28.8053C9.47438 26.4203 8.00045 23.1267 8.00045 19.4874C8.00045 15.8481 9.47802 12.5508 11.8666 10.1659C14.2552 7.78088 17.5549 6.30574 21.1991 6.30574C24.8433 6.30574 28.1441 7.78088 30.5327 10.1659C32.9201 12.5508 34.3977 15.8468 34.3977 19.4874C34.3977 23.652 32.9844 27.4806 30.6116 30.5182C28.5869 33.1118 25.8635 35.1353 22.7215 36.3083V34.2145C22.7215 33.3605 22.0288 32.669 21.1748 32.669C21.1324 32.669 21.0899 32.6702 21.0486 32.6739ZM21.1991 24.0911C20.3438 24.0911 19.6511 23.3984 19.6511 22.5456V20.9989C19.6511 20.1449 20.3438 19.4534 21.1991 19.4534C22.0543 19.4534 22.747 20.1449 22.747 20.9989V22.5456C22.747 23.3984 22.0543 24.0911 21.1991 24.0911ZM15.0086 20.9989C14.1533 20.9989 13.4607 20.3074 13.4607 19.4534C13.4607 18.5994 14.1533 17.9079 15.0086 17.9079C15.8638 17.9079 16.5553 18.5994 16.5553 19.4534C16.5553 20.3074 15.8626 20.9989 15.0086 20.9989ZM27.3908 20.9989C26.5355 20.9989 25.8429 20.3074 25.8429 19.4534C25.8429 18.5994 26.5355 17.9079 27.3908 17.9079C28.246 17.9079 28.9387 18.5994 28.9387 19.4534C28.9387 20.3074 28.2448 20.9989 27.3908 20.9989ZM37.3189 17.0976C38.7819 16.3903 39.9974 15.3131 40.8708 14.009C41.8462 12.5532 42.3981 10.8197 42.3981 9.00127C42.3981 6.51561 41.3913 4.26529 39.7621 2.63609C38.1329 1.00688 35.8825 0 33.3969 0C31.9278 0 30.4976 0.363933 29.2201 1.03357C27.9464 1.7032 26.8328 2.67369 25.9945 3.88801L26.1049 3.96444C24.5557 3.47677 22.9083 3.21352 21.1991 3.21352C19.4898 3.21352 17.8424 3.47677 16.2933 3.96444L16.4037 3.88801C15.5654 2.67369 14.4518 1.7032 13.178 1.03357C11.9006 0.363933 10.4703 0 9.00127 0C6.51561 0 4.26529 1.00688 2.63609 2.63609C1.00688 4.26529 0 6.51561 0 9.00127C0 10.8197 0.551964 12.5532 1.5273 14.009C2.40074 15.3131 3.61749 16.3903 5.0805 17.0976C4.96525 17.8776 4.90581 18.6758 4.90581 19.4874C4.90581 23.971 6.72547 28.0337 9.66848 30.9792C12.2694 33.5813 15.7498 35.3075 19.6269 35.6787V38.4022H19.6281C19.6281 38.5259 19.6439 38.6521 19.6754 38.777C19.8816 39.6044 20.7211 40.1066 21.5497 39.9004C26.174 38.7443 30.1955 36.0597 33.0414 32.4143C35.8316 28.8429 37.4935 24.3556 37.4935 19.4874C37.4935 18.6758 37.4329 17.8776 37.3189 17.0976ZM28.9132 5.14965C29.4033 4.57706 29.9941 4.11001 30.648 3.7667C31.4765 3.3312 32.4179 3.09464 33.3969 3.09464C35.0285 3.09464 36.5049 3.75578 37.5736 4.82453C38.6424 5.89328 39.3035 7.36963 39.3035 9.00127C39.3035 10.2047 38.9432 11.3426 38.3075 12.2912C37.8514 12.973 37.2534 13.5589 36.5449 14.0041C35.7248 11.7162 34.4074 9.66484 32.7212 7.97983C31.6015 6.86134 30.3192 5.90541 28.9132 5.14965ZM13.4861 5.14965C12.0801 5.90541 10.7979 6.86134 9.67818 7.97983C7.99196 9.66484 6.67331 11.7162 5.85325 14.0041C5.14479 13.5589 4.54673 12.973 4.0906 12.2912C3.45493 11.3426 3.09585 10.2047 3.09585 9.00127C3.09585 7.36963 3.75578 5.89328 4.82453 4.82453C5.89328 3.75578 7.36963 3.09464 9.00127 3.09464C9.98024 3.09464 10.9216 3.3312 11.7514 3.7667C12.404 4.11001 12.9948 4.57706 13.4861 5.14965Z" fill="url(#paint0_linear_3998_2240)"/>
<defs>
<linearGradient id="paint0_linear_3998_2240" x1="5.26732" y1="33.46" x2="30.5497" y2="1.30895" gradientUnits="userSpaceOnUse">
<stop stop-color="#AD46FF"/>
<stop offset="1" stop-color="#F6339B"/>
</linearGradient>
</defs>
</svg>
