<svg width="249" height="146" viewBox="0 0 249 146" fill="none" xmlns="http://www.w3.org/2000/svg">
<path d="M0.962242 46.697L1.4782e-05 47.8477L2.30142 49.7722L3.26365 48.6215L2.11295 47.6593L0.962242 46.697ZM236.032 144.674C236.607 145.271 237.556 145.289 238.153 144.715L247.879 135.352C248.476 134.777 248.494 133.828 247.919 133.231C247.345 132.634 246.395 132.616 245.798 133.191L237.153 141.513L228.831 132.868C228.256 132.271 227.307 132.253 226.71 132.827C226.113 133.402 226.095 134.352 226.67 134.948L236.032 144.674ZM13.0647 38.8274C13.695 38.2898 13.77 37.343 13.2323 36.7127C12.6947 36.0825 11.7479 36.0075 11.1177 36.5451L12.0912 37.6863L13.0647 38.8274ZM34.8788 20.7041C34.1463 21.091 33.866 21.9984 34.2529 22.731C34.6397 23.4635 35.5472 23.7438 36.2797 23.3569L35.5793 22.0305L34.8788 20.7041ZM62.0662 12.3936C62.8519 12.1308 63.2758 11.281 63.013 10.4953C62.7503 9.70963 61.9004 9.28571 61.1148 9.54844L61.5905 10.971L62.0662 12.3936ZM88.7472 2.58138C87.9308 2.72228 87.3832 3.49828 87.5241 4.31464C87.665 5.131 88.441 5.67857 89.2574 5.53767L89.0023 4.05953L88.7472 2.58138ZM117.152 3.00002C117.981 2.99437 118.648 2.31823 118.642 1.48982C118.636 0.661415 117.96 -0.0055598 117.132 9.34601e-05L117.142 1.50006L117.152 3.00002ZM145.561 2.49364C144.748 2.33854 143.962 2.8725 143.807 3.68627C143.652 4.50005 144.186 5.28549 145 5.44059L145.281 3.96712L145.561 2.49364ZM171.574 13.7868C172.328 14.1309 173.217 13.799 173.562 13.0454C173.906 12.2918 173.574 11.402 172.82 11.0579L172.197 12.4223L171.574 13.7868ZM196.962 26.3914C196.332 25.8529 195.385 25.9268 194.847 26.5564C194.308 27.186 194.382 28.1328 195.012 28.6713L195.987 27.5313L196.962 26.3914ZM213.36 49.5374C213.817 50.2287 214.747 50.419 215.439 49.9625C216.13 49.506 216.32 48.5755 215.864 47.8842L214.612 48.7108L213.36 49.5374ZM228.557 73.422C228.274 72.6432 227.414 72.241 226.635 72.5236C225.856 72.8062 225.454 73.6666 225.737 74.4453L227.147 73.9336L228.557 73.422ZM232.753 101.494C232.891 102.311 233.666 102.86 234.483 102.721C235.3 102.582 235.849 101.808 235.71 100.991L234.231 101.242L232.753 101.494ZM238.508 129.35C238.48 128.522 237.785 127.874 236.957 127.903C236.129 127.932 235.481 128.627 235.51 129.454L237.009 129.402L238.508 129.35ZM2.11295 47.6593L3.26365 48.6215C6.06025 45.2771 9.34808 41.9981 13.0647 38.8274L12.0912 37.6863L11.1177 36.5451C7.29054 39.81 3.8805 43.2072 0.962242 46.697L2.11295 47.6593ZM35.5793 22.0305L36.2797 23.3569C44.2066 19.1709 52.8925 15.4613 62.0662 12.3936L61.5905 10.971L61.1148 9.54844C51.7935 12.6655 42.9566 16.4384 34.8788 20.7041L35.5793 22.0305ZM89.0023 4.05953L89.2574 5.53767C98.4385 3.9531 107.81 3.06378 117.152 3.00002L117.142 1.50006L117.132 9.34601e-05C107.614 0.0650419 98.0787 0.970849 88.7472 2.58138L89.0023 4.05953ZM145.281 3.96712L145 5.44059C154.198 7.19373 163.131 9.93145 171.574 13.7868L172.197 12.4223L172.82 11.0579C164.138 7.09325 154.972 4.28731 145.561 2.49364L145.281 3.96712ZM195.987 27.5313L195.012 28.6713C201.806 34.482 207.985 41.398 213.36 49.5374L214.612 48.7108L215.864 47.8842C210.335 39.5118 203.969 32.3847 196.962 26.3914L195.987 27.5313ZM227.147 73.9336L225.737 74.4453C228.703 82.6195 231.073 91.6163 232.753 101.494L234.231 101.242L235.71 100.991C234.003 90.9504 231.589 81.7782 228.557 73.422L227.147 73.9336ZM237.009 129.402L235.51 129.454C235.67 134.023 235.706 138.738 235.613 143.605L237.113 143.634L238.613 143.662C238.706 138.744 238.67 133.974 238.508 129.35L237.009 129.402Z" fill="url(#paint0_linear_3998_2684)"/>
<defs>
<linearGradient id="paint0_linear_3998_2684" x1="2.11295" y1="72.5651" x2="237.163" y2="72.5651" gradientUnits="userSpaceOnUse">
<stop stop-color="#A055FD"/>
<stop offset="1" stop-color="#E24A9A"/>
</linearGradient>
</defs>
</svg>
