<svg width="122" height="174" viewBox="0 0 122 174" fill="none" xmlns="http://www.w3.org/2000/svg">
<path d="M106.589 1.33397L105.903 5.64585e-05L103.236 1.37217L103.922 2.70608L105.256 2.02003L106.589 1.33397ZM0.910325 158.179C0.148685 158.504 -0.204558 159.386 0.121331 160.148L5.43196 172.559C5.75785 173.321 6.63946 173.674 7.4011 173.348C8.16273 173.022 8.51598 172.141 8.19009 171.379L3.46953 160.347L14.502 155.626C15.2637 155.3 15.6169 154.419 15.291 153.657C14.9651 152.895 14.0835 152.542 13.3219 152.868L0.910325 158.179ZM110.115 16.845C110.401 17.6226 111.263 18.0213 112.04 17.7355C112.818 17.4498 113.217 16.5878 112.931 15.8102L111.523 16.3276L110.115 16.845ZM120.37 46.4523C120.264 45.6306 119.512 45.0501 118.691 45.1556C117.869 45.2611 117.288 46.0127 117.394 46.8344L118.882 46.6434L120.37 46.4523ZM118.027 77.711C117.955 78.5363 118.566 79.2639 119.391 79.3361C120.216 79.4084 120.944 78.798 121.016 77.9727L119.522 77.8419L118.027 77.711ZM114.687 108.877C114.95 108.091 114.527 107.241 113.741 106.978C112.956 106.715 112.106 107.139 111.843 107.924L113.265 108.4L114.687 108.877ZM98.0837 135.363C97.6014 136.036 97.7565 136.973 98.43 137.456C99.1036 137.938 100.041 137.783 100.523 137.109L99.3033 136.236L98.0837 135.363ZM77.5231 158.84C78.2306 158.409 78.4548 157.486 78.0238 156.779C77.5928 156.071 76.6698 155.847 75.9624 156.278L76.7427 157.559L77.5231 158.84ZM47.1923 165.793C46.3678 165.874 45.7646 166.607 45.8449 167.432C45.9253 168.256 46.6589 168.859 47.4834 168.779L47.3379 167.286L47.1923 165.793ZM16.0141 165.945C16.816 166.153 17.6348 165.672 17.843 164.87C18.0513 164.068 17.5701 163.249 16.7683 163.041L16.3912 164.493L16.0141 165.945ZM105.256 2.02003L103.922 2.70608C106.274 7.28052 108.337 12.0077 110.115 16.845L111.523 16.3276L112.931 15.8102C111.112 10.8617 109 6.02156 106.589 1.33397L105.256 2.02003ZM118.882 46.6434L117.394 46.8344C118.719 57.1538 118.916 67.5647 118.027 77.711L119.522 77.8419L121.016 77.9727C121.923 67.6123 121.722 56.9855 120.37 46.4523L118.882 46.6434ZM113.265 108.4L111.843 107.924C108.471 117.995 103.863 127.292 98.0837 135.363L99.3033 136.236L100.523 137.109C106.496 128.768 111.232 119.197 114.687 108.877L113.265 108.4ZM76.7427 157.559L75.9624 156.278C67.546 161.405 57.9406 164.745 47.1923 165.793L47.3379 167.286L47.4834 168.779C58.6857 167.687 68.7246 164.2 77.5231 158.84L76.7427 157.559ZM16.3912 164.493L16.7683 163.041C12.0215 161.808 7.11725 160.192 2.0583 158.165L1.50039 159.558L0.942487 160.95C6.11176 163.021 11.1368 164.678 16.0141 165.945L16.3912 164.493Z" fill="url(#paint0_linear_3998_2706)"/>
<defs>
<linearGradient id="paint0_linear_3998_2706" x1="62.3743" y1="1.40896" x2="60.0012" y2="167.942" gradientUnits="userSpaceOnUse">
<stop stop-color="#A055FD"/>
<stop offset="1" stop-color="#E24A9A"/>
</linearGradient>
</defs>
</svg>
