<svg width="91" height="24" viewBox="0 0 91 24" fill="none" xmlns="http://www.w3.org/2000/svg">
<path d="M13.0543 16.0928V14.302H12.918C12.1595 14.6325 10.4486 14.8799 8.95568 14.8799H8.1427C5.80796 14.8799 5.15693 14.1359 5.15693 11.6565V3.22507C5.15693 1.07448 4.20604 0 2.17117 0H0V12.0147C0 16.8091 2.03487 19.2332 6.78451 19.2332H8.95568C11.9142 19.2332 13.0543 18.022 13.0543 16.0928ZM29.1537 9.47986C29.1537 5.62149 26.115 3.3895 22.2056 3.3895C17.5923 3.3895 14.5247 7.13716 14.5247 11.7395C14.5247 15.9267 17.2395 19.4546 22.3964 19.4546C26.657 19.4546 28.2044 17.7175 28.2044 15.7884V14.5771H28.0136C27.1733 15.1551 25.6804 15.5409 23.2912 15.5409C21.1473 15.5409 19.927 14.8246 19.6271 13.3089H21.8528C26.9007 13.3089 29.1537 12.5096 29.1537 9.47986ZM24.3768 8.90028C24.3768 9.56125 23.9438 9.94709 21.5001 9.94709H19.4924C19.6271 8.48677 20.3872 7.30321 22.2056 7.30321C23.6985 7.30321 24.3768 8.12861 24.3768 8.90028ZM45.0093 12.3451V10.0024C45.0093 5.53846 42.3218 3.41717 38.1976 3.41717C34.0733 3.41717 32.0095 5.29101 32.0095 7.16484V9.01099H32.1442C33.2026 8.01954 34.2352 7.35694 37.0302 7.35694C39.0651 7.35694 40.0159 7.66137 40.0159 8.90028V9.53521H39.2831C33.8552 9.53521 31.466 11.243 31.466 14.6048C31.466 17.9666 34.9681 19.4269 37.8448 19.4269C43.2727 19.4269 45.0093 17.8559 45.0093 12.3451ZM40.1234 13.9162C40.1234 15.2935 39.3104 15.7623 38.3868 15.7623C36.9484 15.7623 36.3519 15.2658 36.3519 14.302C36.3519 13.2812 37.1392 12.7863 39.0923 12.7863H40.1234V13.9162ZM57.2282 7.77045V5.84127C57.2282 4.43631 56.0336 3.36182 53.4551 3.36182C50.062 3.36182 48.0272 5.78754 48.0272 8.84493V15.4318C48.0272 17.9666 49.3837 19.0134 51.6094 19.0134H53.0205V9.94709C53.0205 8.10094 53.9971 7.46764 55.2462 7.46764C55.9245 7.46764 56.4136 7.523 57.0646 7.77045H57.2282ZM73.9241 19.0134V10.7464C73.9241 6.25478 71.7802 3.41717 66.4885 3.41717C61.7389 3.41717 58.8878 6.25478 58.8878 10.6097V15.9267C58.8878 18.1311 60.1097 19.0134 62.3081 19.0134H64.0448V10.5267C64.0448 8.68051 64.8594 7.66138 66.3522 7.66138C68.0888 7.66138 68.7671 8.5698 68.7671 10.6097V15.9267C68.7671 18.2418 69.4727 19.0134 71.7529 19.0134H73.9241ZM91 5.78754C91 4.57468 90.2944 3.85836 88.8016 3.85836H86.3321C86.0066 6.80667 84.8393 10.8848 83.7264 13.1722C82.9407 11.326 81.908 8.40537 81.3933 6.00733C81.095 4.65771 79.7641 3.85836 78.4893 3.85836H75.8018C76.3999 7.90883 79.1403 14.7969 81.2842 18.048C80.7423 19.2886 80.1169 19.8405 78.7603 19.9495L76.5346 20.1156V21.3822C76.5346 23.0916 77.9184 24 79.5749 24C82.6954 24 83.7537 23.1746 87.9341 15.0183C89.5889 11.7932 91 7.38461 91 5.78754Z" fill="white"/>
</svg>
