<svg width="20" height="20" viewBox="0 0 20 20" fill="none" xmlns="http://www.w3.org/2000/svg">
<path fill-rule="evenodd" clip-rule="evenodd" d="M11.0267 1.13334C11.5533 0.501676 12.5792 0.933342 12.4958 1.75168L11.9075 7.50001H16.6667C16.825 7.50007 16.9801 7.54524 17.1137 7.63024C17.2473 7.71523 17.3539 7.83653 17.421 7.97993C17.4882 8.12333 17.5131 8.2829 17.4928 8.43994C17.4726 8.59698 17.408 8.74501 17.3067 8.86668L8.97333 18.8667C8.44666 19.4983 7.42083 19.0667 7.50416 18.2483L8.09249 12.5H3.33333C3.17498 12.4999 3.01993 12.4548 2.88633 12.3698C2.75273 12.2848 2.64611 12.1635 2.57896 12.0201C2.5118 11.8767 2.4869 11.7171 2.50715 11.5601C2.52741 11.403 2.59199 11.255 2.69333 11.1333L11.0267 1.13334Z" fill="#499FF7"/>
</svg>
