<svg width="20" height="20" viewBox="0 0 20 20" fill="none" xmlns="http://www.w3.org/2000/svg">
<path d="M7.58925 4.54008C8.08759 3.08175 10.1026 3.03758 10.6934 4.40758L10.7434 4.54092L11.4159 6.50758C11.57 6.95861 11.8191 7.37134 12.1463 7.71793C12.4735 8.06453 12.8712 8.33692 13.3126 8.51675L13.4934 8.58425L15.4601 9.25592C16.9184 9.75425 16.9626 11.7692 15.5934 12.3601L15.4601 12.4101L13.4934 13.0826C13.0422 13.2366 12.6293 13.4856 12.2826 13.8128C11.9359 14.14 11.6633 14.5378 11.4834 14.9792L11.4159 15.1592L10.7443 17.1267C10.2459 18.5851 8.23092 18.6292 7.64092 17.2601L7.58925 17.1267L6.91759 15.1601C6.76357 14.7089 6.51456 14.296 6.18737 13.9493C5.86018 13.6025 5.46241 13.33 5.02092 13.1501L4.84092 13.0826L2.87425 12.4109C1.41509 11.9126 1.37092 9.89758 2.74092 9.30758L2.87425 9.25592L4.84092 8.58425C5.29195 8.43013 5.70468 8.18108 6.05127 7.85389C6.39787 7.5267 6.67026 7.12899 6.85009 6.68758L6.91759 6.50758L7.58925 4.54008ZM15.8334 1.66675C15.9893 1.66675 16.1421 1.71048 16.2744 1.79297C16.4067 1.87547 16.5132 1.99342 16.5818 2.13341L16.6218 2.23091L16.9134 3.08592L17.7693 3.37758C17.9255 3.43066 18.0625 3.52893 18.1628 3.65993C18.2631 3.79093 18.3223 3.94876 18.3328 4.11343C18.3434 4.2781 18.3048 4.44219 18.2219 4.5849C18.1391 4.72762 18.0158 4.84253 17.8676 4.91508L17.7693 4.95508L16.9143 5.24675L16.6226 6.10258C16.5694 6.25877 16.4711 6.39566 16.34 6.49591C16.209 6.59615 16.0511 6.65524 15.8865 6.66568C15.7218 6.67613 15.5577 6.63745 15.4151 6.55456C15.2724 6.47168 15.1576 6.3483 15.0851 6.20008L15.0451 6.10258L14.7534 5.24758L13.8976 4.95591C13.7414 4.90284 13.6044 4.80457 13.5041 4.67357C13.4037 4.54257 13.3446 4.38473 13.334 4.22006C13.3235 4.0554 13.3621 3.89131 13.4449 3.74859C13.5277 3.60588 13.6511 3.49097 13.7993 3.41842L13.8976 3.37841L14.7526 3.08675L15.0443 2.23091C15.1004 2.06627 15.2068 1.92334 15.3483 1.82216C15.4898 1.72099 15.6595 1.66664 15.8334 1.66675Z" fill="#E84475"/>
</svg>
