<svg width="90" height="90" viewBox="0 0 90 90" fill="none" xmlns="http://www.w3.org/2000/svg">
<rect width="90" height="90" rx="24" fill="url(#paint0_linear_5144_596)"/>
<path d="M36.2502 31.25C36.2502 30.1009 36.4765 28.9631 36.9162 27.9015C37.356 26.8399 38.0005 25.8753 38.813 25.0628C39.6255 24.2503 40.5901 23.6058 41.6517 23.1661C42.7133 22.7263 43.8511 22.5 45.0002 22.5C46.1492 22.5 47.2871 22.7263 48.3487 23.1661C49.4103 23.6058 50.3748 24.2503 51.1874 25.0628C51.9999 25.8753 52.6444 26.8399 53.0841 27.9015C53.5238 28.9631 53.7502 30.1009 53.7502 31.25C53.7502 33.5706 52.8283 35.7962 51.1874 37.4372C49.5464 39.0781 47.3208 40 45.0002 40C42.6795 40 40.4539 39.0781 38.813 37.4372C37.1721 35.7962 36.2502 33.5706 36.2502 31.25ZM26.2502 42.5C27.9078 42.5 29.4975 41.8415 30.6696 40.6694C31.8417 39.4973 32.5002 37.9076 32.5002 36.25C32.5002 34.5924 31.8417 33.0027 30.6696 31.8306C29.4975 30.6585 27.9078 30 26.2502 30C24.5926 30 23.0029 30.6585 21.8308 31.8306C20.6587 33.0027 20.0002 34.5924 20.0002 36.25C20.0002 37.9076 20.6587 39.4973 21.8308 40.6694C23.0029 41.8415 24.5926 42.5 26.2502 42.5ZM70.0002 36.25C70.0002 37.9076 69.3417 39.4973 68.1696 40.6694C66.9975 41.8415 65.4078 42.5 63.7502 42.5C62.0926 42.5 60.5029 41.8415 59.3308 40.6694C58.1587 39.4973 57.5002 37.9076 57.5002 36.25C57.5002 34.5924 58.1587 33.0027 59.3308 31.8306C60.5029 30.6585 62.0926 30 63.7502 30C65.4078 30 66.9975 30.6585 68.1696 31.8306C69.3417 33.0027 70.0002 34.5924 70.0002 36.25ZM41.2502 45C37.8002 45 35.0002 47.8 35.0002 51.25V57.5C35.0002 60.1522 36.0537 62.6957 37.9291 64.5711C39.8045 66.4464 42.348 67.5 45.0002 67.5C47.6523 67.5 50.1959 66.4464 52.0712 64.5711C53.9466 62.6957 55.0002 60.1522 55.0002 57.5V51.25C55.0002 47.8 52.2002 45 48.7502 45H41.2502ZM30.0002 51.25C30.0002 49.805 30.2702 48.425 30.7702 47.16L24.6152 48.81C23.015 49.2389 21.6506 50.2857 20.8218 51.7201C19.993 53.1546 19.7676 54.8594 20.1952 56.46L21.1652 60.085C21.5052 61.3537 22.0917 62.5429 22.8914 63.5848C23.6911 64.6268 24.6881 65.501 25.8257 66.1575C26.9632 66.814 28.219 67.24 29.5212 67.4112C30.8234 67.5823 32.1466 67.4953 33.4152 67.155L33.5002 67.13C31.2393 64.4303 30.0003 61.0213 30.0002 57.5V51.25ZM60.0002 57.5C60.0002 61.165 58.6852 64.525 56.5002 67.135L56.5802 67.155C59.1415 67.8407 61.8703 67.4812 64.1665 66.1553C66.4628 64.8295 68.1385 62.6461 68.8252 60.085L69.7952 56.46C70.2228 54.8594 69.9974 53.1546 69.1686 51.7201C68.3398 50.2857 66.9754 49.2389 65.3752 48.81L59.2352 47.16C59.7302 48.43 60.0002 49.81 60.0002 51.25V57.5Z" fill="#FCF9FE"/>
<defs>
<linearGradient id="paint0_linear_5144_596" x1="0" y1="45" x2="90" y2="45" gradientUnits="userSpaceOnUse">
<stop stop-color="#A055FD"/>
<stop offset="1" stop-color="#E24A9A"/>
</linearGradient>
</defs>
</svg>
