<svg width="104" height="81" viewBox="0 0 104 81" fill="none" xmlns="http://www.w3.org/2000/svg">
<rect x="17.3693" width="91" height="54" rx="27" transform="rotate(18.763 17.3693 0)" fill="white" fill-opacity="0.1"/>
<path d="M28.5611 50.457C27.9077 50.235 27.3934 49.9022 27.0181 49.4584C26.647 49.0126 26.4225 48.4843 26.3447 47.8734C26.2669 47.2625 26.3494 46.5995 26.5923 45.8844L26.5955 45.8752C26.8394 45.157 27.1778 44.581 27.6106 44.147C28.0475 43.7109 28.5499 43.4313 29.1178 43.3079C29.6888 43.1856 30.2964 43.2338 30.9406 43.4527C31.5878 43.6725 32.0991 44.0044 32.4743 44.4481C32.8496 44.8919 33.0761 45.4192 33.1539 46.0301C33.2318 46.641 33.1492 47.304 32.9063 48.019L32.9032 48.0283C32.6602 48.7434 32.3219 49.3194 31.8881 49.7565C31.4573 50.1946 30.9575 50.4769 30.3885 50.6033C29.8206 50.7267 29.2115 50.6779 28.5611 50.457ZM28.9114 49.426C29.309 49.5611 29.6872 49.5761 30.046 49.4711C30.4049 49.3661 30.7257 49.1554 31.0085 48.8389C31.2945 48.5235 31.5222 48.1161 31.6919 47.6168L31.695 47.6075C31.8657 47.1051 31.9332 46.6433 31.8975 46.2221C31.8659 45.7988 31.7393 45.4378 31.5177 45.139C31.297 44.8372 30.9879 44.6187 30.5903 44.4837C30.1958 44.3496 29.8176 44.3346 29.4557 44.4386C29.0979 44.5405 28.776 44.7492 28.4901 45.0646C28.2083 45.378 27.9821 45.7859 27.8114 46.2883L27.8083 46.2975C27.6386 46.7968 27.5681 47.2576 27.5965 47.6798C27.6281 48.1031 27.7542 48.4656 27.9748 48.7675C28.1985 49.0704 28.5107 49.2899 28.9114 49.426ZM34.2836 52.2153L34.2018 46.5511L35.4316 46.9689L35.2617 51.2945L35.3449 51.3227L37.8404 47.7871L39.0517 48.1986L35.5412 52.6425L34.2836 52.2153ZM40.137 54.3172C39.6346 54.1465 39.2392 53.8936 38.9508 53.5584C38.6655 53.2243 38.4923 52.8285 38.4311 52.3711C38.3699 51.9137 38.4304 51.4169 38.6126 50.8806L38.6141 50.8759C38.7942 50.3458 39.0468 49.9159 39.372 49.5863C39.7002 49.2578 40.0781 49.0458 40.5059 48.9505C40.9347 48.852 41.3879 48.884 41.8657 49.0463C42.3465 49.2096 42.7234 49.4562 42.9964 49.7862C43.2735 50.1141 43.4416 50.4995 43.5009 50.9425C43.5601 51.3855 43.5033 51.8613 43.3305 52.3698L43.2018 52.749L39.0962 51.3543L39.3585 50.5822L42.9 51.7853L42.1094 52.3212L42.2649 51.8635C42.3791 51.5275 42.423 51.2313 42.3966 50.9748C42.3703 50.7183 42.2851 50.5037 42.1409 50.331C41.9998 50.1593 41.8106 50.0331 41.5733 49.9525C41.336 49.8719 41.1049 49.8587 40.8802 49.913C40.6596 49.9653 40.4572 50.0856 40.2729 50.274C40.0927 50.4603 39.9476 50.7153 39.8377 51.0389L39.6806 51.5012C39.5749 51.8125 39.5367 52.0969 39.5661 52.3545C39.5966 52.6089 39.6869 52.8287 39.8372 53.0138C39.9916 53.1969 40.2013 53.3335 40.4664 53.4235C40.6729 53.4937 40.8601 53.5246 41.0279 53.5163C41.1999 53.5059 41.3462 53.4749 41.467 53.4231C41.5887 53.3682 41.6812 53.3085 41.7444 53.244L41.7692 53.2163L42.8603 53.587L42.837 53.6255C42.7414 53.7752 42.6109 53.9165 42.4454 54.0494C42.2841 54.1802 42.0879 54.2872 41.8568 54.3703C41.6299 54.4513 41.3718 54.4926 41.0825 54.494C40.7943 54.4924 40.4791 54.4334 40.137 54.3172ZM43.4981 55.3456L45.2148 50.2923L46.366 50.6833L46.1021 51.4601L46.1807 51.4868C46.3592 51.2448 46.585 51.0861 46.8582 51.0104C47.1345 50.9358 47.4391 50.9551 47.772 51.0681C47.8583 51.0975 47.941 51.1324 48.02 51.173C48.1032 51.2116 48.1699 51.248 48.2201 51.2823L47.8699 52.3133C47.7847 52.2603 47.696 52.2129 47.6036 52.1712C47.5153 52.1275 47.4203 52.0883 47.3186 52.0538C47.0627 51.9669 46.823 51.9387 46.5995 51.9694C46.3759 52 46.1814 52.0869 46.0159 52.2301C45.8514 52.3702 45.7283 52.5604 45.6467 52.8008L44.6493 55.7366L43.4981 55.3456ZM48.7665 57.1353L48.6847 51.471L49.9145 51.8888L49.7446 56.2144L49.8278 56.2427L52.3232 52.7071L53.5345 53.1185L50.024 57.5625L48.7665 57.1353ZM52.708 58.4742L54.4246 53.4209L55.5712 53.8104L53.8546 58.8637L52.708 58.4742ZM55.2899 52.7712C55.1019 52.7073 54.9626 52.5861 54.872 52.4075C54.7814 52.2288 54.7676 52.0471 54.8304 51.8621C54.8953 51.671 55.0175 51.5338 55.1971 51.4504C55.3778 51.364 55.5621 51.3527 55.7501 51.4165C55.9381 51.4804 56.0759 51.6011 56.1634 51.7787C56.2551 51.9542 56.2684 52.1375 56.2035 52.3286C56.1407 52.5135 56.0189 52.6492 55.8383 52.7357C55.6607 52.8232 55.478 52.835 55.2899 52.7712ZM57.3084 60.1505C56.806 59.9798 56.4106 59.7269 56.1222 59.3917C55.8369 59.0576 55.6637 58.6618 55.6025 58.2044C55.5413 57.747 55.6018 57.2501 55.784 56.7138L55.7855 56.7092C55.9656 56.179 56.2182 55.7492 56.5434 55.4196C56.8716 55.091 57.2495 54.8791 57.6773 54.7837C58.1061 54.6853 58.5594 54.7172 59.0371 54.8795C59.5179 55.0428 59.8948 55.2895 60.1678 55.6194C60.4449 55.9473 60.613 56.3328 60.6723 56.7758C60.7315 57.2188 60.6747 57.6945 60.502 58.2031L60.3732 58.5822L56.2677 57.1875L56.5299 56.4154L60.0714 57.6185L59.2808 58.1544L59.4363 57.6967C59.5505 57.3607 59.5944 57.0645 59.568 56.808C59.5417 56.5516 59.4565 56.337 59.3123 56.1642C59.1712 55.9925 58.982 55.8664 58.7447 55.7858C58.5074 55.7051 58.2763 55.692 58.0516 55.7463C57.831 55.7986 57.6286 55.9189 57.4443 56.1072C57.2641 56.2935 57.119 56.5485 57.0091 56.8721L56.852 57.3345C56.7463 57.6458 56.7081 57.9302 56.7375 58.1877C56.768 58.4422 56.8583 58.6619 57.0086 58.8471C57.163 59.0301 57.3727 59.1667 57.6378 59.2568C57.8443 59.3269 58.0315 59.3578 58.1993 59.3495C58.3713 59.3392 58.5176 59.3081 58.6384 59.2563C58.7601 59.2014 58.8526 59.1417 58.9158 59.0772L58.9406 59.0496L60.0318 59.4202L60.0084 59.4587C59.9128 59.6085 59.7823 59.7498 59.6168 59.8826C59.4555 60.0135 59.2593 60.1204 59.0282 60.2035C58.8013 60.2846 58.5432 60.3258 58.2539 60.3273C57.9657 60.3256 57.6505 60.2667 57.3084 60.1505ZM61.5803 61.4882L61.9238 55.9685L63.0797 56.3611L62.6255 60.4457L62.7087 60.474L64.9706 57.0035L66.0663 57.3757L65.7508 61.5075L65.8341 61.5357L67.9619 58.0196L69.1039 58.4076L66.0141 62.9944L64.812 62.586L65.0712 58.5898L64.9926 58.5631L62.7685 61.8918L61.5803 61.4882Z" fill="white"/>
<g clip-path="url(#clip0_5144_811)">
<path d="M48.3371 31.6427C50.3457 32.325 51.3498 32.6663 51.7618 33.5022C52.1738 34.3382 51.8328 35.3424 51.1505 37.351C50.4682 39.3595 50.1269 40.3636 49.291 40.7756C48.455 41.1877 47.4508 40.8467 45.4422 40.1644C43.4336 39.482 42.4295 39.1408 42.0175 38.3048C41.6055 37.4688 41.9465 36.4647 42.6288 34.4561C43.3111 32.4475 43.6524 31.4434 44.4884 31.0314C45.3243 30.6194 46.3285 30.9603 48.3371 31.6427ZM58.7525 35.1809C60.7611 35.8632 61.7652 36.2045 62.1772 37.0404C62.5892 37.8764 62.2483 38.8806 61.5659 40.8892C60.8836 42.8977 60.5423 43.9018 59.7064 44.3138C58.8704 44.7259 57.8662 44.3849 55.8576 43.7026C53.8491 43.0202 52.845 42.679 52.433 41.843C52.0209 41.007 52.3619 40.0029 53.0442 37.9943C53.7266 35.9857 54.0678 34.9816 54.9038 34.5696C55.7398 34.1576 56.7439 34.4985 58.7525 35.1809ZM51.8753 21.2272C53.8839 21.9096 54.888 22.2508 55.3 23.0868C55.712 23.9228 55.371 24.9269 54.6887 26.9355C54.0064 28.9441 53.6651 29.9482 52.8291 30.3602C51.9932 30.7722 50.989 30.4313 48.9804 29.7489C46.9718 29.0666 45.9677 28.7253 45.5557 27.8894C45.1437 27.0534 45.4847 26.0492 46.167 24.0406C46.8493 22.0321 47.1906 21.028 48.0266 20.616C48.8625 20.2039 49.8667 20.5449 51.8753 21.2272ZM62.2907 24.7654C64.2993 25.4478 65.3034 25.789 65.7154 26.625C66.1274 27.4609 65.7865 28.4651 65.1041 30.4737C64.4218 32.4823 64.0805 33.4864 63.2446 33.8984C62.4086 34.3104 61.4044 33.9695 59.3958 33.2871C57.3873 32.6048 56.3832 32.2635 55.9712 31.4276C55.5591 30.5916 55.9001 29.5874 56.5824 27.5788C57.2648 25.5703 57.606 24.5662 58.442 24.1542C59.278 23.7421 60.2821 24.0831 62.2907 24.7654Z" fill="white"/>
</g>
<defs>
<clipPath id="clip0_5144_811">
<rect x="46.3639" y="17.2427" width="24" height="24" rx="5" transform="rotate(18.763 46.3639 17.2427)" fill="white"/>
</clipPath>
</defs>
</svg>
