<svg width="104" height="80" viewBox="0 0 104 80" fill="none" xmlns="http://www.w3.org/2000/svg">
<rect y="28.3268" width="91" height="54" rx="27" transform="rotate(-18.1366 0 28.3268)" fill="white" fill-opacity="0.1"/>
<g clip-path="url(#clip0_5144_376)">
<g filter="url(#filter1_i_5144_376)">
<path d="M56.8259 31.5478C56.697 31.1542 56.2733 30.9396 55.8797 31.0686L53.0288 32.0024C52.6351 32.1314 52.4205 32.555 52.5495 32.9486L54.6506 39.3633L53.2252 39.8302L48.1668 24.3875C47.9401 23.6954 47.792 23.2485 47.6397 22.9334C47.4969 22.6379 47.3981 22.5629 47.3261 22.5265C47.254 22.49 47.1351 22.4546 46.8124 22.5143C46.4682 22.578 46.0203 22.723 45.3282 22.9497C44.6361 23.1764 44.1892 23.3245 43.8741 23.4768C43.5785 23.6196 43.5036 23.7184 43.4671 23.7905C43.4307 23.8625 43.3953 23.9814 43.455 24.3041C43.5186 24.6483 43.6637 25.0962 43.8904 25.7883L48.9487 41.231L47.5233 41.6979L43.8657 30.5317C43.7367 30.138 43.3131 29.9234 42.9195 30.0524L40.0685 30.9862C39.6749 31.1152 39.4603 31.5388 39.5893 31.9324L43.2468 43.0987L41.8214 43.5656L41.5838 43.6434C41.1901 43.7723 40.9756 44.196 41.1045 44.5896C41.2334 44.9832 41.6571 45.1978 42.0507 45.0689L61.057 38.8432C61.4507 38.7143 61.6653 38.2907 61.5363 37.897C61.4074 37.5034 60.9838 37.2888 60.5901 37.4177L60.3525 37.4956L58.9271 37.9625L56.8259 31.5478Z" fill="white"/>
</g>
</g>
<path d="M39.786 61.595L37.5927 54.8992L40.233 54.0343C40.6908 53.8844 41.1147 53.8397 41.5045 53.9005C41.8933 53.9581 42.2276 54.1106 42.5073 54.3581C42.7891 54.6015 42.9979 54.9304 43.1337 55.345L43.1368 55.3542C43.2847 55.8059 43.3005 56.2409 43.184 56.6592C43.0666 57.0745 42.8265 57.4186 42.4637 57.6916L44.8578 59.9337L43.6559 60.3274L41.4481 58.1989C41.4389 58.202 41.4296 58.205 41.4203 58.2081C41.411 58.2111 41.4017 58.2141 41.3925 58.2172L39.9818 58.6792L40.8254 61.2546L39.786 61.595ZM39.7052 57.8347L41.204 57.3438C41.6031 57.2131 41.8785 57.0081 42.0302 56.7289C42.1809 56.4466 42.194 56.1152 42.0694 55.7347L42.0663 55.7254C41.9447 55.3542 41.7345 55.0994 41.4357 54.9609C41.1399 54.8214 40.7894 54.818 40.3842 54.9508L38.9179 55.4311L39.7052 57.8347ZM48.0265 59.0037C47.5346 59.1648 47.0779 59.198 46.6563 59.1031C46.2338 59.0052 45.8627 58.7927 45.5433 58.4658C45.2269 58.1378 44.9816 57.7078 44.8073 57.1757L44.8057 57.1711C44.6335 56.6452 44.5774 56.1549 44.6374 55.7002C44.7005 55.2445 44.8693 54.8501 45.1438 54.517C45.4214 54.1828 45.7938 53.9393 46.2609 53.7863C46.7311 53.6322 47.1693 53.6052 47.5754 53.7051C47.9846 53.804 48.3427 54.0138 48.6499 54.3345C48.956 54.6521 49.1922 55.0646 49.3584 55.5719L49.4739 55.9246L45.3998 57.2591L45.1642 56.5399L48.7371 55.3695L48.4734 56.1958L48.3412 55.7921C48.2237 55.4332 48.0707 55.1545 47.8823 54.9559C47.696 54.7531 47.4877 54.6244 47.2574 54.5697C47.0271 54.5149 46.7867 54.5286 46.5361 54.6107C46.2855 54.6928 46.0815 54.8281 45.9241 55.0167C45.7687 55.2012 45.6728 55.4313 45.6364 55.707C45.603 55.9816 45.6431 56.2922 45.7566 56.6387L45.8888 57.0424C45.9973 57.3734 46.1457 57.6382 46.334 57.8368C46.5224 58.0354 46.7389 58.1632 46.9836 58.22C47.2314 58.2759 47.4961 58.2577 47.7776 58.1655C47.9941 58.0946 48.1701 58.0044 48.3055 57.895C48.443 57.7814 48.5466 57.6636 48.6162 57.5414C48.6889 57.4183 48.7296 57.3073 48.7384 57.2085L48.7448 57.1653L49.7192 56.8461L49.7236 56.8909C49.735 57.0722 49.714 57.2641 49.6604 57.4666C49.6058 57.666 49.5111 57.8631 49.3763 58.058C49.2446 58.2519 49.0671 58.4316 48.8439 58.5972C48.6237 58.7618 48.3513 58.8973 48.0265 59.0037ZM51.96 59.4673L49.7591 52.7483L50.766 52.4185L51.0259 53.212L51.1048 53.1861C51.1399 52.9691 51.212 52.7708 51.321 52.5912C51.4331 52.4106 51.5765 52.2523 51.7512 52.1163C51.9259 51.9803 52.1308 51.8738 52.3659 51.7968C52.7897 51.658 53.1933 51.6457 53.5766 51.7599C53.959 51.871 54.2991 52.0936 54.5969 52.4276C54.8968 52.7576 55.1334 53.187 55.3066 53.716L55.3097 53.7253C55.484 54.2574 55.5499 54.7462 55.5074 55.1917C55.4639 55.6341 55.3209 56.0132 55.0784 56.329C54.8349 56.6417 54.4996 56.868 54.0727 57.0078C53.8407 57.0838 53.6125 57.1191 53.3882 57.1139C53.1628 57.1055 52.9515 57.0617 52.7542 56.9824C52.557 56.9031 52.3836 56.7869 52.2341 56.6338L52.1552 56.6596L52.9669 59.1375L51.96 59.4673ZM53.5023 56.2389C53.7839 56.1467 54.0023 55.9981 54.1578 55.793C54.3133 55.588 54.4011 55.3383 54.4211 55.044C54.4443 54.7486 54.3971 54.4216 54.2796 54.0627L54.2765 54.0534C54.158 53.6915 54.002 53.3983 53.8086 53.174C53.6183 52.9486 53.3998 52.7992 53.1531 52.7258C52.9065 52.6525 52.6424 52.6619 52.3609 52.7541C52.0825 52.8453 51.8645 52.9955 51.7069 53.2047C51.5483 53.4108 51.4575 53.6615 51.4343 53.9568C51.4102 54.249 51.4574 54.5761 51.5759 54.938L51.5789 54.9473C51.6955 55.3031 51.8504 55.5931 52.0438 55.8175C52.2372 56.0419 52.4593 56.1918 52.7101 56.2672C52.9598 56.3396 53.2239 56.3301 53.5023 56.2389ZM59.5064 55.2434C59.0145 55.4045 58.5547 55.4386 58.127 55.3458C57.7023 55.252 57.3302 55.0416 57.0108 54.7147C56.6903 54.3846 56.4419 53.9505 56.2656 53.4122L56.2625 53.4029C56.0852 52.8615 56.0286 52.3646 56.0927 51.912C56.1599 51.4583 56.337 51.0681 56.6238 50.7412C56.9138 50.4133 57.3031 50.1693 57.7919 50.0092C58.2837 49.8481 58.742 49.8145 59.1667 49.9083C59.5903 49.999 59.9624 50.2094 60.2828 50.5395C60.6054 50.8654 60.8554 51.2991 61.0327 51.8404L61.0357 51.8497C61.212 52.388 61.2671 52.8854 61.2009 53.3422C61.1368 53.7948 60.9613 54.1845 60.6744 54.5114C60.3907 54.8373 60.0013 55.0813 59.5064 55.2434ZM59.2297 54.3989C59.5174 54.3046 59.739 54.155 59.8945 53.9499C60.049 53.7417 60.1357 53.489 60.1548 53.1916C60.1738 52.8942 60.1225 52.5599 60.0009 52.1886L59.9979 52.1794C59.8753 51.805 59.7183 51.5036 59.527 51.2751C59.3357 51.0467 59.1167 50.8957 58.8701 50.8224C58.6224 50.746 58.3547 50.7549 58.067 50.8491C57.7793 50.9433 57.5582 51.0945 57.4037 51.3027C57.2483 51.5078 57.1595 51.7595 57.1373 52.0579C57.1183 52.3553 57.1701 52.6912 57.2927 53.0655L57.2957 53.0748C57.4173 53.446 57.5737 53.7458 57.7651 53.9743C57.9595 54.2018 58.1805 54.3538 58.4282 54.4302C58.6749 54.5035 58.942 54.4931 59.2297 54.3989ZM63.0567 53.9725L61.406 48.9333L62.413 48.6034L62.6622 49.3644L62.7411 49.3386C62.7427 49.0401 62.8321 48.7796 63.0092 48.5571C63.1895 48.3337 63.4467 48.1672 63.7808 48.0578C63.8643 48.0304 63.9478 48.0082 64.0313 47.9911C64.1148 47.9741 64.1833 47.9636 64.2368 47.9598L64.5408 48.8878C64.445 48.8987 64.3507 48.9141 64.258 48.9342C64.1683 48.9533 64.0756 48.9786 63.9797 49.01C63.7229 49.0941 63.5133 49.2175 63.3508 49.3804C63.1915 49.5422 63.0855 49.731 63.0329 49.9469C62.9824 50.1587 62.9971 50.3868 63.0772 50.6312L64.0636 53.6427L63.0567 53.9725ZM68.8862 52.099C68.3355 52.2794 67.902 52.3049 67.5856 52.1756C67.2713 52.0422 67.0352 51.7342 66.8771 51.2517L65.921 48.333L65.1322 48.5914L64.8723 47.7979L65.6611 47.5395L65.2447 46.2681L66.2748 45.9306L66.6913 47.2021L67.7724 46.8479L68.0323 47.6414L66.9512 47.9955L67.8267 50.6683C67.9158 50.9405 68.0343 51.1192 68.1821 51.2044C68.3289 51.2865 68.5275 51.2865 68.7781 51.2044C68.8524 51.1801 68.9153 51.1578 68.9668 51.1375C69.0215 51.1161 69.0834 51.0907 69.1525 51.0612L69.417 51.8686C69.3406 51.9074 69.2576 51.9466 69.1678 51.9862C69.079 52.029 68.9852 52.0666 68.8862 52.099ZM72.3923 51.0225C71.987 51.1553 71.6151 51.212 71.2765 51.1927C70.9369 51.1704 70.6445 51.0829 70.3993 50.9303C70.1531 50.7746 69.9684 50.5611 69.8452 50.2897L69.8422 50.2804L70.8537 49.9491L70.8568 49.9584C70.9836 50.1258 71.1575 50.2384 71.3785 50.2961C71.5995 50.3539 71.86 50.3337 72.1601 50.2354C72.3674 50.1675 72.5387 50.0788 72.6741 49.9694C72.8127 49.8589 72.9095 49.7364 72.9648 49.6018C73.0201 49.4673 73.0254 49.3319 72.9808 49.1958L72.9778 49.1865C72.9261 49.0288 72.8191 48.9165 72.6568 48.8498C72.4945 48.7831 72.2568 48.7633 71.9437 48.7905L71.0755 48.8694C70.7367 48.9016 70.4434 48.8897 70.1956 48.8339C69.9478 48.778 69.745 48.6766 69.5873 48.5296C69.4285 48.3795 69.3091 48.1823 69.229 47.9379L69.2275 47.9333C69.1312 47.6394 69.1296 47.3522 69.2227 47.0716C69.3148 46.788 69.487 46.5346 69.7393 46.3115C69.9937 46.0843 70.3112 45.9084 70.6917 45.7838C71.0753 45.6581 71.4291 45.609 71.7533 45.6365C72.0795 45.6598 72.3605 45.7492 72.5965 45.9049C72.8314 46.0574 73.0094 46.2663 73.1306 46.5315L73.1321 46.5361L72.1669 46.8523L72.1639 46.843C72.0597 46.6819 71.9002 46.5714 71.6854 46.5116C71.4737 46.4508 71.2255 46.467 70.9409 46.5602C70.7584 46.62 70.6056 46.7026 70.4825 46.808C70.3585 46.9103 70.2714 47.0261 70.2213 47.1556C70.1733 47.2809 70.1716 47.4117 70.2162 47.5478L70.2192 47.557C70.2537 47.6622 70.3104 47.7464 70.3893 47.8096C70.4703 47.8687 70.5797 47.9099 70.7176 47.9333C70.8544 47.9536 71.0232 47.9565 71.224 47.9421L72.086 47.8601C72.6061 47.8165 73.0191 47.8645 73.3252 48.004C73.6343 48.1425 73.8487 48.3943 73.9682 48.7594L73.9713 48.7686C74.0726 49.078 74.071 49.3816 73.9665 49.6796C73.861 49.9745 73.6723 50.2401 73.4003 50.4765C73.1304 50.7088 72.7944 50.8908 72.3923 51.0225Z" fill="white"/>
<defs>
<filter id="filter1_i_5144_376" x="39.5518" y="22.4823" width="22.022" height="22.624" filterUnits="userSpaceOnUse" color-interpolation-filters="sRGB">
<feFlood flood-opacity="0" result="BackgroundImageFix"/>
<feBlend mode="normal" in="SourceGraphic" in2="BackgroundImageFix" result="shape"/>
<feColorMatrix in="SourceAlpha" type="matrix" values="0 0 0 0 0 0 0 0 0 0 0 0 0 0 0 0 0 0 127 0" result="hardAlpha"/>
<feOffset/>
<feGaussianBlur stdDeviation="0.5"/>
<feComposite in2="hardAlpha" operator="arithmetic" k2="-1" k3="1"/>
<feColorMatrix type="matrix" values="0 0 0 0 1 0 0 0 0 1 0 0 0 0 1 0 0 0 1 0"/>
<feBlend mode="normal" in2="shape" result="effect1_innerShadow_5144_376"/>
</filter>
<clipPath id="clip0_5144_376">
<rect width="24" height="24" fill="white" transform="translate(33.5396 24.7066) rotate(-18.1366)"/>
</clipPath>
</defs>
</svg>
