<svg width="35" height="35" viewBox="0 0 35 35" fill="none" xmlns="http://www.w3.org/2000/svg">
<g filter="url(#filter0_i_5144_727)">
<path d="M15.4293 2.3493C17.096 -1.32342 22.5346 -0.50055 23.0402 3.50083L23.8241 9.70439C23.9982 11.0824 24.8747 12.2715 26.1396 12.8454L31.8336 15.4294C35.5063 17.0961 34.6834 22.5347 30.6821 23.0403L24.4785 23.8242C23.1005 23.9983 21.9114 24.8748 21.3374 26.1397L18.7535 31.8337C17.0868 35.5064 11.6482 34.6835 11.1426 30.6821L10.3587 24.4786C10.1846 23.1005 9.30806 21.9115 8.04323 21.3375L2.34922 18.7536C-1.3235 17.0869 -0.50063 11.6482 3.50075 11.1426L9.70431 10.3588C11.0823 10.1847 12.2714 9.30814 12.8454 8.04331L15.4293 2.3493Z" fill="url(#paint0_linear_5144_727)" fill-opacity="0.6"/>
</g>
<defs>
<filter id="filter0_i_5144_727" x="0" y="0" width="34.1831" height="35.1829" filterUnits="userSpaceOnUse" color-interpolation-filters="sRGB">
<feFlood flood-opacity="0" result="BackgroundImageFix"/>
<feBlend mode="normal" in="SourceGraphic" in2="BackgroundImageFix" result="shape"/>
<feColorMatrix in="SourceAlpha" type="matrix" values="0 0 0 0 0 0 0 0 0 0 0 0 0 0 0 0 0 0 127 0" result="hardAlpha"/>
<feOffset dy="1"/>
<feGaussianBlur stdDeviation="0.5"/>
<feComposite in2="hardAlpha" operator="arithmetic" k2="-1" k3="1"/>
<feColorMatrix type="matrix" values="0 0 0 0 1 0 0 0 0 1 0 0 0 0 1 0 0 0 1 0"/>
<feBlend mode="normal" in2="shape" result="effect1_innerShadow_5144_727"/>
</filter>
<linearGradient id="paint0_linear_5144_727" x1="-10.0048" y1="-29.3711" x2="27.6351" y2="57.602" gradientUnits="userSpaceOnUse">
<stop stop-color="white"/>
<stop offset="1" stop-color="white" stop-opacity="0"/>
</linearGradient>
</defs>
</svg>
