<svg width="90" height="90" viewBox="0 0 90 90" fill="none" xmlns="http://www.w3.org/2000/svg">
<rect width="90" height="90" rx="24" fill="url(#paint0_linear_3998_2694)" fill-opacity="0.8"/>
<g filter="url(#filter1_i_3998_2694)">
<path d="M58.3875 36.25H53.75V21.6667C53.75 20.0625 52.4375 18.75 50.8333 18.75H39.1667C37.5625 18.75 36.25 20.0625 36.25 21.6667V36.25H31.6125C29.0167 36.25 27.7042 39.4 29.5417 41.2375L42.9292 54.625C44.0667 55.7625 45.9042 55.7625 47.0417 54.625L60.4292 41.2375C62.2667 39.4 60.9833 36.25 58.3875 36.25ZM24.5833 65.4167C24.5833 67.0208 25.8958 68.3333 27.5 68.3333H62.5C64.1042 68.3333 65.4167 67.0208 65.4167 65.4167C65.4167 63.8125 64.1042 62.5 62.5 62.5H27.5C25.8958 62.5 24.5833 63.8125 24.5833 65.4167Z" fill="url(#paint1_linear_3998_2694)"/>
</g>
<defs>
<filter id="filter1_i_3998_2694" x="24.5833" y="18.75" width="40.8333" height="49.5834" filterUnits="userSpaceOnUse" color-interpolation-filters="sRGB">
<feFlood flood-opacity="0" result="BackgroundImageFix"/>
<feBlend mode="normal" in="SourceGraphic" in2="BackgroundImageFix" result="shape"/>
<feColorMatrix in="SourceAlpha" type="matrix" values="0 0 0 0 0 0 0 0 0 0 0 0 0 0 0 0 0 0 127 0" result="hardAlpha"/>
<feOffset/>
<feGaussianBlur stdDeviation="0.5"/>
<feComposite in2="hardAlpha" operator="arithmetic" k2="-1" k3="1"/>
<feColorMatrix type="matrix" values="0 0 0 0 1 0 0 0 0 1 0 0 0 0 1 0 0 0 1 0"/>
<feBlend mode="normal" in2="shape" result="effect1_innerShadow_3998_2694"/>
</filter>
<linearGradient id="paint0_linear_3998_2694" x1="90" y1="45" x2="0" y2="45" gradientUnits="userSpaceOnUse">
<stop stop-color="#EC3F5E"/>
<stop offset="1" stop-color="#E34996"/>
</linearGradient>
<linearGradient id="paint1_linear_3998_2694" x1="20.3299" y1="6.35447" x2="68.1096" y2="69.3113" gradientUnits="userSpaceOnUse">
<stop stop-color="white"/>
<stop offset="1" stop-color="white" stop-opacity="0"/>
</linearGradient>
</defs>
</svg>
