<svg width="90" height="90" viewBox="0 0 90 90" fill="none" xmlns="http://www.w3.org/2000/svg">
<rect width="90" height="90" rx="24" fill="url(#paint0_linear_3998_2703)" fill-opacity="0.8"/>
<g filter="url(#filter1_i_3998_2703)">
<path d="M75.3024 15.2307C75.2774 15.1098 75.2185 14.9985 75.1325 14.9099C75.0465 14.8213 74.9371 14.759 74.817 14.7304C66.8094 12.7725 48.3072 19.7493 38.283 29.7694C36.4951 31.5429 34.8652 33.4688 33.4117 35.5253C30.3205 35.2518 27.2293 35.4802 24.5947 36.6286C17.1613 39.9003 14.9971 48.437 14.3941 52.1093C14.3599 52.3103 14.3728 52.5164 14.4318 52.7116C14.4908 52.9068 14.5943 53.0856 14.7341 53.234C14.8739 53.3824 15.0462 53.4964 15.2375 53.5669C15.4288 53.6375 15.6338 53.6626 15.8365 53.6405L27.7734 52.3239C27.7819 53.2239 27.8362 54.1228 27.9361 55.0173C27.9962 55.6384 28.2719 56.2189 28.7154 56.6579L33.3379 61.2694C33.7774 61.7122 34.3576 61.9879 34.9785 62.0487C35.868 62.1481 36.7619 62.2024 37.6568 62.2114L36.3471 74.1333C36.3252 74.3359 36.3506 74.5408 36.4212 74.732C36.4919 74.9231 36.6058 75.0953 36.7542 75.2351C36.9025 75.3748 37.0812 75.4783 37.2763 75.5374C37.4713 75.5965 37.6774 75.6096 37.8783 75.5757C41.5438 74.9878 50.0955 72.8235 53.3481 65.3901C54.4965 62.7555 54.7316 59.6794 54.4664 56.6032C56.5279 55.1496 58.4588 53.5192 60.2373 51.7305C70.293 41.7255 77.2301 23.6362 75.3024 15.2307ZM50.2049 39.795C49.2867 38.8774 48.6612 37.7081 48.4077 36.4349C48.1541 35.1618 48.2838 33.8421 48.7804 32.6427C49.277 31.4433 50.1181 30.4182 51.1974 29.6969C52.2767 28.9756 53.5456 28.5906 54.8438 28.5906C56.1419 28.5906 57.4108 28.9756 58.4901 29.6969C59.5694 30.4182 60.4105 31.4433 60.9071 32.6427C61.4037 33.8421 61.5334 35.1618 61.2798 36.4349C61.0263 37.7081 60.4008 38.8774 59.4826 39.795C58.8737 40.4047 58.1506 40.8885 57.3547 41.2185C56.5587 41.5485 55.7054 41.7184 54.8438 41.7184C53.9821 41.7184 53.1288 41.5485 52.3328 41.2185C51.5369 40.8885 50.8138 40.4047 50.2049 39.795Z" fill="url(#paint1_linear_3998_2703)"/>
<path d="M33.0234 64.6095C32.2742 65.36 31.0725 65.6526 29.626 65.9028C26.3762 66.4565 23.5065 63.6483 24.0902 60.363C24.3131 59.1175 24.9721 57.3716 25.3822 56.9614C25.4719 56.8735 25.5316 56.7596 25.5528 56.6358C25.574 56.512 25.5557 56.3847 25.5004 56.272C25.4452 56.1592 25.3558 56.0667 25.245 56.0076C25.1342 55.9486 25.0076 55.9259 24.8832 55.9429C23.0659 56.1652 21.3752 56.9891 20.0803 58.2835C16.866 61.5005 16.5625 73.4374 16.5625 73.4374C16.5625 73.4374 28.5063 73.1339 31.7205 69.9169C33.0188 68.623 33.8437 66.9297 34.0625 65.1098C34.1131 64.5384 33.4172 64.1979 33.0234 64.6095Z" fill="url(#paint2_linear_3998_2703)"/>
</g>
<defs>
<filter id="filter1_i_3998_2703" x="14.3755" y="14.4004" width="61.2491" height="61.1936" filterUnits="userSpaceOnUse" color-interpolation-filters="sRGB">
<feFlood flood-opacity="0" result="BackgroundImageFix"/>
<feBlend mode="normal" in="SourceGraphic" in2="BackgroundImageFix" result="shape"/>
<feColorMatrix in="SourceAlpha" type="matrix" values="0 0 0 0 0 0 0 0 0 0 0 0 0 0 0 0 0 0 127 0" result="hardAlpha"/>
<feOffset/>
<feGaussianBlur stdDeviation="0.5"/>
<feComposite in2="hardAlpha" operator="arithmetic" k2="-1" k3="1"/>
<feColorMatrix type="matrix" values="0 0 0 0 1 0 0 0 0 1 0 0 0 0 1 0 0 0 1 0"/>
<feBlend mode="normal" in2="shape" result="effect1_innerShadow_3998_2703"/>
</filter>
<linearGradient id="paint0_linear_3998_2703" x1="90" y1="45" x2="0" y2="45" gradientUnits="userSpaceOnUse">
<stop stop-color="#F27513"/>
<stop offset="1" stop-color="#F6C20F"/>
</linearGradient>
<linearGradient id="paint1_linear_3998_2703" x1="7.99536" y1="-0.897654" x2="63.0077" y2="87.2018" gradientUnits="userSpaceOnUse">
<stop stop-color="white"/>
<stop offset="1" stop-color="white" stop-opacity="0"/>
</linearGradient>
<linearGradient id="paint2_linear_3998_2703" x1="7.99536" y1="-0.897654" x2="63.0077" y2="87.2018" gradientUnits="userSpaceOnUse">
<stop stop-color="white"/>
<stop offset="1" stop-color="white" stop-opacity="0"/>
</linearGradient>
</defs>
</svg>
