<svg width="90" height="90" viewBox="0 0 90 90" fill="none" xmlns="http://www.w3.org/2000/svg">
<rect width="90" height="90" rx="24" fill="url(#paint0_linear_3998_2713)" fill-opacity="0.9"/>
<g filter="url(#filter1_i_3998_2713)">
<path d="M70.4129 33.7067L69.6954 35.3576C69.5833 35.6264 69.3941 35.856 69.1517 36.0175C68.9094 36.179 68.6246 36.2652 68.3333 36.2652C68.0421 36.2652 67.7573 36.179 67.5149 36.0175C67.2726 35.856 67.0834 35.6264 66.9713 35.3576L66.2538 33.7067C64.9922 30.7863 62.682 28.4448 59.7788 27.1442L57.565 26.1555C57.2964 26.0319 57.0689 25.834 56.9094 25.5851C56.75 25.3361 56.6652 25.0467 56.6652 24.7511C56.6652 24.4555 56.75 24.1661 56.9094 23.9171C57.0689 23.6682 57.2964 23.4703 57.565 23.3467L59.6563 22.4163C62.6324 21.0787 64.9823 18.6505 66.2217 15.6321L66.9596 13.8501C67.068 13.574 67.257 13.337 67.502 13.17C67.7471 13.0029 68.0368 12.9136 68.3333 12.9136C68.6299 12.9136 68.9196 13.0029 69.1646 13.17C69.4097 13.337 69.5987 13.574 69.7071 13.8501L70.445 15.6292C71.6831 18.6482 74.0319 21.0774 77.0075 22.4163L79.1017 23.3496C79.3694 23.4735 79.5961 23.6715 79.755 23.9201C79.9139 24.1687 79.9983 24.4575 79.9983 24.7526C79.9983 25.0476 79.9139 25.3365 79.755 25.5851C79.5961 25.8336 79.3694 26.0316 79.1017 26.1555L76.885 27.1413C73.9824 28.4432 71.6731 30.7858 70.4129 33.7067ZM68.3333 42.0834C70.2875 42.0834 72.1629 41.7626 73.9188 41.1734C74.084 42.4276 74.1667 43.7031 74.1667 45.0001C74.1667 61.1088 61.1088 74.1667 45 74.1667C40.209 74.1735 35.4907 72.9951 31.2654 70.7367L15.8333 74.1667L19.2633 58.7346C17.0049 54.5093 15.8266 49.7911 15.8333 45.0001C15.8333 28.8913 28.8913 15.8334 45 15.8334C47.6425 15.8334 50.2004 16.1834 52.6329 16.8426C51.3168 19.511 50.7028 22.471 50.8489 25.4428C50.995 28.4146 51.8965 31.3001 53.468 33.8266C55.0395 36.3531 57.2293 38.4371 59.8304 39.8819C62.4315 41.3266 65.358 42.0843 68.3333 42.0834ZM30.4167 45.0001C30.4167 48.8678 31.9531 52.5771 34.688 55.312C37.4229 58.0469 41.1323 59.5834 45 59.5834C48.8677 59.5834 52.5771 58.0469 55.312 55.312C58.0469 52.5771 59.5833 48.8678 59.5833 45.0001H53.75C53.75 47.3207 52.8281 49.5463 51.1872 51.1872C49.5462 52.8282 47.3207 53.7501 45 53.7501C42.6794 53.7501 40.4538 52.8282 38.8128 51.1872C37.1719 49.5463 36.25 47.3207 36.25 45.0001H30.4167Z" fill="url(#paint1_linear_3998_2713)"/>
</g>
<defs>
<filter id="filter1_i_3998_2713" x="15.8333" y="12.9136" width="64.165" height="61.2532" filterUnits="userSpaceOnUse" color-interpolation-filters="sRGB">
<feFlood flood-opacity="0" result="BackgroundImageFix"/>
<feBlend mode="normal" in="SourceGraphic" in2="BackgroundImageFix" result="shape"/>
<feColorMatrix in="SourceAlpha" type="matrix" values="0 0 0 0 0 0 0 0 0 0 0 0 0 0 0 0 0 0 127 0" result="hardAlpha"/>
<feOffset/>
<feGaussianBlur stdDeviation="0.5"/>
<feComposite in2="hardAlpha" operator="arithmetic" k2="-1" k3="1"/>
<feColorMatrix type="matrix" values="0 0 0 0 1 0 0 0 0 1 0 0 0 0 1 0 0 0 1 0"/>
<feBlend mode="normal" in2="shape" result="effect1_innerShadow_3998_2713"/>
</filter>
<linearGradient id="paint0_linear_3998_2713" x1="0" y1="45" x2="90" y2="45" gradientUnits="userSpaceOnUse">
<stop offset="0.0340478" stop-color="#63A2FD"/>
<stop offset="0.355769" stop-color="#69A1FC"/>
<stop offset="0.576923" stop-color="#5489F7"/>
<stop offset="1" stop-color="#2A65F3"/>
</linearGradient>
<linearGradient id="paint1_linear_3998_2713" x1="9.14946" y1="-2.39935" x2="63.081" y2="87.9932" gradientUnits="userSpaceOnUse">
<stop stop-color="white"/>
<stop offset="1" stop-color="white" stop-opacity="0"/>
</linearGradient>
</defs>
</svg>
