<svg width="48" height="48" viewBox="0 0 48 48" fill="none" xmlns="http://www.w3.org/2000/svg">
<rect width="48" height="48" rx="16" fill="url(#paint0_linear_5144_503)"/>
<g filter="url(#filter0_i_5144_503)">
<path fill-rule="evenodd" clip-rule="evenodd" d="M37.3332 24.0001C37.3332 31.3639 31.3636 37.3334 23.9998 37.3334C16.636 37.3334 10.6665 31.3639 10.6665 24.0001C10.6665 16.6363 16.636 10.6667 23.9998 10.6667C31.3636 10.6667 37.3332 16.6363 37.3332 24.0001ZM29.3736 19.9596C29.7641 20.3502 29.7641 20.9833 29.3736 21.3739L22.7069 28.0405C22.3164 28.431 21.6833 28.431 21.2927 28.0405L18.6261 25.3739C18.2355 24.9833 18.2355 24.3502 18.6261 23.9596C19.0166 23.5691 19.6498 23.5691 20.0403 23.9596L21.9998 25.9192L24.9796 22.9394L27.9594 19.9596C28.3499 19.5691 28.9831 19.5691 29.3736 19.9596Z" fill="url(#paint1_linear_5144_503)"/>
</g>
<defs>
<filter id="filter0_i_5144_503" x="10.6665" y="10.6667" width="26.6665" height="26.6667" filterUnits="userSpaceOnUse" color-interpolation-filters="sRGB">
<feFlood flood-opacity="0" result="BackgroundImageFix"/>
<feBlend mode="normal" in="SourceGraphic" in2="BackgroundImageFix" result="shape"/>
<feColorMatrix in="SourceAlpha" type="matrix" values="0 0 0 0 0 0 0 0 0 0 0 0 0 0 0 0 0 0 127 0" result="hardAlpha"/>
<feOffset/>
<feGaussianBlur stdDeviation="0.5"/>
<feComposite in2="hardAlpha" operator="arithmetic" k2="-1" k3="1"/>
<feColorMatrix type="matrix" values="0 0 0 0 1 0 0 0 0 1 0 0 0 0 1 0 0 0 1 0"/>
<feBlend mode="normal" in2="shape" result="effect1_innerShadow_5144_503"/>
</filter>
<linearGradient id="paint0_linear_5144_503" x1="-5" y1="-11.9997" x2="38.1685" y2="57.07" gradientUnits="userSpaceOnUse">
<stop stop-color="white"/>
<stop offset="1" stop-color="white" stop-opacity="0"/>
</linearGradient>
<linearGradient id="paint1_linear_5144_503" x1="7.88873" y1="4.00024" x2="31.8712" y2="42.3723" gradientUnits="userSpaceOnUse">
<stop stop-color="white"/>
<stop offset="1" stop-color="white" stop-opacity="0"/>
</linearGradient>
</defs>
</svg>
