<svg width="335" height="103" viewBox="0 0 335 103" fill="none" xmlns="http://www.w3.org/2000/svg">
<g clip-path="url(#clip0_5144_621)">
<rect y="21.5155" width="330" height="81" rx="24" transform="rotate(-3.73825 0 21.5155)" fill="white" fill-opacity="0.08"/>
<rect x="20.1323" y="36.2342" width="48" height="48" rx="24" fill="url(#paint0_linear_5144_621)" fill-opacity="0.9"/>
<g filter="url(#filter2_i_5144_621)">
<path d="M38.3322 72.1143C38.2922 72.1143 38.2388 72.141 38.1988 72.141C35.6122 70.861 33.5055 68.741 32.2122 66.1543C32.2122 66.1143 32.2388 66.061 32.2388 66.021C33.8655 66.501 35.5455 66.861 37.2122 67.141C37.5055 68.821 37.8522 70.4876 38.3322 72.1143Z" fill="url(#paint1_linear_5144_621)"/>
<path d="M56.0522 66.1676C54.7322 68.821 52.5322 70.9676 49.8522 72.261C50.3588 70.5676 50.7855 68.861 51.0655 67.141C52.7455 66.861 54.3988 66.501 56.0255 66.021C56.0122 66.0743 56.0522 66.1276 56.0522 66.1676Z" fill="url(#paint2_linear_5144_621)"/>
<path d="M56.1588 54.5143C54.4788 54.0076 52.7855 53.5943 51.0655 53.301C50.7855 51.581 50.3722 49.8743 49.8522 48.2076C52.6122 49.5276 54.8388 51.7543 56.1588 54.5143Z" fill="url(#paint3_linear_5144_621)"/>
<path d="M38.3322 48.3543C37.8522 49.981 37.5055 51.6343 37.2255 53.3143C35.5055 53.581 33.7988 54.0076 32.1055 54.5143C33.3988 51.8343 35.5455 49.6343 38.1988 48.3143C38.2388 48.3143 38.2922 48.3543 38.3322 48.3543Z" fill="url(#paint4_linear_5144_621)"/>
<path d="M48.7855 53.021C45.6922 52.6743 42.5722 52.6743 39.4788 53.021C39.8122 51.1943 40.2388 49.3676 40.8388 47.6076C40.8655 47.501 40.8522 47.421 40.8655 47.3143C41.9188 47.061 42.9988 46.901 44.1322 46.901C45.2522 46.901 46.3455 47.061 47.3855 47.3143C47.3988 47.421 47.3988 47.501 47.4255 47.6076C48.0255 49.381 48.4522 51.1943 48.7855 53.021Z" fill="url(#paint5_linear_5144_621)"/>
<path d="M36.9188 64.8876C35.0788 64.5543 33.2655 64.1276 31.5055 63.5276C31.3988 63.501 31.3188 63.5143 31.2122 63.501C30.9588 62.4476 30.7988 61.3676 30.7988 60.2343C30.7988 59.1143 30.9588 58.021 31.2122 56.981C31.3188 56.9676 31.3988 56.9676 31.5055 56.941C33.2788 56.3543 35.0788 55.9143 36.9188 55.581C36.5855 58.6743 36.5855 61.7943 36.9188 64.8876Z" fill="url(#paint6_linear_5144_621)"/>
<path d="M57.4655 60.2343C57.4655 61.3676 57.3055 62.4476 57.0522 63.501C56.9455 63.5143 56.8655 63.501 56.7588 63.5276C54.9855 64.1143 53.1722 64.5543 51.3455 64.8876C51.6922 61.7943 51.6922 58.6743 51.3455 55.581C53.1722 55.9143 54.9988 56.341 56.7588 56.941C56.8655 56.9676 56.9455 56.981 57.0522 56.981C57.3055 58.0343 57.4655 59.1143 57.4655 60.2343Z" fill="url(#paint7_linear_5144_621)"/>
<path d="M48.7855 67.4476C48.4522 69.2876 48.0255 71.101 47.4255 72.861C47.3988 72.9676 47.3988 73.0476 47.3855 73.1543C46.3455 73.4076 45.2522 73.5676 44.1322 73.5676C42.9988 73.5676 41.9188 73.4076 40.8655 73.1543C40.8522 73.0476 40.8655 72.9676 40.8388 72.861C40.2522 71.0876 39.8122 69.2876 39.4788 67.4476C41.0255 67.621 42.5722 67.741 44.1322 67.741C45.6922 67.741 47.2522 67.621 48.7855 67.4476Z" fill="url(#paint8_linear_5144_621)"/>
<path d="M49.1499 65.2521C45.8151 65.6728 42.4492 65.6728 39.1144 65.2521C38.6936 61.9173 38.6936 58.5513 39.1144 55.2165C42.4492 54.7958 45.8151 54.7958 49.1499 55.2165C49.5707 58.5513 49.5707 61.9173 49.1499 65.2521Z" fill="url(#paint9_linear_5144_621)"/>
</g>
<path d="M77.094 41.9788L76.9618 39.9547L86.4983 39.3316L86.6305 41.3557L83.0756 41.588L83.702 51.1755L81.2754 51.3341L80.649 41.7465L77.094 41.9788ZM91.1458 50.86C90.2651 50.9175 89.4912 50.7802 88.8242 50.4479C88.1607 50.1117 87.6331 49.6185 87.2414 48.9685C86.8495 48.3146 86.6243 47.5416 86.5661 46.6496C86.5073 45.75 86.6298 44.9524 86.9336 44.2569C87.2371 43.5576 87.696 43 88.3104 42.584C88.9283 42.1641 89.6775 41.9253 90.5582 41.8678C91.4389 41.8102 92.211 41.9496 92.8745 42.2858C93.5415 42.618 94.071 43.1111 94.463 43.765C94.8547 44.415 95.0799 45.1899 95.1387 46.0895C95.197 46.9815 95.0743 47.7772 94.7708 48.4765C94.467 49.172 94.0062 49.7298 93.3883 50.1497C92.774 50.5657 92.0265 50.8024 91.1458 50.86ZM91.0349 48.9882C91.4355 48.962 91.7626 48.8268 92.0162 48.5825C92.2695 48.3344 92.4512 48.0074 92.5613 47.6016C92.6753 47.1956 92.7157 46.7394 92.6826 46.2329C92.6495 45.7264 92.5501 45.2793 92.3843 44.8915C92.2223 44.5035 91.9995 44.203 91.7161 43.99C91.4327 43.7769 91.0906 43.6835 90.69 43.7097C90.2855 43.7361 89.9529 43.8736 89.692 44.1222C89.4349 44.3706 89.2494 44.6978 89.1355 45.1038C89.0254 45.5096 88.9868 45.9657 89.0199 46.4722C89.053 46.9787 89.1506 47.4259 89.3126 47.8139C89.4784 48.2017 89.7049 48.5019 89.9921 48.7147C90.2828 48.9235 90.6304 49.0146 91.0349 48.9882ZM96.8855 53.5938L96.1032 41.6194L98.4844 41.4638L98.58 42.9266L98.6877 42.9195C98.7783 42.6783 98.9158 42.4301 99.1003 42.1751C99.2884 41.9161 99.5396 41.6947 99.8541 41.5109C100.172 41.3231 100.575 41.2133 101.062 41.1815C101.697 41.14 102.294 41.268 102.853 41.5656C103.411 41.8593 103.872 42.3283 104.237 42.9726C104.602 43.6131 104.816 44.4323 104.882 45.4301C104.945 46.4015 104.842 47.232 104.572 47.9215C104.305 48.607 103.915 49.1393 103.401 49.5183C102.89 49.8933 102.304 50.1024 101.642 50.1457C101.174 50.1763 100.77 50.1249 100.431 49.9914C100.096 49.8576 99.8166 49.6804 99.5934 49.4596C99.3699 49.2351 99.1955 49.0054 99.07 48.7707L98.9963 48.7755L99.3008 53.436L96.8855 53.5938ZM98.7519 45.8192C98.7858 46.3371 98.8871 46.7841 99.0559 47.1602C99.2248 47.5364 99.4523 47.8233 99.7385 48.021C100.024 48.2149 100.362 48.2991 100.751 48.2736C101.145 48.248 101.47 48.1185 101.728 47.8853C101.986 47.6483 102.172 47.3324 102.287 46.9377C102.405 46.539 102.448 46.0864 102.415 45.5799C102.382 45.0772 102.283 44.6395 102.118 44.2669C101.953 43.8943 101.728 43.6091 101.442 43.4115C101.155 43.2138 100.814 43.1279 100.417 43.1539C100.024 43.1796 99.698 43.3052 99.4394 43.5309C99.1847 43.7563 98.9979 44.0646 98.8792 44.4558C98.7605 44.8469 98.7181 45.3014 98.7519 45.8192ZM106.456 49.6888L105.887 40.9801L108.303 40.8223L108.872 49.531L106.456 49.6888ZM107.027 39.7782C106.668 39.8017 106.352 39.7027 106.08 39.4814C105.811 39.256 105.665 38.9752 105.643 38.6387C105.621 38.3061 105.729 38.0125 105.967 37.7578C106.208 37.4991 106.509 37.358 106.868 37.3346C107.227 37.3111 107.541 37.412 107.81 37.6374C108.082 37.8587 108.23 38.1357 108.251 38.4683C108.273 38.8047 108.164 39.1023 107.922 39.361C107.685 39.6157 107.386 39.7547 107.027 39.7782ZM114.433 49.3384C113.541 49.3967 112.761 49.2579 112.094 48.9219C111.43 48.5818 110.904 48.0848 110.516 47.4307C110.132 46.7763 109.911 46.0088 109.853 45.1281C109.795 44.236 109.916 43.4424 110.216 42.7471C110.519 42.0478 110.978 41.4883 111.592 41.0685C112.206 40.6451 112.953 40.4045 113.834 40.347C114.594 40.2973 115.268 40.3918 115.857 40.6305C116.446 40.8691 116.923 41.227 117.288 41.7042C117.653 42.1814 117.875 42.7553 117.953 43.4259L115.673 43.5748C115.581 43.1444 115.388 42.8058 115.095 42.5593C114.805 42.3087 114.439 42.1978 113.997 42.2267C113.623 42.2512 113.302 42.3746 113.036 42.597C112.773 42.8154 112.577 43.1224 112.447 43.518C112.317 43.9137 112.27 44.3856 112.306 44.9336C112.342 45.4893 112.449 45.9568 112.625 46.3363C112.806 46.7155 113.043 46.998 113.336 47.1838C113.629 47.3696 113.962 47.4503 114.336 47.4259C114.612 47.4079 114.856 47.335 115.068 47.2073C115.284 47.0793 115.456 46.9029 115.586 46.6781C115.719 46.4492 115.798 46.1802 115.824 45.8711L118.103 45.7222C118.108 46.3899 117.965 46.9876 117.673 47.5153C117.385 48.039 116.966 48.4612 116.418 48.7817C115.87 49.1022 115.208 49.2878 114.433 49.3384ZM126.378 42.1353L124.175 42.4158C124.125 42.2293 124.033 42.0645 123.898 41.9215C123.763 41.7746 123.591 41.6625 123.381 41.5851C123.174 41.5037 122.931 41.4722 122.651 41.4905C122.277 41.5149 121.967 41.6149 121.72 41.7904C121.473 41.9622 121.358 42.1785 121.375 42.4393C121.389 42.6472 121.484 42.8175 121.659 42.9503C121.835 43.0831 122.128 43.1797 122.538 43.2402L124.135 43.4547C124.993 43.5733 125.643 43.8117 126.083 44.1701C126.524 44.5285 126.765 45.0214 126.806 45.6489C126.844 46.2196 126.708 46.7314 126.4 47.1843C126.096 47.6369 125.66 48.0032 125.094 48.2832C124.531 48.5591 123.872 48.7217 123.116 48.7711C121.963 48.8464 121.029 48.6664 120.313 48.2311C119.601 47.7917 119.16 47.1601 118.988 46.3362L121.355 46.0563C121.45 46.4031 121.642 46.6601 121.93 46.8273C122.217 46.9907 122.577 47.0583 123.008 47.0301C123.431 47.0025 123.766 46.899 124.012 46.7197C124.262 46.5363 124.381 46.3141 124.367 46.0531C124.349 45.8341 124.245 45.6606 124.054 45.5326C123.864 45.4008 123.577 45.3095 123.194 45.2586L121.666 45.0566C120.804 44.9421 120.152 44.6886 119.709 44.2962C119.269 43.9036 119.028 43.3822 118.986 42.7321C118.949 42.1727 119.069 41.6809 119.345 41.2567C119.625 40.8322 120.033 40.4924 120.571 40.2371C121.112 39.9815 121.755 39.8294 122.5 39.7808C123.6 39.7089 124.481 39.8848 125.142 40.3085C125.808 40.7319 126.219 41.3408 126.378 42.1353ZM131.606 48.0456L130.847 36.434L138.671 35.9228L138.803 37.9469L133.434 38.2977L133.615 41.0645L138.582 40.74L138.714 42.7641L133.747 43.0886L133.928 45.8611L139.32 45.5088L139.453 47.5329L131.606 48.0456ZM142.466 38.5901L144.264 41.5303L145.704 38.3786L148.181 38.2167L145.943 42.7359L148.819 46.921L146.352 47.0821L144.438 44.1837L142.945 47.3047L140.45 47.4677L142.751 42.9445L139.972 38.7531L142.466 38.5901ZM150.079 50.1183L149.297 38.1438L151.678 37.9883L151.773 39.451L151.881 39.444C151.972 39.2027 152.109 38.9546 152.294 38.6996C152.482 38.4406 152.733 38.2192 153.048 38.0354C153.366 37.8476 153.768 37.7378 154.256 37.7059C154.891 37.6644 155.488 37.7925 156.046 38.09C156.604 38.3838 157.066 38.8528 157.431 39.4971C157.795 40.1376 158.01 40.9567 158.075 41.9546C158.139 42.926 158.035 43.7565 157.765 44.446C157.499 45.1315 157.108 45.6638 156.594 46.0428C156.083 46.4178 155.497 46.6269 154.836 46.6701C154.367 46.7008 153.963 46.6493 153.624 46.5158C153.289 46.3821 153.01 46.2049 152.787 45.9841C152.563 45.7596 152.389 45.5299 152.264 45.2952L152.19 45.3L152.494 49.9605L150.079 50.1183ZM151.945 42.3437C151.979 42.8615 152.081 43.3085 152.249 43.6847C152.418 44.0609 152.646 44.3478 152.932 44.5454C153.218 44.7393 153.556 44.8236 153.945 44.7981C154.338 44.7724 154.664 44.643 154.922 44.4097C155.179 44.1727 155.366 43.8569 155.48 43.4622C155.599 43.0635 155.641 42.6109 155.608 42.1044C155.575 41.6017 155.476 41.164 155.312 40.7914C155.147 40.4188 154.921 40.1336 154.635 39.936C154.349 39.7383 154.007 39.6524 153.61 39.6784C153.217 39.704 152.891 39.8297 152.633 40.0554C152.378 40.2808 152.191 40.5891 152.073 40.9802C151.954 41.3714 151.912 41.8259 151.945 42.3437ZM161.306 34.4439L162.065 46.0555L159.65 46.2133L158.891 34.6017L161.306 34.4439ZM167.626 45.8629C166.746 45.9205 165.972 45.7831 165.305 45.4509C164.641 45.1147 164.114 44.6215 163.722 43.9714C163.33 43.3175 163.105 42.5446 163.047 41.6525C162.988 40.7529 163.11 39.9554 163.414 39.2599C163.718 38.5605 164.177 38.0029 164.791 37.587C165.409 37.167 166.158 36.9283 167.039 36.8707C167.92 36.8132 168.692 36.9525 169.355 37.2888C170.022 37.621 170.552 38.114 170.944 38.7679C171.335 39.418 171.561 40.1928 171.619 41.0924C171.678 41.9845 171.555 42.7801 171.251 43.4794C170.948 44.175 170.487 44.7327 169.869 45.1527C169.255 45.5686 168.507 45.8054 167.626 45.8629ZM167.516 43.9912C167.916 43.965 168.243 43.8297 168.497 43.5854C168.75 43.3373 168.932 43.0104 169.042 42.6046C169.156 42.1986 169.196 41.7423 169.163 41.2358C169.13 40.7293 169.031 40.2822 168.865 39.8945C168.703 39.5065 168.48 39.206 168.197 38.9929C167.913 38.7799 167.571 38.6865 167.171 38.7126C166.766 38.7391 166.434 38.8766 166.173 39.1252C165.916 39.3735 165.73 39.7007 165.616 40.1067C165.506 40.5125 165.468 40.9686 165.501 41.4751C165.534 41.9816 165.631 42.4289 165.793 42.8169C165.959 43.2046 166.186 43.5049 166.473 43.7177C166.764 43.9264 167.111 44.0176 167.516 43.9912ZM173.153 45.331L172.584 36.6223L174.925 36.4693L175.025 37.9888L175.115 37.9829C175.239 37.432 175.479 37.0064 175.835 36.706C176.191 36.4018 176.613 36.2338 177.1 36.202C177.221 36.1941 177.352 36.1931 177.493 36.1991C177.634 36.2051 177.758 36.2178 177.865 36.2374L178.005 38.3805C177.89 38.3539 177.731 38.3339 177.529 38.3206C177.327 38.3072 177.143 38.3059 176.976 38.3168C176.621 38.34 176.309 38.4382 176.039 38.6115C175.773 38.7807 175.568 39.0067 175.423 39.2895C175.282 39.572 175.223 39.8909 175.246 40.2462L175.568 45.1732L173.153 45.331ZM182.941 44.8623C182.045 44.9208 181.262 44.7898 180.592 44.4691C179.926 44.1445 179.397 43.659 179.005 43.0127C178.614 42.3626 178.388 41.5783 178.328 40.6598C178.269 39.764 178.392 38.9664 178.695 38.2671C178.999 37.5678 179.454 37.0086 180.06 36.5893C180.671 36.1699 181.403 35.9322 182.257 35.8764C182.832 35.8389 183.373 35.8965 183.88 36.0494C184.391 36.1982 184.843 36.4439 185.238 36.7863C185.636 37.1285 185.957 37.5706 186.201 38.1127C186.445 38.6509 186.591 39.2905 186.64 40.0313L186.683 40.6947L179.329 41.1752L179.231 39.6784L184.312 39.3464C184.289 38.9987 184.193 38.6956 184.024 38.4371C183.856 38.1786 183.632 37.9825 183.354 37.8489C183.079 37.7112 182.766 37.6538 182.415 37.6768C182.048 37.7007 181.728 37.807 181.456 37.9956C181.187 38.1802 180.983 38.4195 180.842 38.7133C180.702 39.0034 180.641 39.3205 180.66 39.6647L180.753 41.0878C180.781 41.5187 180.885 41.8859 181.064 42.1892C181.247 42.4923 181.491 42.7193 181.797 42.8701C182.103 43.021 182.458 43.0832 182.863 43.0567C183.131 43.0392 183.374 42.9853 183.593 42.8952C183.811 42.805 183.994 42.6791 184.143 42.5176C184.292 42.356 184.401 42.1629 184.47 41.9382L186.713 41.9397C186.635 42.4838 186.433 42.9677 186.108 43.3914C185.786 43.811 185.356 44.1503 184.819 44.4094C184.285 44.6644 183.659 44.8154 182.941 44.8623ZM188.184 44.3489L187.615 35.6402L189.957 35.4872L190.056 37.0067L190.147 37.0008C190.27 36.4499 190.51 36.0243 190.866 35.7239C191.222 35.4197 191.644 35.2517 192.131 35.2199C192.252 35.212 192.383 35.211 192.524 35.217C192.665 35.223 192.789 35.2357 192.897 35.2553L193.037 37.3984C192.921 37.3718 192.762 37.3518 192.56 37.3385C192.358 37.3251 192.174 37.3238 192.007 37.3347C191.652 37.3579 191.34 37.4562 191.07 37.6294C190.804 37.7986 190.599 38.0246 190.454 38.3074C190.313 38.5899 190.254 38.9088 190.277 39.2641L190.599 44.1911L188.184 44.3489Z" fill="white"/>
<rect x="275.559" y="24.6102" width="39" height="20" rx="8" transform="rotate(-2.41997 275.559 24.6102)" fill="url(#paint10_linear_5144_621)"/>
<path d="M284.935 38.2264L284.658 31.6868L286.153 31.6237L286.199 32.7136L286.267 32.7107C286.37 32.3282 286.562 32.0286 286.843 31.812C287.127 31.5925 287.456 31.4748 287.831 31.4589C287.916 31.4553 288.011 31.4556 288.116 31.4596C288.225 31.4608 288.314 31.4669 288.386 31.4781L288.446 32.8959C288.38 32.8759 288.275 32.8604 288.133 32.8494C287.993 32.8354 287.857 32.8312 287.727 32.8367C287.446 32.8486 287.196 32.9203 286.977 33.0518C286.76 33.1804 286.593 33.3538 286.474 33.5721C286.355 33.7903 286.302 34.0386 286.314 34.3167L286.476 38.1613L284.935 38.2264ZM291.219 38.0931C290.805 38.1106 290.428 38.0526 290.09 37.919C289.754 37.7825 289.484 37.5721 289.278 37.2879C289.076 37.0036 288.966 36.6472 288.947 36.2186C288.932 35.8496 288.987 35.5416 289.113 35.2946C289.239 35.0475 289.417 34.8467 289.646 34.692C289.876 34.5372 290.137 34.4167 290.429 34.3305C290.723 34.2412 291.029 34.1729 291.346 34.1254C291.727 34.0695 292.036 34.0208 292.273 33.9795C292.51 33.9354 292.681 33.877 292.786 33.8043C292.894 33.7287 292.945 33.6171 292.939 33.4695L292.938 33.4439C292.924 33.1232 292.818 32.8788 292.621 32.7109C292.423 32.543 292.146 32.4665 291.788 32.4817C291.41 32.4976 291.114 32.5926 290.9 32.7666C290.688 32.9404 290.549 33.1411 290.482 33.3686L289.034 33.225C289.131 32.8228 289.304 32.4828 289.554 32.205C289.804 31.9243 290.115 31.7093 290.486 31.5599C290.858 31.4077 291.273 31.322 291.73 31.3027C292.045 31.2894 292.36 31.313 292.675 31.3736C292.99 31.4342 293.281 31.5442 293.546 31.7036C293.812 31.8601 294.029 32.0799 294.197 32.3628C294.368 32.6456 294.463 33.0041 294.481 33.4384L294.666 37.8152L293.185 37.8778L293.147 36.9794L293.096 36.9816C293.01 37.1672 292.885 37.3431 292.721 37.5092C292.56 37.6724 292.354 37.8077 292.103 37.915C291.854 38.0193 291.56 38.0787 291.219 38.0931ZM291.571 36.9437C291.881 36.9306 292.146 36.8582 292.368 36.7266C292.59 36.5921 292.758 36.4201 292.871 36.2106C292.987 36.0009 293.04 35.7755 293.03 35.5342L292.998 34.7636C292.951 34.8054 292.87 34.8457 292.755 34.8847C292.643 34.9236 292.517 34.9588 292.376 34.9903C292.235 35.0219 292.096 35.0505 291.957 35.0763C291.819 35.102 291.699 35.1241 291.598 35.1426C291.369 35.1836 291.165 35.2434 290.987 35.322C290.808 35.4006 290.669 35.506 290.569 35.6382C290.47 35.7675 290.424 35.9315 290.432 36.1302C290.444 36.4141 290.557 36.624 290.77 36.76C290.984 36.896 291.251 36.9572 291.571 36.9437ZM295.976 37.7598L295.7 31.2202L297.194 31.157L297.24 32.247L297.308 32.2441C297.412 31.8616 297.604 31.562 297.885 31.3454C298.168 31.1258 298.497 31.0081 298.872 30.9923C298.957 30.9887 299.052 30.9889 299.158 30.993C299.266 30.9941 299.356 31.0003 299.427 31.0115L299.487 32.4292C299.421 32.4093 299.317 32.3938 299.174 32.3828C299.034 32.3688 298.899 32.3646 298.768 32.3701C298.487 32.3819 298.237 32.4536 298.018 32.5852C297.802 32.7137 297.634 32.8872 297.515 33.1054C297.397 33.3237 297.343 33.5719 297.355 33.8501L297.517 37.6947L295.976 37.7598ZM303.121 37.5858C302.466 37.6135 301.894 37.5012 301.405 37.2489C300.92 36.9936 300.538 36.6201 300.262 36.1285C299.985 35.6341 299.832 35.0449 299.803 34.3608C299.775 33.6881 299.877 33.0923 300.111 32.5735C300.348 32.0517 300.692 31.639 301.143 31.3357C301.593 31.0294 302.131 30.8631 302.755 30.8367C303.158 30.8197 303.541 30.8689 303.904 30.9844C304.27 31.0968 304.596 31.2821 304.883 31.5401C305.173 31.798 305.406 32.1322 305.582 32.5427C305.759 32.9504 305.859 33.4409 305.883 34.0143L305.903 34.4869L300.543 34.7134L300.499 33.6746L304.382 33.5105C304.367 33.2154 304.292 32.9555 304.157 32.7309C304.023 32.5034 303.84 32.3277 303.61 32.2038C303.383 32.0798 303.122 32.024 302.827 32.0365C302.512 32.0498 302.238 32.1381 302.007 32.3015C301.774 32.462 301.597 32.6685 301.474 32.9211C301.354 33.1707 301.298 33.4417 301.308 33.7342L301.346 34.6411C301.362 35.0214 301.446 35.3449 301.596 35.6115C301.747 35.8753 301.95 36.0743 302.206 36.2085C302.462 36.3398 302.757 36.3984 303.092 36.3843C303.316 36.3748 303.518 36.335 303.697 36.2649C303.876 36.1919 304.029 36.0902 304.157 35.9596C304.285 35.8291 304.38 35.6702 304.44 35.4828L305.886 35.5838C305.811 35.9679 305.652 36.3074 305.408 36.602C305.168 36.8937 304.853 37.1259 304.465 37.2987C304.077 37.4686 303.629 37.5643 303.121 37.5858Z" fill="white"/>
<path d="M78.7435 67.8325L78.6696 66.7014L85.4095 66.261L85.4834 67.3922L82.7662 67.5697L83.2613 75.1473L81.9515 75.2329L81.4564 67.6553L78.7435 67.8325ZM86.4481 74.9391L86.0213 68.4075L87.2502 68.3272L87.318 69.3648L87.386 69.3604C87.4821 69.0011 87.6739 68.711 87.9612 68.49C88.2512 68.2661 88.5876 68.1416 88.9703 68.1166C89.0496 68.1115 89.1434 68.1082 89.2515 68.1068C89.3624 68.1053 89.4493 68.1067 89.5122 68.1111L89.5917 69.3273C89.5398 69.3164 89.448 69.3068 89.3165 69.2983C89.1848 69.287 89.0537 69.2856 88.9233 69.2941C88.6228 69.3137 88.3591 69.395 88.1322 69.5379C87.9079 69.6779 87.735 69.8643 87.6135 70.0971C87.4919 70.3271 87.4404 70.5839 87.4589 70.8673L87.7195 74.856L86.4481 74.9391ZM90.8042 74.6544L90.3775 68.1229L91.6489 68.0398L92.0757 74.5714L90.8042 74.6544ZM90.9537 67.0732C90.7326 67.0876 90.5379 67.0263 90.3695 66.8893C90.2037 66.7492 90.1141 66.5757 90.1006 66.3688C90.0869 66.159 90.1532 65.9753 90.2995 65.8177C90.4484 65.6571 90.6334 65.5696 90.8545 65.5551C91.0757 65.5407 91.2691 65.6035 91.4348 65.7435C91.6032 65.8806 91.6943 66.054 91.708 66.2638C91.7215 66.4707 91.6538 66.6545 91.5048 66.8151C91.3586 66.9727 91.1749 67.0587 90.9537 67.0732ZM96.3703 74.4232C95.7268 74.4652 95.1636 74.3639 94.6807 74.1193C94.2005 73.8717 93.8178 73.5052 93.5327 73.02C93.2503 72.5316 93.0869 71.9487 93.0427 71.2712C92.9989 70.6022 93.0852 70.0044 93.3013 69.4778C93.5202 68.951 93.8457 68.5298 94.2778 68.214C94.7127 67.898 95.2334 67.7202 95.8401 67.6806C96.2086 67.6565 96.5698 67.6941 96.9236 67.7934C97.2774 67.8927 97.6003 68.0638 97.8924 68.3066C98.1844 68.5495 98.4234 68.8741 98.6094 69.2804C98.7952 69.684 98.9074 70.182 98.9461 70.7744L98.9756 71.2252L93.7835 71.5644L93.7213 70.6119L97.6674 70.3541C97.6456 70.0196 97.5582 69.7278 97.4052 69.4787C97.2521 69.2268 97.0473 69.0337 96.7909 68.8996C96.5373 68.7653 96.2461 68.7089 95.9172 68.7304C95.56 68.7537 95.2539 68.862 94.9989 69.0551C94.7466 69.2453 94.5573 69.4854 94.4311 69.7755C94.3075 70.0626 94.2563 70.3691 94.2776 70.6951L94.3262 71.4393C94.3548 71.8759 94.4556 72.2422 94.6287 72.5384C94.8046 72.8344 95.0367 73.0541 95.3251 73.1975C95.6133 73.3381 95.9431 73.3963 96.3144 73.372C96.5554 73.3563 96.7729 73.3079 96.9669 73.2269C97.1607 73.1431 97.3253 73.027 97.4608 72.8786C97.5963 72.7302 97.6957 72.5515 97.7589 72.3424L98.9765 72.4806C98.9032 72.8413 98.7506 73.163 98.5185 73.4458C98.2891 73.7255 97.9921 73.9514 97.6276 74.1232C97.2656 74.2921 96.8466 74.392 96.3703 74.4232ZM102.789 73.9995C102.261 74.034 101.782 73.9301 101.35 73.6878C100.922 73.4425 100.573 73.0767 100.305 72.5903C100.04 72.1009 99.8838 71.5032 99.8377 70.7973C99.7916 70.0914 99.8698 69.4799 100.072 68.9628C100.278 68.4455 100.579 68.04 100.975 67.7465C101.372 67.453 101.832 67.2891 102.356 67.2548C102.762 67.2284 103.092 67.2751 103.348 67.395C103.606 67.512 103.809 67.6553 103.957 67.825C104.107 67.9945 104.225 68.1448 104.311 68.2759L104.387 68.2709L104.176 65.0349L105.447 64.9518L106.016 73.6605L104.775 73.7417L104.708 72.7254L104.602 72.7323C104.534 72.8762 104.434 73.0422 104.301 73.2302C104.171 73.4181 103.986 73.5868 103.745 73.7363C103.504 73.8859 103.185 73.9736 102.789 73.9995ZM102.998 72.8969C103.364 72.873 103.667 72.7564 103.906 72.5471C104.149 72.3349 104.324 72.0515 104.432 71.6972C104.542 71.3426 104.583 70.9357 104.553 70.4765C104.523 70.0229 104.432 69.6303 104.279 69.2986C104.127 68.9669 103.918 68.7144 103.653 68.5409C103.389 68.3675 103.071 68.2929 102.699 68.3171C102.316 68.3421 102.004 68.4622 101.762 68.6773C101.52 68.8924 101.345 69.1757 101.237 69.5273C101.131 69.8786 101.093 70.2698 101.121 70.7007C101.15 71.1372 101.24 71.5256 101.394 71.8658C101.547 72.2059 101.758 72.4697 102.026 72.6572C102.297 72.8416 102.621 72.9215 102.998 72.8969ZM113.386 73.2986C112.853 73.3334 112.368 73.2626 111.929 73.0863C111.493 72.907 111.137 72.6455 110.861 72.302C110.586 71.9584 110.424 71.5562 110.377 71.0952L111.653 71.0119C111.708 71.384 111.894 71.6808 112.21 71.9021C112.527 72.1234 112.894 72.2204 113.314 72.193C113.649 72.1711 113.94 72.0752 114.188 71.9053C114.438 71.7323 114.629 71.505 114.758 71.2232C114.891 70.9412 114.945 70.6259 114.923 70.2772C114.9 69.9228 114.802 69.6118 114.631 69.3439C114.46 69.0761 114.234 68.8716 113.955 68.7305C113.678 68.5891 113.366 68.5284 113.02 68.5481C112.757 68.5653 112.495 68.628 112.234 68.7361C111.974 68.8443 111.766 68.9774 111.611 69.1356L110.396 69.0356L110.598 64.6153L115.386 64.3024L115.46 65.4293L111.765 65.6707L111.648 68.1254L111.699 68.122C111.858 67.9465 112.074 67.7943 112.348 67.6654C112.624 67.5363 112.924 67.4612 113.247 67.4401C113.777 67.4054 114.257 67.5008 114.688 67.726C115.121 67.9511 115.471 68.2741 115.737 68.6951C116.007 69.1131 116.158 69.6043 116.192 70.1686C116.232 70.7326 116.137 71.2441 115.908 71.7032C115.682 72.1621 115.351 72.5339 114.914 72.8187C114.479 73.1005 113.97 73.2604 113.386 73.2986ZM123.09 72.6731C122.563 72.7075 122.083 72.6036 121.652 72.3614C121.223 72.1161 120.875 71.7502 120.606 71.2638C120.341 70.7744 120.185 70.1768 120.139 69.4709C120.093 68.765 120.171 68.1535 120.374 67.6363C120.579 67.119 120.88 66.7136 121.276 66.4201C121.673 66.1266 122.133 65.9627 122.658 65.9284C123.063 65.9019 123.394 65.9486 123.649 66.0686C123.907 66.1855 124.11 66.3289 124.258 66.4986C124.409 66.6681 124.527 66.8184 124.612 66.9495L124.689 66.9445L124.477 63.7085L125.749 63.6254L126.318 72.3341L125.076 72.4152L125.01 71.3989L124.903 71.4059C124.836 71.5498 124.736 71.7158 124.603 71.9038C124.473 72.0917 124.287 72.2604 124.046 72.4099C123.806 72.5594 123.487 72.6472 123.09 72.6731ZM123.3 71.5704C123.665 71.5465 123.968 71.43 124.208 71.2207C124.45 71.0084 124.625 70.7251 124.733 70.3707C124.844 70.0162 124.884 69.6093 124.854 69.15C124.824 68.6964 124.733 68.3038 124.581 67.9722C124.428 67.6405 124.219 67.3879 123.955 67.2145C123.69 67.041 123.372 66.9664 123.001 66.9907C122.618 67.0157 122.305 67.1358 122.063 67.3509C121.821 67.566 121.646 67.8493 121.538 68.2008C121.433 68.5522 121.394 68.9433 121.422 69.3742C121.451 69.8108 121.542 70.1992 121.695 70.5393C121.848 70.8795 122.059 71.1433 122.328 71.3307C122.599 71.5152 122.923 71.5951 123.3 71.5704ZM127.893 72.2312L127.466 65.6996L128.737 65.6166L129.164 72.1481L127.893 72.2312ZM128.042 64.6499C127.821 64.6643 127.626 64.6031 127.458 64.466C127.292 64.326 127.203 64.1524 127.189 63.9455C127.175 63.7357 127.242 63.552 127.388 63.3944C127.537 63.2338 127.722 63.1463 127.943 63.1318C128.164 63.1174 128.358 63.1802 128.523 63.3203C128.692 63.4573 128.783 63.6307 128.797 63.8405C128.81 64.0474 128.742 64.2312 128.593 64.3918C128.447 64.5494 128.263 64.6355 128.042 64.6499ZM133.317 65.3174L133.384 66.3379L129.693 66.5791L129.626 65.5585L133.317 65.3174ZM131.065 72.0239L130.589 64.7355C130.562 64.3273 130.629 63.9827 130.79 63.7017C130.951 63.4179 131.174 63.1997 131.46 63.0472C131.746 62.8919 132.062 62.8029 132.408 62.7803C132.663 62.7636 132.883 62.7706 133.067 62.8013C133.251 62.8291 133.388 62.8572 133.478 62.8855L133.248 63.934C133.187 63.9209 133.109 63.906 133.014 63.8895C132.919 63.8701 132.805 63.8647 132.672 63.8734C132.363 63.8936 132.147 63.9846 132.023 64.1464C131.903 64.308 131.852 64.5334 131.871 64.8225L132.336 71.9409L131.065 72.0239ZM137.498 65.0442L137.564 66.0648L133.873 66.3059L133.807 65.2854L137.498 65.0442ZM135.245 71.7508L134.769 64.4623C134.743 64.0541 134.81 63.7095 134.971 63.4285C135.132 63.1447 135.355 62.9266 135.641 62.7741C135.927 62.6187 136.243 62.5298 136.589 62.5072C136.844 62.4905 137.064 62.4975 137.248 62.5282C137.432 62.556 137.569 62.584 137.659 62.6123L137.429 63.6608C137.368 63.6477 137.29 63.6329 137.195 63.6163C137.1 63.5969 136.986 63.5915 136.852 63.6002C136.543 63.6204 136.327 63.7114 136.204 63.8732C136.084 64.0348 136.033 64.2602 136.052 64.5494L136.517 71.6677L135.245 71.7508ZM138.997 71.5057L138.57 64.9741L139.841 64.8911L140.268 71.4226L138.997 71.5057ZM139.146 63.9244C138.925 63.9388 138.73 63.8775 138.562 63.7405C138.396 63.6004 138.307 63.4269 138.293 63.22C138.279 63.0102 138.346 62.8265 138.492 62.6689C138.641 62.5083 138.826 62.4208 139.047 62.4063C139.268 62.3919 139.462 62.4547 139.627 62.5947C139.796 62.7318 139.887 62.9052 139.901 63.115C139.914 63.3219 139.846 63.5057 139.697 63.6663C139.551 63.8239 139.367 63.9099 139.146 63.9244ZM141.739 71.3265L141.312 64.795L142.541 64.7147L142.609 65.7522L142.677 65.7478C142.773 65.3885 142.965 65.0984 143.252 64.8775C143.542 64.6535 143.879 64.5291 144.261 64.5041C144.341 64.4989 144.435 64.4956 144.543 64.4942C144.654 64.4927 144.74 64.4941 144.803 64.4985L144.883 65.7147C144.831 65.7039 144.739 65.6942 144.608 65.6857C144.476 65.6744 144.345 65.673 144.215 65.6815C143.914 65.7011 143.65 65.7824 143.423 65.9254C143.199 66.0653 143.026 66.2517 142.905 66.4845C142.783 66.7145 142.732 66.9713 142.75 67.2548L143.011 71.2434L141.739 71.3265ZM148.685 71.005C148.042 71.0471 147.478 70.9458 146.996 70.7012C146.515 70.4536 146.133 70.0871 145.848 69.6018C145.565 69.1135 145.402 68.5306 145.358 67.8531C145.314 67.184 145.4 66.5862 145.616 66.0597C145.835 65.5329 146.161 65.1116 146.593 64.7959C147.028 64.4799 147.548 64.3021 148.155 64.2625C148.523 64.2384 148.885 64.276 149.238 64.3753C149.592 64.4746 149.915 64.6457 150.207 64.8885C150.499 65.1314 150.738 65.456 150.924 65.8623C151.11 66.2658 151.222 66.7638 151.261 67.3563L151.29 67.8071L146.098 68.1463L146.036 67.1938L149.982 66.936C149.96 66.6014 149.873 66.3096 149.72 66.0606C149.567 65.8086 149.362 65.6156 149.106 65.4815C148.852 65.3472 148.561 65.2908 148.232 65.3122C147.875 65.3356 147.569 65.4438 147.314 65.637C147.061 65.8272 146.872 66.0673 146.746 66.3574C146.622 66.6445 146.571 66.951 146.592 67.277L146.641 68.0212C146.67 68.4577 146.77 68.8241 146.944 69.1203C147.119 69.4162 147.352 69.636 147.64 69.7794C147.928 69.92 148.258 69.9782 148.629 69.9539C148.87 69.9381 149.088 69.8898 149.282 69.8088C149.476 69.7249 149.64 69.6088 149.776 69.4605C149.911 69.3121 150.011 69.1334 150.074 68.9243L151.291 69.0625C151.218 69.4232 151.065 69.7449 150.833 70.0277C150.604 70.3074 150.307 70.5332 149.942 70.7051C149.581 70.8739 149.161 70.9739 148.685 71.005ZM153.668 66.6524L153.921 70.5305L152.65 70.6136L152.223 64.0821L153.444 64.0023L153.513 65.0654L153.594 65.0601C153.722 64.7045 153.939 64.4113 154.245 64.1806C154.555 63.9497 154.955 63.8182 155.445 63.7862C155.89 63.7571 156.286 63.8252 156.633 63.9904C156.979 64.1528 157.257 64.4108 157.465 64.7645C157.673 65.1182 157.795 65.5643 157.83 66.1029L158.101 70.2574L156.83 70.3405L156.569 66.3391C156.538 65.8657 156.39 65.5038 156.126 65.2534C155.862 65.0002 155.514 64.8877 155.083 64.9158C154.789 64.9351 154.531 65.016 154.309 65.1586C154.091 65.301 153.923 65.4998 153.806 65.7552C153.691 66.0075 153.645 66.3066 153.668 66.6524ZM162.189 63.4309L162.256 64.4515L158.688 64.6846L158.622 63.664L162.189 63.4309ZM159.476 62.0367L160.748 61.9536L161.151 68.1322C161.167 68.3788 161.216 68.5621 161.298 68.682C161.38 68.7991 161.48 68.8765 161.6 68.9143C161.721 68.949 161.852 68.9619 161.991 68.9528C162.093 68.9461 162.182 68.9332 162.257 68.914C162.333 68.8948 162.392 68.8796 162.434 68.8683L162.732 69.9036C162.66 69.9368 162.557 69.972 162.423 70.0092C162.289 70.0493 162.12 70.0774 161.916 70.0936C161.582 70.1211 161.266 70.082 160.969 69.9761C160.671 69.8703 160.425 69.6928 160.229 69.4437C160.033 69.1945 159.923 68.8729 159.897 68.4789L159.476 62.0367ZM167.415 60.903L167.984 69.6117L166.713 69.6948L166.144 60.9861L167.415 60.903ZM172.279 69.4635C171.635 69.5056 171.072 69.4043 170.589 69.1597C170.109 68.912 169.726 68.5456 169.441 68.0603C169.159 67.572 168.995 66.9891 168.951 66.3115C168.907 65.6425 168.993 65.0447 169.21 64.5181C169.429 63.9914 169.754 63.5701 170.186 63.2543C170.621 62.9384 171.142 62.7606 171.748 62.7209C172.117 62.6969 172.478 62.7345 172.832 62.8338C173.186 62.9331 173.509 63.1042 173.801 63.347C174.093 63.5898 174.332 63.9144 174.518 64.3208C174.703 64.7243 174.816 65.2223 174.854 65.8148L174.884 66.2655L169.692 66.6048L169.63 65.6523L173.576 65.3944C173.554 65.0599 173.466 64.7681 173.314 64.519C173.16 64.2671 172.956 64.0741 172.699 63.94C172.446 63.8056 172.154 63.7492 171.826 63.7707C171.468 63.794 171.162 63.9023 170.907 64.0955C170.655 64.2856 170.466 64.5258 170.339 64.8158C170.216 65.1029 170.165 65.4095 170.186 65.7355L170.235 66.4796C170.263 66.9162 170.364 67.2826 170.537 67.5787C170.713 67.8747 170.945 68.0944 171.233 68.2379C171.522 68.3785 171.851 68.4366 172.223 68.4124C172.464 68.3966 172.681 68.3482 172.875 68.2672C173.069 68.1834 173.234 68.0673 173.369 67.9189C173.505 67.7706 173.604 67.5919 173.667 67.3827L174.885 67.521C174.812 67.8816 174.659 68.2034 174.427 68.4861C174.197 68.7659 173.9 68.9917 173.536 69.1636C173.174 69.3324 172.755 69.4324 172.279 69.4635ZM178.154 69.0925C177.74 69.1195 177.361 69.0674 177.016 68.9362C176.671 68.8021 176.392 68.5941 176.177 68.312C175.965 68.0298 175.845 67.6746 175.817 67.2466C175.793 66.878 175.844 66.5701 175.97 66.3227C176.096 66.0753 176.275 65.8743 176.507 65.7196C176.739 65.565 177.001 65.4425 177.294 65.3522C177.587 65.2619 177.887 65.1882 178.194 65.1311C178.582 65.0602 178.897 65.0026 179.139 64.9583C179.381 64.9112 179.555 64.85 179.661 64.7748C179.767 64.6995 179.815 64.5853 179.805 64.4323L179.803 64.4025C179.779 64.0311 179.655 63.7502 179.432 63.5598C179.212 63.3692 178.896 63.2874 178.485 63.3142C178.057 63.3422 177.726 63.4592 177.492 63.6653C177.26 63.8683 177.105 64.0877 177.026 64.3234L175.814 64.1293C175.93 63.7232 176.116 63.3893 176.372 63.1278C176.631 62.8632 176.935 62.6639 177.285 62.53C177.635 62.3933 178.007 62.312 178.401 62.2863C178.662 62.2693 178.94 62.2824 179.236 62.3257C179.535 62.3659 179.817 62.4585 180.083 62.6034C180.351 62.7482 180.578 62.9654 180.762 63.2552C180.945 63.5421 181.053 63.9237 181.084 64.3999L181.367 68.7373L180.126 68.8184L180.067 67.9254L180.016 67.9288C179.945 68.0986 179.832 68.2682 179.678 68.4377C179.524 68.6072 179.322 68.7528 179.07 68.8746C178.819 68.9963 178.514 69.0689 178.154 69.0925ZM178.363 68.0538C178.715 68.0309 179.011 67.9418 179.251 67.7866C179.495 67.6312 179.674 67.4373 179.79 67.2048C179.908 66.9693 179.959 66.7226 179.942 66.4646L179.887 65.6226C179.845 65.6709 179.76 65.7192 179.632 65.7674C179.507 65.8126 179.363 65.8547 179.2 65.8938C179.037 65.9301 178.879 65.9647 178.724 65.9975C178.57 66.0276 178.441 66.0531 178.337 66.0741C178.092 66.1214 177.87 66.1886 177.671 66.2756C177.474 66.3625 177.32 66.4793 177.207 66.6262C177.097 66.7701 177.049 66.9554 177.064 67.1822C177.084 67.4968 177.216 67.7274 177.459 67.8738C177.702 68.0173 178.003 68.0774 178.363 68.0538ZM182.821 68.6423L182.395 62.1108L183.624 62.0305L183.691 63.068L183.759 63.0636C183.856 62.7043 184.047 62.4142 184.335 62.1933C184.625 61.9693 184.961 61.8449 185.344 61.8199C185.423 61.8147 185.517 61.8114 185.625 61.81C185.736 61.8085 185.823 61.8099 185.886 61.8143L185.965 63.0305C185.913 63.0197 185.821 63.01 185.69 63.0015C185.558 62.9902 185.427 62.9888 185.297 62.9973C184.996 63.0169 184.733 63.0982 184.506 63.2412C184.281 63.3811 184.108 63.5675 183.987 63.8003C183.865 64.0303 183.814 64.2871 183.832 64.5706L184.093 68.5592L182.821 68.6423ZM188.196 64.3965L188.449 68.2746L187.178 68.3577L186.751 61.8261L187.971 61.7464L188.041 62.8095L188.122 62.8042C188.249 62.4485 188.466 62.1553 188.773 61.9246C189.082 61.6937 189.482 61.5623 189.973 61.5302C190.418 61.5011 190.814 61.5692 191.161 61.7345C191.507 61.8969 191.784 62.1549 191.993 62.5086C192.201 62.8622 192.322 63.3084 192.358 63.847L192.629 68.0015L191.358 68.0845L191.096 64.0831C191.065 63.6097 190.918 63.2478 190.654 62.9975C190.39 62.7443 190.042 62.6317 189.611 62.6599C189.316 62.6792 189.058 62.7601 188.837 62.9026C188.618 63.045 188.451 63.2439 188.334 63.4992C188.219 63.7515 188.173 64.0506 188.196 64.3965ZM194.095 67.9057L193.668 61.3742L194.939 61.2911L195.366 67.8226L194.095 67.9057ZM194.244 60.3244C194.023 60.3389 193.828 60.2776 193.66 60.1405C193.494 60.0005 193.405 59.827 193.391 59.62C193.377 59.4103 193.444 59.2266 193.59 59.069C193.739 58.9083 193.924 58.8208 194.145 58.8064C194.366 58.7919 194.56 58.8547 194.725 58.9948C194.894 59.1318 194.985 59.3052 194.999 59.515C195.012 59.722 194.944 59.9057 194.795 60.0664C194.649 60.224 194.465 60.31 194.244 60.3244ZM197.855 63.7654L198.109 67.6435L196.837 67.7265L196.41 61.195L197.631 61.1153L197.7 62.1783L197.781 62.1731C197.909 61.8174 198.126 61.5242 198.433 61.2935C198.742 61.0626 199.142 60.9311 199.632 60.8991C200.077 60.87 200.473 60.9381 200.82 61.1033C201.167 61.2657 201.444 61.5238 201.652 61.8774C201.86 62.2311 201.982 62.6772 202.017 63.2158L202.289 67.3703L201.017 67.4534L200.756 63.452C200.725 62.9786 200.577 62.6167 200.313 62.3663C200.049 62.1131 199.702 62.0006 199.271 62.0288C198.976 62.048 198.718 62.1289 198.496 62.2715C198.278 62.4139 198.11 62.6128 197.993 62.8681C197.879 63.1204 197.833 63.4195 197.855 63.7654ZM206.662 69.681C206.143 69.7149 205.692 69.6761 205.309 69.5645C204.929 69.4526 204.614 69.2925 204.364 69.0839C204.114 68.8753 203.922 68.6416 203.788 68.3827L204.852 67.8605C204.936 67.9803 205.047 68.1054 205.184 68.236C205.323 68.3692 205.507 68.4782 205.735 68.563C205.965 68.6476 206.256 68.6784 206.608 68.6554C207.089 68.6239 207.48 68.4803 207.779 68.2244C208.079 67.9714 208.212 67.5897 208.179 67.0795L208.095 65.7953L208.014 65.8005C207.946 65.9445 207.846 66.1062 207.712 66.2857C207.582 66.4651 207.396 66.6253 207.155 66.7663C206.913 66.9073 206.593 66.9909 206.193 67.017C205.677 67.0507 205.204 66.9606 204.775 66.7467C204.348 66.5298 203.998 66.1925 203.726 65.7348C203.457 65.2741 203.3 64.6965 203.254 64.0019C203.209 63.3074 203.288 62.7044 203.491 62.1929C203.696 61.6812 203.998 61.2801 204.394 60.9894C204.791 60.6959 205.251 60.532 205.776 60.4977C206.181 60.4712 206.513 60.5179 206.771 60.6376C207.029 60.7546 207.234 60.8978 207.384 61.0673C207.538 61.2366 207.657 61.3869 207.743 61.5179L207.836 61.5118L207.767 60.453L209.013 60.3716L209.449 67.0477C209.486 67.609 209.385 68.0782 209.148 68.4552C208.911 68.8323 208.575 69.1219 208.142 69.3239C207.711 69.5257 207.217 69.6447 206.662 69.681ZM206.405 65.9441C206.77 65.9202 207.074 65.815 207.315 65.6284C207.559 65.4388 207.736 65.1796 207.845 64.8507C207.957 64.5188 207.999 64.1275 207.969 63.6768C207.94 63.2374 207.85 62.8547 207.698 62.5287C207.545 62.2027 207.337 61.9544 207.072 61.7838C206.808 61.6103 206.49 61.5357 206.118 61.56C205.736 61.585 205.423 61.7051 205.181 61.9202C204.939 62.1324 204.763 62.4115 204.655 62.7574C204.549 63.1031 204.51 63.4843 204.537 63.901C204.565 64.3291 204.655 64.7004 204.807 65.0151C204.958 65.3297 205.167 65.5694 205.434 65.7342C205.704 65.8988 206.028 65.9687 206.405 65.9441ZM216.457 59.8852L216.524 60.9058L212.956 61.1389L212.889 60.1183L216.457 59.8852ZM213.744 58.491L215.015 58.4079L215.419 64.5865C215.435 64.8331 215.484 65.0164 215.566 65.1363C215.648 65.2534 215.748 65.3308 215.867 65.3686C215.989 65.4033 216.119 65.4161 216.258 65.4071C216.36 65.4004 216.449 65.3875 216.525 65.3683C216.6 65.3491 216.659 65.3339 216.701 65.3226L217 66.3579C216.928 66.3911 216.825 66.4263 216.69 66.4635C216.556 66.5036 216.387 66.5317 216.183 66.5479C215.849 66.5754 215.534 66.5363 215.236 66.4304C214.939 66.3246 214.692 66.1471 214.497 65.898C214.301 65.6488 214.191 65.3272 214.165 64.9332L213.744 58.491ZM220.74 66.2971C220.128 66.3371 219.585 66.2317 219.11 65.9809C218.635 65.7301 218.255 65.3606 217.97 64.8725C217.684 64.3844 217.52 63.8029 217.476 63.1282C217.431 62.4507 217.519 61.85 217.738 61.3261C217.957 60.8021 218.286 60.3849 218.724 60.0745C219.162 59.764 219.687 59.5887 220.299 59.5487C220.912 59.5087 221.455 59.6141 221.93 59.865C222.405 60.1158 222.785 60.4867 223.07 60.9777C223.356 61.4686 223.521 62.0529 223.565 62.7304C223.609 63.4051 223.521 64.003 223.302 64.5241C223.083 65.0452 222.754 65.4609 222.316 65.7714C221.878 66.0819 221.353 66.2571 220.74 66.2971ZM220.675 65.2295C221.072 65.2036 221.394 65.0772 221.641 64.8504C221.888 64.6236 222.063 64.3318 222.164 63.9749C222.269 63.6179 222.308 63.2296 222.281 62.81C222.253 62.3933 222.165 62.0148 222.014 61.6744C221.866 61.3311 221.655 61.0616 221.381 60.866C221.106 60.6704 220.77 60.5856 220.373 60.6115C219.973 60.6377 219.649 60.7656 219.399 60.9955C219.152 61.2251 218.976 61.5199 218.872 61.8797C218.77 62.2366 218.732 62.6234 218.76 63.0401C218.787 63.4596 218.875 63.8397 219.022 64.1802C219.172 64.5206 219.385 64.7871 219.659 64.9799C219.937 65.1724 220.275 65.2556 220.675 65.2295ZM225.116 68.3386L224.529 59.3578L225.771 59.2767L225.84 60.3355L225.947 60.3285C226.011 60.1876 226.107 60.0234 226.235 59.8357C226.362 59.648 226.544 59.4795 226.782 59.3301C227.02 59.178 227.342 59.0886 227.747 59.0621C228.274 59.0277 228.754 59.1302 229.185 59.3696C229.616 59.609 229.966 59.972 230.234 60.4584C230.505 60.9446 230.663 61.5406 230.71 62.2465C230.756 62.9524 230.678 63.5653 230.475 64.0853C230.273 64.6024 229.975 65.0105 229.582 65.3095C229.188 65.6057 228.728 65.771 228.2 65.8054C227.804 65.8314 227.475 65.786 227.214 65.6692C226.955 65.5523 226.75 65.4091 226.596 65.2398C226.443 65.0705 226.323 64.9188 226.238 64.7849L226.161 64.7899L226.388 68.2556L225.116 68.3386ZM225.989 62.5421C226.019 63.0014 226.112 63.3996 226.267 63.7367C226.423 64.0739 226.634 64.332 226.899 64.5111C227.164 64.6874 227.479 64.7636 227.845 64.7397C228.225 64.7149 228.536 64.5935 228.778 64.3756C229.019 64.1548 229.194 63.8658 229.302 63.5086C229.412 63.1512 229.453 62.7542 229.425 62.3176C229.396 61.8867 229.306 61.504 229.153 61.1696C229.003 60.8349 228.793 60.5767 228.522 60.3951C228.254 60.2134 227.928 60.135 227.546 60.16C227.177 60.1841 226.871 60.2994 226.629 60.506C226.389 60.7124 226.215 60.99 226.107 61.3387C225.998 61.6874 225.959 62.0886 225.989 62.5421ZM232.107 65.4221L231.68 58.8905L232.952 58.8075L233.379 65.339L232.107 65.4221ZM232.257 57.8408C232.036 57.8552 231.841 57.794 231.672 57.6569C231.507 57.5169 231.417 57.3433 231.404 57.1364C231.39 56.9266 231.456 56.7429 231.602 56.5853C231.751 56.4247 231.936 56.3372 232.157 56.3227C232.379 56.3083 232.572 56.3711 232.738 56.5112C232.906 56.6482 232.997 56.8216 233.011 57.0314C233.024 57.2383 232.957 57.4221 232.808 57.5827C232.661 57.7403 232.478 57.8264 232.257 57.8408ZM237.609 65.195C236.977 65.2363 236.424 65.1287 235.948 64.8722C235.476 64.6126 235.101 64.2371 234.824 63.7456C234.547 63.2541 234.388 62.6809 234.345 62.0261C234.301 61.3627 234.388 60.7692 234.604 60.2454C234.82 59.7188 235.146 59.2976 235.581 58.9816C236.016 58.6657 236.541 58.4876 237.156 58.4474C237.652 58.415 238.1 58.4782 238.501 58.6371C238.901 58.7932 239.231 59.0278 239.49 59.3411C239.753 59.6542 239.921 60.029 239.995 60.4654L238.758 60.5463C238.67 60.2446 238.496 59.9911 238.238 59.7859C237.983 59.5805 237.652 59.4911 237.247 59.5176C236.893 59.5407 236.588 59.6546 236.334 59.8591C236.083 60.0606 235.894 60.3376 235.769 60.6903C235.644 61.0401 235.597 61.4475 235.627 61.9124C235.658 62.3887 235.757 62.795 235.924 63.1314C236.092 63.4678 236.313 63.7224 236.589 63.8951C236.868 64.0676 237.188 64.1421 237.548 64.1186C237.789 64.1028 238.004 64.0446 238.194 63.944C238.386 63.8403 238.544 63.7005 238.666 63.5245C238.791 63.3483 238.873 63.1409 238.912 62.9021L240.149 62.8212C240.131 63.2466 240.018 63.6326 239.81 63.9793C239.602 64.3259 239.312 64.6069 238.939 64.822C238.569 65.0369 238.125 65.1612 237.609 65.195ZM245.976 59.5579L244.837 59.8373C244.779 59.6931 244.693 59.5577 244.58 59.4314C244.469 59.3048 244.323 59.2047 244.142 59.1312C243.96 59.0576 243.738 59.0294 243.474 59.0467C243.114 59.0702 242.819 59.1706 242.589 59.3479C242.358 59.5224 242.251 59.7358 242.268 59.9881C242.282 60.2064 242.374 60.3769 242.544 60.4996C242.715 60.6223 242.983 60.7144 243.348 60.7759L244.401 60.9462C245.011 61.0459 245.473 61.2306 245.787 61.5005C246.101 61.7704 246.273 62.1364 246.303 62.5985C246.328 62.9897 246.238 63.3458 246.031 63.6668C245.827 63.9847 245.529 64.2433 245.138 64.4426C244.749 64.6416 244.292 64.7584 243.764 64.7928C243.033 64.8406 242.426 64.7237 241.944 64.442C241.461 64.1575 241.148 63.7296 241.006 63.1581L242.222 62.8907C242.32 63.2061 242.493 63.4382 242.742 63.587C242.99 63.7331 243.306 63.7936 243.689 63.7686C244.106 63.7413 244.433 63.6331 244.671 63.4439C244.909 63.2518 245.02 63.0296 245.003 62.7773C244.99 62.5732 244.902 62.4067 244.74 62.2778C244.581 62.1487 244.343 62.0589 244.027 62.0084L242.905 61.8383C242.287 61.7392 241.821 61.5475 241.51 61.2633C241.201 60.9788 241.031 60.6042 241.001 60.1392C240.975 59.7537 241.061 59.4093 241.258 59.1061C241.454 58.8028 241.737 58.558 242.106 58.3716C242.476 58.1824 242.905 58.0717 243.396 58.0397C244.102 57.9936 244.667 58.1104 245.093 58.39C245.518 58.6669 245.812 59.0562 245.976 59.5579Z" fill="white"/>
</g>
<rect x="0.531535" y="21.9818" width="329" height="80" rx="23.5" transform="rotate(-3.73825 0.531535 21.9818)" stroke="white" stroke-opacity="0.3"/>
<defs>
<filter id="filter2_i_5144_621" x="30.7988" y="46.901" width="26.6665" height="26.6667" filterUnits="userSpaceOnUse" color-interpolation-filters="sRGB">
<feFlood flood-opacity="0" result="BackgroundImageFix"/>
<feBlend mode="normal" in="SourceGraphic" in2="BackgroundImageFix" result="shape"/>
<feColorMatrix in="SourceAlpha" type="matrix" values="0 0 0 0 0 0 0 0 0 0 0 0 0 0 0 0 0 0 127 0" result="hardAlpha"/>
<feOffset/>
<feGaussianBlur stdDeviation="0.5"/>
<feComposite in2="hardAlpha" operator="arithmetic" k2="-1" k3="1"/>
<feColorMatrix type="matrix" values="0 0 0 0 1 0 0 0 0 1 0 0 0 0 1 0 0 0 1 0"/>
<feBlend mode="normal" in2="shape" result="effect1_innerShadow_5144_621"/>
</filter>
<linearGradient id="paint0_linear_5144_621" x1="20.1323" y1="36.2342" x2="68.1323" y2="84.2342" gradientUnits="userSpaceOnUse">
<stop offset="0.0340478" stop-color="#07CCBE"/>
<stop offset="1" stop-color="#03989A"/>
</linearGradient>
<linearGradient id="paint1_linear_5144_621" x1="28.0211" y1="40.2345" x2="52.0036" y2="78.6065" gradientUnits="userSpaceOnUse">
<stop stop-color="white"/>
<stop offset="1" stop-color="white" stop-opacity="0"/>
</linearGradient>
<linearGradient id="paint2_linear_5144_621" x1="28.0211" y1="40.2345" x2="52.0036" y2="78.6065" gradientUnits="userSpaceOnUse">
<stop stop-color="white"/>
<stop offset="1" stop-color="white" stop-opacity="0"/>
</linearGradient>
<linearGradient id="paint3_linear_5144_621" x1="28.0211" y1="40.2345" x2="52.0036" y2="78.6065" gradientUnits="userSpaceOnUse">
<stop stop-color="white"/>
<stop offset="1" stop-color="white" stop-opacity="0"/>
</linearGradient>
<linearGradient id="paint4_linear_5144_621" x1="28.0211" y1="40.2345" x2="52.0036" y2="78.6065" gradientUnits="userSpaceOnUse">
<stop stop-color="white"/>
<stop offset="1" stop-color="white" stop-opacity="0"/>
</linearGradient>
<linearGradient id="paint5_linear_5144_621" x1="28.0211" y1="40.2345" x2="52.0036" y2="78.6065" gradientUnits="userSpaceOnUse">
<stop stop-color="white"/>
<stop offset="1" stop-color="white" stop-opacity="0"/>
</linearGradient>
<linearGradient id="paint6_linear_5144_621" x1="28.0211" y1="40.2345" x2="52.0036" y2="78.6065" gradientUnits="userSpaceOnUse">
<stop stop-color="white"/>
<stop offset="1" stop-color="white" stop-opacity="0"/>
</linearGradient>
<linearGradient id="paint7_linear_5144_621" x1="28.0211" y1="40.2345" x2="52.0036" y2="78.6065" gradientUnits="userSpaceOnUse">
<stop stop-color="white"/>
<stop offset="1" stop-color="white" stop-opacity="0"/>
</linearGradient>
<linearGradient id="paint8_linear_5144_621" x1="28.0211" y1="40.2345" x2="52.0036" y2="78.6065" gradientUnits="userSpaceOnUse">
<stop stop-color="white"/>
<stop offset="1" stop-color="white" stop-opacity="0"/>
</linearGradient>
<linearGradient id="paint9_linear_5144_621" x1="28.0211" y1="40.2345" x2="52.0036" y2="78.6065" gradientUnits="userSpaceOnUse">
<stop stop-color="white"/>
<stop offset="1" stop-color="white" stop-opacity="0"/>
</linearGradient>
<linearGradient id="paint10_linear_5144_621" x1="275.559" y1="27.5269" x2="296.294" y2="54.9028" gradientUnits="userSpaceOnUse">
<stop stop-color="#276FFF"/>
<stop offset="1" stop-color="#57B2F4"/>
</linearGradient>
<clipPath id="clip0_5144_621">
<rect y="21.5155" width="330" height="81" rx="24" transform="rotate(-3.73825 0 21.5155)" fill="white"/>
</clipPath>
</defs>
</svg>
