<svg width="69" height="18" viewBox="0 0 69 18" fill="none" xmlns="http://www.w3.org/2000/svg">
<path d="M9.87592 11.9904V10.6559H9.77402C9.199 10.9022 7.90462 11.0878 6.77521 11.0878H6.16017C4.39388 11.0878 3.90136 10.5334 3.90136 8.68465V2.40195C3.90136 0.800651 3.1832 0 1.64255 0H0V8.95153C0 12.5241 1.54065 14.3317 5.13266 14.3317H6.77521C9.0134 14.3317 9.87592 13.4279 9.87592 11.9904ZM22.0555 7.06272C22.0555 4.18887 19.7567 2.52569 16.7991 2.52569C13.309 2.52569 10.9896 5.31827 10.9896 8.74651C10.9896 11.8678 13.0421 14.4954 16.9435 14.4954C20.1667 14.4954 21.3374 13.2023 21.3374 11.7647V10.861H21.193C20.5573 11.2928 19.4279 11.5803 17.6204 11.5803C15.9985 11.5803 15.0753 11.0466 14.8484 9.91716H16.5322C20.3523 9.91716 22.0555 9.32153 22.0555 7.06272ZM18.4417 6.63207C18.4417 7.12459 18.1141 7.41209 16.2654 7.41209H14.7466C14.8485 6.32394 15.4235 5.44079 16.7991 5.44079C17.9285 5.44079 18.4417 6.05705 18.4417 6.63207ZM34.0507 9.19779V7.45334C34.0507 4.127 32.0176 2.54631 28.8975 2.54631C25.7773 2.54631 24.2161 3.9426 24.2161 5.33768V6.71334H24.318C25.1198 5.97456 25.8999 5.48204 28.0143 5.48204C29.5538 5.48204 30.2731 5.70768 30.2731 6.63207V7.10396H29.7187C25.6124 7.10396 23.8048 8.37652 23.8048 10.8816C23.8048 13.3867 26.4543 14.4748 28.6306 14.4748C32.7369 14.4748 34.0507 13.3042 34.0507 9.19779ZM30.3556 10.3684C30.3556 11.3947 29.7394 11.7441 29.0406 11.7441C27.9524 11.7441 27.5012 11.3741 27.5012 10.6559C27.5012 9.89654 28.0968 9.52654 29.5744 9.52654H30.3556V10.3684ZM43.2946 5.79017V4.35263C43.2946 3.30572 42.3909 2.50507 40.4402 2.50507C37.8733 2.50507 36.3338 4.31139 36.3338 6.59082V11.4978C36.3338 13.3867 37.3601 14.1667 39.0439 14.1667H40.1114V7.41209C40.1114 6.03643 40.8514 5.56453 41.7952 5.56453C42.3084 5.56453 42.6784 5.60578 43.1709 5.79017H43.2946ZM55.9255 14.1667V8.00773C55.9255 4.66076 54.3036 2.54631 50.3003 2.54631C46.7071 2.54631 44.5514 4.66076 44.5514 7.90462V11.8678C44.5514 13.5104 45.4746 14.1667 47.1378 14.1667H48.4516V7.84275C48.4516 6.46708 49.0678 5.70768 50.1972 5.70768C51.511 5.70768 52.0242 6.3858 52.0242 7.90462V11.8678C52.0242 13.5917 52.5579 14.1667 54.283 14.1667H55.9255ZM68.8451 4.31139C68.8451 3.40884 68.3102 2.87386 67.182 2.87386H65.3126C65.0663 5.0708 64.1832 8.10963 63.3425 9.81405C62.7468 8.43838 61.9668 6.26207 61.5762 4.47516C61.3505 3.46949 60.3437 2.87386 59.3792 2.87386H57.3461C57.7986 5.89207 59.8718 11.0259 61.4937 13.4485C61.0837 14.3729 60.6118 14.7829 59.5843 14.8654L57.9005 14.988V15.933C57.9005 17.2055 58.9486 17.8836 60.2005 17.8836C62.5612 17.8836 63.3619 17.2674 66.5245 11.1897C67.7764 8.78776 68.8451 5.50266 68.8451 4.31139Z" fill="#603BAC"/>
</svg>
