<svg width="227" height="151" viewBox="0 0 227 151" fill="none" xmlns="http://www.w3.org/2000/svg">
<rect x="28.1691" width="216" height="72" rx="16" transform="rotate(23.0315 28.1691 0)" fill="white" fill-opacity="0.1"/>
<g clip-path="url(#clip0_3998_2810)">
<path d="M23.2875 37.0428C27.609 26.8775 39.3528 22.1402 49.518 26.4617C59.6833 30.7832 64.4206 42.527 60.0991 52.6923C55.7776 62.8575 44.0338 67.5948 33.8685 63.2733C23.7033 58.9518 18.966 47.208 23.2875 37.0428Z" fill="url(#paint0_linear_3998_2810)"/>
</g>
<g clip-path="url(#clip1_3998_2810)">
<path d="M49.5977 45.6389C50.9386 47.3374 49.8868 49.8115 47.7333 50.0244L34.7305 51.3101C32.6375 51.517 31.0646 49.4209 31.8778 47.5083L36.7842 35.9671C37.5973 34.0545 40.1981 33.7327 41.5013 35.3834L49.5977 45.6389Z" fill="white"/>
</g>
<path d="M69.8088 50.3005C70.0248 49.7923 70.612 49.5554 71.1203 49.7715C71.6285 49.9876 71.8654 50.5748 71.6493 51.083L66.9545 62.1265C66.7384 62.6348 66.1512 62.8716 65.643 62.6556C65.1347 62.4395 64.8978 61.8523 65.1139 61.344L69.8088 50.3005Z" fill="white"/>
<path d="M72.8453 55.9379C73.0613 55.4296 73.6485 55.1928 74.1568 55.4088C74.665 55.6249 74.9019 56.2121 74.6858 56.7204L73.1209 60.4015C72.9048 60.9098 72.3176 61.1467 71.8094 60.9306C71.3011 60.7145 71.0642 60.1273 71.2803 59.6191L72.8453 55.9379Z" fill="white"/>
<path d="M78.2292 56.0535C78.4453 55.5452 79.0324 55.3084 79.5407 55.5245C80.049 55.7405 80.2858 56.3277 80.0698 56.836L76.9399 64.1983C76.7238 64.7066 76.1366 64.9434 75.6283 64.7274C75.1201 64.5113 74.8832 63.9241 75.0993 63.4158L78.2292 56.0535Z" fill="white"/>
<path d="M86.3518 49.7271C86.5678 49.2188 87.155 48.982 87.6633 49.198C88.1716 49.4141 88.4084 50.0013 88.1923 50.5096L78.0202 74.4371C77.8041 74.9454 77.2169 75.1822 76.7086 74.9661C76.2004 74.7501 75.9635 74.1629 76.1796 73.6546L86.3518 49.7271Z" fill="white"/>
<path d="M87.0408 60.8862C87.2569 60.3779 87.8441 60.141 88.3524 60.3571C88.8606 60.5732 89.0975 61.1604 88.8814 61.6687L86.534 67.1904C86.3179 67.6986 85.7307 67.9355 85.2225 67.7194C84.7142 67.5034 84.4773 66.9162 84.6934 66.4079L87.0408 60.8862Z" fill="white"/>
<path d="M93.5985 58.2409C93.8145 57.7327 94.4017 57.4958 94.91 57.7119C95.4183 57.9279 95.6551 58.5151 95.4391 59.0234L89.1792 73.748C88.9632 74.2563 88.376 74.4932 87.8677 74.2771C87.3595 74.061 87.1226 73.4738 87.3387 72.9655L93.5985 58.2409Z" fill="white"/>
<path d="M98.5912 59.2768C98.8072 58.7686 99.3944 58.5317 99.9027 58.7478C100.411 58.9638 100.648 59.551 100.432 60.0593L93.3895 76.6245C93.1734 77.1328 92.5862 77.3696 92.0779 77.1536C91.5697 76.9375 91.3328 76.3503 91.5489 75.842L98.5912 59.2768Z" fill="white"/>
<path d="M102.801 62.1533C103.017 61.645 103.605 61.4082 104.113 61.6242C104.621 61.8403 104.858 62.4275 104.642 62.9358L98.3821 77.6604C98.1661 78.1687 97.5789 78.4055 97.0706 78.1895C96.5624 77.9734 96.3255 77.3862 96.5416 76.8779L102.801 62.1533Z" fill="white"/>
<path d="M105.838 67.7906C106.054 67.2824 106.641 67.0455 107.149 67.2616C107.658 67.4777 107.895 68.0649 107.678 68.5731L104.549 75.9354C104.332 76.4437 103.745 76.6806 103.237 76.4645C102.729 76.2484 102.492 75.6612 102.708 75.153L105.838 67.7906Z" fill="white"/>
<path d="M113.178 63.3048C113.394 62.7965 113.981 62.5597 114.49 62.7758C114.998 62.9918 115.235 63.579 115.019 64.0873L106.411 84.3337C106.195 84.8419 105.608 85.0788 105.1 84.8627C104.592 84.6466 104.355 84.0594 104.571 83.5512L113.178 63.3048Z" fill="white"/>
<path d="M115.823 69.8624C116.039 69.3542 116.626 69.1173 117.135 69.3334C117.643 69.5495 117.88 70.1367 117.664 70.6449L112.969 81.6884C112.753 82.1967 112.166 82.4335 111.657 82.2174C111.149 82.0014 110.912 81.4142 111.128 80.9059L115.823 69.8624Z" fill="white"/>
<path d="M121.99 68.1375C122.206 67.6292 122.793 67.3923 123.301 67.6084C123.809 67.8245 124.046 68.4117 123.83 68.92L116.005 87.3257C115.789 87.834 115.202 88.0709 114.694 87.8548C114.186 87.6387 113.949 87.0515 114.165 86.5433L121.99 68.1375Z" fill="white"/>
<path d="M126.591 70.0937C126.807 69.5854 127.394 69.3485 127.903 69.5646C128.411 69.7807 128.648 70.3679 128.432 70.8761L120.607 89.2819C120.391 89.7902 119.804 90.0271 119.295 89.811C118.787 89.5949 118.55 89.0077 118.766 88.4995L126.591 70.0937Z" fill="white"/>
<path d="M129.628 75.731C129.844 75.2228 130.431 74.9859 130.939 75.202C131.447 75.418 131.684 76.0052 131.468 76.5135L126.773 87.557C126.557 88.0652 125.97 88.3021 125.462 88.086C124.954 87.8699 124.717 87.2827 124.933 86.7745L129.628 75.731Z" fill="white"/>
<path d="M134.229 77.6872C134.445 77.1789 135.032 76.9421 135.541 77.1582C136.049 77.3742 136.286 77.9614 136.07 78.4697L131.375 89.5132C131.159 90.0214 130.571 90.2583 130.063 90.0422C129.555 89.8261 129.318 89.2389 129.534 88.7307L134.229 77.6872Z" fill="white"/>
<path d="M138.83 79.6434C139.047 79.1351 139.634 78.8983 140.142 79.1143C140.65 79.3304 140.887 79.9176 140.671 80.4259L135.976 91.4693C135.76 91.9776 135.173 92.2145 134.665 91.9984C134.156 91.7823 133.92 91.1951 134.136 90.6869L138.83 79.6434Z" fill="white"/>
<path d="M143.432 81.5996C143.648 81.0913 144.235 80.8545 144.743 81.0705C145.252 81.2866 145.489 81.8738 145.272 82.3821L140.578 93.4255C140.362 93.9338 139.774 94.1707 139.266 93.9546C138.758 93.7385 138.521 93.1513 138.737 92.6431L143.432 81.5996Z" fill="white"/>
<path d="M148.033 83.5558C148.249 83.0475 148.837 82.8106 149.345 83.0267C149.853 83.2428 150.09 83.83 149.874 84.3382L145.179 95.3817C144.963 95.89 144.376 96.1268 143.868 95.9108C143.359 95.6947 143.122 95.1075 143.339 94.5992L148.033 83.5558Z" fill="white"/>
<path d="M154.2 81.8308C154.416 81.3225 155.003 81.0857 155.511 81.3018C156.02 81.5178 156.256 82.105 156.04 82.6133L148.216 101.019C148 101.527 147.412 101.764 146.904 101.548C146.396 101.332 146.159 100.745 146.375 100.237L154.2 81.8308Z" fill="white"/>
<path d="M155.28 92.0696C155.496 91.5613 156.083 91.3245 156.592 91.5405C157.1 91.7566 157.337 92.3438 157.121 92.8521L156.338 94.6927C156.122 95.2009 155.535 95.4378 155.027 95.2217C154.518 95.0056 154.282 94.4184 154.498 93.9102L155.28 92.0696Z" fill="white"/>
<path d="M159.882 94.0258C160.098 93.5175 160.685 93.2807 161.193 93.4967C161.701 93.7128 161.938 94.3 161.722 94.8083L160.94 96.6488C160.724 97.1571 160.136 97.394 159.628 97.1779C159.12 96.9618 158.883 96.3746 159.099 95.8664L159.882 94.0258Z" fill="white"/>
<path d="M164.483 95.982C164.699 95.4737 165.286 95.2369 165.794 95.4529C166.303 95.669 166.54 96.2562 166.324 96.7645L165.541 98.605C165.325 99.1133 164.738 99.3502 164.23 99.1341C163.721 98.918 163.484 98.3308 163.7 97.8226L164.483 95.982Z" fill="white"/>
<path d="M169.084 97.9382C169.3 97.4299 169.888 97.193 170.396 97.4091C170.904 97.6252 171.141 98.2124 170.925 98.7206L170.143 100.561C169.926 101.069 169.339 101.306 168.831 101.09C168.323 100.874 168.086 100.287 168.302 99.7787L169.084 97.9382Z" fill="white"/>
<path d="M180.037 109.298C179.316 108.987 178.779 108.534 178.427 107.938C178.076 107.342 177.918 106.625 177.954 105.787C177.99 104.948 178.224 104.02 178.657 103.001C179.089 101.985 179.594 101.175 180.171 100.571C180.752 99.9676 181.379 99.5858 182.052 99.4254C182.728 99.2664 183.425 99.3392 184.141 99.6439C184.858 99.9486 185.392 100.401 185.742 101C186.094 101.596 186.252 102.311 186.218 103.147C186.187 103.98 185.956 104.905 185.525 105.921C185.09 106.942 184.584 107.757 184.005 108.364C183.427 108.969 182.801 109.353 182.127 109.516C181.454 109.677 180.757 109.604 180.037 109.298ZM180.557 108.076C181.191 108.346 181.818 108.247 182.438 107.78C183.062 107.313 183.622 106.495 184.12 105.323C184.451 104.546 184.648 103.853 184.711 103.246C184.779 102.638 184.72 102.13 184.533 101.723C184.35 101.314 184.05 101.02 183.632 100.843C183 100.574 182.372 100.675 181.748 101.144C181.124 101.613 180.561 102.431 180.062 103.598C179.73 104.379 179.53 105.074 179.462 105.682C179.399 106.289 179.459 106.796 179.643 107.201C179.828 107.604 180.133 107.896 180.557 108.076ZM186.314 110.41C186.064 110.304 185.886 110.124 185.782 109.871C185.678 109.614 185.68 109.359 185.788 109.106C185.894 108.856 186.075 108.681 186.33 108.58C186.587 108.477 186.84 108.478 187.09 108.585C187.34 108.691 187.517 108.873 187.62 109.129C187.725 109.382 187.724 109.634 187.618 109.884C187.547 110.052 187.439 110.188 187.293 110.292C187.153 110.394 186.996 110.457 186.824 110.481C186.652 110.505 186.482 110.482 186.314 110.41ZM188.31 105.716C188.059 105.61 187.882 105.43 187.777 105.176C187.674 104.92 187.676 104.665 187.784 104.412C187.89 104.162 188.071 103.987 188.326 103.886C188.582 103.783 188.836 103.784 189.086 103.891C189.336 103.997 189.513 104.178 189.616 104.435C189.721 104.688 189.72 104.94 189.614 105.19C189.542 105.358 189.434 105.494 189.289 105.598C189.148 105.7 188.992 105.763 188.82 105.787C188.647 105.811 188.477 105.787 188.31 105.716ZM195.83 104.764L191.846 114.134L190.428 113.532L193.809 105.58L193.754 105.556L190.889 106.067L191.465 104.713L194.453 104.179L195.83 104.764ZM197.319 116.645C196.598 116.335 196.061 115.881 195.71 115.285C195.358 114.689 195.2 113.972 195.236 113.134C195.272 112.295 195.506 111.367 195.939 110.348C196.371 109.332 196.876 108.522 197.453 107.918C198.034 107.315 198.661 106.933 199.334 106.773C200.01 106.613 200.707 106.686 201.424 106.991C202.14 107.296 202.674 107.748 203.024 108.347C203.376 108.943 203.534 109.659 203.5 110.494C203.47 111.327 203.239 112.252 202.807 113.268C202.372 114.289 201.866 115.104 201.287 115.712C200.71 116.316 200.084 116.7 199.409 116.863C198.736 117.024 198.039 116.951 197.319 116.645ZM197.839 115.423C198.473 115.693 199.101 115.594 199.721 115.127C200.344 114.66 200.904 113.842 201.402 112.67C201.733 111.893 201.93 111.2 201.994 110.593C202.061 109.985 202.002 109.477 201.815 109.07C201.632 108.661 201.332 108.367 200.914 108.19C200.283 107.921 199.655 108.022 199.03 108.491C198.406 108.96 197.844 109.778 197.344 110.945C197.012 111.726 196.812 112.421 196.744 113.029C196.681 113.636 196.741 114.143 196.925 114.549C197.11 114.951 197.415 115.243 197.839 115.423Z" fill="white"/>
<defs>
<linearGradient id="paint0_linear_3998_2810" x1="31.19" y1="7.80413" x2="41.7774" y2="74.8485" gradientUnits="userSpaceOnUse">
<stop stop-color="white"/>
<stop offset="1" stop-color="white" stop-opacity="0"/>
</linearGradient>
<clipPath id="clip0_3998_2810">
<path d="M23.2875 37.0428C27.609 26.8775 39.3528 22.1402 49.518 26.4617C59.6833 30.7832 64.4206 42.527 60.0991 52.6923C55.7776 62.8575 44.0338 67.5948 33.8685 63.2733C23.7033 58.9518 18.966 47.208 23.2875 37.0428Z" fill="white"/>
</clipPath>
<clipPath id="clip1_3998_2810">
<rect width="24" height="24" fill="white" transform="translate(35.3447 29.1292) rotate(23.0315)"/>
</clipPath>
</defs>
</svg>
