<svg width="421" height="375" viewBox="0 0 421 375" fill="none" xmlns="http://www.w3.org/2000/svg">
<g clip-path="url(#clip0_5144_337)">
<rect x="83.0625" width="361" height="280" rx="24" transform="rotate(17.2566 83.0625 0)" fill="white" fill-opacity="0.08"/>
<path d="M90.7376 42.1753L91.0098 30.075L93.5764 30.8723L93.0173 39.165L93.1095 39.1936L97.5374 32.1027L99.7349 32.7853L99.3553 41.1516L99.453 41.1819L103.696 34.0158L106.262 34.813L99.6309 44.9379L97.3411 44.2266L97.4818 36.3037L97.395 36.2768L93.0274 42.8866L90.7376 42.1753Z" fill="#ECE4FC"/>
<path d="M106.877 47.3673C106.02 47.1009 105.336 46.6981 104.825 46.1587C104.319 45.6168 103.999 44.974 103.865 44.2303C103.732 43.483 103.803 42.6699 104.076 41.7909C104.342 40.9336 104.742 40.2328 105.276 39.6887C105.81 39.1446 106.435 38.7855 107.152 38.6114C107.872 38.4384 108.64 38.4789 109.458 38.7329C110.008 38.9037 110.492 39.1513 110.911 39.4758C111.335 39.7977 111.669 40.1892 111.915 40.6502C112.164 41.1123 112.305 41.6402 112.339 42.2337C112.374 42.8237 112.281 43.4731 112.061 44.1821L111.864 44.817L104.826 42.6309L105.271 41.1984L110.133 42.7086C110.236 42.3758 110.255 42.0585 110.191 41.7568C110.126 41.455 109.987 41.1918 109.775 40.9674C109.568 40.7404 109.296 40.5747 108.96 40.4702C108.609 40.3612 108.273 40.3459 107.951 40.4244C107.634 40.5004 107.357 40.6505 107.121 40.8746C106.886 41.0951 106.715 41.3694 106.609 41.6974L106.186 43.0594C106.058 43.4717 106.024 43.8517 106.082 44.1991C106.144 44.5477 106.291 44.8471 106.523 45.0976C106.755 45.348 107.064 45.5333 107.451 45.6536C107.708 45.7333 107.954 45.7702 108.19 45.7642C108.426 45.7581 108.642 45.7063 108.839 45.6088C109.036 45.5113 109.207 45.37 109.352 45.185L111.446 45.9901C111.178 46.4701 110.816 46.8495 110.36 47.1285C109.91 47.4049 109.387 47.5678 108.792 47.6172C108.203 47.6641 107.564 47.5808 106.877 47.3673Z" fill="#ECE4FC"/>
<path d="M116.009 50.204C115.152 49.9377 114.468 49.5348 113.957 48.9954C113.451 48.4535 113.131 47.8107 112.997 47.067C112.864 46.3198 112.935 45.5066 113.208 44.6276C113.474 43.7703 113.874 43.0696 114.408 42.5254C114.942 41.9813 115.567 41.6222 116.284 41.4481C117.004 41.2752 117.772 41.3156 118.59 41.5696C119.14 41.7404 119.624 41.988 120.043 42.3125C120.467 42.6344 120.801 43.0259 121.047 43.4869C121.296 43.9491 121.437 44.4769 121.471 45.0705C121.506 45.6604 121.413 46.3099 121.193 47.0189L120.996 47.6537L113.958 45.4676L114.403 44.0351L119.265 45.5453C119.368 45.2125 119.387 44.8953 119.323 44.5935C119.258 44.2917 119.119 44.0286 118.907 43.8041C118.7 43.5771 118.428 43.4114 118.092 43.3069C117.741 43.1979 117.405 43.1826 117.083 43.2611C116.766 43.3372 116.489 43.4872 116.253 43.7113C116.018 43.9318 115.847 44.2061 115.741 44.5342L115.318 45.8961C115.19 46.3085 115.156 46.6884 115.214 47.0358C115.277 47.3844 115.423 47.6839 115.655 47.9343C115.887 48.1847 116.196 48.3701 116.583 48.4903C116.84 48.5701 117.086 48.6069 117.322 48.6009C117.558 48.5948 117.774 48.5431 117.971 48.4456C118.168 48.3481 118.339 48.2068 118.484 48.0217L120.578 48.8269C120.31 49.3068 119.948 49.6863 119.492 49.9652C119.042 50.2416 118.519 50.4045 117.925 50.4539C117.335 50.5008 116.696 50.4175 116.009 50.204Z" fill="#ECE4FC"/>
<path d="M124.233 49.9504L125.1 47.1793L125.436 47.2838L129.088 44.9497L131.742 45.7739L126.854 48.8487L126.306 48.6785L124.233 49.9504ZM121.393 51.6981L124.845 40.5855L127.157 41.3035L123.705 52.4161L121.393 51.6981ZM126.602 53.3162L125.277 48.9243L127.326 47.7697L129.31 54.1572L126.602 53.3162Z" fill="#ECE4FC"/>
<path d="M136.05 44.0661L132.598 55.1787L130.287 54.4606L133.739 43.3481L136.05 44.0661Z" fill="#ECE4FC"/>
<path d="M134.906 59.3225C134.613 59.2315 134.345 59.1226 134.103 58.9958C133.863 58.8737 133.671 58.7525 133.526 58.6321L134.583 57.0684C134.828 57.2359 135.059 57.3569 135.273 57.4316C135.492 57.5074 135.697 57.5157 135.89 57.4566C136.087 57.3987 136.276 57.2552 136.458 57.0262L136.703 56.7157L136.377 47.2138L138.808 47.9689L138.632 54.6255L138.719 54.6524L142.362 49.0729L144.809 49.8331L138.701 58.062C138.406 58.4622 138.073 58.7871 137.702 59.0368C137.333 59.2912 136.918 59.4459 136.457 59.5009C135.995 59.5595 135.478 59.5001 134.906 59.3225Z" fill="#ECE4FC"/>
<path d="M148.898 60.2419L146.38 59.4599L153.669 49.539L156.696 50.4795L157.075 62.782L154.557 61.9999L154.437 52.5621L154.35 52.5351L148.898 60.2419ZM150.098 55.8251L156.045 57.6724L155.475 59.5064L149.528 57.6591L150.098 55.8251Z" fill="#ECE4FC"/>
<path d="M161.696 64.396C160.843 64.1308 160.165 63.7219 159.662 63.1691C159.164 62.6139 158.851 61.9613 158.723 61.2116C158.599 60.4629 158.667 59.6672 158.929 58.8243C159.194 57.9706 159.592 57.273 160.121 56.7313C160.655 56.1872 161.284 55.8292 162.007 55.6574C162.732 55.4819 163.516 55.5251 164.359 55.7869C165.086 56.0128 165.682 56.3426 166.146 56.7763C166.61 57.2101 166.927 57.7151 167.097 58.2915C167.267 58.8679 167.268 59.4831 167.101 60.1371L164.92 59.4595C164.987 59.0244 164.928 58.6392 164.743 58.304C164.562 57.9663 164.26 57.7317 163.837 57.6002C163.479 57.4889 163.136 57.4894 162.807 57.6016C162.484 57.7113 162.191 57.9276 161.928 58.2505C161.665 58.5734 161.452 58.9971 161.289 59.5216C161.124 60.0534 161.056 60.528 161.085 60.9456C161.117 61.3642 161.237 61.7128 161.444 61.9913C161.651 62.2698 161.933 62.4646 162.292 62.5759C162.556 62.6579 162.809 62.6772 163.053 62.6339C163.3 62.5917 163.524 62.4888 163.726 62.3253C163.932 62.1593 164.103 61.9366 164.237 61.6571L166.418 62.3346C166.184 62.9601 165.836 63.4668 165.375 63.8549C164.918 64.2405 164.376 64.4847 163.749 64.5874C163.122 64.6902 162.438 64.6264 161.696 64.396Z" fill="#ECE4FC"/>
<path d="M173.971 58.8919L173.432 60.6282L168.413 59.0691L168.952 57.3328L173.971 58.8919ZM170.712 55.69L173.023 56.408L170.61 64.1781C170.543 64.3915 170.524 64.568 170.552 64.7076C170.582 64.8436 170.647 64.9531 170.748 65.0361C170.853 65.1202 170.983 65.1864 171.138 65.2347C171.247 65.2684 171.358 65.2931 171.472 65.3087C171.588 65.3207 171.676 65.3303 171.737 65.3374L171.566 67.1704C171.439 67.1706 171.264 67.1617 171.039 67.1435C170.814 67.129 170.549 67.0805 170.245 66.9981C169.682 66.8468 169.216 66.6209 168.85 66.3205C168.486 66.0213 168.245 65.6567 168.124 65.2266C168.004 64.7966 168.031 64.309 168.204 63.7639L170.712 55.69Z" fill="#ECE4FC"/>
<path d="M172.888 67.694L175.477 59.3596L177.789 60.0776L175.2 68.4121L172.888 67.694ZM176.972 58.646C176.628 58.5392 176.369 58.3337 176.194 58.0294C176.023 57.7226 175.988 57.4082 176.088 57.0863C176.187 56.7679 176.393 56.5325 176.706 56.3799C177.024 56.2248 177.355 56.2006 177.698 56.3073C178.042 56.4141 178.299 56.6209 178.47 56.9277C178.645 57.232 178.683 57.5433 178.584 57.8616C178.484 58.1835 178.275 58.4221 177.957 58.5772C177.644 58.7298 177.316 58.7527 176.972 58.646Z" fill="#ECE4FC"/>
<path d="M187.41 63.0665L181.908 70.4958L179.303 69.6867L178.978 60.4472L181.42 61.2057L181.298 67.7066L181.385 67.7336L184.963 62.3063L187.41 63.0665Z" fill="#ECE4FC"/>
<path d="M186.004 71.7684L188.593 63.4339L190.905 64.152L188.316 72.4864L186.004 71.7684ZM190.088 62.7203C189.744 62.6135 189.485 62.408 189.31 62.1037C189.139 61.7969 189.104 61.4825 189.204 61.1606C189.303 60.8422 189.509 60.6068 189.822 60.4542C190.14 60.2991 190.471 60.2749 190.815 60.3816C191.158 60.4884 191.415 60.6952 191.586 61.002C191.761 61.3063 191.799 61.6176 191.7 61.9359C191.6 62.2579 191.391 62.4964 191.073 62.6515C190.76 62.8041 190.432 62.827 190.088 62.7203Z" fill="#ECE4FC"/>
<path d="M197.189 66.1042L196.65 67.8406L191.631 66.2814L192.17 64.5451L197.189 66.1042ZM193.93 62.9023L196.242 63.6203L193.828 71.3904C193.762 71.6038 193.742 71.7804 193.77 71.92C193.8 72.0559 193.865 72.1654 193.966 72.2484C194.071 72.3325 194.201 72.3987 194.356 72.447C194.465 72.4808 194.576 72.5054 194.69 72.521C194.806 72.5331 194.894 72.5426 194.955 72.5497L194.784 74.3827C194.657 74.383 194.482 74.374 194.257 74.3558C194.032 74.3413 193.767 74.2928 193.464 74.2104C192.9 74.0591 192.434 73.8332 192.068 73.5329C191.704 73.2336 191.463 72.869 191.342 72.439C191.222 72.0089 191.249 71.5214 191.422 70.9763L193.93 62.9023Z" fill="#ECE4FC"/>
<path d="M196.562 78.4751C196.269 78.384 196.002 78.2751 195.759 78.1483C195.52 78.0263 195.327 77.905 195.182 77.7846L196.239 76.2209C196.485 76.3884 196.715 76.5095 196.93 76.5841C197.148 76.6599 197.354 76.6683 197.547 76.6092C197.743 76.5512 197.932 76.4077 198.115 76.1788L198.36 75.8682L198.033 66.3663L200.464 67.1214L200.288 73.778L200.375 73.805L204.018 68.2254L206.465 68.9856L200.357 77.2145C200.062 77.6147 199.729 77.9397 199.358 78.1893C198.99 78.4437 198.575 78.5984 198.113 78.6534C197.651 78.7121 197.134 78.6526 196.562 78.4751Z" fill="#ECE4FC"/>
<g filter="url(#filter1_i_5144_337)">
<rect x="71.2515" y="92.6677" width="35" height="150" rx="17.5" transform="rotate(17.2566 71.2515 92.6677)" fill="#535353" fill-opacity="0.1"/>
<g filter="url(#filter2_i_5144_337)">
<rect x="55.9556" y="148.65" width="31" height="90" rx="15.5" transform="rotate(17.2566 55.9556 148.65)" fill="url(#paint0_linear_5144_337)"/>
</g>
<rect opacity="0.3" x="57.4023" y="157.477" width="8" height="74" rx="4" transform="rotate(17.2566 57.4023 157.477)" fill="url(#paint1_linear_5144_337)"/>
</g>
<g filter="url(#filter3_i_5144_337)">
<rect x="118.045" y="107.204" width="35" height="150" rx="17.5" transform="rotate(17.2566 118.045 107.204)" fill="#535353" fill-opacity="0.1"/>
<g filter="url(#filter4_i_5144_337)">
<rect x="85.5439" y="218.575" width="31" height="32" rx="15.5" transform="rotate(17.2566 85.5439 218.575)" fill="url(#paint2_linear_5144_337)"/>
</g>
<rect opacity="0.3" x="86.9907" y="227.402" width="8" height="16" rx="4" transform="rotate(17.2566 86.9907 227.402)" fill="url(#paint3_linear_5144_337)"/>
</g>
<g filter="url(#filter5_i_5144_337)">
<rect x="164.84" y="121.74" width="35" height="150" rx="17.5" transform="rotate(17.2566 164.84 121.74)" fill="#535353" fill-opacity="0.1"/>
<g filter="url(#filter6_i_5144_337)">
<rect x="140.348" y="207.327" width="31" height="59" rx="15.5" transform="rotate(17.2566 140.348 207.327)" fill="url(#paint4_linear_5144_337)"/>
</g>
<rect opacity="0.3" x="141.794" y="216.153" width="8" height="43" rx="4" transform="rotate(17.2566 141.794 216.153)" fill="url(#paint5_linear_5144_337)"/>
</g>
<g filter="url(#filter7_i_5144_337)">
<rect x="211.634" y="136.275" width="35" height="150" rx="17.5" transform="rotate(17.2566 211.634 136.275)" fill="#535353" fill-opacity="0.1"/>
<g filter="url(#filter8_i_5144_337)">
<rect x="202.568" y="172.203" width="31" height="111" rx="15.5" transform="rotate(17.2566 202.568 172.203)" fill="url(#paint6_linear_5144_337)"/>
</g>
<rect opacity="0.3" x="204.015" y="181.03" width="8" height="95" rx="4" transform="rotate(17.2566 204.015 181.03)" fill="url(#paint7_linear_5144_337)"/>
</g>
<g filter="url(#filter9_i_5144_337)">
<rect x="258.429" y="150.811" width="35" height="150" rx="17.5" transform="rotate(17.2566 258.429 150.811)" fill="#535353" fill-opacity="0.1"/>
<g filter="url(#filter10_i_5144_337)">
<rect x="235.124" y="232.578" width="31" height="63" rx="15.5" transform="rotate(17.2566 235.124 232.578)" fill="url(#paint8_linear_5144_337)"/>
</g>
<rect opacity="0.3" x="236.57" y="241.405" width="8" height="47" rx="4" transform="rotate(17.2566 236.57 241.405)" fill="url(#paint9_linear_5144_337)"/>
</g>
<g filter="url(#filter11_i_5144_337)">
<rect x="305.223" y="165.347" width="35" height="150" rx="17.5" transform="rotate(17.2566 305.223 165.347)" fill="#535353" fill-opacity="0.1"/>
<g filter="url(#filter12_i_5144_337)">
<rect x="293.487" y="209.87" width="31" height="102" rx="15.5" transform="rotate(17.2566 293.487 209.87)" fill="url(#paint10_linear_5144_337)"/>
</g>
<rect opacity="0.3" x="294.934" y="218.696" width="8" height="86" rx="4" transform="rotate(17.2566 294.934 218.696)" fill="url(#paint11_linear_5144_337)"/>
</g>
<g filter="url(#filter13_i_5144_337)">
<rect x="352.017" y="179.883" width="35" height="150" rx="17.5" transform="rotate(17.2566 352.017 179.883)" fill="#535353" fill-opacity="0.1"/>
<g filter="url(#filter14_i_5144_337)">
<rect x="344.731" y="210.081" width="31" height="117" rx="15.5" transform="rotate(17.2566 344.731 210.081)" fill="url(#paint12_linear_5144_337)"/>
</g>
<rect opacity="0.3" x="346.178" y="218.907" width="8" height="101" rx="4" transform="rotate(17.2566 346.178 218.907)" fill="url(#paint13_linear_5144_337)"/>
</g>
<path d="M24.6688 247.542L25.0281 246.385L29.3466 242.718L30.3436 243.028L29.8464 244.629L29.2563 244.445L26.5298 246.77L26.513 246.824L30.6334 248.104L30.2679 249.281L24.6688 247.542ZM27.6232 249.798L28.112 248.225L28.2982 247.721L29.8078 242.861L31.1847 243.289L29.0272 250.234L27.6232 249.798Z" fill="white"/>
<path d="M33.3518 251.745C32.7692 251.562 32.3119 251.262 31.9799 250.847C31.6501 250.432 31.4561 249.919 31.3978 249.309C31.3419 248.699 31.433 248.014 31.6712 247.255C31.9065 246.498 32.2189 245.887 32.6085 245.423C33.0003 244.96 33.4486 244.654 33.9532 244.506C34.4608 244.356 35.0051 244.372 35.5862 244.552C36.1672 244.733 36.6233 245.028 36.9545 245.438C37.2879 245.849 37.4848 246.357 37.5451 246.961C37.6062 247.562 37.5179 248.241 37.2804 248.998C37.0437 249.76 36.7284 250.376 36.3345 250.846C35.9428 251.317 35.4936 251.63 34.9869 251.785C34.4801 251.939 33.9351 251.926 33.3518 251.745ZM33.73 250.528C34.1279 250.651 34.5077 250.55 34.8694 250.223C35.2311 249.897 35.5351 249.333 35.7815 248.532C35.9451 248.005 36.0271 247.55 36.0274 247.166C36.03 246.782 35.9604 246.472 35.8184 246.235C35.6788 245.998 35.4767 245.838 35.2122 245.756C34.8165 245.633 34.4386 245.733 34.0783 246.055C33.718 246.377 33.4142 246.932 33.1668 247.72C33.001 248.254 32.9158 248.715 32.9111 249.106C32.9094 249.494 32.9791 249.809 33.1203 250.048C33.2622 250.286 33.4655 250.446 33.73 250.528Z" fill="white"/>
<path d="M39.0927 253.361L40.7108 248.152L42.0877 248.58L41.8022 249.499L41.8632 249.518C42.0665 249.246 42.3222 249.062 42.6302 248.964C42.9382 248.866 43.2685 248.872 43.6212 248.982C43.9784 249.093 44.2548 249.277 44.4503 249.533C44.6464 249.787 44.7393 250.079 44.7288 250.408L44.7831 250.425C44.9821 250.159 45.2483 249.981 45.5819 249.888C45.9184 249.795 46.2777 249.807 46.6598 249.926C47.1459 250.077 47.4923 250.354 47.6991 250.758C47.9088 251.16 47.9258 251.644 47.7503 252.209L46.662 255.712L45.2207 255.265L46.2205 252.046C46.3104 251.757 46.3009 251.516 46.1921 251.324C46.0833 251.131 45.9136 250.999 45.683 250.927C45.4208 250.846 45.1902 250.866 44.9912 250.988C44.793 251.107 44.6518 251.303 44.5675 251.574L43.5794 254.755L42.1788 254.32L43.188 251.071C43.2673 250.815 43.2571 250.589 43.1572 250.392C43.0595 250.196 42.892 250.061 42.6546 249.987C42.4941 249.937 42.3367 249.933 42.1826 249.974C42.0314 250.014 41.896 250.094 41.7765 250.216C41.6576 250.335 41.5684 250.491 41.5087 250.683L40.5374 253.81L39.0927 253.361Z" fill="white"/>
<path d="M47.6122 256.008L49.2303 250.799L50.675 251.247L49.0569 256.456L47.6122 256.008ZM50.1646 250.353C49.9498 250.286 49.7877 250.157 49.6782 249.967C49.5717 249.775 49.5497 249.579 49.6122 249.378C49.674 249.179 49.8027 249.032 49.9985 248.936C50.1971 248.839 50.4039 248.824 50.6187 248.891C50.8334 248.958 50.9941 249.087 51.1006 249.279C51.2101 249.469 51.234 249.663 51.1722 249.862C51.1097 250.064 50.9791 250.213 50.7804 250.31C50.5847 250.405 50.3794 250.419 50.1646 250.353Z" fill="white"/>
<path d="M52.4033 254.194L51.4679 257.205L50.0232 256.757L51.6413 251.547L53.0181 251.975L52.7327 252.894L52.7937 252.913C53.0031 252.646 53.2709 252.466 53.5969 252.374C53.9237 252.28 54.2804 252.293 54.667 252.413C55.0288 252.525 55.3196 252.702 55.5394 252.944C55.7593 253.186 55.8982 253.477 55.9561 253.817C56.0148 254.155 55.9812 254.527 55.8555 254.932L54.8252 258.248L53.3806 257.799L54.3308 254.74C54.432 254.422 54.4279 254.148 54.3183 253.919C54.2095 253.686 54.0104 253.525 53.721 253.436C53.5265 253.375 53.3417 253.364 53.1665 253.401C52.9936 253.439 52.8404 253.525 52.7068 253.66C52.5763 253.793 52.4751 253.971 52.4033 254.194Z" fill="white"/>
<path d="M77.2679 257.604L75.1104 264.55L73.642 264.093L75.3665 258.542L75.3258 258.529L73.4256 259.032L73.8301 257.73L75.8876 257.176L77.2679 257.604Z" fill="white"/>
<path d="M79.2459 266.002C78.6633 265.818 78.206 265.519 77.874 265.103C77.5442 264.688 77.3502 264.176 77.292 263.565C77.236 262.955 77.3271 262.271 77.5654 261.512C77.8006 260.754 78.1131 260.144 78.5026 259.68C78.8945 259.216 79.3427 258.911 79.8473 258.763C80.3549 258.613 80.8993 258.628 81.4803 258.809C82.0613 258.989 82.5174 259.285 82.8486 259.695C83.182 260.106 83.3789 260.613 83.4393 261.217C83.5003 261.818 83.4121 262.498 83.1746 263.254C82.9379 264.016 82.6226 264.632 82.2286 265.102C81.837 265.573 81.3878 265.886 80.881 266.041C80.3743 266.196 79.8292 266.183 79.2459 266.002ZM79.6241 264.784C80.022 264.908 80.4018 264.806 80.7635 264.48C81.1252 264.153 81.4293 263.59 81.6756 262.789C81.8392 262.262 81.9212 261.806 81.9216 261.422C81.9242 261.039 81.8545 260.728 81.7126 260.491C81.5729 260.254 81.3708 260.095 81.1063 260.013C80.7107 259.89 80.3327 259.989 79.9724 260.311C79.6121 260.633 79.3083 261.188 79.0609 261.976C78.8952 262.51 78.81 262.972 78.8053 263.362C78.8035 263.751 78.8733 264.065 79.0145 264.305C79.1564 264.542 79.3596 264.702 79.6241 264.784Z" fill="white"/>
<path d="M84.9868 267.618L86.6049 262.409L87.9818 262.836L87.6963 263.755L87.7573 263.774C87.9607 263.503 88.2163 263.318 88.5243 263.22C88.8323 263.123 89.1627 263.129 89.5154 263.238C89.8726 263.349 90.1489 263.533 90.3444 263.79C90.5406 264.044 90.6334 264.335 90.623 264.664L90.6772 264.681C90.8762 264.416 91.1425 264.237 91.476 264.145C91.8126 264.051 92.1719 264.063 92.554 264.182C93.04 264.333 93.3865 264.611 93.5932 265.014C93.8029 265.417 93.82 265.9 93.6444 266.466L92.5562 269.969L91.1149 269.521L92.1146 266.303C92.2045 266.013 92.195 265.773 92.0863 265.58C91.9775 265.388 91.8078 265.256 91.5772 265.184C91.3149 265.102 91.0843 265.123 90.8854 265.244C90.6872 265.364 90.5459 265.559 90.4616 265.83L89.4735 269.011L88.0729 268.576L89.0821 265.327C89.1615 265.072 89.1512 264.846 89.0513 264.648C88.9536 264.452 88.7861 264.317 88.5487 264.243C88.3882 264.193 88.2309 264.189 88.0767 264.23C87.9255 264.27 87.7902 264.351 87.6706 264.472C87.5518 264.592 87.4625 264.747 87.4028 264.94L86.4315 268.066L84.9868 267.618Z" fill="white"/>
<path d="M93.5063 270.264L95.1244 265.055L96.5691 265.504L94.951 270.713L93.5063 270.264ZM96.0588 264.609C95.844 264.542 95.6818 264.414 95.5724 264.224C95.4658 264.032 95.4438 263.835 95.5063 263.634C95.5681 263.435 95.6969 263.288 95.8926 263.193C96.0913 263.096 96.298 263.081 96.5128 263.147C96.7276 263.214 96.8882 263.343 96.9948 263.535C97.1043 263.725 97.1281 263.92 97.0663 264.119C97.0038 264.32 96.8732 264.469 96.6745 264.566C96.4788 264.661 96.2735 264.676 96.0588 264.609Z" fill="white"/>
<path d="M98.2975 268.45L97.362 271.462L95.9173 271.013L97.5354 265.804L98.9123 266.232L98.6268 267.151L98.6878 267.17C98.8972 266.902 99.165 266.723 99.4911 266.631C99.8179 266.536 100.175 266.549 100.561 266.669C100.923 266.782 101.214 266.959 101.434 267.201C101.653 267.443 101.792 267.734 101.85 268.074C101.909 268.412 101.875 268.783 101.75 269.188L100.719 272.505L99.2747 272.056L100.225 268.997C100.326 268.679 100.322 268.405 100.212 268.175C100.104 267.943 99.9045 267.782 99.6151 267.692C99.4207 267.632 99.2359 267.62 99.0607 267.657C98.8877 267.695 98.7345 267.782 98.601 267.916C98.4704 268.049 98.3693 268.227 98.2975 268.45Z" fill="white"/>
<path d="M120.609 278.787C120.103 278.63 119.679 278.403 119.337 278.106C118.999 277.807 118.763 277.469 118.63 277.09C118.5 276.711 118.495 276.317 118.614 275.91L120.092 276.37C120.049 276.542 120.058 276.708 120.12 276.869C120.184 277.028 120.292 277.169 120.442 277.292C120.592 277.416 120.774 277.511 120.989 277.578C121.213 277.647 121.423 277.669 121.619 277.643C121.816 277.618 121.984 277.55 122.125 277.44C122.266 277.33 122.365 277.183 122.422 277C122.479 276.815 122.478 276.635 122.418 276.46C122.361 276.284 122.25 276.125 122.083 275.984C121.918 275.843 121.705 275.733 121.442 275.651L120.795 275.45L121.13 274.371L121.777 274.573C121.999 274.641 122.206 274.664 122.4 274.64C122.596 274.616 122.762 274.551 122.899 274.445C123.037 274.337 123.134 274.191 123.191 274.008C123.245 273.834 123.251 273.668 123.208 273.511C123.168 273.352 123.085 273.213 122.959 273.092C122.835 272.971 122.675 272.881 122.478 272.82C122.279 272.758 122.086 272.737 121.898 272.758C121.712 272.777 121.548 272.837 121.408 272.937C121.268 273.037 121.167 273.174 121.105 273.349L119.698 272.912C119.829 272.513 120.053 272.196 120.369 271.96C120.685 271.723 121.058 271.578 121.487 271.522C121.918 271.466 122.372 271.511 122.846 271.658C123.326 271.807 123.718 272.025 124.023 272.31C124.329 272.596 124.535 272.918 124.642 273.276C124.752 273.632 124.749 273.993 124.633 274.359C124.514 274.748 124.292 275.035 123.967 275.219C123.645 275.404 123.278 275.471 122.868 275.421L122.851 275.475C123.341 275.699 123.675 275.998 123.852 276.37C124.032 276.74 124.053 277.141 123.917 277.573C123.796 277.969 123.573 278.285 123.247 278.521C122.923 278.757 122.533 278.901 122.075 278.953C121.618 279.004 121.129 278.949 120.609 278.787Z" fill="white"/>
<path d="M126.852 280.79C126.269 280.606 125.812 280.307 125.48 279.891C125.15 279.476 124.956 278.964 124.898 278.353C124.842 277.743 124.933 277.059 125.171 276.3C125.406 275.543 125.719 274.932 126.108 274.468C126.5 274.004 126.948 273.699 127.453 273.551C127.961 273.401 128.505 273.416 129.086 273.597C129.667 273.777 130.123 274.073 130.454 274.483C130.788 274.894 130.985 275.401 131.045 276.005C131.106 276.607 131.018 277.286 130.78 278.042C130.544 278.804 130.228 279.42 129.834 279.89C129.443 280.361 128.993 280.674 128.487 280.829C127.98 280.984 127.435 280.971 126.852 280.79ZM127.23 279.572C127.628 279.696 128.008 279.594 128.369 279.268C128.731 278.941 129.035 278.378 129.281 277.577C129.445 277.05 129.527 276.594 129.527 276.21C129.53 275.827 129.46 275.516 129.318 275.279C129.179 275.042 128.977 274.883 128.712 274.801C128.316 274.678 127.938 274.777 127.578 275.099C127.218 275.421 126.914 275.976 126.667 276.764C126.501 277.298 126.416 277.76 126.411 278.15C126.409 278.539 126.479 278.853 126.62 279.093C126.762 279.33 126.965 279.49 127.23 279.572Z" fill="white"/>
<path d="M132.593 282.406L134.211 277.197L135.588 277.624L135.302 278.543L135.363 278.562C135.566 278.291 135.822 278.106 136.13 278.008C136.438 277.911 136.768 277.917 137.121 278.026C137.478 278.137 137.755 278.321 137.95 278.578C138.146 278.832 138.239 279.123 138.229 279.452L138.283 279.469C138.482 279.204 138.748 279.025 139.082 278.933C139.418 278.839 139.778 278.851 140.16 278.97C140.646 279.121 140.992 279.399 141.199 279.802C141.409 280.205 141.426 280.688 141.25 281.254L140.162 284.757L138.721 284.309L139.72 281.091C139.81 280.801 139.801 280.561 139.692 280.368C139.583 280.176 139.413 280.044 139.183 279.972C138.921 279.89 138.69 279.911 138.491 280.032C138.293 280.152 138.152 280.347 138.067 280.618L137.079 283.799L135.679 283.364L136.688 280.115C136.767 279.86 136.757 279.634 136.657 279.436C136.559 279.24 136.392 279.105 136.154 279.031C135.994 278.981 135.837 278.977 135.682 279.018C135.531 279.058 135.396 279.139 135.276 279.26C135.157 279.38 135.068 279.535 135.009 279.728L134.037 282.854L132.593 282.406Z" fill="white"/>
<path d="M141.112 285.052L142.73 279.843L144.175 280.292L142.557 285.501L141.112 285.052ZM143.664 279.397C143.45 279.33 143.288 279.202 143.178 279.012C143.072 278.82 143.05 278.623 143.112 278.422C143.174 278.223 143.303 278.076 143.498 277.981C143.697 277.884 143.904 277.869 144.119 277.935C144.333 278.002 144.494 278.131 144.6 278.323C144.71 278.513 144.734 278.708 144.672 278.907C144.61 279.108 144.479 279.257 144.28 279.354C144.085 279.449 143.879 279.464 143.664 279.397Z" fill="white"/>
<path d="M145.903 283.238L144.968 286.25L143.523 285.801L145.141 280.592L146.518 281.02L146.233 281.939L146.294 281.958C146.503 281.691 146.771 281.511 147.097 281.419C147.424 281.325 147.78 281.337 148.167 281.457C148.529 281.57 148.819 281.747 149.039 281.989C149.259 282.231 149.398 282.522 149.456 282.862C149.515 283.2 149.481 283.571 149.355 283.976L148.325 287.293L146.88 286.844L147.831 283.785C147.932 283.467 147.928 283.193 147.818 282.963C147.709 282.731 147.51 282.57 147.221 282.48C147.026 282.42 146.842 282.408 146.666 282.445C146.493 282.483 146.34 282.57 146.207 282.704C146.076 282.837 145.975 283.015 145.903 283.238Z" fill="white"/>
<path d="M167.578 293.377C167.099 293.228 166.699 293.008 166.378 292.715C166.06 292.422 165.84 292.087 165.716 291.71C165.593 291.332 165.589 290.941 165.705 290.538L167.129 290.981C167.061 291.255 167.107 291.508 167.265 291.741C167.423 291.973 167.647 292.134 167.936 292.224C168.167 292.296 168.386 292.308 168.594 292.261C168.805 292.213 168.989 292.112 169.145 291.96C169.304 291.806 169.421 291.61 169.496 291.37C169.572 291.126 169.586 290.895 169.54 290.677C169.496 290.46 169.399 290.272 169.251 290.111C169.102 289.951 168.912 289.834 168.68 289.759C168.476 289.696 168.265 289.676 168.047 289.7C167.831 289.725 167.648 289.793 167.497 289.905L166.264 289.265L167.73 285.705L171.976 287.024L171.603 288.224L168.568 287.282L167.848 288.965L167.889 288.978C168.064 288.844 168.293 288.759 168.574 288.723C168.856 288.686 169.149 288.715 169.454 288.81C169.873 288.94 170.215 289.154 170.482 289.453C170.749 289.751 170.924 290.102 171.007 290.504C171.091 290.905 171.062 291.327 170.922 291.772C170.778 292.241 170.541 292.623 170.208 292.919C169.879 293.213 169.486 293.404 169.031 293.49C168.578 293.575 168.094 293.537 167.578 293.377Z" fill="white"/>
<path d="M173.671 295.27C173.315 295.157 172.989 294.99 172.693 294.769C172.399 294.549 172.162 294.266 171.982 293.92C171.802 293.574 171.703 293.159 171.685 292.675C171.669 292.191 171.76 291.632 171.957 290.997C172.14 290.414 172.369 289.914 172.643 289.495C172.919 289.076 173.231 288.744 173.577 288.499C173.925 288.255 174.298 288.103 174.696 288.044C175.095 287.982 175.509 288.017 175.939 288.151C176.402 288.295 176.783 288.512 177.082 288.803C177.381 289.092 177.591 289.424 177.71 289.798C177.832 290.173 177.856 290.558 177.782 290.954L176.334 290.505C176.353 290.245 176.293 290.018 176.155 289.824C176.017 289.63 175.815 289.492 175.548 289.409C175.096 289.268 174.691 289.358 174.334 289.679C173.978 290 173.694 290.497 173.479 291.172L173.527 291.187C173.695 291.013 173.889 290.882 174.11 290.792C174.335 290.7 174.572 290.651 174.822 290.645C175.075 290.636 175.328 290.672 175.581 290.75C175.992 290.878 176.329 291.089 176.589 291.383C176.851 291.675 177.022 292.018 177.102 292.413C177.183 292.807 177.156 293.222 177.021 293.656C176.875 294.126 176.636 294.51 176.302 294.808C175.972 295.107 175.578 295.3 175.123 295.386C174.67 295.471 174.186 295.432 173.671 295.27ZM174.023 294.115C174.249 294.185 174.468 294.194 174.68 294.141C174.893 294.088 175.078 293.984 175.238 293.83C175.397 293.677 175.513 293.484 175.584 293.254C175.656 293.023 175.669 292.801 175.624 292.586C175.582 292.372 175.489 292.183 175.347 292.02C175.204 291.857 175.02 291.74 174.793 291.67C174.624 291.617 174.457 291.6 174.293 291.618C174.13 291.637 173.978 291.686 173.834 291.766C173.693 291.846 173.568 291.951 173.461 292.081C173.354 292.209 173.275 292.357 173.223 292.524C173.153 292.748 173.141 292.968 173.185 293.185C173.231 293.403 173.325 293.595 173.467 293.76C173.611 293.926 173.797 294.045 174.023 294.115Z" fill="white"/>
<path d="M179.181 296.878L180.8 291.669L182.176 292.096L181.891 293.015L181.952 293.034C182.155 292.763 182.411 292.578 182.719 292.48C183.027 292.383 183.357 292.389 183.71 292.498C184.067 292.609 184.344 292.793 184.539 293.05C184.735 293.304 184.828 293.596 184.818 293.924L184.872 293.941C185.071 293.676 185.337 293.497 185.671 293.405C186.007 293.311 186.367 293.324 186.749 293.442C187.235 293.593 187.581 293.871 187.788 294.274C187.998 294.677 188.015 295.16 187.839 295.726L186.751 299.229L185.31 298.781L186.309 295.563C186.399 295.273 186.39 295.033 186.281 294.84C186.172 294.648 186.002 294.516 185.772 294.444C185.51 294.362 185.279 294.383 185.08 294.504C184.882 294.624 184.741 294.819 184.656 295.09L183.668 298.271L182.268 297.836L183.277 294.587C183.356 294.332 183.346 294.106 183.246 293.908C183.148 293.712 182.981 293.577 182.743 293.503C182.583 293.453 182.426 293.449 182.271 293.49C182.12 293.53 181.985 293.611 181.865 293.732C181.746 293.852 181.657 294.007 181.597 294.2L180.626 297.326L179.181 296.878Z" fill="white"/>
<path d="M187.701 299.524L189.319 294.315L190.764 294.764L189.146 299.973L187.701 299.524ZM190.253 293.869C190.039 293.802 189.876 293.674 189.767 293.484C189.66 293.292 189.638 293.095 189.701 292.894C189.763 292.695 189.892 292.548 190.087 292.453C190.286 292.356 190.493 292.341 190.707 292.407C190.922 292.474 191.083 292.603 191.189 292.795C191.299 292.985 191.323 293.18 191.261 293.379C191.198 293.58 191.068 293.729 190.869 293.826C190.673 293.921 190.468 293.936 190.253 293.869Z" fill="white"/>
<path d="M192.492 297.71L191.557 300.722L190.112 300.273L191.73 295.064L193.107 295.492L192.821 296.411L192.882 296.43C193.092 296.163 193.36 295.983 193.686 295.891C194.012 295.797 194.369 295.809 194.756 295.929C195.118 296.042 195.408 296.219 195.628 296.461C195.848 296.703 195.987 296.994 196.045 297.334C196.104 297.672 196.07 298.043 195.944 298.448L194.914 301.765L193.469 301.316L194.42 298.257C194.521 297.939 194.517 297.665 194.407 297.435C194.298 297.203 194.099 297.042 193.81 296.952C193.615 296.892 193.43 296.88 193.255 296.917C193.082 296.955 192.929 297.042 192.796 297.176C192.665 297.309 192.564 297.487 192.492 297.71Z" fill="white"/>
<path d="M214.478 307.946C213.971 307.789 213.547 307.562 213.206 307.265C212.867 306.966 212.631 306.628 212.498 306.249C212.369 305.869 212.363 305.476 212.482 305.069L213.961 305.528C213.917 305.701 213.926 305.867 213.988 306.028C214.052 306.186 214.16 306.328 214.31 306.451C214.46 306.575 214.642 306.67 214.857 306.736C215.081 306.806 215.291 306.828 215.487 306.802C215.684 306.776 215.852 306.708 215.993 306.598C216.134 306.489 216.233 306.342 216.29 306.159C216.347 305.973 216.346 305.793 216.286 305.619C216.23 305.442 216.118 305.284 215.951 305.143C215.786 305.002 215.573 304.891 215.311 304.81L214.663 304.609L214.998 303.53L215.646 303.731C215.867 303.8 216.075 303.822 216.268 303.798C216.464 303.775 216.63 303.71 216.767 303.604C216.905 303.495 217.002 303.35 217.059 303.166C217.113 302.992 217.119 302.827 217.076 302.67C217.036 302.511 216.953 302.371 216.827 302.25C216.703 302.13 216.543 302.039 216.346 301.978C216.147 301.916 215.954 301.896 215.767 301.917C215.58 301.936 215.416 301.995 215.276 302.096C215.136 302.196 215.035 302.333 214.973 302.507L213.566 302.07C213.697 301.672 213.921 301.355 214.237 301.119C214.554 300.882 214.926 300.736 215.355 300.681C215.786 300.624 216.24 300.67 216.714 300.817C217.194 300.966 217.586 301.183 217.892 301.469C218.197 301.755 218.403 302.077 218.51 302.435C218.62 302.791 218.617 303.152 218.501 303.518C218.382 303.907 218.161 304.194 217.836 304.378C217.513 304.563 217.146 304.63 216.736 304.579L216.719 304.634C217.209 304.858 217.543 305.156 217.72 305.528C217.9 305.899 217.922 306.3 217.785 306.731C217.665 307.128 217.441 307.444 217.115 307.68C216.791 307.916 216.401 308.06 215.943 308.111C215.486 308.163 214.998 308.108 214.478 307.946Z" fill="white"/>
<path d="M218.044 308.95L218.373 307.892L221.556 306.371C221.829 306.232 222.063 306.104 222.256 305.985C222.451 305.868 222.61 305.742 222.733 305.609C222.857 305.474 222.947 305.315 223.004 305.132C223.067 304.929 223.075 304.739 223.028 304.563C222.982 304.385 222.891 304.232 222.755 304.103C222.62 303.972 222.45 303.874 222.247 303.811C222.034 303.745 221.836 303.73 221.651 303.767C221.466 303.804 221.305 303.889 221.17 304.023C221.034 304.157 220.932 304.335 220.863 304.556L219.469 304.123C219.61 303.669 219.836 303.306 220.145 303.036C220.455 302.765 220.824 302.596 221.251 302.528C221.679 302.46 222.135 302.501 222.618 302.651C223.116 302.806 223.521 303.028 223.835 303.319C224.152 303.608 224.365 303.94 224.474 304.313C224.584 304.687 224.577 305.074 224.452 305.474C224.371 305.736 224.238 305.979 224.055 306.202C223.874 306.426 223.604 306.653 223.245 306.884C222.886 307.112 222.401 307.369 221.789 307.655L220.466 308.334L220.452 308.381L223.368 309.287L222.995 310.488L218.044 308.95Z" fill="white"/>
<path d="M225.901 311.39L227.519 306.181L228.896 306.609L228.611 307.528L228.672 307.547C228.875 307.276 229.131 307.091 229.439 306.993C229.747 306.896 230.077 306.902 230.43 307.011C230.787 307.122 231.063 307.306 231.259 307.562C231.455 307.817 231.548 308.108 231.537 308.437L231.592 308.454C231.791 308.189 232.057 308.01 232.39 307.918C232.727 307.824 233.086 307.836 233.468 307.955C233.954 308.106 234.301 308.383 234.508 308.787C234.717 309.19 234.734 309.673 234.559 310.239L233.47 313.742L232.029 313.294L233.029 310.076C233.119 309.786 233.109 309.545 233.001 309.353C232.892 309.16 232.722 309.028 232.491 308.957C232.229 308.875 231.999 308.895 231.8 309.017C231.601 309.136 231.46 309.332 231.376 309.603L230.388 312.784L228.987 312.349L229.996 309.1C230.076 308.845 230.066 308.618 229.966 308.421C229.868 308.225 229.7 308.09 229.463 308.016C229.303 307.966 229.145 307.962 228.991 308.003C228.84 308.043 228.704 308.124 228.585 308.245C228.466 308.365 228.377 308.52 228.317 308.712L227.346 311.839L225.901 311.39Z" fill="white"/>
<path d="M234.421 314.037L236.039 308.828L237.483 309.277L235.865 314.486L234.421 314.037ZM236.973 308.382C236.758 308.315 236.596 308.187 236.487 307.996C236.38 307.805 236.358 307.608 236.421 307.407C236.482 307.208 236.611 307.061 236.807 306.966C237.006 306.869 237.212 306.853 237.427 306.92C237.642 306.987 237.803 307.116 237.909 307.308C238.019 307.498 238.042 307.693 237.981 307.892C237.918 308.093 237.788 308.242 237.589 308.339C237.393 308.434 237.188 308.449 236.973 308.382Z" fill="white"/>
<path d="M239.212 312.223L238.276 315.235L236.832 314.786L238.45 309.577L239.827 310.005L239.541 310.924L239.602 310.943C239.812 310.675 240.079 310.496 240.405 310.404C240.732 310.309 241.089 310.322 241.475 310.442C241.837 310.555 242.128 310.732 242.348 310.974C242.568 311.215 242.707 311.507 242.765 311.847C242.823 312.185 242.79 312.556 242.664 312.961L241.634 316.278L240.189 315.829L241.139 312.77C241.241 312.452 241.236 312.178 241.127 311.948C241.018 311.716 240.819 311.555 240.529 311.465C240.335 311.404 240.15 311.393 239.975 311.43C239.802 311.468 239.649 311.554 239.515 311.689C239.385 311.822 239.284 312 239.212 312.223Z" fill="white"/>
<path d="M261.083 322.423C260.604 322.274 260.204 322.053 259.883 321.761C259.565 321.468 259.344 321.133 259.221 320.755C259.098 320.378 259.094 319.987 259.21 319.584L260.634 320.027C260.566 320.301 260.611 320.554 260.77 320.786C260.928 321.019 261.152 321.18 261.441 321.27C261.672 321.342 261.891 321.354 262.099 321.307C262.31 321.259 262.494 321.158 262.65 321.006C262.809 320.852 262.926 320.656 263.001 320.416C263.077 320.172 263.091 319.941 263.045 319.723C263.001 319.506 262.904 319.318 262.756 319.157C262.607 318.997 262.417 318.88 262.185 318.805C261.981 318.742 261.77 318.722 261.552 318.746C261.336 318.771 261.153 318.839 261.002 318.951L259.769 318.311L261.235 314.751L265.481 316.07L265.108 317.27L262.073 316.327L261.353 318.011L261.394 318.024C261.569 317.89 261.798 317.805 262.079 317.768C262.361 317.732 262.654 317.761 262.959 317.856C263.378 317.986 263.72 318.2 263.987 318.499C264.253 318.797 264.428 319.148 264.512 319.55C264.595 319.951 264.567 320.373 264.426 320.818C264.283 321.287 264.046 321.669 263.713 321.965C263.384 322.259 262.991 322.45 262.535 322.536C262.083 322.621 261.599 322.583 261.083 322.423Z" fill="white"/>
<path d="M264.814 322.139L265.173 320.983L269.492 317.316L270.489 317.625L269.992 319.226L269.402 319.043L266.675 321.368L266.658 321.422L270.779 322.702L270.413 323.879L264.814 322.139ZM267.769 324.396L268.257 322.822L268.444 322.319L269.953 317.459L271.33 317.887L269.173 324.832L267.769 324.396Z" fill="white"/>
<path d="M272.854 325.976L274.472 320.767L275.849 321.194L275.564 322.113L275.625 322.132C275.828 321.861 276.084 321.676 276.392 321.579C276.7 321.481 277.03 321.487 277.383 321.596C277.74 321.707 278.016 321.891 278.212 322.148C278.408 322.402 278.501 322.694 278.49 323.022L278.545 323.039C278.744 322.774 279.01 322.595 279.343 322.503C279.68 322.409 280.039 322.422 280.421 322.54C280.907 322.691 281.254 322.969 281.461 323.372C281.67 323.775 281.687 324.259 281.512 324.824L280.424 328.327L278.982 327.879L279.982 324.661C280.072 324.372 280.062 324.131 279.954 323.938C279.845 323.746 279.675 323.614 279.445 323.542C279.182 323.461 278.952 323.481 278.753 323.602C278.555 323.722 278.413 323.917 278.329 324.188L277.341 327.369L275.94 326.934L276.949 323.685C277.029 323.43 277.019 323.204 276.919 323.007C276.821 322.81 276.654 322.675 276.416 322.601C276.256 322.551 276.098 322.547 275.944 322.589C275.793 322.628 275.658 322.709 275.538 322.831C275.419 322.95 275.33 323.105 275.27 323.298L274.299 326.424L272.854 325.976Z" fill="white"/>
<path d="M281.374 328.622L282.992 323.413L284.437 323.862L282.818 329.071L281.374 328.622ZM283.926 322.967C283.711 322.9 283.549 322.772 283.44 322.582C283.333 322.39 283.311 322.193 283.374 321.992C283.435 321.793 283.564 321.646 283.76 321.551C283.959 321.454 284.165 321.439 284.38 321.505C284.595 321.572 284.756 321.701 284.862 321.893C284.972 322.083 284.995 322.278 284.934 322.477C284.871 322.678 284.741 322.827 284.542 322.924C284.346 323.019 284.141 323.034 283.926 322.967Z" fill="white"/>
<path d="M286.165 326.808L285.229 329.82L283.785 329.371L285.403 324.162L286.78 324.59L286.494 325.509L286.555 325.528C286.765 325.261 287.032 325.081 287.358 324.989C287.685 324.895 288.042 324.907 288.429 325.028C288.79 325.14 289.081 325.317 289.301 325.559C289.521 325.801 289.66 326.092 289.718 326.432C289.776 326.77 289.743 327.141 289.617 327.546L288.587 330.863L287.142 330.414L288.092 327.355C288.194 327.037 288.189 326.763 288.08 326.533C287.971 326.301 287.772 326.14 287.482 326.05C287.288 325.99 287.103 325.978 286.928 326.015C286.755 326.053 286.602 326.14 286.468 326.274C286.338 326.407 286.237 326.585 286.165 326.808Z" fill="white"/>
<path d="M308.16 337.047C307.804 336.934 307.477 336.767 307.182 336.546C306.888 336.326 306.651 336.043 306.471 335.697C306.291 335.351 306.192 334.936 306.174 334.452C306.158 333.968 306.249 333.409 306.446 332.774C306.629 332.191 306.858 331.69 307.132 331.272C307.408 330.852 307.72 330.52 308.066 330.276C308.414 330.032 308.787 329.88 309.185 329.82C309.584 329.758 309.998 329.794 310.427 329.927C310.891 330.071 311.272 330.289 311.571 330.58C311.87 330.869 312.08 331.2 312.199 331.575C312.32 331.95 312.345 332.335 312.271 332.731L310.823 332.281C310.842 332.022 310.782 331.795 310.644 331.601C310.506 331.407 310.303 331.268 310.037 331.186C309.584 331.045 309.18 331.135 308.822 331.455C308.467 331.776 308.183 332.274 307.968 332.949L308.016 332.964C308.183 332.79 308.378 332.659 308.599 332.569C308.824 332.477 309.061 332.428 309.311 332.421C309.564 332.413 309.817 332.448 310.07 332.527C310.481 332.655 310.817 332.866 311.078 333.16C311.339 333.452 311.51 333.795 311.591 334.19C311.672 334.584 311.645 334.998 311.51 335.432C311.364 335.903 311.124 336.287 310.791 336.585C310.46 336.884 310.067 337.077 309.611 337.163C309.159 337.248 308.675 337.209 308.16 337.047ZM308.512 335.892C308.738 335.962 308.957 335.971 309.169 335.917C309.381 335.864 309.567 335.761 309.727 335.607C309.886 335.453 310.001 335.261 310.073 335.031C310.145 334.8 310.158 334.577 310.113 334.363C310.071 334.149 309.978 333.96 309.835 333.797C309.693 333.633 309.508 333.517 309.282 333.446C309.113 333.394 308.946 333.377 308.781 333.395C308.619 333.414 308.466 333.463 308.323 333.542C308.181 333.623 308.057 333.728 307.95 333.858C307.843 333.986 307.764 334.134 307.712 334.301C307.642 334.525 307.629 334.745 307.674 334.962C307.72 335.18 307.814 335.371 307.956 335.537C308.1 335.703 308.285 335.821 308.512 335.892Z" fill="white"/>
<path d="M311.637 338.023L311.966 336.965L315.149 335.444C315.423 335.306 315.656 335.177 315.849 335.059C316.044 334.941 316.204 334.815 316.327 334.683C316.45 334.548 316.541 334.388 316.598 334.205C316.661 334.002 316.669 333.812 316.622 333.636C316.576 333.458 316.484 333.305 316.348 333.176C316.213 333.045 316.044 332.947 315.84 332.884C315.628 332.818 315.429 332.804 315.244 332.84C315.059 332.877 314.899 332.962 314.763 333.096C314.627 333.23 314.525 333.408 314.456 333.629L313.062 333.196C313.204 332.742 313.429 332.379 313.739 332.109C314.048 331.838 314.417 331.669 314.845 331.601C315.272 331.533 315.728 331.574 316.212 331.724C316.709 331.879 317.115 332.101 317.429 332.392C317.745 332.681 317.958 333.013 318.068 333.387C318.177 333.76 318.17 334.147 318.046 334.547C317.964 334.81 317.832 335.052 317.649 335.275C317.467 335.499 317.197 335.727 316.838 335.957C316.48 336.185 315.994 336.442 315.383 336.728L314.06 337.407L314.045 337.454L316.962 338.36L316.589 339.561L311.637 338.023Z" fill="white"/>
<path d="M319.495 340.464L321.113 335.255L322.49 335.682L322.204 336.601L322.265 336.62C322.468 336.349 322.724 336.164 323.032 336.067C323.34 335.969 323.67 335.975 324.023 336.084C324.38 336.195 324.657 336.379 324.852 336.636C325.048 336.89 325.141 337.182 325.131 337.51L325.185 337.527C325.384 337.262 325.65 337.083 325.984 336.991C326.32 336.897 326.68 336.91 327.062 337.028C327.548 337.179 327.894 337.457 328.101 337.86C328.311 338.263 328.328 338.746 328.152 339.312L327.064 342.815L325.623 342.367L326.622 339.149C326.712 338.859 326.703 338.619 326.594 338.426C326.485 338.234 326.316 338.102 326.085 338.03C325.823 337.949 325.592 337.969 325.393 338.09C325.195 338.21 325.054 338.405 324.969 338.676L323.981 341.857L322.581 341.422L323.59 338.173C323.669 337.918 323.659 337.692 323.559 337.494C323.461 337.298 323.294 337.163 323.057 337.089C322.896 337.039 322.739 337.035 322.585 337.076C322.433 337.116 322.298 337.197 322.178 337.318C322.06 337.438 321.97 337.593 321.911 337.786L320.939 340.912L319.495 340.464Z" fill="white"/>
<path d="M328.014 343.11L329.632 337.901L331.077 338.35L329.459 343.559L328.014 343.11ZM330.567 337.455C330.352 337.388 330.19 337.26 330.08 337.07C329.974 336.878 329.952 336.681 330.014 336.48C330.076 336.281 330.205 336.134 330.4 336.039C330.599 335.942 330.806 335.927 331.021 335.993C331.235 336.06 331.396 336.189 331.503 336.381C331.612 336.571 331.636 336.766 331.574 336.965C331.512 337.166 331.381 337.315 331.182 337.412C330.987 337.507 330.781 337.522 330.567 337.455Z" fill="white"/>
<path d="M332.805 341.296L331.87 344.308L330.425 343.859L332.043 338.65L333.42 339.078L333.135 339.997L333.196 340.016C333.405 339.749 333.673 339.569 333.999 339.477C334.326 339.383 334.682 339.395 335.069 339.516C335.431 339.628 335.722 339.805 335.941 340.047C336.161 340.289 336.3 340.58 336.358 340.92C336.417 341.258 336.383 341.629 336.257 342.034L335.227 345.351L333.782 344.902L334.733 341.843C334.834 341.525 334.83 341.251 334.72 341.021C334.611 340.789 334.412 340.628 334.123 340.538C333.928 340.478 333.744 340.466 333.568 340.503C333.396 340.541 333.242 340.628 333.109 340.762C332.978 340.895 332.877 341.073 332.805 341.296Z" fill="white"/>
<path d="M89.4526 76.9028L91.1059 77.4164L91.8001 85.3279L91.9059 85.3608L96.9606 79.2351L98.6139 79.7486L95.8092 88.7776L94.513 88.3749L96.5426 81.8413L96.4588 81.8153L91.7705 87.5085L90.6948 87.1744L90.0588 79.8224L89.975 79.7964L87.9441 86.3344L86.6479 85.9318L89.4526 76.9028Z" fill="white" fill-opacity="0.6"/>
<path d="M136.965 92.9476L137.329 91.7749L144.317 93.9455L143.953 95.1182L141.135 94.2431L138.695 102.099L137.337 101.678L139.778 93.8213L136.965 92.9476Z" fill="white" fill-opacity="0.6"/>
<path d="M181.507 115.398L181.808 105.592L183.24 106.037L182.827 113.575L182.911 113.601L186.913 107.177L188.332 107.618L187.989 115.183L188.072 115.209L192 108.758L193.438 109.204L188.124 117.454L186.753 117.028L186.954 109.675L186.883 109.653L182.883 115.826L181.507 115.398Z" fill="white" fill-opacity="0.6"/>
<path d="M230.553 122.019L230.917 120.847L237.905 123.017L237.541 124.19L234.724 123.315L232.283 131.171L230.926 130.749L233.366 122.893L230.553 122.019Z" fill="white" fill-opacity="0.6"/>
<path d="M275.759 144.676L278.563 135.647L284.162 137.386L283.798 138.559L279.561 137.243L278.707 139.994L282.542 141.186L282.18 142.354L278.344 141.162L277.121 145.099L275.759 144.676Z" fill="white" fill-opacity="0.6"/>
<path d="M329.188 153.974C329.27 153.542 329.177 153.158 328.907 152.823C328.638 152.485 328.245 152.235 327.728 152.075C327.357 151.96 327.019 151.919 326.712 151.953C326.406 151.983 326.146 152.077 325.934 152.233C325.725 152.387 325.58 152.592 325.501 152.848C325.434 153.062 325.427 153.263 325.478 153.45C325.533 153.637 325.626 153.81 325.758 153.967C325.893 154.122 326.045 154.264 326.215 154.394C326.385 154.521 326.551 154.634 326.714 154.733L327.524 155.236C327.79 155.396 328.056 155.583 328.321 155.798C328.587 156.012 328.818 156.258 329.015 156.535C329.213 156.813 329.346 157.121 329.414 157.462C329.485 157.803 329.458 158.176 329.332 158.582C329.173 159.093 328.9 159.506 328.512 159.821C328.127 160.136 327.649 160.331 327.079 160.405C326.511 160.48 325.874 160.408 325.169 160.189C324.493 159.979 323.941 159.69 323.514 159.322C323.087 158.954 322.795 158.53 322.638 158.049C322.482 157.566 322.474 157.048 322.613 156.495L323.98 156.919C323.905 157.254 323.926 157.558 324.044 157.833C324.165 158.106 324.355 158.341 324.613 158.537C324.875 158.731 325.181 158.883 325.531 158.991C325.916 159.111 326.277 159.157 326.614 159.13C326.955 159.1 327.246 159.004 327.487 158.84C327.729 158.674 327.896 158.443 327.987 158.15C328.07 157.882 328.062 157.639 327.962 157.421C327.865 157.204 327.705 157 327.481 156.808C327.26 156.617 327.001 156.428 326.704 156.243L325.727 155.62C325.065 155.199 324.582 154.731 324.278 154.218C323.976 153.705 323.923 153.134 324.118 152.505C324.28 151.985 324.562 151.575 324.965 151.274C325.367 150.974 325.843 150.792 326.392 150.727C326.941 150.659 327.519 150.719 328.124 150.907C328.736 151.097 329.242 151.372 329.642 151.732C330.046 152.092 330.325 152.503 330.478 152.963C330.633 153.42 330.64 153.893 330.501 154.382L329.188 153.974Z" fill="white" fill-opacity="0.6"/>
<path d="M375.982 168.509C376.065 168.078 375.971 167.694 375.701 167.359C375.433 167.021 375.04 166.771 374.522 166.611C374.152 166.496 373.813 166.455 373.506 166.488C373.2 166.519 372.941 166.612 372.728 166.769C372.519 166.923 372.375 167.128 372.295 167.384C372.229 167.598 372.221 167.799 372.273 167.986C372.327 168.173 372.42 168.346 372.552 168.503C372.688 168.658 372.84 168.8 373.009 168.93C373.179 169.057 373.345 169.17 373.508 169.269L374.319 169.772C374.585 169.932 374.85 170.119 375.116 170.334C375.381 170.548 375.612 170.794 375.81 171.071C376.007 171.349 376.14 171.657 376.209 171.998C376.28 172.339 376.252 172.712 376.126 173.118C375.968 173.629 375.694 174.042 375.307 174.357C374.922 174.672 374.444 174.867 373.873 174.941C373.305 175.016 372.668 174.944 371.963 174.725C371.287 174.515 370.735 174.226 370.308 173.858C369.881 173.49 369.589 173.066 369.432 172.585C369.276 172.102 369.268 171.583 369.408 171.031L370.774 171.455C370.699 171.79 370.721 172.094 370.838 172.369C370.96 172.642 371.15 172.877 371.408 173.073C371.67 173.267 371.976 173.419 372.325 173.527C372.71 173.647 373.071 173.693 373.409 173.666C373.75 173.636 374.041 173.54 374.282 173.376C374.524 173.21 374.69 172.979 374.782 172.685C374.865 172.418 374.856 172.175 374.756 171.957C374.659 171.74 374.499 171.536 374.275 171.344C374.054 171.153 373.795 170.964 373.498 170.779L372.522 170.156C371.86 169.735 371.377 169.267 371.072 168.754C370.771 168.241 370.717 167.67 370.913 167.041C371.074 166.521 371.357 166.111 371.759 165.81C372.162 165.51 372.638 165.327 373.186 165.263C373.736 165.195 374.313 165.255 374.919 165.443C375.53 165.633 376.036 165.908 376.437 166.268C376.84 166.628 377.119 167.039 377.272 167.499C377.427 167.956 377.435 168.429 377.296 168.918L375.982 168.509Z" fill="white" fill-opacity="0.6"/>
</g>
<rect x="83.3917" y="0.625818" width="360" height="279" rx="23.5" transform="rotate(17.2566 83.3917 0.625818)" stroke="white" stroke-opacity="0.3"/>
<defs>
<filter id="filter1_i_5144_337" x="26.7539" y="92.6677" width="77.9219" height="154.631" filterUnits="userSpaceOnUse" color-interpolation-filters="sRGB">
<feFlood flood-opacity="0" result="BackgroundImageFix"/>
<feBlend mode="normal" in="SourceGraphic" in2="BackgroundImageFix" result="shape"/>
<feColorMatrix in="SourceAlpha" type="matrix" values="0 0 0 0 0 0 0 0 0 0 0 0 0 0 0 0 0 0 127 0" result="hardAlpha"/>
<feOffset dy="1"/>
<feGaussianBlur stdDeviation="0.5"/>
<feComposite in2="hardAlpha" operator="arithmetic" k2="-1" k3="1"/>
<feColorMatrix type="matrix" values="0 0 0 0 1 0 0 0 0 1 0 0 0 0 1 0 0 0 1 0"/>
<feBlend mode="normal" in2="shape" result="effect1_innerShadow_5144_337"/>
</filter>
<filter id="filter2_i_5144_337" x="33.1533" y="152.546" width="48.5107" height="87.3525" filterUnits="userSpaceOnUse" color-interpolation-filters="sRGB">
<feFlood flood-opacity="0" result="BackgroundImageFix"/>
<feBlend mode="normal" in="SourceGraphic" in2="BackgroundImageFix" result="shape"/>
<feColorMatrix in="SourceAlpha" type="matrix" values="0 0 0 0 0 0 0 0 0 0 0 0 0 0 0 0 0 0 127 0" result="hardAlpha"/>
<feOffset/>
<feGaussianBlur stdDeviation="0.5"/>
<feComposite in2="hardAlpha" operator="arithmetic" k2="-1" k3="1"/>
<feColorMatrix type="matrix" values="0 0 0 0 1 0 0 0 0 1 0 0 0 0 1 0 0 0 1 0"/>
<feBlend mode="normal" in2="shape" result="effect1_innerShadow_5144_337"/>
</filter>
<filter id="filter3_i_5144_337" x="73.5479" y="107.204" width="77.9219" height="154.631" filterUnits="userSpaceOnUse" color-interpolation-filters="sRGB">
<feFlood flood-opacity="0" result="BackgroundImageFix"/>
<feBlend mode="normal" in="SourceGraphic" in2="BackgroundImageFix" result="shape"/>
<feColorMatrix in="SourceAlpha" type="matrix" values="0 0 0 0 0 0 0 0 0 0 0 0 0 0 0 0 0 0 127 0" result="hardAlpha"/>
<feOffset dy="1"/>
<feGaussianBlur stdDeviation="0.5"/>
<feComposite in2="hardAlpha" operator="arithmetic" k2="-1" k3="1"/>
<feColorMatrix type="matrix" values="0 0 0 0 1 0 0 0 0 1 0 0 0 0 1 0 0 0 1 0"/>
<feBlend mode="normal" in2="shape" result="effect1_innerShadow_5144_337"/>
</filter>
<filter id="filter4_i_5144_337" x="79.9473" y="222.471" width="31.3052" height="31.9631" filterUnits="userSpaceOnUse" color-interpolation-filters="sRGB">
<feFlood flood-opacity="0" result="BackgroundImageFix"/>
<feBlend mode="normal" in="SourceGraphic" in2="BackgroundImageFix" result="shape"/>
<feColorMatrix in="SourceAlpha" type="matrix" values="0 0 0 0 0 0 0 0 0 0 0 0 0 0 0 0 0 0 127 0" result="hardAlpha"/>
<feOffset/>
<feGaussianBlur stdDeviation="0.5"/>
<feComposite in2="hardAlpha" operator="arithmetic" k2="-1" k3="1"/>
<feColorMatrix type="matrix" values="0 0 0 0 1 0 0 0 0 1 0 0 0 0 1 0 0 0 1 0"/>
<feBlend mode="normal" in2="shape" result="effect1_innerShadow_5144_337"/>
</filter>
<filter id="filter5_i_5144_337" x="120.342" y="121.74" width="77.9219" height="154.631" filterUnits="userSpaceOnUse" color-interpolation-filters="sRGB">
<feFlood flood-opacity="0" result="BackgroundImageFix"/>
<feBlend mode="normal" in="SourceGraphic" in2="BackgroundImageFix" result="shape"/>
<feColorMatrix in="SourceAlpha" type="matrix" values="0 0 0 0 0 0 0 0 0 0 0 0 0 0 0 0 0 0 127 0" result="hardAlpha"/>
<feOffset dy="1"/>
<feGaussianBlur stdDeviation="0.5"/>
<feComposite in2="hardAlpha" operator="arithmetic" k2="-1" k3="1"/>
<feColorMatrix type="matrix" values="0 0 0 0 1 0 0 0 0 1 0 0 0 0 1 0 0 0 1 0"/>
<feBlend mode="normal" in2="shape" result="effect1_innerShadow_5144_337"/>
</filter>
<filter id="filter6_i_5144_337" x="126.742" y="211.223" width="39.3145" height="57.7478" filterUnits="userSpaceOnUse" color-interpolation-filters="sRGB">
<feFlood flood-opacity="0" result="BackgroundImageFix"/>
<feBlend mode="normal" in="SourceGraphic" in2="BackgroundImageFix" result="shape"/>
<feColorMatrix in="SourceAlpha" type="matrix" values="0 0 0 0 0 0 0 0 0 0 0 0 0 0 0 0 0 0 127 0" result="hardAlpha"/>
<feOffset/>
<feGaussianBlur stdDeviation="0.5"/>
<feComposite in2="hardAlpha" operator="arithmetic" k2="-1" k3="1"/>
<feColorMatrix type="matrix" values="0 0 0 0 1 0 0 0 0 1 0 0 0 0 1 0 0 0 1 0"/>
<feBlend mode="normal" in2="shape" result="effect1_innerShadow_5144_337"/>
</filter>
<filter id="filter7_i_5144_337" x="167.137" y="136.275" width="77.9219" height="154.631" filterUnits="userSpaceOnUse" color-interpolation-filters="sRGB">
<feFlood flood-opacity="0" result="BackgroundImageFix"/>
<feBlend mode="normal" in="SourceGraphic" in2="BackgroundImageFix" result="shape"/>
<feColorMatrix in="SourceAlpha" type="matrix" values="0 0 0 0 0 0 0 0 0 0 0 0 0 0 0 0 0 0 127 0" result="hardAlpha"/>
<feOffset dy="1"/>
<feGaussianBlur stdDeviation="0.5"/>
<feComposite in2="hardAlpha" operator="arithmetic" k2="-1" k3="1"/>
<feColorMatrix type="matrix" values="0 0 0 0 1 0 0 0 0 1 0 0 0 0 1 0 0 0 1 0"/>
<feBlend mode="normal" in2="shape" result="effect1_innerShadow_5144_337"/>
</filter>
<filter id="filter8_i_5144_337" x="173.536" y="176.099" width="54.7407" height="107.407" filterUnits="userSpaceOnUse" color-interpolation-filters="sRGB">
<feFlood flood-opacity="0" result="BackgroundImageFix"/>
<feBlend mode="normal" in="SourceGraphic" in2="BackgroundImageFix" result="shape"/>
<feColorMatrix in="SourceAlpha" type="matrix" values="0 0 0 0 0 0 0 0 0 0 0 0 0 0 0 0 0 0 127 0" result="hardAlpha"/>
<feOffset/>
<feGaussianBlur stdDeviation="0.5"/>
<feComposite in2="hardAlpha" operator="arithmetic" k2="-1" k3="1"/>
<feColorMatrix type="matrix" values="0 0 0 0 1 0 0 0 0 1 0 0 0 0 1 0 0 0 1 0"/>
<feBlend mode="normal" in2="shape" result="effect1_innerShadow_5144_337"/>
</filter>
<filter id="filter9_i_5144_337" x="213.931" y="150.811" width="77.9219" height="154.631" filterUnits="userSpaceOnUse" color-interpolation-filters="sRGB">
<feFlood flood-opacity="0" result="BackgroundImageFix"/>
<feBlend mode="normal" in="SourceGraphic" in2="BackgroundImageFix" result="shape"/>
<feColorMatrix in="SourceAlpha" type="matrix" values="0 0 0 0 0 0 0 0 0 0 0 0 0 0 0 0 0 0 127 0" result="hardAlpha"/>
<feOffset dy="1"/>
<feGaussianBlur stdDeviation="0.5"/>
<feComposite in2="hardAlpha" operator="arithmetic" k2="-1" k3="1"/>
<feColorMatrix type="matrix" values="0 0 0 0 1 0 0 0 0 1 0 0 0 0 1 0 0 0 1 0"/>
<feBlend mode="normal" in2="shape" result="effect1_innerShadow_5144_337"/>
</filter>
<filter id="filter10_i_5144_337" x="220.331" y="236.475" width="40.5015" height="61.5679" filterUnits="userSpaceOnUse" color-interpolation-filters="sRGB">
<feFlood flood-opacity="0" result="BackgroundImageFix"/>
<feBlend mode="normal" in="SourceGraphic" in2="BackgroundImageFix" result="shape"/>
<feColorMatrix in="SourceAlpha" type="matrix" values="0 0 0 0 0 0 0 0 0 0 0 0 0 0 0 0 0 0 127 0" result="hardAlpha"/>
<feOffset/>
<feGaussianBlur stdDeviation="0.5"/>
<feComposite in2="hardAlpha" operator="arithmetic" k2="-1" k3="1"/>
<feColorMatrix type="matrix" values="0 0 0 0 1 0 0 0 0 1 0 0 0 0 1 0 0 0 1 0"/>
<feBlend mode="normal" in2="shape" result="effect1_innerShadow_5144_337"/>
</filter>
<filter id="filter11_i_5144_337" x="260.725" y="165.347" width="77.9219" height="154.631" filterUnits="userSpaceOnUse" color-interpolation-filters="sRGB">
<feFlood flood-opacity="0" result="BackgroundImageFix"/>
<feBlend mode="normal" in="SourceGraphic" in2="BackgroundImageFix" result="shape"/>
<feColorMatrix in="SourceAlpha" type="matrix" values="0 0 0 0 0 0 0 0 0 0 0 0 0 0 0 0 0 0 127 0" result="hardAlpha"/>
<feOffset dy="1"/>
<feGaussianBlur stdDeviation="0.5"/>
<feComposite in2="hardAlpha" operator="arithmetic" k2="-1" k3="1"/>
<feColorMatrix type="matrix" values="0 0 0 0 1 0 0 0 0 1 0 0 0 0 1 0 0 0 1 0"/>
<feBlend mode="normal" in2="shape" result="effect1_innerShadow_5144_337"/>
</filter>
<filter id="filter12_i_5144_337" x="267.125" y="213.766" width="52.0708" height="98.8123" filterUnits="userSpaceOnUse" color-interpolation-filters="sRGB">
<feFlood flood-opacity="0" result="BackgroundImageFix"/>
<feBlend mode="normal" in="SourceGraphic" in2="BackgroundImageFix" result="shape"/>
<feColorMatrix in="SourceAlpha" type="matrix" values="0 0 0 0 0 0 0 0 0 0 0 0 0 0 0 0 0 0 127 0" result="hardAlpha"/>
<feOffset/>
<feGaussianBlur stdDeviation="0.5"/>
<feComposite in2="hardAlpha" operator="arithmetic" k2="-1" k3="1"/>
<feColorMatrix type="matrix" values="0 0 0 0 1 0 0 0 0 1 0 0 0 0 1 0 0 0 1 0"/>
<feBlend mode="normal" in2="shape" result="effect1_innerShadow_5144_337"/>
</filter>
<filter id="filter13_i_5144_337" x="307.52" y="179.883" width="77.9219" height="154.631" filterUnits="userSpaceOnUse" color-interpolation-filters="sRGB">
<feFlood flood-opacity="0" result="BackgroundImageFix"/>
<feBlend mode="normal" in="SourceGraphic" in2="BackgroundImageFix" result="shape"/>
<feColorMatrix in="SourceAlpha" type="matrix" values="0 0 0 0 0 0 0 0 0 0 0 0 0 0 0 0 0 0 127 0" result="hardAlpha"/>
<feOffset dy="1"/>
<feGaussianBlur stdDeviation="0.5"/>
<feComposite in2="hardAlpha" operator="arithmetic" k2="-1" k3="1"/>
<feColorMatrix type="matrix" values="0 0 0 0 1 0 0 0 0 1 0 0 0 0 1 0 0 0 1 0"/>
<feBlend mode="normal" in2="shape" result="effect1_innerShadow_5144_337"/>
</filter>
<filter id="filter14_i_5144_337" x="313.919" y="213.977" width="56.5205" height="113.137" filterUnits="userSpaceOnUse" color-interpolation-filters="sRGB">
<feFlood flood-opacity="0" result="BackgroundImageFix"/>
<feBlend mode="normal" in="SourceGraphic" in2="BackgroundImageFix" result="shape"/>
<feColorMatrix in="SourceAlpha" type="matrix" values="0 0 0 0 0 0 0 0 0 0 0 0 0 0 0 0 0 0 127 0" result="hardAlpha"/>
<feOffset/>
<feGaussianBlur stdDeviation="0.5"/>
<feComposite in2="hardAlpha" operator="arithmetic" k2="-1" k3="1"/>
<feColorMatrix type="matrix" values="0 0 0 0 1 0 0 0 0 1 0 0 0 0 1 0 0 0 1 0"/>
<feBlend mode="normal" in2="shape" result="effect1_innerShadow_5144_337"/>
</filter>
<linearGradient id="paint0_linear_5144_337" x1="71.4556" y1="246.71" x2="77.1879" y2="139.731" gradientUnits="userSpaceOnUse">
<stop stop-color="#A055FD"/>
<stop offset="1" stop-color="#E24A9A"/>
</linearGradient>
<linearGradient id="paint1_linear_5144_337" x1="59.4023" y1="152.477" x2="78.1687" y2="156.838" gradientUnits="userSpaceOnUse">
<stop stop-color="white"/>
<stop offset="1" stop-color="white" stop-opacity="0"/>
</linearGradient>
<linearGradient id="paint2_linear_5144_337" x1="101.044" y1="253.441" x2="101.77" y2="215.309" gradientUnits="userSpaceOnUse">
<stop stop-color="#A055FD"/>
<stop offset="1" stop-color="#E24A9A"/>
</linearGradient>
<linearGradient id="paint3_linear_5144_337" x1="88.9907" y1="226.321" x2="98.1673" y2="236.185" gradientUnits="userSpaceOnUse">
<stop stop-color="white"/>
<stop offset="1" stop-color="white" stop-opacity="0"/>
</linearGradient>
<linearGradient id="paint4_linear_5144_337" x1="155.848" y1="271.61" x2="158.315" y2="201.365" gradientUnits="userSpaceOnUse">
<stop stop-color="#A055FD"/>
<stop offset="1" stop-color="#E24A9A"/>
</linearGradient>
<linearGradient id="paint5_linear_5144_337" x1="143.794" y1="213.248" x2="160.846" y2="220.068" gradientUnits="userSpaceOnUse">
<stop stop-color="white"/>
<stop offset="1" stop-color="white" stop-opacity="0"/>
</linearGradient>
<linearGradient id="paint6_linear_5144_337" x1="218.068" y1="293.143" x2="226.775" y2="161.4" gradientUnits="userSpaceOnUse">
<stop stop-color="#A055FD"/>
<stop offset="1" stop-color="#E24A9A"/>
</linearGradient>
<linearGradient id="paint7_linear_5144_337" x1="206.015" y1="174.611" x2="225.167" y2="178.078" gradientUnits="userSpaceOnUse">
<stop stop-color="white"/>
<stop offset="1" stop-color="white" stop-opacity="0"/>
</linearGradient>
<linearGradient id="paint8_linear_5144_337" x1="250.624" y1="301.22" x2="253.436" y2="226.226" gradientUnits="userSpaceOnUse">
<stop stop-color="#A055FD"/>
<stop offset="1" stop-color="#E24A9A"/>
</linearGradient>
<linearGradient id="paint9_linear_5144_337" x1="238.57" y1="238.229" x2="256.014" y2="244.613" gradientUnits="userSpaceOnUse">
<stop stop-color="white"/>
<stop offset="1" stop-color="white" stop-opacity="0"/>
</linearGradient>
<linearGradient id="paint10_linear_5144_337" x1="308.987" y1="321.004" x2="316.344" y2="199.86" gradientUnits="userSpaceOnUse">
<stop stop-color="#A055FD"/>
<stop offset="1" stop-color="#E24A9A"/>
</linearGradient>
<linearGradient id="paint11_linear_5144_337" x1="296.934" y1="212.885" x2="315.953" y2="216.689" gradientUnits="userSpaceOnUse">
<stop stop-color="white"/>
<stop offset="1" stop-color="white" stop-opacity="0"/>
</linearGradient>
<linearGradient id="paint12_linear_5144_337" x1="360.231" y1="337.558" x2="369.899" y2="198.76" gradientUnits="userSpaceOnUse">
<stop stop-color="#A055FD"/>
<stop offset="1" stop-color="#E24A9A"/>
</linearGradient>
<linearGradient id="paint13_linear_5144_337" x1="348.178" y1="212.083" x2="367.4" y2="215.357" gradientUnits="userSpaceOnUse">
<stop stop-color="white"/>
<stop offset="1" stop-color="white" stop-opacity="0"/>
</linearGradient>
<clipPath id="clip0_5144_337">
<rect x="83.0625" width="361" height="280" rx="24" transform="rotate(17.2566 83.0625 0)" fill="white"/>
</clipPath>
</defs>
</svg>
